<svg width="19" height="19" viewBox="0 0 19 19" fill="none" xmlns="http://www.w3.org/2000/svg">
<g clip-path="url(#clip0_7441_313)">
<path d="M2.8 16.8373V17.0373H2.80635C2.84066 17.685 3.04525 18.2139 3.43137 18.5894C3.85562 19.002 4.4689 19.2 5.22504 19.2H14.7691C15.5285 19.2 16.1435 19.0021 16.5687 18.5896C16.9949 18.1761 17.2 17.5765 17.2 16.8373V8.23193C17.2 7.95277 17.1696 7.72814 17.0869 7.52562C17.0038 7.32205 16.8745 7.15745 16.7043 6.98834L16.7043 6.98833L16.7026 6.98667L10.8216 1.28106L10.8215 1.28097C10.6467 1.11161 10.4789 0.985755 10.2701 0.906116C10.0635 0.827326 9.83291 0.8 9.54241 0.8H5.22389C4.47799 0.8 3.86529 0.996429 3.43875 1.4074C3.01099 1.81953 2.8 2.41888 2.8 3.16267V16.8373ZM16.0225 18.0428C15.7705 18.2879 15.386 18.4337 14.8433 18.4478H14.7551H5.24483C4.65534 18.4478 4.24089 18.2998 3.97356 18.0413C3.70741 17.7839 3.55511 17.3859 3.55511 16.817V3.18305C3.55511 2.63552 3.7066 2.234 3.9751 1.9687C4.24392 1.70309 4.65901 1.54535 5.24483 1.54535H9.48058L10.3852 2.1638L10.5532 2.28444L16.4379 8.05661V16.8181C16.4379 17.3876 16.287 17.7856 16.0225 18.0428Z" fill="#868F97" stroke="#868F97" stroke-width="0.4"/>
<path d="M16.9945 7.85714L9 1L10.4062 6.52344C10.6177 7.41258 11.1528 7.85651 12.0122 7.85651L16.9945 7.85714Z" fill="#868F97"/>
<path d="M11.4273 11.4222V10.4958C11.4273 9.94009 11.2464 9.46847 10.924 9.13521C10.6013 8.80168 10.1441 8.61436 9.6068 8.61436C9.0694 8.61436 8.61381 8.80171 8.29273 9.13541C7.97198 9.46877 7.7929 9.94036 7.7929 10.4958V11.4221C7.56131 11.4362 7.36986 11.5015 7.23267 11.6391C7.07628 11.7959 7.00937 12.0275 7.00937 12.3215V15.1652C7.00937 15.4592 7.07628 15.6904 7.23058 15.8471C7.38523 16.0042 7.60901 16.0675 7.87976 16.0675H11.3404C11.6112 16.0675 11.8349 16.0042 11.9896 15.8471C12.1439 15.6905 12.2108 15.4592 12.2108 15.1652V12.3215C12.2108 12.0274 12.1436 11.7958 11.9871 11.639C11.8498 11.5016 11.6585 11.4362 11.4273 11.4222ZM10.9128 10.5077V11.4192H8.30084V10.5077C8.30084 10.0839 8.43632 9.74042 8.66294 9.50357C8.88922 9.26706 9.2136 9.12924 9.6068 9.12924C10.0029 9.12924 10.3271 9.26715 10.5526 9.50347C10.7785 9.74019 10.9128 10.0836 10.9128 10.5077Z" fill="#868F97" stroke="#868F97" stroke-width="0.2"/>
</g>
<defs>
<clipPath id="clip0_7441_313">
<rect width="19" height="19" fill="white"/>
</clipPath>
</defs>
</svg>
