<svg width="15" height="15" viewBox="0 0 15 15" fill="none" xmlns="http://www.w3.org/2000/svg">
<path d="M0 11.25H3.75V15H3C1.34315 15 0 13.6569 0 12V11.25Z" fill="#868F97"/>
<path d="M3.75 5.625H0V9.375H3.75V5.625Z" fill="#868F97"/>
<path d="M0 3C0 1.34315 1.34315 0 3 0H3.75V3.75H0V3Z" fill="#868F97"/>
<path d="M5.625 0H12C13.6569 0 15 1.34315 15 3V9.375H5.625V0Z" fill="#868F97"/>
<path d="M9.375 11.25H5.625V15H9.375V11.25Z" fill="#868F97"/>
<path d="M11.25 11.25H15V12C15 13.6569 13.6569 15 12 15H11.25V11.25Z" fill="#868F97"/>
</svg>
