<svg width="19" height="19" viewBox="0 0 19 19" fill="none" xmlns="http://www.w3.org/2000/svg">
<path d="M16.8311 2.66956C16.8262 2.66956 16.8168 2.66819 16.8065 2.66264C16.7965 2.65723 16.7915 2.65102 16.7901 2.64904C16.7899 2.64883 16.7899 2.64871 16.7899 2.64871C16.7899 2.64872 16.7921 2.65253 16.7946 2.66208C16.7975 2.6732 16.8 2.69005 16.8 2.71324C16.8 2.74004 16.7972 2.7594 16.794 2.77225C16.7912 2.78363 16.7885 2.78811 16.7885 2.78811L16.7887 2.78787C16.79 2.78597 16.7952 2.77942 16.8057 2.77373C16.8164 2.76791 16.8261 2.76653 16.8311 2.76653V3.16653C16.952 3.16653 17.055 3.10797 17.1199 3.01214C17.1793 2.92435 17.2 2.81693 17.2 2.71324C17.2 2.61326 17.1789 2.50821 17.1194 2.42193C17.0549 2.32848 16.9526 2.26956 16.8311 2.26956V2.66956ZM16.8311 9.733C16.8262 9.733 16.8168 9.73163 16.8065 9.72607C16.7965 9.72067 16.7915 9.71446 16.7901 9.71248C16.7899 9.71226 16.7899 9.71215 16.7899 9.71215C16.7899 9.71215 16.7921 9.71597 16.7946 9.72552C16.7975 9.73664 16.8 9.75348 16.8 9.77667C16.8 9.79959 16.7975 9.81627 16.7946 9.82729C16.7921 9.83692 16.7897 9.84077 16.7897 9.84078C16.7897 9.84078 16.7898 9.84069 16.7899 9.84051C16.7911 9.83876 16.796 9.83274 16.8058 9.82741C16.816 9.82191 16.8255 9.82038 16.8311 9.82038V10.2204C16.9525 10.2204 17.0545 10.161 17.1187 10.0684C17.1783 9.98234 17.2 9.87735 17.2 9.77667C17.2 9.6767 17.1789 9.57164 17.1194 9.48537C17.0549 9.39192 16.9526 9.333 16.8311 9.333V9.733ZM16.8311 16.7965C16.8262 16.7965 16.8168 16.7951 16.8065 16.7895C16.7965 16.7841 16.7915 16.7779 16.7901 16.776C16.79 16.7757 16.7899 16.7756 16.7899 16.7756C16.7899 16.7756 16.7922 16.7794 16.7946 16.789C16.7975 16.8001 16.8 16.8169 16.8 16.8401C16.8 16.863 16.7974 16.8797 16.7946 16.8907C16.7927 16.8978 16.791 16.9018 16.7902 16.9034C16.7897 16.9043 16.7896 16.9044 16.7899 16.9039C16.7911 16.9022 16.796 16.8961 16.8058 16.8908C16.816 16.8853 16.8255 16.8838 16.8311 16.8838V17.2838C16.9525 17.2838 17.0544 17.2245 17.1187 17.1318C17.1783 17.0458 17.2 16.9408 17.2 16.8401C17.2 16.7401 17.1789 16.6351 17.1194 16.5488C17.0549 16.4554 16.9526 16.3965 16.8311 16.3965V16.7965ZM1.50768 1.8C1.28642 1.8 1.10545 1.93211 0.988449 2.0964C0.87002 2.2627 0.8 2.48218 0.8 2.7134C0.8 2.94848 0.869494 3.17023 0.987947 3.3381C1.10504 3.50404 1.28617 3.63641 1.50768 3.63641H2.7119C2.93666 3.63641 3.11685 3.50409 3.23226 3.336C3.34812 3.16726 3.41291 2.94591 3.41291 2.7134C3.41291 2.48477 3.34764 2.26571 3.23177 2.0985C3.11643 1.93205 2.93642 1.8 2.7119 1.8H1.50768ZM1.50768 8.86344C1.28855 8.86344 1.10731 8.99087 0.988959 9.15552C0.869615 9.32155 0.8 9.54158 0.8 9.77683C0.8 10.0121 0.869616 10.2321 0.988955 10.3982C1.1073 10.5628 1.28854 10.6903 1.50768 10.6903H2.7119C2.93426 10.6903 3.1146 10.5629 3.23128 10.3961C3.34802 10.2291 3.41291 10.0095 3.41291 9.77683C3.41291 9.54417 3.34802 9.32454 3.23128 9.15762C3.11459 8.99079 2.93425 8.86344 2.7119 8.86344H1.50768ZM1.50768 15.9269C1.28856 15.9269 1.10732 16.0543 0.988965 16.219C0.869617 16.385 0.8 16.605 0.8 16.8402C0.8 17.0755 0.869612 17.2956 0.98896 17.4616C1.10731 17.6263 1.28856 17.7537 1.50768 17.7537H2.7119C2.93424 17.7537 3.11459 17.6263 3.23127 17.4595C3.34803 17.2926 3.41291 17.0729 3.41291 16.8402C3.41291 16.6076 3.34802 16.388 3.23127 16.2211C3.11458 16.0542 2.93424 15.9269 2.7119 15.9269H1.50768Z" fill="#868F97" stroke="#868F97" stroke-width="0.4"/>
<path d="M6.04386 2.26973C5.92367 2.26973 5.82144 2.32758 5.75655 2.42077C5.69652 2.50699 5.675 2.61236 5.675 2.7134C5.675 2.81601 5.69525 2.92312 5.75417 3.01096C5.81861 3.10706 5.92171 3.1667 6.04386 3.1667H17.8316C17.9524 3.1667 18.0555 3.10814 18.1204 3.01231C18.1798 2.92452 18.2005 2.81709 18.2005 2.7134C18.2005 2.61343 18.1793 2.50837 18.1198 2.4221C18.0554 2.32865 17.9531 2.26973 17.8316 2.26973H6.04386ZM6.04386 9.33316C5.92367 9.33316 5.82144 9.39102 5.75655 9.48421C5.69652 9.57043 5.675 9.6758 5.675 9.77684C5.675 9.87681 5.69613 9.98187 5.75562 10.0681C5.82006 10.1616 5.92235 10.2205 6.04386 10.2205H17.8316C17.953 10.2205 18.0549 10.1612 18.1191 10.0685C18.1788 9.98251 18.2005 9.87751 18.2005 9.77684C18.2005 9.67686 18.1793 9.57181 18.1198 9.48554C18.0554 9.39208 17.9531 9.33316 17.8316 9.33316H6.04386ZM6.04386 16.3966C5.92368 16.3966 5.82146 16.4545 5.75657 16.5476C5.69653 16.6339 5.675 16.7392 5.675 16.8402C5.675 16.9402 5.69613 17.0453 5.75563 17.1316C5.82009 17.225 5.92239 17.284 6.04386 17.284H17.8316C17.953 17.284 18.0549 17.2246 18.1191 17.132C18.1788 17.0459 18.2005 16.9409 18.2005 16.8402C18.2005 16.7403 18.1793 16.6352 18.1198 16.549C18.0554 16.4555 17.9531 16.3966 17.8316 16.3966H6.04386Z" fill="#868F97" stroke="#868F97" stroke-width="0.4"/>
</svg>
