<svg width="19" height="19" viewBox="0 0 19 19" fill="none" xmlns="http://www.w3.org/2000/svg">
<g clip-path="url(#clip0_7444_331)">
<path d="M0.80128 6.16341V6.64632L0.953358 6.49421C1.0241 6.5479 1.10999 6.57127 1.19656 6.57127C1.30471 6.57127 1.41178 6.5348 1.48961 6.44831C1.56464 6.36494 1.59056 6.25942 1.59056 6.16214V3.45737C1.59056 2.81022 1.75767 2.35171 2.05478 2.05403C2.35183 1.75643 2.8107 1.58767 3.46209 1.58767H6.16923C6.26648 1.58767 6.372 1.56181 6.45541 1.48688C6.54198 1.40911 6.57855 1.30205 6.57855 1.19384C6.57855 1.08563 6.54198 0.978566 6.45541 0.900796C6.372 0.825865 6.26648 0.8 6.16923 0.8H3.43911C2.60888 0.8 1.94106 1.0204 1.4815 1.47955C1.02192 1.93873 0.80128 2.60607 0.80128 3.43569V6.16341ZM0.80128 13.3366V15.5759L0.8 15.5746V16.063C0.8 16.8926 1.02064 17.56 1.48023 18.0191C1.93978 18.4783 2.60761 18.6987 3.43783 18.6987H6.16795C6.26521 18.6987 6.37072 18.6728 6.45413 18.5979C6.54069 18.5202 6.57728 18.4131 6.57728 18.3049C6.57728 18.1967 6.54072 18.0896 6.4541 18.0118C6.37066 17.9369 6.26514 17.9111 6.16795 17.9111H3.46081C2.80887 17.9111 2.35013 17.7439 2.05332 17.4474C1.75653 17.1509 1.58929 16.6926 1.58929 16.0414V13.3366C1.58929 13.2393 1.56336 13.1338 1.48832 13.0504C1.41049 12.964 1.30342 12.9275 1.19528 12.9275C1.08714 12.9275 0.980072 12.964 0.902238 13.0504C0.827204 13.1338 0.80128 13.2393 0.80128 13.3366ZM17.9274 6.16341V6.24721L17.9368 6.25649C17.9494 6.32516 17.9778 6.39328 18.0296 6.45085C18.1075 6.53736 18.2145 6.57383 18.3227 6.57383C18.4308 6.57383 18.5379 6.53734 18.6157 6.45088C18.6907 6.36752 18.7167 6.26201 18.7167 6.16469V3.43697C18.7167 2.62172 18.4956 1.95541 18.0382 1.49313C17.5805 1.03048 16.915 0.80128 16.0865 0.80128H13.3564C13.2591 0.80128 13.1536 0.827127 13.0702 0.902091C12.9836 0.979891 12.9471 1.08697 12.9471 1.19511C12.9471 1.30325 12.9836 1.41033 13.0702 1.48813C13.1536 1.5631 13.2591 1.58895 13.3564 1.58895H16.0559C16.6792 1.58895 17.1399 1.75677 17.4449 2.05663C17.7492 2.35592 17.9274 2.81527 17.9274 3.45865V6.16341ZM13.0706 18.0111C13.0083 18.0668 12.972 18.1375 12.9563 18.2128L12.9458 18.2234V18.3062C12.9458 18.4144 12.9824 18.5215 13.0689 18.5992C13.1523 18.6741 13.2578 18.7 13.3551 18.7H16.0852C16.9136 18.7 17.5791 18.4712 18.0369 18.0087C18.4943 17.5465 18.7154 16.8802 18.7154 16.0643V13.3366C18.7154 13.2393 18.6894 13.1338 18.6144 13.0504C18.5366 12.964 18.4295 12.9275 18.3214 12.9275C18.2133 12.9275 18.1062 12.964 18.0283 13.0505C17.9533 13.1338 17.9274 13.2394 17.9274 13.3366V16.0414C17.9274 16.6889 17.7491 17.1479 17.4451 17.4461C17.1404 17.7449 16.6798 17.9111 16.0559 17.9111H13.3564C13.2601 17.9111 13.1544 17.9362 13.0706 18.0111Z" fill="#868F97" stroke="#868F97" stroke-width="0.4"/>
<path fill-rule="evenodd" clip-rule="evenodd" d="M12.88 6.81374C12.88 8.20374 11.9904 9.3387 10.3529 9.93678L11.8334 11.4237C11.8781 11.499 11.8858 11.5653 11.8487 11.6252L10.3975 13.0446L11.4888 14.1349C11.5488 14.1948 11.5488 14.2624 11.4888 14.3147L9.88829 15.8909C9.79895 15.9725 9.74661 15.9801 9.66365 15.8909L8.8404 15.0837C8.7651 14.9944 8.72809 14.8975 8.72809 14.8299V9.76335C7.47215 9.32212 6.67188 8.16421 6.67188 6.81246C6.67188 5.10876 8.04779 3.71875 9.78363 3.71875C11.5041 3.71875 12.88 5.11641 12.88 6.81246V6.81374ZM9.78363 7.15678C9.25267 7.15678 8.82636 6.73085 8.82636 6.21566C8.82636 5.68516 9.23735 5.25923 9.78363 5.25923C10.3069 5.25923 10.7256 5.68516 10.7256 6.21566C10.7256 6.73085 10.3069 7.15678 9.78363 7.15678Z" fill="#868F97"/>
</g>
<defs>
<clipPath id="clip0_7444_331">
<rect width="19" height="19" fill="white"/>
</clipPath>
</defs>
</svg>
