<svg width="50" height="50" viewBox="0 0 50 50" fill="none" xmlns="http://www.w3.org/2000/svg">
<g clip-path="url(#clip0_607_304)">
<path d="M25 20.2619C23.77 20.2619 22.73 20.9319 22.73 22.2319C22.73 22.8519 23.02 23.3219 23.46 23.6219C22.85 23.9819 22.5 24.5619 22.5 25.2419C22.5 26.4819 23.45 27.2519 25 27.2519C26.54 27.2519 27.5 26.4819 27.5 25.2419C27.5 24.5619 27.15 23.9719 26.53 23.6219C26.98 23.3119 27.26 22.8519 27.26 22.2319C27.26 20.9319 26.23 20.2619 25 20.2619ZM25 23.1019C24.48 23.1019 24.1 22.7919 24.1 22.3019C24.1 21.8019 24.48 21.5119 25 21.5119C25.52 21.5119 25.9 21.8019 25.9 22.3019C25.9 22.7919 25.52 23.1019 25 23.1019ZM25 26.0119C24.34 26.0119 23.86 25.6819 23.86 25.0819C23.86 24.4819 24.34 24.1619 25 24.1619C25.66 24.1619 26.14 24.4919 26.14 25.0819C26.14 25.6819 25.66 26.0119 25 26.0119Z" fill="white"/>
<path d="M16 29.5051L34 29.5051M20.0303 17.9821V15.0288M29.9897 17.9821V15.0288M18 34.5H32C33.1046 34.5 34 33.6046 34 32.5V19C34 17.8954 33.1046 17 32 17H18C16.8954 17 16 17.8954 16 19V32.5C16 33.6046 16.8954 34.5 18 34.5Z" stroke="white" stroke-width="1.5" stroke-linecap="round" stroke-linejoin="round"/>
</g>
<defs>
<clipPath id="clip0_607_304">
<rect width="24" height="24" fill="white" transform="translate(13 13)"/>
</clipPath>
</defs>
</svg>
