<svg width="50" height="50" viewBox="0 0 50 50" fill="none" xmlns="http://www.w3.org/2000/svg">
<g clip-path="url(#clip0_607_304)">
<path d="M24.0185 15.763C24.6259 15.4123 25.3741 15.4123 25.9815 15.763L32.5185 19.5371C33.1259 19.8878 33.5 20.5358 33.5 21.2371V28.7854C33.5 29.4867 33.1259 30.1348 32.5185 30.4854L25.9815 34.2596C25.3741 34.6102 24.6259 34.6102 24.0185 34.2596L17.4815 30.4854C16.8741 30.1348 16.5 29.4867 16.5 28.7854V21.2371C16.5 20.5358 16.8741 19.8878 17.4815 19.5371L24.0185 15.763Z" stroke="white" stroke-width="1.5"/>
<path d="M28.9042 25.0113C28.9042 27.1675 27.1562 28.9155 25 28.9155C22.8438 28.9155 21.0958 27.1675 21.0958 25.0113C21.0958 22.8551 22.8438 21.1071 25 21.1071C27.1562 21.1071 28.9042 22.8551 28.9042 25.0113Z" stroke="white" stroke-width="1.5"/>
</g>
<defs>
<clipPath id="clip0_607_304">
<rect width="24" height="24" fill="white" transform="translate(13 13)"/>
</clipPath>
</defs>
</svg>
