<svg width="372" height="202" viewBox="0 0 372 202" fill="none" xmlns="http://www.w3.org/2000/svg">
<rect y="1" width="371.694" height="200" fill="#1E1C27"/>
<path d="M316.633 88.7739L317.797 90.6783H317.835L319.001 88.7739H319.852L318.335 91.2083L319.861 93.6431H319.005L317.835 91.7646H317.797L316.628 93.6431H315.772L317.324 91.2083L315.781 88.7739H316.633Z" fill="url(#paint0_linear_179_500)"/>
<path d="M276.195 168.125L277.55 172.09H277.605L278.96 168.125H279.754L278.001 172.994H277.153L275.4 168.125H276.195Z" fill="url(#paint1_linear_179_500)"/>
<path d="M279.601 150.285H278.86C278.831 150.126 278.778 149.987 278.701 149.866C278.623 149.746 278.528 149.644 278.415 149.56C278.302 149.476 278.177 149.412 278.037 149.369C277.899 149.327 277.753 149.305 277.597 149.305C277.317 149.305 277.065 149.376 276.844 149.517C276.623 149.658 276.449 149.865 276.321 150.137C276.194 150.41 276.13 150.743 276.13 151.136C276.13 151.532 276.194 151.866 276.321 152.139C276.449 152.412 276.624 152.618 276.846 152.757C277.068 152.897 277.317 152.967 277.595 152.967C277.749 152.967 277.895 152.946 278.032 152.905C278.172 152.862 278.298 152.799 278.411 152.717C278.523 152.634 278.618 152.534 278.696 152.415C278.775 152.295 278.83 152.157 278.86 152.001L279.601 152.004C279.562 152.243 279.485 152.463 279.371 152.664C279.258 152.864 279.113 153.037 278.936 153.183C278.76 153.327 278.559 153.439 278.332 153.518C278.105 153.597 277.858 153.637 277.59 153.637C277.168 153.637 276.793 153.537 276.463 153.337C276.134 153.136 275.874 152.848 275.683 152.474C275.495 152.1 275.4 151.654 275.4 151.136C275.4 150.616 275.496 150.17 275.686 149.797C275.876 149.423 276.136 149.136 276.466 148.937C276.795 148.735 277.17 148.635 277.59 148.635C277.849 148.635 278.089 148.672 278.313 148.747C278.538 148.819 278.74 148.927 278.919 149.07C279.098 149.211 279.246 149.384 279.364 149.588C279.481 149.791 279.561 150.023 279.601 150.285Z" fill="url(#paint2_linear_179_500)"/>
<path d="M235.493 134.014V129.145H237.276C237.622 129.145 237.908 129.202 238.134 129.316C238.361 129.429 238.531 129.582 238.644 129.775C238.756 129.967 238.812 130.183 238.812 130.424C238.812 130.627 238.775 130.798 238.701 130.938C238.626 131.075 238.526 131.186 238.401 131.27C238.277 131.353 238.141 131.413 237.992 131.451V131.499C238.153 131.507 238.311 131.559 238.465 131.655C238.62 131.751 238.749 131.886 238.85 132.062C238.952 132.238 239.002 132.452 239.002 132.704C239.002 132.953 238.944 133.177 238.826 133.375C238.711 133.571 238.532 133.727 238.289 133.843C238.047 133.957 237.737 134.014 237.36 134.014H235.493ZM236.228 133.384H237.288C237.64 133.384 237.892 133.316 238.044 133.179C238.197 133.043 238.273 132.873 238.273 132.668C238.273 132.515 238.234 132.374 238.156 132.245C238.078 132.117 237.967 132.015 237.823 131.939C237.681 131.862 237.511 131.824 237.315 131.824H236.228V133.384ZM236.228 131.251H237.212C237.377 131.251 237.525 131.22 237.657 131.156C237.79 131.093 237.895 131.004 237.973 130.89C238.052 130.774 238.092 130.638 238.092 130.481C238.092 130.28 238.021 130.111 237.88 129.975C237.739 129.838 237.523 129.77 237.231 129.77H236.228V131.251Z" fill="url(#paint3_linear_179_500)"/>
<path d="M216.004 175.778V170.909H216.738V173.234H216.798L218.84 170.909H219.765L217.801 173.101L219.772 175.778H218.888L217.314 173.602L216.738 174.263V175.778H216.004Z" fill="url(#paint4_linear_179_500)"/>
<path d="M295.818 168.588H296.653L297.925 170.802H297.977L299.249 168.588H300.084L298.317 171.546V173.458H297.585V171.546L295.818 168.588Z" fill="url(#paint5_linear_179_500)"/>
<path d="M237.44 71.7133H238.163L238.672 72.3769L238.912 72.6715L239.723 73.7295H238.972L238.43 73.0233L238.244 72.7667L237.44 71.7133ZM239.88 70.8576C239.88 71.3773 239.785 71.8242 239.594 72.1982C239.404 72.5708 239.143 72.8576 238.812 73.059C238.482 73.259 238.108 73.3588 237.688 73.3588C237.266 73.3588 236.889 73.259 236.559 73.059C236.229 72.8576 235.969 72.5699 235.779 72.1959C235.588 71.8219 235.493 71.3759 235.493 70.8576C235.493 70.3379 235.588 69.8915 235.779 69.5189C235.969 69.1448 236.229 68.8581 236.559 68.6585C236.889 68.4571 237.266 68.3564 237.688 68.3564C238.108 68.3564 238.482 68.4571 238.812 68.6585C239.143 68.8581 239.404 69.1448 239.594 69.5189C239.785 69.8915 239.88 70.3379 239.88 70.8576ZM239.152 70.8576C239.152 70.4613 239.088 70.1277 238.96 69.8567C238.833 69.5838 238.658 69.3778 238.437 69.2386C238.216 69.0975 237.966 69.027 237.688 69.027C237.407 69.027 237.157 69.0975 236.936 69.2386C236.716 69.3778 236.542 69.5838 236.413 69.8567C236.287 70.1277 236.223 70.4613 236.223 70.8576C236.223 71.2539 236.287 71.588 236.413 71.8609C236.542 72.1319 236.716 72.3379 236.936 72.479C237.157 72.6186 237.407 72.6882 237.688 72.6882C237.966 72.6882 238.216 72.6186 238.437 72.479C238.658 72.3379 238.833 72.1319 238.96 71.8609C239.088 71.588 239.152 71.2539 239.152 70.8576Z" fill="url(#paint6_linear_179_500)"/>
<path d="M255.911 73.2256V68.3564H257.694C258.039 68.3564 258.326 68.4135 258.552 68.5277C258.779 68.64 258.948 68.7931 259.061 68.9866C259.174 69.1783 259.23 69.3945 259.23 69.6353C259.23 69.8386 259.193 70.0093 259.118 70.149C259.044 70.2868 258.944 70.3977 258.819 70.4817C258.695 70.5643 258.559 70.6247 258.41 70.6627V70.71C258.571 70.7179 258.729 70.7704 258.883 70.8669C259.038 70.962 259.167 71.0975 259.268 71.2734C259.369 71.4497 259.42 71.6636 259.42 71.9156C259.42 72.1643 259.361 72.388 259.244 72.5861C259.129 72.7824 258.949 72.9388 258.707 73.0544C258.464 73.1685 258.155 73.2256 257.777 73.2256H255.911ZM256.645 72.5954H257.706C258.058 72.5954 258.31 72.5272 258.462 72.3908C258.614 72.2548 258.69 72.0845 258.69 71.8799C258.69 71.7263 258.651 71.5852 258.574 71.4567C258.496 71.3281 258.385 71.226 258.241 71.1499C258.098 71.0738 257.929 71.0358 257.732 71.0358H256.645V72.5954ZM256.645 70.4627H257.63C257.795 70.4627 257.943 70.4312 258.075 70.3676C258.208 70.3045 258.313 70.2158 258.391 70.1017C258.47 69.9857 258.51 69.8497 258.51 69.6924C258.51 69.4915 258.439 69.3226 258.298 69.1861C258.157 69.0497 257.941 68.9815 257.649 68.9815H256.645V70.4627Z" fill="url(#paint7_linear_179_500)"/>
<path d="M235.957 88.4782V87.8457H239.726V88.4782H238.206V92.7148H237.474V88.4782H235.957Z" fill="url(#paint8_linear_179_500)"/>
<path d="M316.102 109.191L317.457 113.157H317.512L318.867 109.191H319.661L317.909 114.061H317.06L315.308 109.191H316.102Z" fill="url(#paint9_linear_179_500)"/>
<path d="M337.582 113.597V108.728H340.601V109.36H338.316V110.844H340.385V111.474H338.316V113.597H337.582Z" fill="url(#paint10_linear_179_500)"/>
<path d="M297.765 91.6669H298.488L298.997 92.3305L299.237 92.6251L300.048 93.6831H299.297L298.755 92.9769L298.569 92.7203L297.765 91.6669ZM300.205 90.8112C300.205 91.3309 300.11 91.7778 299.919 92.1518C299.729 92.5244 299.468 92.8112 299.137 93.0126C298.807 93.2126 298.433 93.3124 298.013 93.3124C297.591 93.3124 297.214 93.2126 296.884 93.0126C296.554 92.8112 296.294 92.5235 296.104 92.1495C295.913 91.7755 295.818 91.3295 295.818 90.8112C295.818 90.2915 295.913 89.8451 296.104 89.4725C296.294 89.0985 296.554 88.8117 296.884 88.6121C297.214 88.4108 297.591 88.3101 298.013 88.3101C298.433 88.3101 298.807 88.4108 299.137 88.6121C299.468 88.8117 299.729 89.0985 299.919 89.4725C300.11 89.8451 300.205 90.2915 300.205 90.8112ZM299.477 90.8112C299.477 90.4149 299.413 90.0813 299.284 89.8103C299.158 89.5374 298.983 89.3314 298.762 89.1922C298.541 89.0511 298.291 88.9806 298.013 88.9806C297.732 88.9806 297.482 89.0511 297.261 89.1922C297.041 89.3314 296.867 89.5374 296.738 89.8103C296.612 90.0813 296.548 90.4149 296.548 90.8112C296.548 91.2075 296.612 91.5416 296.738 91.8145C296.867 92.0855 297.041 92.2915 297.261 92.4326C297.482 92.5722 297.732 92.6418 298.013 92.6418C298.291 92.6418 298.541 92.5722 298.762 92.4326C298.983 92.2915 299.158 92.0855 299.284 91.8145C299.413 91.5416 299.477 91.2075 299.477 90.8112Z" fill="url(#paint11_linear_179_500)"/>
<path d="M316.236 74.1533V69.2842H317.971C318.35 69.2842 318.664 69.3533 318.913 69.4911C319.162 69.629 319.348 69.8174 319.472 70.0568C319.595 70.2944 319.657 70.5626 319.657 70.8605C319.657 71.1598 319.595 71.4294 319.469 71.6689C319.346 71.9065 319.159 72.0953 318.908 72.2345C318.66 72.3723 318.346 72.4415 317.969 72.4415H316.776V71.8187H317.903C318.142 71.8187 318.336 71.7775 318.485 71.6949C318.634 71.6109 318.744 71.4967 318.813 71.3524C318.883 71.2085 318.918 71.0443 318.918 70.8605C318.918 70.6768 318.883 70.5134 318.813 70.3705C318.744 70.228 318.633 70.1162 318.483 70.0355C318.334 69.9547 318.137 69.9143 317.893 69.9143H316.97V74.1533H316.236Z" fill="url(#paint12_linear_179_500)"/>
<path d="M256.227 113.597H255.447L257.199 108.728H258.048L259.8 113.597H259.02L257.644 109.612H257.605L256.227 113.597ZM256.358 111.69H258.887V112.308H256.358V111.69Z" fill="url(#paint13_linear_179_500)"/>
<path d="M296.241 113.597L294.89 108.728H295.663L296.612 112.498H296.657L297.643 108.728H298.409L299.395 112.501H299.441L300.387 108.728H301.162L299.809 113.597H299.07L298.045 109.949H298.007L296.982 113.597H296.241Z" fill="url(#paint14_linear_179_500)"/>
<path d="M127.873 200.774H107.896V180.796H127.873V200.774Z" stroke="#414141" stroke-opacity="0.07" stroke-width="1.16139"/>
<path d="M227.781 200.774H207.803V180.796H227.781V200.774Z" stroke="#414141" stroke-opacity="0.07" stroke-width="1.16139"/>
<path d="M327.667 200.774H307.689V180.796H327.667V200.774Z" stroke="#414141" stroke-opacity="0.07" stroke-width="1.16139"/>
<path d="M127.873 180.798H107.896V160.82H127.873V180.798Z" stroke="#414141" stroke-opacity="0.07" stroke-width="1.16139"/>
<path d="M27.986 180.798H8.0083V160.82H27.986V180.798Z" stroke="#414141" stroke-opacity="0.07" stroke-width="1.16139"/>
<path d="M227.781 180.798H207.803V160.82H227.781V180.798Z" stroke="#414141" stroke-opacity="0.07" stroke-width="1.16139"/>
<path d="M327.667 180.798H307.689V160.82H327.667V180.798Z" stroke="#414141" stroke-opacity="0.07" stroke-width="1.16139"/>
<path d="M147.849 200.774H127.871V180.796H147.849V200.774Z" stroke="#414141" stroke-opacity="0.07" stroke-width="1.16139"/>
<path d="M47.9624 200.774H27.9851V180.796H47.9624V200.774Z" stroke="#414141" stroke-opacity="0.07" stroke-width="1.16139"/>
<path d="M247.758 200.774H227.781V180.796H247.758V200.774Z" stroke="#414141" stroke-opacity="0.07" stroke-width="1.16139"/>
<path d="M347.646 200.774H327.668V180.796H347.646V200.774Z" stroke="#414141" stroke-opacity="0.07" stroke-width="1.16139"/>
<path d="M147.849 180.798H127.871V160.82H147.849V180.798Z" stroke="#414141" stroke-opacity="0.07" stroke-width="1.16139"/>
<path d="M47.9624 180.798H27.9851V160.82H47.9624V180.798Z" stroke="#414141" stroke-opacity="0.07" stroke-width="1.16139"/>
<path d="M247.758 180.798H227.781V160.82H247.758V180.798Z" stroke="#414141" stroke-opacity="0.07" stroke-width="1.16139"/>
<path d="M347.646 180.798H327.668V160.82H347.646V180.798Z" stroke="#414141" stroke-opacity="0.07" stroke-width="1.16139"/>
<path d="M167.827 200.774H147.85V180.796H167.827V200.774Z" stroke="#414141" stroke-opacity="0.07" stroke-width="1.16139"/>
<path d="M67.9401 200.774H47.9624V180.796H67.9401V200.774Z" stroke="#414141" stroke-opacity="0.07" stroke-width="1.16139"/>
<path d="M267.736 200.774H247.758V180.796H267.736V200.774Z" stroke="#414141" stroke-opacity="0.07" stroke-width="1.16139"/>
<path d="M167.827 180.798H147.85V160.82H167.827V180.798Z" stroke="#414141" stroke-opacity="0.07" stroke-width="1.16139"/>
<path d="M67.9401 180.798H47.9624V160.82H67.9401V180.798Z" stroke="#414141" stroke-opacity="0.07" stroke-width="1.16139"/>
<path d="M267.736 180.798H247.758V160.82H267.736V180.798Z" stroke="#414141" stroke-opacity="0.07" stroke-width="1.16139"/>
<path d="M187.805 200.774H167.827V180.796H187.805V200.774Z" stroke="#414141" stroke-opacity="0.07" stroke-width="1.16139"/>
<path d="M87.917 200.774H67.9397V180.796H87.917V200.774Z" stroke="#414141" stroke-opacity="0.07" stroke-width="1.16139"/>
<path d="M187.805 180.798H167.827V160.82H187.805V180.798Z" stroke="#414141" stroke-opacity="0.07" stroke-width="1.16139"/>
<path d="M87.917 180.798H67.9397V160.82H87.917V180.798Z" stroke="#414141" stroke-opacity="0.07" stroke-width="1.16139"/>
<path d="M287.714 180.798H267.736V160.82H287.714V180.798Z" stroke="#414141" stroke-opacity="0.07" stroke-width="1.16139"/>
<path d="M207.783 200.774H187.806V180.796H207.783V200.774Z" stroke="#414141" stroke-opacity="0.07" stroke-width="1.16139"/>
<path d="M107.897 200.774H87.9189V180.796H107.897V200.774Z" stroke="#414141" stroke-opacity="0.07" stroke-width="1.16139"/>
<path d="M307.693 200.774H287.716V180.796H307.693V200.774Z" stroke="#414141" stroke-opacity="0.07" stroke-width="1.16139"/>
<path d="M207.783 180.798H187.806V160.82H207.783V180.798Z" stroke="#414141" stroke-opacity="0.07" stroke-width="1.16139"/>
<path d="M107.897 180.798H87.9189V160.82H107.897V180.798Z" stroke="#414141" stroke-opacity="0.07" stroke-width="1.16139"/>
<path d="M307.693 180.798H287.716V160.82H307.693V180.798Z" stroke="#414141" stroke-opacity="0.07" stroke-width="1.16139"/>
<path d="M127.873 160.82H107.896V140.842H127.873V160.82Z" stroke="#414141" stroke-opacity="0.07" stroke-width="1.16139"/>
<path d="M27.986 160.82H8.0083V140.842H27.986V160.82Z" stroke="#414141" stroke-opacity="0.07" stroke-width="1.16139"/>
<path d="M227.781 160.82H207.803V140.842H227.781V160.82Z" stroke="#414141" stroke-opacity="0.07" stroke-width="1.16139"/>
<path d="M327.667 160.82H307.689V140.842H327.667V160.82Z" stroke="#414141" stroke-opacity="0.07" stroke-width="1.16139"/>
<path d="M127.873 140.842H107.896V120.864H127.873V140.842Z" stroke="#414141" stroke-opacity="0.07" stroke-width="1.16139"/>
<path d="M27.986 140.842H8.0083V120.864H27.986V140.842Z" stroke="#414141" stroke-opacity="0.07" stroke-width="1.16139"/>
<path d="M227.781 140.842H207.803V120.864H227.781V140.842Z" stroke="#414141" stroke-opacity="0.07" stroke-width="1.16139"/>
<path d="M147.849 160.82H127.871V140.842H147.849V160.82Z" stroke="#414141" stroke-opacity="0.07" stroke-width="1.16139"/>
<path d="M47.9624 160.82H27.9851V140.842H47.9624V160.82Z" stroke="#414141" stroke-opacity="0.07" stroke-width="1.16139"/>
<path d="M247.758 160.82H227.781V140.842H247.758V160.82Z" stroke="#414141" stroke-opacity="0.07" stroke-width="1.16139"/>
<path d="M347.646 160.82H327.668V140.842H347.646V160.82Z" stroke="#414141" stroke-opacity="0.07" stroke-width="1.16139"/>
<path d="M47.9624 140.842H27.9851V120.864H47.9624V140.842Z" stroke="#414141" stroke-opacity="0.07" stroke-width="1.16139"/>
<path d="M247.758 140.842H227.781V120.864H247.758V140.842Z" stroke="#414141" stroke-opacity="0.07" stroke-width="1.16139"/>
<path d="M167.827 160.82H147.85V140.842H167.827V160.82Z" stroke="#414141" stroke-opacity="0.07" stroke-width="1.16139"/>
<path d="M67.9401 160.82H47.9624V140.842H67.9401V160.82Z" stroke="#414141" stroke-opacity="0.07" stroke-width="1.16139"/>
<path d="M267.736 160.82H247.758V140.842H267.736V160.82Z" stroke="#414141" stroke-opacity="0.07" stroke-width="1.16139"/>
<path d="M367.623 160.82H347.646V140.842H367.623V160.82Z" stroke="#414141" stroke-opacity="0.07" stroke-width="1.16139"/>
<path d="M167.827 140.842H147.85V120.864H167.827V140.842Z" stroke="#414141" stroke-opacity="0.07" stroke-width="1.16139"/>
<path d="M67.9401 140.842H47.9624V120.864H67.9401V140.842Z" stroke="#414141" stroke-opacity="0.07" stroke-width="1.16139"/>
<path d="M267.736 140.842H247.758V120.864H267.736V140.842Z" stroke="#414141" stroke-opacity="0.07" stroke-width="1.16139"/>
<path d="M87.917 160.82H67.9397V140.842H87.917V160.82Z" stroke="#414141" stroke-opacity="0.07" stroke-width="1.16139"/>
<path d="M287.714 160.82H267.736V140.842H287.714V160.82Z" stroke="#414141" stroke-opacity="0.07" stroke-width="1.16139"/>
<path d="M187.805 140.842H167.827V120.864H187.805V140.842Z" stroke="#414141" stroke-opacity="0.07" stroke-width="1.16139"/>
<path d="M87.917 140.842H67.9397V120.864H87.917V140.842Z" stroke="#414141" stroke-opacity="0.07" stroke-width="1.16139"/>
<path d="M287.714 140.842H267.736V120.864H287.714V140.842Z" stroke="#414141" stroke-opacity="0.07" stroke-width="1.16139"/>
<path d="M207.783 160.82H187.806V140.842H207.783V160.82Z" stroke="#414141" stroke-opacity="0.07" stroke-width="1.16139"/>
<path d="M107.897 160.82H87.9189V140.842H107.897V160.82Z" stroke="#414141" stroke-opacity="0.07" stroke-width="1.16139"/>
<path d="M307.693 160.82H287.716V140.842H307.693V160.82Z" stroke="#414141" stroke-opacity="0.07" stroke-width="1.16139"/>
<path d="M207.783 140.842H187.806V120.864H207.783V140.842Z" stroke="#414141" stroke-opacity="0.07" stroke-width="1.16139"/>
<path d="M107.897 140.842H87.9189V120.864H107.897V140.842Z" stroke="#414141" stroke-opacity="0.07" stroke-width="1.16139"/>
<path d="M127.873 120.864H107.896V100.887H127.873V120.864Z" stroke="#414141" stroke-opacity="0.07" stroke-width="1.16139"/>
<path d="M27.986 120.864H8.0083V100.887H27.986V120.864Z" stroke="#414141" stroke-opacity="0.07" stroke-width="1.16139"/>
<path d="M127.873 100.888H107.896V80.9106H127.873V100.888Z" stroke="#414141" stroke-opacity="0.07" stroke-width="1.16139"/>
<path d="M27.986 100.888H8.0083V80.9106H27.986V100.888Z" stroke="#414141" stroke-opacity="0.07" stroke-width="1.16139"/>
<path d="M327.667 100.888H307.689V80.9106H327.667V100.888Z" stroke="#414141" stroke-opacity="0.07" stroke-width="1.16139"/>
<path d="M147.849 120.864H127.871V100.887H147.849V120.864Z" stroke="#414141" stroke-opacity="0.07" stroke-width="1.16139"/>
<path d="M47.9624 120.864H27.9851V100.887H47.9624V120.864Z" stroke="#414141" stroke-opacity="0.07" stroke-width="1.16139"/>
<path d="M247.758 120.864H227.781V100.887H247.758V120.864Z" stroke="#414141" stroke-opacity="0.07" stroke-width="1.16139"/>
<path d="M147.849 100.888H127.871V80.9106H147.849V100.888Z" stroke="#414141" stroke-opacity="0.07" stroke-width="1.16139"/>
<path d="M47.9624 100.888H27.9851V80.9106H47.9624V100.888Z" stroke="#414141" stroke-opacity="0.07" stroke-width="1.16139"/>
<path d="M167.827 120.864H147.85V100.887H167.827V120.864Z" stroke="#414141" stroke-opacity="0.07" stroke-width="1.16139"/>
<path d="M67.9401 120.864H47.9624V100.887H67.9401V120.864Z" stroke="#414141" stroke-opacity="0.07" stroke-width="1.16139"/>
<path d="M247.758 100.888H267.736V80.9106" stroke="#414141" stroke-opacity="0.07" stroke-width="1.16139"/>
<path d="M367.623 100.888H347.646V80.9106H367.623V100.888Z" stroke="#414141" stroke-opacity="0.07" stroke-width="1.16139"/>
<path d="M187.805 120.864H167.827V100.887H187.805V120.864Z" stroke="#414141" stroke-opacity="0.07" stroke-width="1.16139"/>
<path d="M87.917 120.864H67.9397V100.887H87.917V120.864Z" stroke="#414141" stroke-opacity="0.07" stroke-width="1.16139"/>
<path d="M287.714 120.864H267.736V100.887H287.714V120.864Z" stroke="#414141" stroke-opacity="0.07" stroke-width="1.16139"/>
<path d="M187.805 100.888H167.827V80.9106H187.805V100.888Z" stroke="#414141" stroke-opacity="0.07" stroke-width="1.16139"/>
<path d="M87.917 100.888H67.9397V80.9106H87.917V100.888Z" stroke="#414141" stroke-opacity="0.07" stroke-width="1.16139"/>
<path d="M287.714 100.888H267.736V80.9106H287.714V100.888Z" stroke="#414141" stroke-opacity="0.07" stroke-width="1.16139"/>
<path d="M107.897 100.888H87.9189V80.9106H107.897V100.888Z" stroke="#414141" stroke-opacity="0.07" stroke-width="1.16139"/>
<path d="M307.693 100.888H287.716V80.9106H307.693V100.888Z" stroke="#414141" stroke-opacity="0.07" stroke-width="1.16139"/>
<path d="M127.873 80.91H107.896V60.9326H127.873V80.91Z" stroke="#414141" stroke-opacity="0.07" stroke-width="1.16139"/>
<path d="M327.667 80.91H307.689V60.9326H327.667V80.91Z" stroke="#414141" stroke-opacity="0.07" stroke-width="1.16139"/>
<path d="M127.873 60.9325H107.896V40.9551H127.873V60.9325Z" stroke="#414141" stroke-opacity="0.07" stroke-width="1.16139"/>
<path d="M327.667 60.9325H307.689V40.9551H327.667V60.9325Z" stroke="#414141" stroke-opacity="0.07" stroke-width="1.16139"/>
<path d="M147.849 80.91H127.871V60.9326H147.849V80.91Z" stroke="#414141" stroke-opacity="0.07" stroke-width="1.16139"/>
<path d="M47.9624 80.91H27.9851V60.9326H47.9624V80.91Z" stroke="#414141" stroke-opacity="0.07" stroke-width="1.16139"/>
<path d="M347.646 80.91H327.668V60.9326H347.646V80.91Z" stroke="#414141" stroke-opacity="0.07" stroke-width="1.16139"/>
<path d="M147.849 60.9325H127.871V40.9551H147.849V60.9325Z" stroke="#414141" stroke-opacity="0.07" stroke-width="1.16139"/>
<path d="M47.9624 60.9325H27.9851V40.9551H47.9624V60.9325Z" stroke="#414141" stroke-opacity="0.07" stroke-width="1.16139"/>
<path d="M347.646 60.9325H327.668V40.9551H347.646V60.9325Z" stroke="#414141" stroke-opacity="0.07" stroke-width="1.16139"/>
<path d="M167.827 80.91H147.85V60.9326H167.827V80.91Z" stroke="#414141" stroke-opacity="0.07" stroke-width="1.16139"/>
<path d="M67.9401 80.91H47.9624V60.9326H67.9401V80.91Z" stroke="#414141" stroke-opacity="0.07" stroke-width="1.16139"/>
<path d="M367.623 80.91H347.646V60.9326H367.623V80.91Z" stroke="#414141" stroke-opacity="0.07" stroke-width="1.16139"/>
<path d="M167.827 60.9325H147.85V40.9551H167.827V60.9325Z" stroke="#414141" stroke-opacity="0.07" stroke-width="1.16139"/>
<path d="M67.9401 60.9325H47.9624V40.9551H67.9401V60.9325Z" stroke="#414141" stroke-opacity="0.07" stroke-width="1.16139"/>
<path d="M187.805 80.91H167.827V60.9326H187.805V80.91Z" stroke="#414141" stroke-opacity="0.07" stroke-width="1.16139"/>
<path d="M87.917 80.91H67.9397V60.9326H87.917V80.91Z" stroke="#414141" stroke-opacity="0.07" stroke-width="1.16139"/>
<path d="M287.714 80.91H267.736V60.9326H287.714V80.91Z" stroke="#414141" stroke-opacity="0.07" stroke-width="1.16139"/>
<path d="M267.309 100.863H247.332V80.8853H267.309V100.863Z" stroke="#414141" stroke-opacity="0.07" stroke-width="1.16139"/>
<path d="M187.805 60.9325H167.827V40.9551H187.805V60.9325Z" stroke="#414141" stroke-opacity="0.07" stroke-width="1.16139"/>
<path d="M87.917 60.9325H67.9397V40.9551H87.917V60.9325Z" stroke="#414141" stroke-opacity="0.07" stroke-width="1.16139"/>
<path d="M107.897 80.91H87.9189V60.9326H107.897V80.91Z" stroke="#414141" stroke-opacity="0.07" stroke-width="1.16139"/>
<path d="M107.897 60.9325H87.9189V40.9551H107.897V60.9325Z" stroke="#414141" stroke-opacity="0.07" stroke-width="1.16139"/>
<path d="M307.693 60.9325H287.716V40.9551H307.693V60.9325Z" stroke="#414141" stroke-opacity="0.07" stroke-width="1.16139"/>
<path d="M327.667 40.9544H307.689V20.9771L327.667 20.9771V40.9544Z" stroke="#414141" stroke-opacity="0.07" stroke-width="1.16139"/>
<path d="M127.873 20.9774L107.896 20.9774V1H127.873V20.9774Z" stroke="#414141" stroke-opacity="0.07" stroke-width="1.16139"/>
<path d="M147.849 40.9544H127.871V20.9771L147.849 20.9771V40.9544Z" stroke="#414141" stroke-opacity="0.07" stroke-width="1.16139"/>
<path d="M347.646 40.9544H327.668V20.9771L347.646 20.9771V40.9544Z" stroke="#414141" stroke-opacity="0.07" stroke-width="1.16139"/>
<path d="M147.849 20.9774L127.871 20.9774V1H147.849V20.9774Z" stroke="#414141" stroke-opacity="0.07" stroke-width="1.16139"/>
<path d="M347.646 20.9774L327.668 20.9774V1H347.646V20.9774Z" stroke="#414141" stroke-opacity="0.07" stroke-width="1.16139"/>
<path d="M167.827 40.9544H147.85V20.9771L167.827 20.9771V40.9544Z" stroke="#414141" stroke-opacity="0.07" stroke-width="1.16139"/>
<path d="M67.9401 40.9544H47.9624V20.9771L67.9401 20.9771V40.9544Z" stroke="#414141" stroke-opacity="0.07" stroke-width="1.16139"/>
<path d="M167.827 20.9774L147.85 20.9774V1H167.827V20.9774Z" stroke="#414141" stroke-opacity="0.07" stroke-width="1.16139"/>
<path d="M67.9401 20.9774L47.9624 20.9774V1H67.9401V20.9774Z" stroke="#414141" stroke-opacity="0.07" stroke-width="1.16139"/>
<path d="M367.623 20.9774L347.646 20.9774V1H367.623V20.9774Z" stroke="#414141" stroke-opacity="0.07" stroke-width="1.16139"/>
<path d="M87.917 40.9544H67.9397V20.9771L87.917 20.9771V40.9544Z" stroke="#414141" stroke-opacity="0.07" stroke-width="1.16139"/>
<path d="M287.714 40.9544H267.736V20.9771L287.714 20.9771V40.9544Z" stroke="#414141" stroke-opacity="0.07" stroke-width="1.16139"/>
<path d="M187.805 20.9774L167.827 20.9774V1H187.805V20.9774Z" stroke="#414141" stroke-opacity="0.07" stroke-width="1.16139"/>
<path d="M87.917 20.9774L67.9397 20.9774V1H87.917V20.9774Z" stroke="#414141" stroke-opacity="0.07" stroke-width="1.16139"/>
<path d="M287.714 20.9774L267.736 20.9774V1H287.714V20.9774Z" stroke="#414141" stroke-opacity="0.07" stroke-width="1.16139"/>
<path d="M107.897 40.9544H87.9189V20.9771L107.897 20.9771V40.9544Z" stroke="#414141" stroke-opacity="0.07" stroke-width="1.16139"/>
<path d="M307.693 40.9544H287.716V20.9771L307.693 20.9771V40.9544Z" stroke="#414141" stroke-opacity="0.07" stroke-width="1.16139"/>
<path d="M107.897 20.9774L87.9189 20.9774V1H107.897V20.9774Z" stroke="#414141" stroke-opacity="0.07" stroke-width="1.16139"/>
<path d="M307.693 20.9774L287.716 20.9774V1H307.693V20.9774Z" stroke="#414141" stroke-opacity="0.07" stroke-width="1.16139"/>
<path d="M127.873 40.9544H107.896V20.9771L127.873 20.9771V40.9544Z" stroke="#414141" stroke-opacity="0.07" stroke-width="1.16139"/>
<path d="M176.268 34.0544H179.261V33.5811H178.099V29.4604H177.674C177.396 29.6066 177.055 29.725 176.581 29.7946V30.1635H177.528V33.5811H176.268V34.0544Z" fill="url(#paint15_linear_179_500)"/>
<path d="M177.674 54.0917C178.663 54.0917 179.268 53.2217 179.268 51.6973C179.268 50.159 178.663 49.3306 177.674 49.3306C176.686 49.3306 176.08 50.159 176.08 51.6973C176.08 53.2217 176.686 54.0917 177.674 54.0917ZM177.674 53.6323C177.055 53.6323 176.616 53.0198 176.616 51.6973C176.616 50.3678 177.055 49.79 177.674 49.79C178.294 49.79 178.732 50.3678 178.732 51.6973C178.732 53.0198 178.294 53.6323 177.674 53.6323ZM177.674 52.1219C177.904 52.1219 178.106 51.9479 178.106 51.6486C178.106 51.3493 177.904 51.1753 177.674 51.1753C177.445 51.1753 177.243 51.3493 177.243 51.6486C177.243 51.9479 177.445 52.1219 177.674 52.1219Z" fill="url(#paint16_linear_179_500)"/>
<path d="M177.674 93.9988C178.663 93.9988 179.268 93.1287 179.268 91.6044C179.268 90.0661 178.663 89.2378 177.674 89.2378C176.686 89.2378 176.08 90.0661 176.08 91.6044C176.08 93.1287 176.686 93.9988 177.674 93.9988ZM177.674 93.5394C177.055 93.5394 176.616 92.9269 176.616 91.6044C176.616 90.2749 177.055 89.6972 177.674 89.6972C178.294 89.6972 178.732 90.2749 178.732 91.6044C178.732 92.9269 178.294 93.5394 177.674 93.5394ZM177.674 92.029C177.904 92.029 178.106 91.855 178.106 91.5557C178.106 91.2564 177.904 91.0823 177.674 91.0823C177.445 91.0823 177.243 91.2564 177.243 91.5557C177.243 91.855 177.445 92.029 177.674 92.029Z" fill="url(#paint17_linear_179_500)"/>
<path d="M176.268 113.869H179.261V113.396H178.099V109.275H177.674C177.396 109.422 177.055 109.54 176.581 109.609V109.978H177.528V113.396H176.268V113.869Z" fill="url(#paint18_linear_179_500)"/>
<path d="M176.268 133.823H179.261V133.35H178.099V129.229H177.674C177.396 129.375 177.055 129.494 176.581 129.563V129.932H177.528V133.35H176.268V133.823Z" fill="url(#paint19_linear_179_500)"/>
<path d="M196.307 34.0544H199.3V33.5811H198.137V29.4604H197.713C197.434 29.6066 197.093 29.725 196.62 29.7946V30.1635H197.566V33.5811H196.307V34.0544Z" fill="url(#paint20_linear_179_500)"/>
<path d="M197.713 54.0917C198.701 54.0917 199.307 53.2217 199.307 51.6973C199.307 50.159 198.701 49.3306 197.713 49.3306C196.724 49.3306 196.119 50.159 196.119 51.6973C196.119 53.2217 196.724 54.0917 197.713 54.0917ZM197.713 53.6323C197.093 53.6323 196.655 53.0198 196.655 51.6973C196.655 50.3678 197.093 49.79 197.713 49.79C198.332 49.79 198.771 50.3678 198.771 51.6973C198.771 53.0198 198.332 53.6323 197.713 53.6323ZM197.713 52.1219C197.943 52.1219 198.144 51.9479 198.144 51.6486C198.144 51.3493 197.943 51.1753 197.713 51.1753C197.483 51.1753 197.281 51.3493 197.281 51.6486C197.281 51.9479 197.483 52.1219 197.713 52.1219Z" fill="url(#paint21_linear_179_500)"/>
<path d="M196.307 73.9621H199.3V73.4888H198.137V69.3682H197.713C197.434 69.5143 197.093 69.6327 196.62 69.7023V70.0712H197.566V73.4888H196.307V73.9621Z" fill="url(#paint22_linear_179_500)"/>
<path d="M196.307 113.869H199.3V113.396H198.137V109.275H197.713C197.434 109.422 197.093 109.54 196.62 109.609V109.978H197.566V113.396H196.307V113.869Z" fill="url(#paint23_linear_179_500)"/>
<path d="M197.713 133.906C198.701 133.906 199.307 133.036 199.307 131.512C199.307 129.973 198.701 129.145 197.713 129.145C196.724 129.145 196.119 129.973 196.119 131.512C196.119 133.036 196.724 133.906 197.713 133.906ZM197.713 133.447C197.093 133.447 196.655 132.834 196.655 131.512C196.655 130.182 197.093 129.604 197.713 129.604C198.332 129.604 198.771 130.182 198.771 131.512C198.771 132.834 198.332 133.447 197.713 133.447ZM197.713 131.936C197.943 131.936 198.144 131.762 198.144 131.463C198.144 131.164 197.943 130.99 197.713 130.99C197.483 130.99 197.281 131.164 197.281 131.463C197.281 131.762 197.483 131.936 197.713 131.936Z" fill="url(#paint24_linear_179_500)"/>
<path d="M197.713 153.86C198.701 153.86 199.307 152.99 199.307 151.465C199.307 149.927 198.701 149.099 197.713 149.099C196.724 149.099 196.119 149.927 196.119 151.465C196.119 152.99 196.724 153.86 197.713 153.86ZM197.713 153.4C197.093 153.4 196.655 152.788 196.655 151.465C196.655 150.136 197.093 149.558 197.713 149.558C198.332 149.558 198.771 150.136 198.771 151.465C198.771 152.788 198.332 153.4 197.713 153.4ZM197.713 151.89C197.943 151.89 198.144 151.716 198.144 151.416C198.144 151.117 197.943 150.943 197.713 150.943C197.483 150.943 197.281 151.117 197.281 151.416C197.281 151.716 197.483 151.89 197.713 151.89Z" fill="url(#paint25_linear_179_500)"/>
<path d="M196.308 93.4514H199.301V92.9781H198.138V88.8574H197.714C197.435 89.0036 197.094 89.1219 196.621 89.1915V89.5604H197.567V92.9781H196.308V93.4514Z" fill="#28282E"/>
<path d="M217.472 54.0916C218.461 54.0916 219.066 53.2215 219.066 51.6972C219.066 50.1589 218.461 49.3306 217.472 49.3306C216.484 49.3306 215.878 50.1589 215.878 51.6972C215.878 53.2215 216.484 54.0916 217.472 54.0916ZM217.472 53.6322C216.853 53.6322 216.414 53.0197 216.414 51.6972C216.414 50.3677 216.853 49.79 217.472 49.79C218.092 49.79 218.53 50.3677 218.53 51.6972C218.53 53.0197 218.092 53.6322 217.472 53.6322ZM217.472 52.1217C217.702 52.1217 217.904 51.9477 217.904 51.6484C217.904 51.3491 217.702 51.1751 217.472 51.1751C217.243 51.1751 217.041 51.3491 217.041 51.6484C217.041 51.9477 217.243 52.1217 217.472 52.1217Z" fill="url(#paint26_linear_179_500)"/>
<path d="M216.066 73.9621H219.059V73.4888H217.897V69.3682H217.472C217.194 69.5143 216.853 69.6327 216.38 69.7023V70.0712H217.326V73.4888H216.066V73.9621Z" fill="url(#paint27_linear_179_500)"/>
<path d="M217.472 93.9988C218.461 93.9988 219.066 93.1287 219.066 91.6044C219.066 90.0661 218.461 89.2378 217.472 89.2378C216.484 89.2378 215.878 90.0661 215.878 91.6044C215.878 93.1287 216.484 93.9988 217.472 93.9988ZM217.472 93.5394C216.853 93.5394 216.414 92.9269 216.414 91.6044C216.414 90.2749 216.853 89.6972 217.472 89.6972C218.092 89.6972 218.53 90.2749 218.53 91.6044C218.53 92.9269 218.092 93.5394 217.472 93.5394ZM217.472 92.029C217.702 92.029 217.904 91.855 217.904 91.5557C217.904 91.2564 217.702 91.0823 217.472 91.0823C217.243 91.0823 217.041 91.2564 217.041 91.5557C217.041 91.855 217.243 92.029 217.472 92.029Z" fill="url(#paint28_linear_179_500)"/>
<path d="M217.472 113.952C218.461 113.952 219.066 113.082 219.066 111.558C219.066 110.02 218.461 109.191 217.472 109.191C216.484 109.191 215.878 110.02 215.878 111.558C215.878 113.082 216.484 113.952 217.472 113.952ZM217.472 113.493C216.853 113.493 216.414 112.881 216.414 111.558C216.414 110.229 216.853 109.651 217.472 109.651C218.092 109.651 218.53 110.229 218.53 111.558C218.53 112.881 218.092 113.493 217.472 113.493ZM217.472 111.983C217.702 111.983 217.904 111.809 217.904 111.509C217.904 111.21 217.702 111.036 217.472 111.036C217.243 111.036 217.041 111.21 217.041 111.509C217.041 111.809 217.243 111.983 217.472 111.983Z" fill="url(#paint29_linear_179_500)"/>
<path d="M217.472 133.906C218.461 133.906 219.066 133.036 219.066 131.512C219.066 129.973 218.461 129.145 217.472 129.145C216.484 129.145 215.878 129.973 215.878 131.512C215.878 133.036 216.484 133.906 217.472 133.906ZM217.472 133.447C216.853 133.447 216.414 132.834 216.414 131.512C216.414 130.182 216.853 129.604 217.472 129.604C218.092 129.604 218.53 130.182 218.53 131.512C218.53 132.834 218.092 133.447 217.472 133.447ZM217.472 131.936C217.702 131.936 217.904 131.762 217.904 131.463C217.904 131.164 217.702 130.99 217.472 130.99C217.243 130.99 217.041 131.164 217.041 131.463C217.041 131.762 217.243 131.936 217.472 131.936Z" fill="url(#paint30_linear_179_500)"/>
<path d="M216.066 153.777H219.059V153.303H217.897V149.183H217.472C217.194 149.329 216.853 149.447 216.38 149.517V149.886H217.326V153.303H216.066V153.777Z" fill="url(#paint31_linear_179_500)"/>
<path d="M297.499 54.0916C298.488 54.0916 299.093 53.2215 299.093 51.6972C299.093 50.1589 298.488 49.3306 297.499 49.3306C296.51 49.3306 295.905 50.1589 295.905 51.6972C295.905 53.2215 296.51 54.0916 297.499 54.0916ZM297.499 53.6322C296.879 53.6322 296.441 53.0197 296.441 51.6972C296.441 50.3677 296.879 49.79 297.499 49.79C298.119 49.79 298.557 50.3677 298.557 51.6972C298.557 53.0197 298.119 53.6322 297.499 53.6322ZM297.499 52.1217C297.728 52.1217 297.931 51.9477 297.931 51.6484C297.931 51.3491 297.728 51.1751 297.499 51.1751C297.27 51.1751 297.068 51.3491 297.068 51.6484C297.068 51.9477 297.27 52.1217 297.499 52.1217Z" fill="url(#paint32_linear_179_500)"/>
<path d="M236.278 34.0549H239.271V33.5816H238.108V29.4609H237.684C237.405 29.6071 237.064 29.7254 236.591 29.795V30.164H237.537V33.5816H236.278V34.0549Z" fill="url(#paint33_linear_179_500)"/>
<path d="M256.148 93.2971H259.141V92.8238H257.979V88.7031H257.554C257.276 88.8493 256.935 88.9676 256.462 89.0372V89.4061H257.408V92.8238H256.148V93.2971Z" fill="url(#paint34_linear_179_500)"/>
<path d="M237.684 54.0916C238.672 54.0916 239.278 53.2215 239.278 51.6972C239.278 50.1589 238.672 49.3306 237.684 49.3306C236.695 49.3306 236.09 50.1589 236.09 51.6972C236.09 53.2215 236.695 54.0916 237.684 54.0916ZM237.684 53.6322C237.064 53.6322 236.626 53.0197 236.626 51.6972C236.626 50.3677 237.064 49.79 237.684 49.79C238.303 49.79 238.742 50.3677 238.742 51.6972C238.742 53.0197 238.303 53.6322 237.684 53.6322ZM237.684 52.1217C237.913 52.1217 238.115 51.9477 238.115 51.6484C238.115 51.3491 237.913 51.1751 237.684 51.1751C237.454 51.1751 237.252 51.3491 237.252 51.6484C237.252 51.9477 237.454 52.1217 237.684 52.1217Z" fill="url(#paint35_linear_179_500)"/>
<path d="M237.684 153.86C238.672 153.86 239.278 152.99 239.278 151.465C239.278 149.927 238.672 149.099 237.684 149.099C236.695 149.099 236.09 149.927 236.09 151.465C236.09 152.99 236.695 153.86 237.684 153.86ZM237.684 153.4C237.064 153.4 236.626 152.788 236.626 151.465C236.626 150.136 237.064 149.558 237.684 149.558C238.303 149.558 238.742 150.136 238.742 151.465C238.742 152.788 238.303 153.4 237.684 153.4ZM237.684 151.89C237.913 151.89 238.115 151.716 238.115 151.416C238.115 151.117 237.913 150.943 237.684 150.943C237.454 150.943 237.252 151.117 237.252 151.416C237.252 151.716 237.454 151.89 237.684 151.89Z" fill="url(#paint36_linear_179_500)"/>
<path d="M316.304 34.0549H319.297V33.5816H318.135V29.4609H317.71C317.432 29.6071 317.09 29.7254 316.617 29.795V30.164H317.564V33.5816H316.304V34.0549Z" fill="url(#paint37_linear_179_500)"/>
<path d="M317.71 54.0916C318.698 54.0916 319.304 53.2215 319.304 51.6972C319.304 50.1589 318.698 49.3306 317.71 49.3306C316.722 49.3306 316.116 50.1589 316.116 51.6972C316.116 53.2215 316.722 54.0916 317.71 54.0916ZM317.71 53.6322C317.09 53.6322 316.652 53.0197 316.652 51.6972C316.652 50.3677 317.09 49.79 317.71 49.79C318.329 49.79 318.768 50.3677 318.768 51.6972C318.768 53.0197 318.329 53.6322 317.71 53.6322ZM317.71 52.1217C317.94 52.1217 318.141 51.9477 318.141 51.6484C318.141 51.3491 317.94 51.1751 317.71 51.1751C317.48 51.1751 317.278 51.3491 317.278 51.6484C317.278 51.9477 317.48 52.1217 317.71 52.1217Z" fill="url(#paint38_linear_179_500)"/>
<path d="M317.71 153.86C318.698 153.86 319.304 152.99 319.304 151.465C319.304 149.927 318.698 149.099 317.71 149.099C316.722 149.099 316.116 149.927 316.116 151.465C316.116 152.99 316.722 153.86 317.71 153.86ZM317.71 153.4C317.09 153.4 316.652 152.788 316.652 151.465C316.652 150.136 317.09 149.558 317.71 149.558C318.329 149.558 318.768 150.136 318.768 151.465C318.768 152.788 318.329 153.4 317.71 153.4ZM317.71 151.89C317.94 151.89 318.141 151.716 318.141 151.416C318.141 151.117 317.94 150.943 317.71 150.943C317.48 150.943 317.278 151.117 317.278 151.416C317.278 151.716 317.48 151.89 317.71 151.89Z" fill="url(#paint39_linear_179_500)"/>
<path d="M257.421 34.138C258.41 34.138 259.015 33.2679 259.015 31.7435C259.015 30.2053 258.41 29.377 257.421 29.377C256.433 29.377 255.827 30.2053 255.827 31.7435C255.827 33.2679 256.433 34.138 257.421 34.138ZM257.421 33.6786C256.802 33.6786 256.363 33.066 256.363 31.7435C256.363 30.4141 256.802 29.8363 257.421 29.8363C258.041 29.8363 258.479 30.4141 258.479 31.7435C258.479 33.066 258.041 33.6786 257.421 33.6786ZM257.421 32.1681C257.651 32.1681 257.853 31.9941 257.853 31.6948C257.853 31.3955 257.651 31.2215 257.421 31.2215C257.192 31.2215 256.99 31.3955 256.99 31.6948C256.99 31.9941 257.192 32.1681 257.421 32.1681Z" fill="url(#paint40_linear_179_500)"/>
<path d="M256.015 54.0085H259.008V53.5352H257.846V49.4146H257.421C257.143 49.5607 256.802 49.6791 256.328 49.7487V50.1176H257.275V53.5352H256.015V54.0085Z" fill="url(#paint41_linear_179_500)"/>
<path d="M337.448 34.138C338.436 34.138 339.042 33.2679 339.042 31.7435C339.042 30.2053 338.436 29.377 337.448 29.377C336.46 29.377 335.854 30.2053 335.854 31.7435C335.854 33.2679 336.46 34.138 337.448 34.138ZM337.448 33.6786C336.828 33.6786 336.39 33.066 336.39 31.7435C336.39 30.4141 336.828 29.8363 337.448 29.8363C338.067 29.8363 338.506 30.4141 338.506 31.7435C338.506 33.066 338.067 33.6786 337.448 33.6786ZM337.448 32.1681C337.678 32.1681 337.88 31.9941 337.88 31.6948C337.88 31.3955 337.678 31.2215 337.448 31.2215C337.218 31.2215 337.016 31.3955 337.016 31.6948C337.016 31.9941 337.218 32.1681 337.448 32.1681Z" fill="url(#paint42_linear_179_500)"/>
<path d="M336.042 54.0085H339.035V53.5352H337.872V49.4146H337.448C337.169 49.5607 336.828 49.6791 336.355 49.7487V50.1176H337.302V53.5352H336.042V54.0085Z" fill="url(#paint43_linear_179_500)"/>
<path d="M336.042 73.9621H339.035V73.4888H337.872V69.3682H337.448C337.169 69.5143 336.828 69.6327 336.355 69.7023V70.0712H337.302V73.4888H336.042V73.9621Z" fill="url(#paint44_linear_179_500)"/>
<path d="M336.042 133.823H339.035V133.35H337.872V129.229H337.448C337.169 129.375 336.828 129.494 336.355 129.563V129.932H337.302V133.35H336.042V133.823Z" fill="url(#paint45_linear_179_500)"/>
<path d="M277.46 33.2102C278.449 33.2102 279.054 32.3402 279.054 30.8158C279.054 29.2775 278.449 28.4492 277.46 28.4492C276.472 28.4492 275.866 29.2775 275.866 30.8158C275.866 32.3402 276.472 33.2102 277.46 33.2102ZM277.46 32.7508C276.841 32.7508 276.402 32.1383 276.402 30.8158C276.402 29.4863 276.841 28.9086 277.46 28.9086C278.08 28.9086 278.518 29.4863 278.518 30.8158C278.518 32.1383 278.08 32.7508 277.46 32.7508ZM277.46 31.2404C277.69 31.2404 277.892 31.0664 277.892 30.7671C277.892 30.4678 277.69 30.2938 277.46 30.2938C277.23 30.2938 277.029 30.4678 277.029 30.7671C277.029 31.0664 277.23 31.2404 277.46 31.2404Z" fill="url(#paint46_linear_179_500)"/>
<path d="M277.232 73.5813C278.221 73.5813 278.826 72.7113 278.826 71.1869C278.826 69.6486 278.221 68.8203 277.232 68.8203C276.244 68.8203 275.638 69.6486 275.638 71.1869C275.638 72.7113 276.244 73.5813 277.232 73.5813ZM277.232 73.1219C276.613 73.1219 276.174 72.5094 276.174 71.1869C276.174 69.8574 276.613 69.2797 277.232 69.2797C277.852 69.2797 278.29 69.8574 278.29 71.1869C278.29 72.5094 277.852 73.1219 277.232 73.1219ZM277.232 71.6115C277.462 71.6115 277.664 71.4375 277.664 71.1382C277.664 70.8389 277.462 70.6649 277.232 70.6649C277.002 70.6649 276.801 70.8389 276.801 71.1382C276.801 71.4375 277.002 71.6115 277.232 71.6115Z" fill="url(#paint47_linear_179_500)"/>
<path d="M371.694 1H0V201H371.694V1Z" fill="url(#paint48_radial_179_500)"/>
<defs>
<linearGradient id="paint0_linear_179_500" x1="317.692" y1="2.16394" x2="317.692" y2="179.712" gradientUnits="userSpaceOnUse">
<stop stop-color="#3D3D3D"/>
<stop offset="1" stop-color="#2F2F2F" stop-opacity="0"/>
</linearGradient>
<linearGradient id="paint1_linear_179_500" x1="277.444" y1="39.2176" x2="277.444" y2="216.766" gradientUnits="userSpaceOnUse">
<stop stop-color="#3D3D3D"/>
<stop offset="1" stop-color="#2F2F2F" stop-opacity="0"/>
</linearGradient>
<linearGradient id="paint2_linear_179_500" x1="277.373" y1="-5.5235" x2="277.373" y2="176.879" gradientUnits="userSpaceOnUse">
<stop stop-color="#3D3D3D"/>
<stop offset="1" stop-color="#2F2F2F" stop-opacity="0"/>
</linearGradient>
<linearGradient id="paint3_linear_179_500" x1="237.247" y1="4.84674" x2="237.247" y2="176.165" gradientUnits="userSpaceOnUse">
<stop stop-color="#3D3D3D"/>
<stop offset="1" stop-color="#2F2F2F" stop-opacity="0"/>
</linearGradient>
<linearGradient id="paint4_linear_179_500" x1="217.774" y1="20.8533" x2="217.774" y2="198.402" gradientUnits="userSpaceOnUse">
<stop stop-color="#3D3D3D"/>
<stop offset="1" stop-color="#2F2F2F" stop-opacity="0"/>
</linearGradient>
<linearGradient id="paint5_linear_179_500" x1="297.821" y1="39.6815" x2="297.821" y2="217.23" gradientUnits="userSpaceOnUse">
<stop stop-color="#3D3D3D"/>
<stop offset="1" stop-color="#2F2F2F" stop-opacity="0"/>
</linearGradient>
<linearGradient id="paint6_linear_179_500" x1="237.686" y1="-1.25257" x2="237.686" y2="187.8" gradientUnits="userSpaceOnUse">
<stop stop-color="#3D3D3D"/>
<stop offset="1" stop-color="#2F2F2F" stop-opacity="0"/>
</linearGradient>
<linearGradient id="paint7_linear_179_500" x1="257.664" y1="5.27716" x2="257.664" y2="176.595" gradientUnits="userSpaceOnUse">
<stop stop-color="#3D3D3D"/>
<stop offset="1" stop-color="#2F2F2F" stop-opacity="0"/>
</linearGradient>
<linearGradient id="paint8_linear_179_500" x1="237.727" y1="1.23572" x2="237.727" y2="178.784" gradientUnits="userSpaceOnUse">
<stop stop-color="#3D3D3D"/>
<stop offset="1" stop-color="#2F2F2F" stop-opacity="0"/>
</linearGradient>
<linearGradient id="paint9_linear_179_500" x1="317.352" y1="1.43303" x2="317.352" y2="178.981" gradientUnits="userSpaceOnUse">
<stop stop-color="#3D3D3D"/>
<stop offset="1" stop-color="#2F2F2F" stop-opacity="0"/>
</linearGradient>
<linearGradient id="paint10_linear_179_500" x1="339.091" y1="-15.5707" x2="339.091" y2="155.747" gradientUnits="userSpaceOnUse">
<stop stop-color="#3D3D3D"/>
<stop offset="1" stop-color="#2F2F2F" stop-opacity="0"/>
</linearGradient>
<linearGradient id="paint11_linear_179_500" x1="298.01" y1="18.7011" x2="298.01" y2="207.754" gradientUnits="userSpaceOnUse">
<stop stop-color="#3D3D3D"/>
<stop offset="1" stop-color="#2F2F2F" stop-opacity="0"/>
</linearGradient>
<linearGradient id="paint12_linear_179_500" x1="317.946" y1="6.2049" x2="317.946" y2="177.523" gradientUnits="userSpaceOnUse">
<stop stop-color="#3D3D3D"/>
<stop offset="1" stop-color="#2F2F2F" stop-opacity="0"/>
</linearGradient>
<linearGradient id="paint13_linear_179_500" x1="257.623" y1="4.83561" x2="257.623" y2="176.154" gradientUnits="userSpaceOnUse">
<stop stop-color="#3D3D3D"/>
<stop offset="1" stop-color="#2F2F2F" stop-opacity="0"/>
</linearGradient>
<linearGradient id="paint14_linear_179_500" x1="297.835" y1="-20.1792" x2="297.835" y2="157.369" gradientUnits="userSpaceOnUse">
<stop stop-color="#3D3D3D"/>
<stop offset="1" stop-color="#2F2F2F" stop-opacity="0"/>
</linearGradient>
<linearGradient id="paint15_linear_179_500" x1="177.673" y1="7.60449" x2="177.673" y2="175.122" gradientUnits="userSpaceOnUse">
<stop stop-color="#3D3D3D"/>
<stop offset="1" stop-color="#2F2F2F" stop-opacity="0"/>
</linearGradient>
<linearGradient id="paint16_linear_179_500" x1="177.673" y1="7.60452" x2="177.673" y2="175.122" gradientUnits="userSpaceOnUse">
<stop stop-color="#3D3D3D"/>
<stop offset="1" stop-color="#2F2F2F" stop-opacity="0"/>
</linearGradient>
<linearGradient id="paint17_linear_179_500" x1="177.673" y1="7.60452" x2="177.673" y2="175.122" gradientUnits="userSpaceOnUse">
<stop stop-color="#3D3D3D"/>
<stop offset="1" stop-color="#2F2F2F" stop-opacity="0"/>
</linearGradient>
<linearGradient id="paint18_linear_179_500" x1="177.673" y1="7.60472" x2="177.673" y2="175.122" gradientUnits="userSpaceOnUse">
<stop stop-color="#3D3D3D"/>
<stop offset="1" stop-color="#2F2F2F" stop-opacity="0"/>
</linearGradient>
<linearGradient id="paint19_linear_179_500" x1="177.673" y1="7.60486" x2="177.673" y2="175.122" gradientUnits="userSpaceOnUse">
<stop stop-color="#3D3D3D"/>
<stop offset="1" stop-color="#2F2F2F" stop-opacity="0"/>
</linearGradient>
<linearGradient id="paint20_linear_179_500" x1="197.712" y1="7.60449" x2="197.712" y2="175.122" gradientUnits="userSpaceOnUse">
<stop stop-color="#3D3D3D"/>
<stop offset="1" stop-color="#2F2F2F" stop-opacity="0"/>
</linearGradient>
<linearGradient id="paint21_linear_179_500" x1="197.712" y1="7.60452" x2="197.712" y2="175.122" gradientUnits="userSpaceOnUse">
<stop stop-color="#3D3D3D"/>
<stop offset="1" stop-color="#2F2F2F" stop-opacity="0"/>
</linearGradient>
<linearGradient id="paint22_linear_179_500" x1="197.712" y1="7.60481" x2="197.712" y2="175.122" gradientUnits="userSpaceOnUse">
<stop stop-color="#3D3D3D"/>
<stop offset="1" stop-color="#2F2F2F" stop-opacity="0"/>
</linearGradient>
<linearGradient id="paint23_linear_179_500" x1="197.712" y1="7.60472" x2="197.712" y2="175.122" gradientUnits="userSpaceOnUse">
<stop stop-color="#3D3D3D"/>
<stop offset="1" stop-color="#2F2F2F" stop-opacity="0"/>
</linearGradient>
<linearGradient id="paint24_linear_179_500" x1="197.712" y1="7.60439" x2="197.712" y2="175.122" gradientUnits="userSpaceOnUse">
<stop stop-color="#3D3D3D"/>
<stop offset="1" stop-color="#2F2F2F" stop-opacity="0"/>
</linearGradient>
<linearGradient id="paint25_linear_179_500" x1="197.712" y1="7.6042" x2="197.712" y2="175.122" gradientUnits="userSpaceOnUse">
<stop stop-color="#3D3D3D"/>
<stop offset="1" stop-color="#2F2F2F" stop-opacity="0"/>
</linearGradient>
<linearGradient id="paint26_linear_179_500" x1="217.472" y1="27.558" x2="217.472" y2="195.075" gradientUnits="userSpaceOnUse">
<stop stop-color="#3D3D3D"/>
<stop offset="1" stop-color="#2F2F2F" stop-opacity="0"/>
</linearGradient>
<linearGradient id="paint27_linear_179_500" x1="217.472" y1="27.5584" x2="217.472" y2="195.076" gradientUnits="userSpaceOnUse">
<stop stop-color="#3D3D3D"/>
<stop offset="1" stop-color="#2F2F2F" stop-opacity="0"/>
</linearGradient>
<linearGradient id="paint28_linear_179_500" x1="217.472" y1="27.5581" x2="217.472" y2="195.075" gradientUnits="userSpaceOnUse">
<stop stop-color="#3D3D3D"/>
<stop offset="1" stop-color="#2F2F2F" stop-opacity="0"/>
</linearGradient>
<linearGradient id="paint29_linear_179_500" x1="217.472" y1="27.5581" x2="217.472" y2="195.075" gradientUnits="userSpaceOnUse">
<stop stop-color="#3D3D3D"/>
<stop offset="1" stop-color="#2F2F2F" stop-opacity="0"/>
</linearGradient>
<linearGradient id="paint30_linear_179_500" x1="217.472" y1="27.558" x2="217.472" y2="195.075" gradientUnits="userSpaceOnUse">
<stop stop-color="#3D3D3D"/>
<stop offset="1" stop-color="#2F2F2F" stop-opacity="0"/>
</linearGradient>
<linearGradient id="paint31_linear_179_500" x1="217.472" y1="27.5587" x2="217.472" y2="195.076" gradientUnits="userSpaceOnUse">
<stop stop-color="#3D3D3D"/>
<stop offset="1" stop-color="#2F2F2F" stop-opacity="0"/>
</linearGradient>
<linearGradient id="paint32_linear_179_500" x1="297.498" y1="27.558" x2="297.498" y2="195.075" gradientUnits="userSpaceOnUse">
<stop stop-color="#3D3D3D"/>
<stop offset="1" stop-color="#2F2F2F" stop-opacity="0"/>
</linearGradient>
<linearGradient id="paint33_linear_179_500" x1="237.683" y1="7.60484" x2="237.683" y2="175.122" gradientUnits="userSpaceOnUse">
<stop stop-color="#3D3D3D"/>
<stop offset="1" stop-color="#2F2F2F" stop-opacity="0"/>
</linearGradient>
<linearGradient id="paint34_linear_179_500" x1="257.554" y1="66.847" x2="257.554" y2="234.364" gradientUnits="userSpaceOnUse">
<stop stop-color="#3D3D3D"/>
<stop offset="1" stop-color="#2F2F2F" stop-opacity="0"/>
</linearGradient>
<linearGradient id="paint35_linear_179_500" x1="237.683" y1="7.60438" x2="237.683" y2="175.122" gradientUnits="userSpaceOnUse">
<stop stop-color="#3D3D3D"/>
<stop offset="1" stop-color="#2F2F2F" stop-opacity="0"/>
</linearGradient>
<linearGradient id="paint36_linear_179_500" x1="237.683" y1="7.6042" x2="237.683" y2="175.122" gradientUnits="userSpaceOnUse">
<stop stop-color="#3D3D3D"/>
<stop offset="1" stop-color="#2F2F2F" stop-opacity="0"/>
</linearGradient>
<linearGradient id="paint37_linear_179_500" x1="317.71" y1="7.60484" x2="317.71" y2="175.122" gradientUnits="userSpaceOnUse">
<stop stop-color="#3D3D3D"/>
<stop offset="1" stop-color="#2F2F2F" stop-opacity="0"/>
</linearGradient>
<linearGradient id="paint38_linear_179_500" x1="317.709" y1="7.60438" x2="317.709" y2="175.122" gradientUnits="userSpaceOnUse">
<stop stop-color="#3D3D3D"/>
<stop offset="1" stop-color="#2F2F2F" stop-opacity="0"/>
</linearGradient>
<linearGradient id="paint39_linear_179_500" x1="317.709" y1="7.6042" x2="317.709" y2="175.122" gradientUnits="userSpaceOnUse">
<stop stop-color="#3D3D3D"/>
<stop offset="1" stop-color="#2F2F2F" stop-opacity="0"/>
</linearGradient>
<linearGradient id="paint40_linear_179_500" x1="257.421" y1="-12.3492" x2="257.421" y2="155.168" gradientUnits="userSpaceOnUse">
<stop stop-color="#3D3D3D"/>
<stop offset="1" stop-color="#2F2F2F" stop-opacity="0"/>
</linearGradient>
<linearGradient id="paint41_linear_179_500" x1="257.421" y1="-12.3488" x2="257.421" y2="155.169" gradientUnits="userSpaceOnUse">
<stop stop-color="#3D3D3D"/>
<stop offset="1" stop-color="#2F2F2F" stop-opacity="0"/>
</linearGradient>
<linearGradient id="paint42_linear_179_500" x1="337.448" y1="-12.3492" x2="337.448" y2="155.168" gradientUnits="userSpaceOnUse">
<stop stop-color="#3D3D3D"/>
<stop offset="1" stop-color="#2F2F2F" stop-opacity="0"/>
</linearGradient>
<linearGradient id="paint43_linear_179_500" x1="337.447" y1="-12.3488" x2="337.447" y2="155.169" gradientUnits="userSpaceOnUse">
<stop stop-color="#3D3D3D"/>
<stop offset="1" stop-color="#2F2F2F" stop-opacity="0"/>
</linearGradient>
<linearGradient id="paint44_linear_179_500" x1="337.447" y1="-12.3488" x2="337.447" y2="155.169" gradientUnits="userSpaceOnUse">
<stop stop-color="#3D3D3D"/>
<stop offset="1" stop-color="#2F2F2F" stop-opacity="0"/>
</linearGradient>
<linearGradient id="paint45_linear_179_500" x1="337.447" y1="-12.3487" x2="337.447" y2="155.169" gradientUnits="userSpaceOnUse">
<stop stop-color="#3D3D3D"/>
<stop offset="1" stop-color="#2F2F2F" stop-opacity="0"/>
</linearGradient>
<linearGradient id="paint46_linear_179_500" x1="277.46" y1="26.6302" x2="277.46" y2="194.148" gradientUnits="userSpaceOnUse">
<stop stop-color="#3D3D3D"/>
<stop offset="1" stop-color="#2F2F2F" stop-opacity="0"/>
</linearGradient>
<linearGradient id="paint47_linear_179_500" x1="277.232" y1="27.0941" x2="277.232" y2="194.612" gradientUnits="userSpaceOnUse">
<stop stop-color="#3D3D3D"/>
<stop offset="1" stop-color="#2F2F2F" stop-opacity="0"/>
</linearGradient>
<radialGradient id="paint48_radial_179_500" cx="0" cy="0" r="1" gradientUnits="userSpaceOnUse" gradientTransform="translate(321.781 109.787) rotate(179.675) scale(168.883 127.827)">
<stop stop-color="#1E1C27" stop-opacity="0"/>
<stop offset="0.630208" stop-color="#1E1C27" stop-opacity="0.35"/>
<stop offset="1" stop-color="#1E1C27" stop-opacity="0.88"/>
</radialGradient>
</defs>
</svg>
