<svg width="144" height="144" viewBox="0 0 144 144" fill="none" xmlns="http://www.w3.org/2000/svg">
<path d="M72 144C111.765 144 144 111.765 144 72C144 32.2355 111.765 0 72 0C32.2355 0 0 32.2355 0 72C0 111.765 32.2355 144 72 144Z" fill="white" fill-opacity="0.05"/>
<path d="M80.81 102.124C79.503 102.12 78.3313 101.318 77.8534 100.102C77.3756 98.8855 77.688 97.501 78.6419 96.6081C90.6303 85.4485 98.4735 74.2894 100.195 65.6169C101.254 58.3387 97.7505 51.1537 91.3634 47.507C85.8794 44.8288 79.6623 47.0925 73.8592 53.8838L67.4823 60.9938C66.3116 62.3145 64.2917 62.4358 62.9709 61.2648C61.6502 60.0939 61.5289 58.074 62.7001 56.7533L69.0766 49.6751C80.0446 36.9216 90.2794 39.9187 94.1692 41.7998C103.197 46.6894 108.136 56.7607 106.477 66.8921C103.798 80.3473 90.5342 94.2166 83.01 101.295C82.4087 101.841 81.622 102.138 80.81 102.124ZM73.9871 108.724C75.0437 107.316 74.7583 105.317 73.3495 104.261C62.5092 96.1303 45.3876 79.1362 42.6774 65.6178C41.7436 59.3362 44.1621 53.0237 49.0542 48.9744C52.4769 46.0993 57.2907 45.5589 61.2657 47.6034C62.8519 48.3125 64.7142 47.6207 65.4527 46.0479C66.1912 44.475 65.5346 42.6004 63.9757 41.8324C57.8159 38.7712 50.4351 39.5941 45.1006 43.9368C38.2875 49.461 34.9341 58.197 36.3007 66.8612C39.4891 83.3132 59.3846 101.933 69.396 109.362C70.8049 110.419 72.8031 110.133 73.8597 108.724H73.9871Z" fill="white"/>
</svg>
