<svg width="24" height="24" viewBox="0 0 24 24" fill="none" xmlns="http://www.w3.org/2000/svg">
<path fill-rule="evenodd" clip-rule="evenodd" d="M9.90592 3.13028C9.04079 3.13028 8.33944 3.83163 8.33944 4.69676V5.21892H18.7826V15.6621H19.3048C20.17 15.6621 20.8713 14.9608 20.8713 14.0956V4.69676C20.8713 3.83163 20.17 3.13028 19.3048 3.13028H9.90592ZM5.22099 18.7806V10.426H13.5755V18.7806H5.22099ZM3.13235 9.90386C3.13235 9.03872 3.8337 8.33738 4.69883 8.33738H14.0977C14.9628 8.33738 15.6642 9.03872 15.6642 9.90386V19.3027C15.6642 20.1679 14.9628 20.8692 14.0977 20.8692H4.69883C3.8337 20.8692 3.13235 20.1679 3.13235 19.3027V9.90386Z" fill="white"/>
<path d="M8.33944 4.69676C8.33944 3.83163 9.04079 3.13028 9.90592 3.13028H19.3048C20.17 3.13028 20.8713 3.83163 20.8713 4.69676V14.0956C20.8713 14.9608 20.17 15.6621 19.3048 15.6621H18.7826V5.21892H8.33944V4.69676Z" fill="white"/>
<path fill-rule="evenodd" clip-rule="evenodd" d="M8.20709 4.69702C8.20709 3.75979 8.96688 3 9.90411 3H19.303C20.2402 3 21 3.75979 21 4.69702V14.0959C21 15.0331 20.2402 15.7929 19.303 15.7929H18.6503V5.34972H8.20709V4.69702ZM9.90411 3.26108C9.11107 3.26108 8.46817 3.90398 8.46817 4.69702V5.08864H18.9114V15.5318H19.303C20.0961 15.5318 20.7389 14.8889 20.7389 14.0959V4.69702C20.7389 3.90398 20.0961 3.26108 19.303 3.26108H9.90411ZM4.69702 8.46817C3.90398 8.46817 3.26108 9.11107 3.26108 9.90411V19.303C3.26108 20.0961 3.90398 20.7389 4.69702 20.7389H14.0959C14.8889 20.7389 15.5318 20.0961 15.5318 19.303V9.90411C15.5318 9.11107 14.8889 8.46817 14.0959 8.46817H4.69702ZM3 9.90411C3 8.96688 3.75979 8.20709 4.69702 8.20709H14.0959C15.0331 8.20709 15.7929 8.96688 15.7929 9.90411V19.303C15.7929 20.2402 15.0331 21 14.0959 21H4.69702C3.75979 21 3 20.2402 3 19.303V9.90411ZM5.08864 10.2957H13.7043V18.9114H5.08864V10.2957ZM5.34972 10.5568V18.6503H13.4432V10.5568H5.34972Z" fill="white"/>
</svg>
