<?xml version="1.0" encoding="UTF-8"?><svg id="a" xmlns="http://www.w3.org/2000/svg" viewBox="0 0 40 40"><path d="M35.001,19.987c.007,8.284-6.703,15.006-14.988,15.012-8.284,.007-15.006-6.703-15.012-14.988-.007-8.284,6.703-15.006,14.988-15.012,3.77-.003,7.403,1.413,10.175,3.968,3.08,2.837,4.833,6.833,4.837,11.02Z" style="fill:#f0cd00;"/><path d="M35.001,19.987c-.296,7.963-6.992,14.177-14.954,13.881-7.963-.296-14.177-6.992-13.881-14.954,.289-7.755,6.66-13.892,14.42-13.891,8.047,.301,14.415,6.912,14.415,14.964Z" style="fill:#ffde50;"/><path d="M30.164,8.967L9.008,30.123c-.721-.783-1.357-1.641-1.897-2.558L27.609,7.068c.917,.54,1.773,1.177,2.555,1.899Z" style="fill:#ffea94;"/><path d="M33.968,14.512L14.551,33.929c-1.364-.536-2.641-1.27-3.792-2.178L31.791,10.72c.908,1.15,1.641,2.428,2.177,3.792Z" style="fill:#ffea94;"/><path d="M31.663,19.987c.021,6.426-5.171,11.653-11.598,11.674-6.4,.021-11.616-5.131-11.673-11.531v-.143c0-6.426,5.21-11.636,11.636-11.636h.144c6.371,.076,11.495,5.264,11.493,11.635h-.001Z" style="fill:#faa300;"/><path d="M28.256,11.759L11.802,28.215c-2.152-2.145-3.375-5.049-3.407-8.088v-.143c0-6.426,5.209-11.635,11.635-11.636h.144c3.037,.036,5.938,1.26,8.083,3.411Z" style="fill:#ffbd00;"/><path d="M31.662,19.987c0,6.426-5.209,11.636-11.635,11.636h0c-.221,0-.44-.006-.657-.018,6.416-.362,11.324-5.857,10.962-12.273-.334-5.911-5.052-10.629-10.962-10.962,.217-.012,.437-.018,.657-.018,6.426,0,11.636,5.21,11.636,11.636Z" style="fill:#f68e00;"/><path d="M25.288,15.224c.029,.062,.043,.129,.043,.197v1.596c-.002,1.013-.481,1.965-1.292,2.571-.64,.501-1.293,.973-1.963,1.446l-1.442,1.003c-.189,.137-.422,.202-.655,.182-.12-.014-.238-.045-.35-.091-.1-.05-.196-.106-.289-.167-1.308-.897-2.617-1.794-3.895-2.736-.578-.41-1.141-.836-1.719-1.261-.076-.046-.137-.107-.214-.152-.213-.166-.359-.403-.41-.668-.013-.071-.019-.142-.016-.214v-1.446c.002-.061-.003-.123-.016-.183-.004-.009-.007-.019-.006-.028,0-.02,.009-.039,.026-.051,.008-.006,.017-.01,.027-.012h.015c.004,.026,.009,.051,.015,.076,.013,.149,.077,.289,.183,.395,.076,.096,.169,.178,.274,.243,1.521,1.14,3.073,2.25,4.64,3.344,.365,.259,.745,.501,1.11,.759,.148,.103,.312,.18,.486,.227,.204,.049,.419,.027,.609-.061,.071-.032,.137-.073,.198-.122,1.004-.714,1.993-1.414,2.999-2.128,.198-.137,.38-.274,.561-.425,.476-.427,.824-.979,1.005-1.593,.028-.105,.048-.211,.061-.319,.013-.06,.018-.121,.016-.183v-.2Zm-5.417-2.204h.365c.592,.044,1.165,.227,1.674,.532,.344,.209,.666,.453,.959,.729,.195,.168,.325,.399,.365,.653,.041,.249,.004,.504-.107,.73-.031,.076-.077,.137-.107,.197-.031,.062-.105,.088-.168,.061-.015,0-.015-.015-.03-.015-.107-.076-.214-.137-.335-.214-.436-.309-.927-.53-1.446-.653-.333-.078-.677-.104-1.018-.076-.696,.051-1.365,.293-1.932,.699-.214,.152-.441,.273-.669,.425-.015,0-.015,.015-.031,.015-.011-.002-.022-.007-.03-.015l-1.278-.866c-.028-.017-.053-.037-.076-.061-.017-.011-.03-.028-.035-.048-.006-.019-.004-.04,.004-.059,0-.015,.016-.015,.031-.03l.03-.031c.365-.243,.715-.517,1.08-.776,.313-.23,.638-.443,.974-.638,.391-.217,.811-.375,1.247-.47,.174-.053,.354-.084,.536-.092l-.002,.002Zm-.672,.123v-2.671c.002-.101,.044-.198,.117-.268,.073-.07,.17-.108,.271-.107h.775c.209-.004,.383,.161,.388,.37v2.624c-.517-.059-1.04-.042-1.552,.049v.002Zm6.106,6.534c.029,.062,.045,.129,.046,.197v1.627c-.013,.716-.257,1.409-.696,1.975-.191,.239-.41,.454-.654,.638-.643,.501-1.31,.973-1.982,1.446l-1.339,.927c-.115,.08-.244,.137-.381,.168-.182,.046-.375,.03-.547-.046-.124-.045-.242-.106-.35-.182-1.491-1.018-2.982-2.052-4.445-3.131-.456-.334-.911-.668-1.37-1.018-.226-.164-.378-.41-.424-.686-.013-.071-.019-.142-.016-.214v-1.473c.002-.056-.003-.112-.015-.167-.015-.046,.015-.092,.046-.092,0,.031,.015,.046,.015,.077,.017,.167,.093,.323,.214,.44,.074,.08,.155,.151,.244,.214,1.582,1.185,3.21,2.34,4.836,3.465,.303,.214,.608,.41,.898,.608,.123,.095,.262,.167,.411,.214,.112,.038,.23,.053,.347,.046,.117-.008,.232-.039,.337-.092,.075-.034,.146-.075,.214-.121,1.095-.777,2.191-1.553,3.286-2.341,.605-.437,1.049-1.062,1.263-1.778,.032-.12,.058-.242,.076-.365-.03-.11-.035-.225-.015-.337h0Zm-4.842,10.196h-.911c-.225-.002-.407-.186-.406-.411l.058-3.176c.079-.111,.186-.2,.311-.256l1.267-.245c.05,0,.09,.041,.09,.091h0v3.589c0,.225-.182,.408-.407,.41h-.002Z" style="fill:#f68e00;"/><path d="M26.167,15.399c.028,.062,.043,.129,.043,.198v1.596c-.003,1.013-.482,1.965-1.293,2.571-.639,.502-1.293,.973-1.963,1.446l-1.442,1.002c-.189,.137-.421,.202-.654,.183-.12-.014-.238-.045-.35-.092-.1-.05-.196-.105-.289-.167-1.308-.897-2.617-1.794-3.895-2.736-.578-.41-1.141-.836-1.719-1.261-.076-.046-.137-.107-.214-.152-.214-.166-.36-.403-.411-.669-.013-.071-.019-.142-.016-.214v-1.443c.002-.061-.003-.123-.015-.183-.009-.018-.009-.039,0-.057,.004-.009,.011-.016,.019-.022,.008-.006,.017-.01,.027-.012h.015c.004,.026,.009,.051,.016,.076,.012,.149,.077,.289,.183,.395,.076,.097,.169,.179,.274,.243,1.521,1.14,3.073,2.25,4.64,3.344,.365,.259,.745,.501,1.111,.759,.147,.103,.312,.18,.485,.228,.204,.049,.419,.027,.609-.061,.071-.031,.138-.072,.198-.122,1.004-.714,1.993-1.413,2.999-2.128,.198-.137,.38-.273,.561-.425,.477-.428,.825-.98,1.005-1.595,.028-.105,.048-.211,.061-.319,.013-.06,.018-.121,.016-.183v-.2Zm-5.417-2.205h.365c.592,.045,1.165,.227,1.674,.532,.344,.209,.664,.454,.957,.73,.195,.168,.325,.4,.365,.654,.041,.248,.003,.503-.107,.729-.031,.076-.077,.137-.107,.198-.015,.03-.041,.052-.072,.064-.031,.011-.066,.01-.096-.003-.015,0-.015-.015-.03-.015-.107-.076-.214-.137-.335-.214-.436-.309-.927-.531-1.446-.654-.333-.078-.677-.103-1.018-.076-.696,.051-1.364,.292-1.932,.696-.214,.152-.441,.274-.67,.425-.015,0-.015,.016-.03,.016-.012-.002-.022-.007-.031-.016l-1.278-.866c-.028-.016-.054-.037-.076-.061-.035-.023-.048-.069-.031-.107,0-.016,.016-.016,.031-.031l.03-.031c.365-.243,.715-.517,1.08-.777,.312-.229,.637-.441,.972-.636,.391-.216,.811-.375,1.247-.47,.174-.052,.354-.083,.536-.092l.002,.002Zm-.672,.123v-2.67c.006-.209,.179-.375,.388-.37h.773c.209-.004,.383,.161,.388,.37v2.624c-.517-.06-1.04-.044-1.553,.047h.004Zm6.106,6.533c.029,.062,.045,.129,.046,.198v1.626c-.014,.717-.259,1.41-.699,1.976-.191,.239-.41,.454-.654,.638-.643,.501-1.31,.973-1.982,1.446l-1.339,.927c-.115,.08-.244,.137-.381,.167-.182,.046-.375,.03-.547-.046-.124-.045-.242-.107-.35-.183-1.491-1.018-2.982-2.051-4.443-3.131-.456-.334-.911-.668-1.37-1.018-.226-.164-.378-.41-.424-.686-.013-.071-.018-.142-.015-.214v-1.473c.002-.056-.003-.112-.016-.167-.015-.046,.016-.092,.046-.092,0,.031,.015,.046,.015,.076,.017,.168,.093,.324,.214,.441,.074,.079,.156,.151,.244,.214,1.582,1.185,3.21,2.34,4.836,3.465,.303,.214,.608,.41,.898,.608,.123,.095,.262,.168,.411,.214,.225,.077,.472,.06,.684-.046,.075-.034,.146-.075,.214-.121,1.095-.777,2.191-1.553,3.286-2.341,.605-.437,1.049-1.062,1.263-1.778,.032-.12,.058-.242,.076-.365-.031-.11-.038-.225-.019-.338h.004Zm-4.842,10.196h-.911c-.225-.002-.406-.186-.406-.411l.058-3.176c.079-.111,.186-.199,.311-.255l1.267-.245c.024,0,.047,.01,.064,.027,.017,.017,.026,.04,.026,.064v3.589c0,.225-.181,.407-.406,.41l-.003-.002Z" style="fill:#ffea94;"/></svg>