<svg width="103" height="102" viewBox="0 0 103 102" fill="none" xmlns="http://www.w3.org/2000/svg">
<g filter="url(#filter0_d_419_289)">
<path d="M6.38525 39.2158C6.24602 26.7377 5.84563 22.4244 9.08306 17.2592C14.321 8.9021 20.0291 7.25399 24.078 6.63556C29.476 5.81107 33.1436 6.26986 40.0078 6.26986H59.8212C71.5891 6.26986 63.9284 6.26945 68.6644 6.26956C79.1137 5.58275 86.2414 12.7946 86.2414 12.7946C92.4687 19.6632 92.4688 26.9438 92.4688 26.9438V58.5457C92.4688 70.0768 92.2618 70.6962 92.2618 70.6962C92.2618 70.6962 92.2618 79.7626 84.1654 86.6998C78.3471 91.685 72.7307 91.9421 59.8212 91.5764H40.0078C29.411 91.324 25.3974 92.629 17.7118 88.7139C10.323 84.9501 7.40514 79.5788 6.38525 71.0396C5.83484 66.4312 6.38525 70.1615 6.38525 58.6304V39.2158Z" fill="url(#paint0_linear_419_289)"/>
</g>
<path d="M41.5295 32.5182L38.678 34.4443C38.4533 34.6701 38.3835 34.8106 38.678 35.0183L38.9555 35.2442L42.7584 37.9008C42.7584 37.9008 46.534 35.8495 47.3401 35.5041C48.7598 34.8669 50.2982 34.5409 51.8529 34.5477C52.9066 34.6185 53.9525 34.7772 54.98 35.0221C56.2916 35.3997 57.5344 35.9863 58.6612 36.7594L59.7326 37.471C59.7729 37.5106 59.8199 37.5427 59.8713 37.5659C59.9238 37.5886 59.9803 37.6003 60.0375 37.6001C60.0949 37.6002 60.1517 37.5886 60.2045 37.5659C60.256 37.5433 60.3028 37.5111 60.3423 37.471C60.3859 37.4392 60.4214 37.3976 60.4462 37.3496C60.6862 36.9767 60.8767 36.5738 61.0125 36.1512C61.1025 35.8164 61.1491 35.4714 61.1513 35.1246C61.1528 34.6291 61.0521 34.1387 60.8557 33.6842C60.6593 33.2298 60.3714 32.8211 60.0101 32.4841L59.2795 31.8427C58.3993 30.9943 57.3894 30.2934 56.2883 29.7667L55.4501 29.3473C53.9778 28.7906 52.4169 28.5083 50.8439 28.5143C49.126 28.5759 46.2358 29.3483 41.5295 32.5182Z" fill="#FCFCFC"/>
<g filter="url(#filter1_i_419_289)">
<g style="mix-blend-mode:difference" opacity="0.9">
<path d="M30.3434 41.433C30.3178 41.7257 30.3178 42.0201 30.3434 42.3128C30.4848 43.0169 30.8765 43.6471 31.4471 44.0884L32.4835 44.9184C37.9026 48.9645 43.5046 52.8366 49.0403 56.6607L49.8775 57.1406C50.2413 57.3319 50.639 57.4511 51.0486 57.4916H51.1813C51.8408 57.4913 52.4819 57.2757 53.0057 56.8781L58.1403 53.292C59.8129 52.0471 61.6183 50.8182 63.2748 49.5282C63.8204 49.0956 64.3279 48.6177 64.792 48.0998C66.072 46.6138 66.8742 44.7814 67.0952 42.8388C67.0952 42.2074 67.1758 41.4942 67.1758 40.7471V37.0133C67.1834 36.9414 67.1834 36.8688 67.1758 36.7969V36.8637C67.1618 37.6022 67.0381 38.3346 66.8088 39.0373C66.1517 41.0373 64.8739 42.7796 63.1582 44.015C59.9125 46.3543 56.6525 48.6954 53.3243 50.9519L52.5657 51.3838C52.198 51.5694 51.7912 51.6661 51.3786 51.6661H51.1785C50.9757 51.6583 50.7745 51.6267 50.5792 51.572C50.4263 51.5323 50.2791 51.4734 50.1411 51.3969L48.954 50.6959C44.9715 47.9853 41.0269 45.2189 37.1203 42.3966L31.9857 38.5386L31.2328 37.8376C30.9021 37.5029 30.6818 37.0762 30.6013 36.6143V36.4355C30.5482 36.4355 30.3434 41.433 30.3434 41.433Z" fill="url(#paint1_radial_419_289)"/>
</g>
</g>
<g style="mix-blend-mode:difference">
<path d="M66.8221 51.7667C66.8809 51.5916 66.9624 51.3404 67.0468 51.0939V54.424C67.0452 55.0582 66.9954 55.6913 66.898 56.3181C66.5719 58.4968 65.4674 60.4866 63.7859 61.9244L62.2688 63.1665C60.5326 64.4575 58.7471 65.7005 56.9417 66.9435L53.0683 69.6102L52.726 69.805C52.2934 70.0807 51.7894 70.2259 51.2752 70.2228C50.9727 70.2258 50.6723 70.1738 50.3886 70.0694C49.9797 69.9314 49.5936 69.7338 49.2432 69.4832L37.5404 61.3721L31.7563 57.0925C31.4226 56.8582 31.1406 56.5589 30.9275 56.2127C30.715 55.8712 30.5749 55.4901 30.516 55.093C30.4999 54.8593 30.4999 54.6247 30.516 54.391V50.439C30.5835 50.5901 30.6671 50.7336 30.7654 50.8671C31.0384 51.1898 31.3538 51.4746 31.7032 51.714L35.496 54.5322C39.1334 57.2026 42.826 59.7934 46.574 62.3046L48.9995 63.9626L50.0359 64.5093H50.0568C50.4806 64.6742 50.9375 64.7386 51.3909 64.6974C51.8431 64.657 52.2798 64.5138 52.6672 64.2787L53.1508 64.0152H53.1584L62.8586 57.1462C63.7038 56.5429 64.4554 55.8201 65.0897 55.0008C65.8596 54.0356 66.4466 52.9398 66.8221 51.7667Z" fill="url(#paint2_radial_419_289)"/>
</g>
<g filter="url(#filter2_i_419_289)">
<g style="mix-blend-mode:difference" opacity="0.9">
<g style="mix-blend-mode:difference" opacity="0.9">
<path d="M66.8299 51.7662C66.8887 51.5912 66.9702 51.3399 67.0546 51.0934V54.4235C67.053 55.0577 67.0032 55.6909 66.9058 56.3176C66.5797 58.4964 65.4752 60.4861 63.7937 61.9239L62.2766 63.166C60.5404 64.457 58.7549 65.7 56.9495 66.943L53.0761 69.6098L52.7338 69.8045C52.3012 70.0803 51.7972 70.2254 51.283 70.2223C50.9805 70.2253 50.6801 70.1733 50.3964 70.0689C49.9875 69.9309 49.6015 69.7333 49.251 69.4827L37.5482 61.3716L31.7641 57.0921C31.4304 56.8578 31.1484 56.5584 30.9353 56.2123C30.7228 55.8707 30.5828 55.4897 30.5238 55.0925C30.5077 54.8588 30.5077 54.6243 30.5238 54.3905V50.4385C30.5913 50.5896 30.6749 50.7332 30.7732 50.8666C31.0462 51.1893 31.3616 51.4741 31.711 51.7135L35.5038 54.5317C39.1412 57.2022 42.8338 59.793 46.5818 62.3041L49.0073 63.9621L50.0437 64.5088H50.0646C50.4885 64.6737 50.9453 64.7381 51.3987 64.697C51.8509 64.6566 52.2876 64.5133 52.675 64.2782L53.1586 64.0148H53.1662L62.8664 57.1457C63.7116 56.5424 64.4633 55.8196 65.0975 55.0003C65.8674 54.0352 66.4544 52.9394 66.8299 51.7662Z" fill="url(#paint3_radial_419_289)"/>
</g>
</g>
</g>
<g filter="url(#filter3_i_419_289)">
<path d="M41.5295 32.5182L38.678 34.4443C38.4533 34.6701 38.3835 34.8106 38.678 35.0183L38.9555 35.2442L42.7584 37.9008C42.7584 37.9008 46.534 35.8495 47.3401 35.5041C48.7598 34.8669 50.2982 34.5409 51.8529 34.5477C52.9066 34.6185 53.9525 34.7772 54.98 35.0221C56.2916 35.3997 57.5344 35.9863 58.6612 36.7594L59.7326 37.471C59.7729 37.5106 59.8199 37.5427 59.8713 37.5659C59.9238 37.5886 59.9803 37.6003 60.0375 37.6001C60.0949 37.6002 60.1517 37.5886 60.2045 37.5659C60.256 37.5433 60.3028 37.5111 60.3423 37.471C60.3859 37.4392 60.4214 37.3976 60.4462 37.3496C60.6862 36.9767 60.8767 36.5738 61.0125 36.1512C61.1025 35.8164 61.1491 35.4714 61.1513 35.1246C61.1528 34.6291 61.0521 34.1387 60.8557 33.6842C60.6593 33.2298 60.3714 32.8211 60.0101 32.4841L59.2795 31.8427C58.3993 30.9943 57.3894 30.2934 56.2883 29.7667L55.4501 29.3473C53.9778 28.7906 52.4169 28.5083 50.8439 28.5143C49.126 28.5759 46.2358 29.3483 41.5295 32.5182Z" fill="white"/>
</g>
<g filter="url(#filter4_i_419_289)">
<g opacity="0.9">
<path d="M30.3434 41.433C30.3178 41.7257 30.3178 42.0201 30.3434 42.3128C30.4848 43.0169 30.8765 43.6471 31.4471 44.0884L32.4835 44.9184C37.9026 48.9645 43.5046 52.8366 49.0403 56.6607L49.8775 57.1406C50.2413 57.3319 50.639 57.4511 51.0486 57.4916H51.1813C51.8408 57.4913 52.4819 57.2757 53.0057 56.8781L58.1403 53.292C59.8129 52.0471 61.6183 50.8182 63.2748 49.5282C63.8204 49.0956 64.3279 48.6177 64.792 48.0998C66.072 46.6138 66.8742 44.7814 67.0952 42.8388C67.0952 42.2074 67.1758 41.4942 67.1758 40.7471V37.0133C67.1834 36.9414 67.1834 36.8688 67.1758 36.7969V36.8637C67.1618 37.6022 67.0381 38.3346 66.8088 39.0373C66.1517 41.0373 64.8739 42.7796 63.1582 44.015C59.9125 46.3543 56.6525 48.6954 53.3243 50.9519L52.5657 51.3838C52.198 51.5694 51.7912 51.6661 51.3786 51.6661H51.1785C50.9757 51.6583 50.7745 51.6267 50.5792 51.572C50.4263 51.5323 50.2791 51.4734 50.1411 51.3969L48.954 50.6959C44.9715 47.9853 41.0269 45.2189 37.1203 42.3966L31.9857 38.5386L31.2328 37.8376C30.9021 37.5029 30.6818 37.0762 30.6013 36.6143V36.4355C30.5482 36.4355 30.3434 41.433 30.3434 41.433Z" fill="url(#paint4_radial_419_289)"/>
</g>
</g>
<g style="mix-blend-mode:difference">
<path d="M66.8221 51.7667C66.8809 51.5916 66.9624 51.3404 67.0468 51.0939V54.424C67.0452 55.0582 66.9954 55.6913 66.898 56.3181C66.5719 58.4968 65.4674 60.4866 63.7859 61.9244L62.2688 63.1665C60.5326 64.4575 58.7471 65.7005 56.9417 66.9435L53.0683 69.6102L52.726 69.805C52.2934 70.0807 51.7894 70.2259 51.2752 70.2228C50.9727 70.2258 50.6723 70.1738 50.3886 70.0694C49.9797 69.9314 49.5936 69.7338 49.2432 69.4832L37.5404 61.3721L31.7563 57.0925C31.4226 56.8582 31.1406 56.5589 30.9275 56.2127C30.715 55.8712 30.5749 55.4901 30.516 55.093C30.4999 54.8593 30.4999 54.6247 30.516 54.391V50.439C30.5835 50.5901 30.6671 50.7336 30.7654 50.8671C31.0384 51.1898 31.3538 51.4746 31.7032 51.714L35.496 54.5322C39.1334 57.2026 42.826 59.7934 46.574 62.3046L48.9995 63.9626L50.0359 64.5093H50.0568C50.4806 64.6742 50.9375 64.7386 51.3909 64.6974C51.8431 64.657 52.2798 64.5138 52.6672 64.2787L53.1508 64.0152H53.1584L62.8586 57.1462C63.7038 56.5429 64.4554 55.8201 65.0897 55.0008C65.8596 54.0356 66.4466 52.9398 66.8221 51.7667Z" fill="url(#paint5_radial_419_289)"/>
</g>
<g filter="url(#filter5_i_419_289)">
<g opacity="0.9">
<g style="mix-blend-mode:difference" opacity="0.9">
<path d="M66.8299 51.7662C66.8887 51.5912 66.9702 51.3399 67.0546 51.0934V54.4235C67.053 55.0577 67.0032 55.6909 66.9058 56.3176C66.5797 58.4964 65.4752 60.4861 63.7937 61.9239L62.2766 63.166C60.5404 64.457 58.7549 65.7 56.9495 66.943L53.0761 69.6098L52.7338 69.8045C52.3012 70.0803 51.7972 70.2254 51.283 70.2223C50.9805 70.2253 50.6801 70.1733 50.3964 70.0689C49.9875 69.9309 49.6015 69.7333 49.251 69.4827L37.5482 61.3716L31.7641 57.0921C31.4304 56.8578 31.1484 56.5584 30.9353 56.2123C30.7228 55.8707 30.5828 55.4897 30.5238 55.0925C30.5077 54.8588 30.5077 54.6243 30.5238 54.3905V50.4385C30.5913 50.5896 30.6749 50.7332 30.7732 50.8666C31.0462 51.1893 31.3616 51.4741 31.711 51.7135L35.5038 54.5317C39.1412 57.2022 42.8338 59.793 46.5818 62.3041L49.0073 63.9621L50.0437 64.5088H50.0646C50.4885 64.6737 50.9453 64.7381 51.3987 64.697C51.8509 64.6566 52.2876 64.5133 52.675 64.2782L53.1586 64.0148H53.1662L62.8664 57.1457C63.7116 56.5424 64.4633 55.8196 65.0975 55.0003C65.8674 54.0352 66.4544 52.9394 66.8299 51.7662Z" fill="url(#paint6_radial_419_289)"/>
</g>
</g>
</g>
<defs>
<filter id="filter0_d_419_289" x="0.140625" y="0.142578" width="102.328" height="101.547" filterUnits="userSpaceOnUse" color-interpolation-filters="sRGB">
<feFlood flood-opacity="0" result="BackgroundImageFix"/>
<feColorMatrix in="SourceAlpha" type="matrix" values="0 0 0 0 0 0 0 0 0 0 0 0 0 0 0 0 0 0 127 0" result="hardAlpha"/>
<feOffset dx="2" dy="2"/>
<feGaussianBlur stdDeviation="4"/>
<feComposite in2="hardAlpha" operator="out"/>
<feColorMatrix type="matrix" values="0 0 0 0 0 0 0 0 0 0 0 0 0 0 0 0 0 0 0.25 0"/>
<feBlend mode="normal" in2="BackgroundImageFix" result="effect1_dropShadow_419_289"/>
<feBlend mode="normal" in="SourceGraphic" in2="effect1_dropShadow_419_289" result="shape"/>
</filter>
<filter id="filter1_i_419_289" x="29.3242" y="36.4355" width="37.8574" height="22.0562" filterUnits="userSpaceOnUse" color-interpolation-filters="sRGB">
<feFlood flood-opacity="0" result="BackgroundImageFix"/>
<feBlend mode="normal" in="SourceGraphic" in2="BackgroundImageFix" result="shape"/>
<feColorMatrix in="SourceAlpha" type="matrix" values="0 0 0 0 0 0 0 0 0 0 0 0 0 0 0 0 0 0 127 0" result="hardAlpha"/>
<feOffset dx="-1" dy="1"/>
<feGaussianBlur stdDeviation="0.5"/>
<feComposite in2="hardAlpha" operator="arithmetic" k2="-1" k3="1"/>
<feColorMatrix type="matrix" values="0 0 0 0 0.0980392 0 0 0 0 0.105882 0 0 0 0 0.113725 0 0 0 0.55 0"/>
<feBlend mode="normal" in2="shape" result="effect1_innerShadow_419_289"/>
</filter>
<filter id="filter2_i_419_289" x="29.5117" y="50.4385" width="37.543" height="20.7839" filterUnits="userSpaceOnUse" color-interpolation-filters="sRGB">
<feFlood flood-opacity="0" result="BackgroundImageFix"/>
<feBlend mode="normal" in="SourceGraphic" in2="BackgroundImageFix" result="shape"/>
<feColorMatrix in="SourceAlpha" type="matrix" values="0 0 0 0 0 0 0 0 0 0 0 0 0 0 0 0 0 0 127 0" result="hardAlpha"/>
<feOffset dx="-1" dy="1"/>
<feGaussianBlur stdDeviation="0.5"/>
<feComposite in2="hardAlpha" operator="arithmetic" k2="-1" k3="1"/>
<feColorMatrix type="matrix" values="0 0 0 0 0.0965366 0 0 0 0 0.105884 0 0 0 0 0.112652 0 0 0 0.55 0"/>
<feBlend mode="normal" in2="shape" result="effect1_innerShadow_419_289"/>
</filter>
<filter id="filter3_i_419_289" x="38.4824" y="28.5142" width="22.6689" height="10.3866" filterUnits="userSpaceOnUse" color-interpolation-filters="sRGB">
<feFlood flood-opacity="0" result="BackgroundImageFix"/>
<feBlend mode="normal" in="SourceGraphic" in2="BackgroundImageFix" result="shape"/>
<feColorMatrix in="SourceAlpha" type="matrix" values="0 0 0 0 0 0 0 0 0 0 0 0 0 0 0 0 0 0 127 0" result="hardAlpha"/>
<feOffset dy="1"/>
<feGaussianBlur stdDeviation="0.5"/>
<feComposite in2="hardAlpha" operator="arithmetic" k2="-1" k3="1"/>
<feColorMatrix type="matrix" values="0 0 0 0 0 0 0 0 0 0 0 0 0 0 0 0 0 0 0.25 0"/>
<feBlend mode="normal" in2="shape" result="effect1_innerShadow_419_289"/>
</filter>
<filter id="filter4_i_419_289" x="29.3242" y="36.4355" width="37.8574" height="22.0562" filterUnits="userSpaceOnUse" color-interpolation-filters="sRGB">
<feFlood flood-opacity="0" result="BackgroundImageFix"/>
<feBlend mode="normal" in="SourceGraphic" in2="BackgroundImageFix" result="shape"/>
<feColorMatrix in="SourceAlpha" type="matrix" values="0 0 0 0 0 0 0 0 0 0 0 0 0 0 0 0 0 0 127 0" result="hardAlpha"/>
<feOffset dx="-1" dy="1"/>
<feGaussianBlur stdDeviation="0.5"/>
<feComposite in2="hardAlpha" operator="arithmetic" k2="-1" k3="1"/>
<feColorMatrix type="matrix" values="0 0 0 0 0.0980392 0 0 0 0 0.105882 0 0 0 0 0.113725 0 0 0 0.25 0"/>
<feBlend mode="normal" in2="shape" result="effect1_innerShadow_419_289"/>
</filter>
<filter id="filter5_i_419_289" x="29.5117" y="50.4385" width="37.543" height="20.7839" filterUnits="userSpaceOnUse" color-interpolation-filters="sRGB">
<feFlood flood-opacity="0" result="BackgroundImageFix"/>
<feBlend mode="normal" in="SourceGraphic" in2="BackgroundImageFix" result="shape"/>
<feColorMatrix in="SourceAlpha" type="matrix" values="0 0 0 0 0 0 0 0 0 0 0 0 0 0 0 0 0 0 127 0" result="hardAlpha"/>
<feOffset dx="-1" dy="1"/>
<feGaussianBlur stdDeviation="0.5"/>
<feComposite in2="hardAlpha" operator="arithmetic" k2="-1" k3="1"/>
<feColorMatrix type="matrix" values="0 0 0 0 0.0965366 0 0 0 0 0.105884 0 0 0 0 0.112652 0 0 0 0.25 0"/>
<feBlend mode="normal" in2="shape" result="effect1_innerShadow_419_289"/>
</filter>
<linearGradient id="paint0_linear_419_289" x1="25.7104" y1="8.96226" x2="67.7316" y2="90.5258" gradientUnits="userSpaceOnUse">
<stop stop-color="#33343B"/>
<stop offset="1" stop-color="#18191E"/>
</linearGradient>
<radialGradient id="paint1_radial_419_289" cx="0" cy="0" r="1" gradientUnits="userSpaceOnUse" gradientTransform="translate(43.8927 13.521) rotate(54.8302) scale(63.0936 113.979)">
<stop stop-color="#0A0909"/>
<stop offset="1" stop-opacity="0.4"/>
</radialGradient>
<radialGradient id="paint2_radial_419_289" cx="0" cy="0" r="1" gradientUnits="userSpaceOnUse" gradientTransform="translate(75.7218 34.5545) rotate(127.07) scale(44.7029 82.1139)">
<stop/>
<stop offset="1" stop-color="#0F1010"/>
</radialGradient>
<radialGradient id="paint3_radial_419_289" cx="0" cy="0" r="1" gradientUnits="userSpaceOnUse" gradientTransform="translate(43.9645 28.9082) rotate(53.3675) scale(60.3876 110.937)">
<stop/>
<stop offset="1" stop-opacity="0.93"/>
</radialGradient>
<radialGradient id="paint4_radial_419_289" cx="0" cy="0" r="1" gradientUnits="userSpaceOnUse" gradientTransform="translate(43.8927 13.521) rotate(54.8302) scale(63.0936 113.979)">
<stop stop-color="white"/>
<stop offset="1" stop-color="#FAFAFA"/>
</radialGradient>
<radialGradient id="paint5_radial_419_289" cx="0" cy="0" r="1" gradientUnits="userSpaceOnUse" gradientTransform="translate(75.7218 34.5545) rotate(127.07) scale(44.7029 82.1139)">
<stop stop-color="#F1F6FB"/>
<stop offset="1" stop-color="#E5F4F5" stop-opacity="0.31"/>
</radialGradient>
<radialGradient id="paint6_radial_419_289" cx="0" cy="0" r="1" gradientUnits="userSpaceOnUse" gradientTransform="translate(43.9645 28.9082) rotate(53.3675) scale(60.3876 5.78524)">
<stop stop-color="white"/>
<stop offset="1" stop-color="white"/>
</radialGradient>
</defs>
</svg>
