<svg xmlns="http://www.w3.org/2000/svg" viewBox="0 0 56.014 56.014"><path d="M56.014,27.983A28.006,28.006,0,1,1,46.983,7.408,28.007,28.007,0,0,1,56.014,27.983Z" fill="#f0cd00"/><path d="M56.014,27.983A26.937,26.937,0,1,1,29.1.044,27.959,27.959,0,0,1,56.014,27.983Z" fill="#ffde50"/><path d="M46.983,7.408l-39.5,39.5a28.067,28.067,0,0,1-3.541-4.776L42.212,3.863A28.012,28.012,0,0,1,46.983,7.408Z" fill="#ffea94"/><path d="M54.085,17.762,17.833,54.014a27.874,27.874,0,0,1-7.079-4.067L50.021,10.682A27.887,27.887,0,0,1,54.085,17.762Z" fill="#ffea94"/><path d="M49.781,27.983a21.725,21.725,0,0,1-43.449.267v-.267A21.725,21.725,0,0,1,28.057,6.258h.268A21.718,21.718,0,0,1,49.783,27.981Z" fill="#faa300"/><path d="M43.421,12.621,12.7,43.345a21.637,21.637,0,0,1-6.361-15.1v-.267A21.725,21.725,0,0,1,28.062,6.253h.268A21.673,21.673,0,0,1,43.421,12.621Z" fill="#ffbd00"/><path d="M49.78,27.983A21.725,21.725,0,0,1,28.055,49.709q-.618,0-1.227-.034a21.726,21.726,0,0,0,0-43.383q.609-.034,1.227-.034A21.725,21.725,0,0,1,49.78,27.983Z" fill="#f68e00"/><path d="M37.88,19.09a.868.868,0,0,1,.08.368v2.98a6.005,6.005,0,0,1-2.413,4.8c-1.194.936-2.415,1.816-3.665,2.7L29.19,31.81a1.814,1.814,0,0,1-1.222.34,2.428,2.428,0,0,1-.653-.17,5.079,5.079,0,0,1-.54-.312c-2.443-1.675-4.886-3.349-7.272-5.108-1.08-.766-2.131-1.561-3.21-2.355-.142-.085-.256-.2-.4-.284a2.074,2.074,0,0,1-.766-1.248,1.728,1.728,0,0,1-.029-.4v-2.7a1.4,1.4,0,0,0-.029-.341.118.118,0,0,1-.012-.053.114.114,0,0,1,.048-.095.132.132,0,0,1,.05-.022h.028a1.32,1.32,0,0,0,.028.142,1.194,1.194,0,0,0,.341.738,1.961,1.961,0,0,0,.512.453c2.84,2.129,5.738,4.2,8.664,6.244.682.483,1.391.935,2.073,1.418a2.916,2.916,0,0,0,.907.424,1.746,1.746,0,0,0,1.137-.113,1.651,1.651,0,0,0,.369-.227c1.874-1.334,3.721-2.64,5.6-3.973.369-.256.71-.511,1.048-.794A6.432,6.432,0,0,0,37.738,20.4a4.279,4.279,0,0,0,.114-.595,1.345,1.345,0,0,0,.029-.341ZM27.767,14.975h.681a7.108,7.108,0,0,1,3.125.993,10.676,10.676,0,0,1,1.79,1.362,2.024,2.024,0,0,1,.681,1.22,2.265,2.265,0,0,1-.2,1.363c-.057.141-.143.255-.2.368a.241.241,0,0,1-.313.113c-.028,0-.028-.028-.056-.028-.2-.142-.4-.255-.625-.4a7.773,7.773,0,0,0-2.7-1.22,6.131,6.131,0,0,0-1.9-.142,7.1,7.1,0,0,0-3.608,1.306c-.4.283-.824.51-1.25.794-.028,0-.028.028-.057.028a.1.1,0,0,1-.056-.028l-2.387-1.617a.619.619,0,0,1-.141-.114.151.151,0,0,1-.065-.089.161.161,0,0,1,.007-.11c0-.028.029-.028.058-.056l.056-.058c.682-.453,1.335-.966,2.016-1.449a20.218,20.218,0,0,1,1.818-1.191,8.55,8.55,0,0,1,2.329-.877,4.045,4.045,0,0,1,1-.171Zm-1.255.229V10.217a.708.708,0,0,1,.219-.5.718.718,0,0,1,.506-.2h1.447a.71.71,0,0,1,.725.691v4.9A10.014,10.014,0,0,0,26.512,15.2Zm11.4,12.2a.87.87,0,0,1,.085.368v3.037a6.2,6.2,0,0,1-1.3,3.688,6.855,6.855,0,0,1-1.221,1.192c-1.2.936-2.445,1.816-3.7,2.7l-2.5,1.731a2,2,0,0,1-.711.313,1.575,1.575,0,0,1-1.022-.086,2.837,2.837,0,0,1-.653-.34c-2.784-1.9-5.568-3.831-8.3-5.846-.852-.624-1.7-1.248-2.557-1.9a1.98,1.98,0,0,1-.791-1.28,1.728,1.728,0,0,1-.029-.4V27.83a1.174,1.174,0,0,0-.028-.312c-.028-.085.028-.171.086-.171,0,.058.028.086.028.143a1.33,1.33,0,0,0,.4.822,2.93,2.93,0,0,0,.455.4c2.954,2.213,5.994,4.369,9.03,6.47.565.4,1.136.765,1.676,1.135a2.476,2.476,0,0,0,.767.4,1.694,1.694,0,0,0,.648.085,1.67,1.67,0,0,0,.63-.171,2.813,2.813,0,0,0,.4-.226c2.045-1.45,4.091-2.9,6.136-4.37a6.326,6.326,0,0,0,2.358-3.32,6.052,6.052,0,0,0,.142-.681,1.456,1.456,0,0,1-.028-.63ZM28.871,46.44h-1.7a.765.765,0,0,1-.758-.768l.108-5.929a1.435,1.435,0,0,1,.58-.478l2.365-.458a.169.169,0,0,1,.168.17h0v6.7a.766.766,0,0,1-.759.765Z" fill="#f68e00"/><path d="M39.521,19.417a.889.889,0,0,1,.081.369v2.98a6.009,6.009,0,0,1-2.414,4.8c-1.193.937-2.415,1.816-3.665,2.7l-2.692,1.871a1.823,1.823,0,0,1-1.221.341,2.427,2.427,0,0,1-.654-.171,5.356,5.356,0,0,1-.54-.311c-2.443-1.675-4.886-3.349-7.272-5.108-1.08-.766-2.13-1.561-3.21-2.355-.142-.085-.255-.2-.4-.284A2.073,2.073,0,0,1,16.767,23a1.728,1.728,0,0,1-.029-.4V19.905a1.446,1.446,0,0,0-.028-.341.119.119,0,0,1,0-.107.115.115,0,0,1,.035-.041.132.132,0,0,1,.05-.022h.028a1.116,1.116,0,0,0,.029.142,1.179,1.179,0,0,0,.341.737,1.927,1.927,0,0,0,.511.454c2.84,2.128,5.738,4.2,8.664,6.243.682.483,1.391.936,2.074,1.418a2.9,2.9,0,0,0,.906.425,1.74,1.74,0,0,0,1.137-.114,1.573,1.573,0,0,0,.369-.227c1.875-1.333,3.721-2.639,5.6-3.973.369-.255.71-.51,1.048-.794a6.429,6.429,0,0,0,1.876-2.978,4.279,4.279,0,0,0,.114-.595,1.345,1.345,0,0,0,.029-.341ZM29.408,15.3h.681a7.123,7.123,0,0,1,3.125.994A10.617,10.617,0,0,1,35,17.657a2.033,2.033,0,0,1,.682,1.221,2.269,2.269,0,0,1-.2,1.362c-.057.142-.143.256-.2.369a.245.245,0,0,1-.134.119.241.241,0,0,1-.179-.006c-.028,0-.028-.028-.056-.028-.2-.142-.4-.256-.625-.4a7.775,7.775,0,0,0-2.7-1.221,6.161,6.161,0,0,0-1.9-.141,7.109,7.109,0,0,0-3.607,1.3c-.4.284-.824.511-1.251.794-.028,0-.028.029-.056.029a.1.1,0,0,1-.057-.029l-2.386-1.617a.594.594,0,0,1-.142-.113.16.16,0,0,1-.057-.2c0-.029.029-.029.057-.057l.056-.057c.682-.453,1.335-.966,2.016-1.45a20.131,20.131,0,0,1,1.815-1.187,8.583,8.583,0,0,1,2.329-.877,4.14,4.14,0,0,1,1-.171Zm-1.255.23V10.545a.71.71,0,0,1,.725-.691h1.443a.71.71,0,0,1,.725.691v4.9a10.042,10.042,0,0,0-2.9.087Zm11.4,12.2a.894.894,0,0,1,.086.369v3.036a6.2,6.2,0,0,1-1.306,3.689,6.889,6.889,0,0,1-1.221,1.192c-1.2.936-2.445,1.816-3.7,2.7l-2.5,1.731a2.022,2.022,0,0,1-.711.312,1.582,1.582,0,0,1-1.022-.085,2.82,2.82,0,0,1-.653-.341c-2.784-1.9-5.568-3.83-8.295-5.845-.852-.624-1.7-1.248-2.557-1.9a1.988,1.988,0,0,1-.791-1.28,1.727,1.727,0,0,1-.028-.4V28.158a1.206,1.206,0,0,0-.029-.311c-.028-.086.029-.171.086-.171,0,.057.028.085.028.142a1.333,1.333,0,0,0,.4.823,3.039,3.039,0,0,0,.455.4c2.954,2.213,5.994,4.369,9.03,6.469.565.4,1.136.766,1.676,1.135a2.455,2.455,0,0,0,.767.4,1.664,1.664,0,0,0,1.278-.085,2.813,2.813,0,0,0,.4-.226c2.045-1.45,4.091-2.9,6.136-4.371a6.327,6.327,0,0,0,2.358-3.319,6.069,6.069,0,0,0,.142-.682,1.462,1.462,0,0,1-.036-.631Zm-9.04,19.037h-1.7A.766.766,0,0,1,28.055,46l.108-5.93a1.447,1.447,0,0,1,.58-.477l2.365-.458a.166.166,0,0,1,.119.05.169.169,0,0,1,.049.12v6.7a.767.767,0,0,1-.758.765Z" fill="#ffea94"/></svg>