<svg width="57" height="57" viewBox="0 0 57 57" fill="none" xmlns="http://www.w3.org/2000/svg">
<g clip-path="url(#clip0_5376_2350)">
<path d="M56.014 27.9828C56.0193 34.4139 53.8111 40.6509 49.7604 45.6459C45.7098 50.641 40.0634 54.0898 33.7699 55.4129C27.4764 56.736 20.9193 55.8529 15.2002 52.9118C9.48102 49.9707 4.94832 45.1509 2.36356 39.2621C-0.221205 33.3734 -0.70053 26.7744 1.00611 20.574C2.71275 14.3735 6.50136 8.94926 11.7355 5.21258C16.9696 1.47589 23.3302 -0.345575 29.7488 0.0541842C36.1675 0.453943 42.253 3.05057 46.983 7.40783C49.8272 10.028 52.098 13.2089 53.6523 16.7499C55.2066 20.291 56.0107 24.1156 56.014 27.9828V27.9828Z" fill="#252E36"/>
<path d="M56.0136 27.9839C55.817 33.2654 54.071 38.3724 50.9932 42.6689C47.9154 46.9653 43.6416 50.2615 38.7042 52.1468C33.7667 54.0321 28.3837 54.4233 23.2256 53.2716C18.0674 52.12 13.362 49.4764 9.69534 45.6701C6.02865 41.8637 3.5627 37.0629 2.60456 31.8653C1.64643 26.6677 2.23845 21.3031 4.30691 16.4395C6.37537 11.576 9.82887 7.42834 14.2373 4.51316C18.6458 1.59798 23.8144 0.0440673 29.0996 0.0449222C36.3287 0.315308 43.1716 3.37719 48.1905 8.5872C53.2094 13.7972 56.0135 20.7497 56.0136 27.9839Z" fill="#384E61"/>
<path d="M46.9824 7.40828L7.48241 46.9083C6.13631 45.4461 4.94932 43.8452 3.94141 42.1323L42.2114 3.86328C43.923 4.8724 45.5223 6.06076 46.9824 7.40828V7.40828Z" fill="#425C6A"/>
<path d="M54.0849 17.7616L17.8329 54.0136C15.2864 53.0128 12.9012 51.6424 10.7539 49.9466L50.0209 10.6816C51.7155 12.8295 53.0849 15.2151 54.0849 17.7616V17.7616Z" fill="#425C6A"/>
<path d="M49.781 27.9828C49.7998 33.7338 47.5376 39.2576 43.4902 43.3433C39.4428 47.4289 33.9405 49.7431 28.1896 49.7784C22.4388 49.8138 16.9085 47.5674 12.8112 43.5318C8.71389 39.4962 6.38391 34.0006 6.33203 28.2498V27.9828C6.33203 22.221 8.62091 16.6951 12.6951 12.6209C16.7694 8.54669 22.2952 6.25781 28.057 6.25781H28.325C34.0407 6.32624 39.4989 8.64524 43.5159 12.7118C47.5329 16.7784 49.7848 22.2647 49.783 27.9808L49.781 27.9828Z" fill="#1A2E41"/>
<path d="M43.4218 12.6219L12.7008 43.3459C8.683 39.3411 6.39869 33.9185 6.33984 28.2459V27.9789C6.33984 22.2174 8.62845 16.6919 12.7022 12.6177C16.776 8.54355 22.3014 6.25444 28.0628 6.25391H28.3308C34.0005 6.32081 39.4182 8.60692 43.4218 12.6219V12.6219Z" fill="#2C465E"/>
<path d="M49.7801 27.9828C49.7803 30.8359 49.2184 33.661 48.1267 36.2969C47.035 38.9328 45.4347 41.3279 43.4174 43.3454C41.4 45.3628 39.005 46.9632 36.3692 48.055C33.7333 49.1468 30.9082 49.7088 28.0551 49.7088C27.6431 49.7088 27.2341 49.6975 26.8281 49.6748C32.3695 49.3622 37.5812 46.9406 41.3936 42.9069C45.2061 38.8733 47.3302 33.5335 47.3302 27.9833C47.3302 22.4331 45.2061 17.0933 41.3936 13.0597C37.5812 9.02607 32.3695 6.60447 26.8281 6.29181C27.2341 6.26915 27.6431 6.25781 28.0551 6.25781C33.817 6.25781 39.3428 8.54669 43.417 12.6209C47.4912 16.6951 49.7801 22.221 49.7801 27.9828V27.9828Z" fill="#030529"/>
<path d="M14.3814 34.0293C15.2742 34.0293 15.9397 33.5532 16.1669 32.9148H16.2048V33.0825C16.2048 33.748 16.6052 34.0672 17.1625 34.0672C17.7252 34.0672 18.1201 33.748 18.1201 33.0825V27.0064C18.1201 26.3355 17.7252 26.0108 17.1625 26.0108C16.5998 26.0108 16.2048 26.3355 16.2048 27.0064V29.0895H16.1669C15.9072 28.4294 15.2579 27.964 14.403 27.964C12.9314 27.964 12.0332 29.1003 12.0332 30.9832C12.0332 32.8877 12.9151 34.0293 14.3814 34.0293ZM15.101 32.5306C14.4085 32.5306 13.9973 31.9517 13.9973 30.9994C13.9973 30.0525 14.4139 29.4628 15.101 29.4628C15.7882 29.4628 16.2102 30.0525 16.2102 30.9994C16.2102 31.9571 15.7936 32.5306 15.101 32.5306Z" fill="#131621"/>
<path d="M22.5568 34.078C24.5858 34.078 25.9168 32.9256 25.9168 31.1725V27.0497C25.9168 26.3896 25.5543 26.0162 24.9213 26.0162C24.2936 26.0162 23.9311 26.3896 23.9311 27.0497V30.9615C23.9311 31.8705 23.4388 32.4116 22.5568 32.4116C21.6695 32.4116 21.1771 31.8705 21.1771 30.9615V27.0497C21.1771 26.3896 20.8146 26.0162 20.187 26.0162C19.5594 26.0162 19.1914 26.3896 19.1914 27.0497V31.1725C19.1914 32.9256 20.5224 34.078 22.5568 34.078Z" fill="#131621"/>
<path d="M30.1154 34.078C32.1715 34.078 33.3997 33.0825 33.3997 31.5134C33.3997 30.2852 32.6422 29.6089 30.9757 29.2896L30.175 29.1382C29.3255 28.9758 28.9738 28.7486 28.9738 28.3374C28.9738 27.8775 29.3958 27.5528 30.1154 27.5528C30.689 27.5528 31.1218 27.7422 31.3761 28.2292C31.6088 28.6079 31.8793 28.7648 32.3121 28.7648C32.8099 28.7594 33.1454 28.451 33.1454 27.9911C33.1454 27.8288 33.1183 27.6989 33.0642 27.5637C32.6855 26.5735 31.5925 26 30.0992 26C28.3029 26 26.9989 26.9685 26.9989 28.4726C26.9989 29.663 27.8105 30.4259 29.3634 30.718L30.1695 30.8695C31.0948 31.0481 31.4248 31.2699 31.4248 31.7028C31.4248 32.1789 30.9216 32.5252 30.1479 32.5252C29.5203 32.5252 28.9954 32.3196 28.7303 31.8326C28.476 31.4431 28.2163 31.3078 27.8322 31.3078C27.329 31.3078 26.9719 31.6433 26.9719 32.141C26.9719 32.3034 27.0043 32.4711 27.0747 32.6334C27.3993 33.4396 28.4219 34.078 30.1154 34.078Z" fill="#131621"/>
<path d="M35.315 33.9428H37.4901C39.8437 33.9428 41.2342 32.4873 41.2342 29.993C41.2342 27.5041 39.8491 26.1353 37.4901 26.1353H35.315C34.6874 26.1353 34.3195 26.514 34.3195 27.1741V32.9039C34.3195 33.564 34.6874 33.9428 35.315 33.9428ZM36.3052 32.3412V27.7368H37.2304C38.4856 27.7368 39.2161 28.5322 39.2161 29.9984C39.2161 31.5567 38.5235 32.3412 37.2304 32.3412H36.3052Z" fill="#131621"/>
<path d="M15.6002 34.9512C16.4929 34.9512 17.1584 34.4751 17.3857 33.8366H17.4235V34.0044C17.4235 34.6699 17.8239 34.9891 18.3812 34.9891C18.9439 34.9891 19.3389 34.6699 19.3389 34.0044V27.9282C19.3389 27.2573 18.9439 26.9327 18.3812 26.9327C17.8185 26.9327 17.4235 27.2573 17.4235 27.9282V30.0113H17.3857C17.1259 29.3512 16.4767 28.8859 15.6218 28.8859C14.1501 28.8859 13.252 30.0222 13.252 31.905C13.252 33.8096 14.1339 34.9512 15.6002 34.9512ZM16.3198 33.4525C15.6272 33.4525 15.216 32.8735 15.216 31.9213C15.216 30.9744 15.6326 30.3847 16.3198 30.3847C17.0069 30.3847 17.4289 30.9744 17.4289 31.9213C17.4289 32.879 17.0123 33.4525 16.3198 33.4525Z" fill="#587794"/>
<path d="M23.7756 34.9999C25.8046 34.9999 27.1356 33.8474 27.1356 32.0944V27.9715C27.1356 27.3114 26.7731 26.9381 26.14 26.9381C25.5124 26.9381 25.1499 27.3114 25.1499 27.9715V31.8834C25.1499 32.7924 24.6575 33.3334 23.7756 33.3334C22.8882 33.3334 22.3959 32.7924 22.3959 31.8834V27.9715C22.3959 27.3114 22.0334 26.9381 21.4057 26.9381C20.7781 26.9381 20.4102 27.3114 20.4102 27.9715V32.0944C20.4102 33.8474 21.7412 34.9999 23.7756 34.9999Z" fill="#587794"/>
<path d="M31.3342 34.9999C33.3902 34.9999 34.6184 34.0044 34.6184 32.4353C34.6184 31.2071 33.8609 30.5307 32.1945 30.2115L31.3937 30.06C30.5442 29.8977 30.1926 29.6705 30.1926 29.2593C30.1926 28.7994 30.6146 28.4747 31.3342 28.4747C31.9077 28.4747 32.3406 28.6641 32.5949 29.151C32.8275 29.5298 33.0981 29.6867 33.5309 29.6867C34.0287 29.6813 34.3641 29.3729 34.3641 28.913C34.3641 28.7507 34.3371 28.6208 34.283 28.4855C33.9042 27.4954 32.8113 26.9219 31.318 26.9219C29.5216 26.9219 28.2177 27.8904 28.2177 29.3945C28.2177 30.5849 29.0293 31.3477 30.5821 31.6399L31.3883 31.7914C32.3135 31.97 32.6436 32.1918 32.6436 32.6247C32.6436 33.1008 32.1404 33.4471 31.3667 33.4471C30.739 33.4471 30.2142 33.2415 29.9491 32.7545C29.6948 32.3649 29.4351 32.2297 29.0509 32.2297C28.5477 32.2297 28.1906 32.5651 28.1906 33.0629C28.1906 33.2252 28.2231 33.393 28.2934 33.5553C28.6181 34.3615 29.6407 34.9999 31.3342 34.9999Z" fill="#587794"/>
<path d="M36.5338 34.8646H38.7088C41.0625 34.8646 42.453 33.4092 42.453 30.9149C42.453 28.426 41.0679 27.0571 38.7088 27.0571H36.5338C35.9062 27.0571 35.5382 27.4359 35.5382 28.096V33.8258C35.5382 34.4859 35.9062 34.8646 36.5338 34.8646ZM37.5239 33.2631V28.6587H38.4491C39.7044 28.6587 40.4348 29.454 40.4348 30.9203C40.4348 32.4786 39.7423 33.2631 38.4491 33.2631H37.5239Z" fill="#587794"/>
<path d="M18.9745 15.0741C18.9861 15.0991 18.9921 15.1263 18.9919 15.1538V15.7994C18.9915 16.0015 18.9438 16.2006 18.8525 16.3811C18.7612 16.5616 18.6289 16.7185 18.466 16.8394C18.2058 17.0422 17.9396 17.2328 17.6672 17.4243L17.0804 17.8299C17.0035 17.8855 16.9089 17.9117 16.8141 17.9036C16.7651 17.8979 16.7172 17.8855 16.6718 17.8667C16.6312 17.8466 16.5919 17.8241 16.5541 17.7991C16.0216 17.4363 15.4891 17.0736 14.9691 16.6925C14.7337 16.5265 14.5046 16.3543 14.2694 16.1823C14.2385 16.1638 14.2136 16.1389 14.1822 16.1207C14.0953 16.0538 14.036 15.9576 14.0153 15.8503C14.0098 15.8218 14.0077 15.7927 14.0089 15.7637V15.1787C14.0099 15.1539 14.0078 15.1291 14.0026 15.1048C14.0009 15.1013 14 15.0973 14 15.0934C13.9999 15.0893 14.0008 15.0854 14.0027 15.0818C14.0045 15.0782 14.0072 15.0751 14.0105 15.0728C14.0137 15.0704 14.0174 15.0688 14.0214 15.068H14.0275C14.0289 15.0784 14.031 15.0886 14.0336 15.0988C14.0388 15.1591 14.0651 15.2156 14.1079 15.2587C14.139 15.2976 14.1768 15.3308 14.2195 15.3568C14.8385 15.8181 15.4701 16.2668 16.1079 16.7096C16.2565 16.8142 16.4111 16.9122 16.5597 17.0168C16.6198 17.0585 16.6867 17.0896 16.7574 17.1087C16.8404 17.1284 16.9277 17.1197 17.0052 17.0842C17.0341 17.0714 17.0611 17.0548 17.0857 17.035C17.4941 16.746 17.8967 16.463 18.3062 16.1742C18.3867 16.1188 18.461 16.0635 18.5347 16.0022C18.7285 15.8294 18.8701 15.6062 18.9435 15.3579C18.9549 15.3156 18.9632 15.2725 18.9684 15.229C18.9737 15.2047 18.9758 15.1799 18.9747 15.1551L18.9745 15.0741ZM16.7703 14.1825H16.9187C17.1595 14.2005 17.3928 14.2742 17.5998 14.3977C17.74 14.4821 17.8707 14.581 17.99 14.6928C18.0694 14.7606 18.1221 14.8542 18.1384 14.9571C18.1551 15.0576 18.1398 15.1608 18.0948 15.2524C18.0824 15.2829 18.0636 15.3076 18.0512 15.3321C18.0452 15.3441 18.0347 15.3534 18.022 15.3579C18.0093 15.3625 17.9954 15.362 17.983 15.3566C17.9769 15.3566 17.9769 15.3505 17.9708 15.3505C17.9272 15.3198 17.8836 15.2953 17.8346 15.2639C17.6573 15.1391 17.4575 15.0493 17.2461 14.9995C17.1105 14.9679 16.9708 14.9575 16.832 14.9688C16.5487 14.9896 16.2766 15.0875 16.0456 15.2517C15.9584 15.313 15.866 15.3622 15.7731 15.4237C15.767 15.4237 15.767 15.4298 15.7607 15.4298C15.7561 15.4291 15.7518 15.427 15.7485 15.4237L15.2282 15.0734C15.2168 15.0667 15.2064 15.0584 15.1975 15.0487C15.1905 15.0443 15.1854 15.0374 15.1833 15.0294C15.181 15.0216 15.1815 15.0131 15.1848 15.0056C15.1848 14.9995 15.1912 14.9995 15.1975 14.9935L15.2097 14.9809C15.3583 14.8828 15.5007 14.7716 15.6491 14.667C15.7764 14.574 15.9087 14.4878 16.0453 14.4089C16.2043 14.3213 16.3753 14.2573 16.553 14.2189C16.6238 14.1975 16.697 14.1851 16.7709 14.1819L16.7703 14.1825ZM16.4967 14.2321V13.1517C16.4971 13.1314 16.5015 13.1114 16.5097 13.0928C16.5179 13.0742 16.5297 13.0574 16.5445 13.0434C16.5741 13.0151 16.6137 12.9995 16.6548 13H16.9701C17.011 12.9992 17.0506 13.0144 17.0802 13.0425C17.1098 13.0705 17.1271 13.1091 17.1282 13.1497V14.2114C16.9178 14.1875 16.7051 14.1942 16.4967 14.2313V14.2321ZM18.9815 16.8753C18.9934 16.9002 18.9998 16.9275 19 16.9551V17.613C18.9947 17.9028 18.8953 18.1831 18.7167 18.4121C18.6391 18.5088 18.5497 18.5956 18.4505 18.6703C18.189 18.8731 17.9176 19.0638 17.6441 19.2553L17.0992 19.6303C17.0525 19.6628 16.9998 19.6858 16.9442 19.6981C16.8699 19.7168 16.7915 19.7102 16.7214 19.6795C16.671 19.6612 16.6231 19.6364 16.5791 19.6058C15.9723 19.1942 15.3655 18.7758 14.7701 18.3393C14.5844 18.2041 14.3995 18.0689 14.2127 17.9276C14.1208 17.8613 14.0588 17.7617 14.0403 17.6503C14.0348 17.6218 14.0327 17.5927 14.034 17.5636V16.9676C14.035 16.9449 14.033 16.9222 14.0279 16.9C14.0218 16.8816 14.034 16.863 14.0466 16.863C14.0466 16.8755 14.0528 16.8816 14.0528 16.894C14.0597 16.9617 14.0906 17.0248 14.1399 17.0721C14.1699 17.1043 14.2031 17.1333 14.2391 17.1587C14.883 17.6382 15.5456 18.1053 16.2073 18.5605C16.3304 18.6471 16.4549 18.7262 16.5726 18.8064C16.6228 18.8448 16.6793 18.8741 16.7398 18.893C16.7852 18.9082 16.8332 18.9145 16.881 18.9115C16.9288 18.9082 16.9754 18.8956 17.0183 18.8744C17.0487 18.8605 17.0778 18.8441 17.1055 18.8254C17.5512 18.5113 17.9972 18.1971 18.4429 17.8787C18.6893 17.7018 18.87 17.4489 18.9568 17.1594C18.97 17.1108 18.9803 17.0616 18.9878 17.0118C18.9758 16.9673 18.9737 16.9207 18.9817 16.8753H18.9815ZM17.0109 20.9996H16.6404C16.5963 20.9992 16.5542 20.9814 16.5232 20.9503C16.4923 20.9191 16.475 20.877 16.4752 20.8332L16.4987 19.5486C16.5308 19.5036 16.5745 19.4678 16.6251 19.4451L17.1406 19.3458C17.1454 19.3459 17.1502 19.3468 17.1547 19.3487C17.1591 19.3506 17.1632 19.3533 17.1666 19.3567C17.17 19.3601 17.1727 19.3642 17.1745 19.3686C17.1763 19.3731 17.1772 19.3779 17.1772 19.3827V19.3827V20.8343C17.1771 20.878 17.1597 20.9199 17.1288 20.9509C17.0978 20.982 17.0557 20.9996 17.0118 21L17.0109 20.9996Z" fill="#131621"/>
<path d="M19.2753 15.2733C19.2869 15.2983 19.2928 15.3255 19.2927 15.353V15.9986C19.2923 16.2007 19.2446 16.3998 19.1533 16.5803C19.062 16.7608 18.9297 16.9177 18.7668 17.0386C18.5065 17.2414 18.2404 17.432 17.968 17.6236L17.3812 18.0291C17.3042 18.0847 17.2097 18.1109 17.1149 18.1028C17.0659 18.0972 17.018 18.0848 16.9725 18.066C16.9319 18.0458 16.8926 18.0233 16.8548 17.9984C16.3224 17.6355 15.7899 17.2728 15.2698 16.8917C15.0344 16.7257 14.8054 16.5535 14.5702 16.3815C14.5392 16.3631 14.5144 16.3381 14.483 16.3199C14.3961 16.253 14.3368 16.1569 14.316 16.0496C14.3106 16.021 14.3084 15.9919 14.3097 15.9629V15.3779C14.3107 15.3531 14.3085 15.3283 14.3034 15.3041C14.3016 15.3005 14.3007 15.2965 14.3008 15.2926C14.3007 15.2886 14.3016 15.2846 14.3035 15.281C14.3053 15.2774 14.308 15.2743 14.3112 15.272C14.3145 15.2697 14.3182 15.268 14.3221 15.2672H14.3282C14.3297 15.2776 14.3318 15.2878 14.3344 15.298C14.3395 15.3583 14.3658 15.4149 14.4087 15.4579C14.4398 15.4968 14.4776 15.5301 14.5203 15.556C15.1393 16.0173 15.7709 16.466 16.4087 16.9088C16.5573 17.0135 16.7119 17.1114 16.8605 17.216C16.9206 17.2577 16.9875 17.2888 17.0582 17.3079C17.1412 17.3276 17.2285 17.319 17.306 17.2834C17.3349 17.2706 17.3619 17.2541 17.3864 17.2342C17.7949 16.9452 18.1975 16.6623 18.607 16.3735C18.6874 16.318 18.7618 16.2627 18.8354 16.2014C19.0293 16.0286 19.1709 15.8055 19.2443 15.5571C19.2557 15.5148 19.264 15.4717 19.2692 15.4282C19.2744 15.4039 19.2766 15.3791 19.2755 15.3543L19.2753 15.2733ZM17.0711 14.3818H17.2195C17.4603 14.3997 17.6935 14.4734 17.9006 14.5969C18.0407 14.6813 18.1715 14.7802 18.2908 14.892C18.3702 14.9598 18.4228 15.0535 18.4392 15.1563C18.4559 15.2568 18.4406 15.36 18.3956 15.4516C18.3832 15.4821 18.3644 15.5068 18.352 15.5313C18.346 15.5433 18.3355 15.5526 18.3228 15.5571C18.3101 15.5617 18.2961 15.5612 18.2838 15.5558C18.2777 15.5558 18.2777 15.5497 18.2716 15.5497C18.228 15.519 18.1844 15.4945 18.1354 15.4631C17.9581 15.3383 17.7583 15.2485 17.5469 15.1988C17.4113 15.1671 17.2715 15.1567 17.1327 15.168C16.8494 15.1888 16.5774 15.2867 16.3463 15.4509C16.2592 15.5123 16.1667 15.5614 16.0739 15.623C16.0678 15.623 16.0678 15.629 16.0615 15.629C16.0568 15.6284 16.0526 15.6262 16.0493 15.623L15.529 15.2726C15.5176 15.2659 15.5072 15.2576 15.4983 15.2479C15.4913 15.2435 15.4862 15.2366 15.4841 15.2287C15.4818 15.2208 15.4823 15.2123 15.4856 15.2048C15.4856 15.1988 15.4919 15.1988 15.4983 15.1927L15.5105 15.1801C15.6591 15.082 15.8014 14.9708 15.9499 14.8662C16.0772 14.7732 16.2095 14.687 16.3461 14.6082C16.5051 14.5206 16.6761 14.4565 16.8537 14.4182C16.9245 14.3968 16.9978 14.3843 17.0717 14.3811L17.0711 14.3818ZM16.7975 14.4314V13.3509C16.7979 13.3306 16.8023 13.3106 16.8105 13.292C16.8186 13.2734 16.8305 13.2566 16.8452 13.2426C16.8749 13.2143 16.9145 13.1988 16.9555 13.1993H17.2709C17.3118 13.1984 17.3514 13.2136 17.381 13.2417C17.4106 13.2697 17.4279 13.3083 17.4289 13.349V14.4106C17.2186 14.3867 17.0059 14.3935 16.7975 14.4305V14.4314ZM19.2823 17.0746C19.2942 17.0995 19.3006 17.1267 19.3008 17.1543V17.8123C19.2955 18.102 19.1961 18.3823 19.0174 18.6113C18.9399 18.708 18.8505 18.7948 18.7513 18.8695C18.4898 19.0723 18.2184 19.263 17.9449 19.4545L17.4 19.8295C17.3533 19.862 17.3006 19.885 17.245 19.8973C17.1707 19.916 17.0923 19.9095 17.0222 19.8787C16.9718 19.8604 16.9239 19.8356 16.8799 19.805C16.2731 19.3934 15.6663 18.975 15.0708 18.5385C14.8851 18.4033 14.7003 18.2681 14.5135 18.1268C14.4216 18.0606 14.3596 17.9609 14.3411 17.8495C14.3356 17.821 14.3335 17.7919 14.3348 17.7629V17.1668C14.3358 17.1441 14.3337 17.1214 14.3287 17.0993C14.3226 17.0808 14.3348 17.0622 14.3474 17.0622C14.3474 17.0748 14.3535 17.0808 14.3535 17.0932C14.3605 17.1609 14.3914 17.224 14.4407 17.2713C14.4707 17.3035 14.5039 17.3325 14.5399 17.3579C15.1837 17.8374 15.8463 18.3045 16.5081 18.7597C16.6312 18.8464 16.7557 18.9254 16.8734 19.0056C16.9235 19.044 16.9801 19.0733 17.0405 19.0923C17.086 19.1074 17.1339 19.1137 17.1818 19.1107C17.2296 19.1074 17.2762 19.0948 17.3191 19.0736C17.3494 19.0597 17.3786 19.0433 17.4063 19.0247C17.852 18.7105 18.2979 18.3964 18.7437 18.0779C18.9901 17.901 19.1707 17.6481 19.2576 17.3586C19.2708 17.31 19.2811 17.2608 19.2886 17.211C19.2765 17.1665 19.2745 17.1199 19.2825 17.0746H19.2823ZM17.3117 21.1988H16.9411C16.8971 21.1984 16.855 21.1807 16.824 21.1495C16.793 21.1183 16.7758 21.0762 16.7759 21.0324L16.7995 19.7479C16.8316 19.7028 16.8752 19.667 16.9259 19.6443L17.4414 19.5451C17.4462 19.5451 17.451 19.5461 17.4554 19.5479C17.4599 19.5498 17.4639 19.5525 17.4673 19.5559C17.4707 19.5594 17.4734 19.5634 17.4753 19.5679C17.4771 19.5723 17.478 19.5771 17.478 19.5819V19.5819V21.0335C17.4779 21.0772 17.4605 21.1191 17.4295 21.1502C17.3986 21.1812 17.3565 21.1988 17.3126 21.1992L17.3117 21.1988Z" fill="#5E8AB4"/>
</g>
<defs>
<clipPath id="clip0_5376_2350">
<rect width="56.014" height="56.014" fill="white"/>
</clipPath>
</defs>
</svg>
