<svg width="41" height="24" viewBox="0 0 41 24" fill="none" xmlns="http://www.w3.org/2000/svg">
<mask id="mask0_7861_380" style="mask-type:luminance" maskUnits="userSpaceOnUse" x="0" y="0" width="24" height="24">
<path d="M24 0H0V24H24V0Z" fill="white"/>
</mask>
<g mask="url(#mask0_7861_380)">
<path d="M18.0558 21.0714C16.2618 22.2701 14.1526 22.91 11.995 22.91C9.10174 22.91 6.32693 21.7605 4.28105 19.7148C2.23526 17.669 1.08594 14.8942 1.08594 12.0009C1.08594 9.84325 1.72573 7.73413 2.92441 5.94013C4.12309 4.14613 5.82685 2.74789 7.82023 1.92221C9.81361 1.09653 12.007 0.880485 14.1233 1.30141C16.2394 1.72235 18.1831 2.76133 19.7088 4.28701C21.2346 5.81266 22.2736 7.75649 22.6944 9.87265C23.1154 11.9889 22.8993 14.1823 22.0737 16.1756C21.2479 18.1689 19.8498 19.8728 18.0558 21.0714Z" fill="#0F0F0F"/>
<path fill-rule="evenodd" clip-rule="evenodd" d="M13.977 2.03701C12.0062 1.64501 9.96356 1.84621 8.10724 2.61512C6.25091 3.38404 4.66427 4.68614 3.548 6.3568C2.43173 8.02744 1.83593 9.99158 1.83593 12.0009C1.83593 14.6953 2.90626 17.2793 4.81138 19.1844M14.2696 0.565824C16.5312 1.0157 18.6087 2.12611 20.2392 3.75665C21.8698 5.38721 22.9803 7.46467 23.43 9.72632C23.88 11.9881 23.649 14.3322 22.7667 16.4625C21.8841 18.593 20.3898 20.414 18.4725 21.6951C16.5552 22.9761 14.301 23.66 11.995 23.66C8.90282 23.66 5.93726 22.4316 3.75074 20.2451C1.56428 18.0587 0.335938 15.093 0.335938 12.0009C0.335938 9.69491 1.01971 7.44079 2.3008 5.52346C3.58189 3.60611 5.4028 2.11175 7.53322 1.2293C9.66364 0.346857 12.0079 0.115958 14.2696 0.565824ZM13.977 2.03701C15.9477 2.429 17.7577 3.39655 19.1785 4.81733L13.977 2.03701ZM21.9588 10.019C21.567 8.04829 20.5993 6.23809 19.1785 4.81733ZM21.3808 15.8886C22.1496 14.0323 22.3509 11.9897 21.9588 10.019ZM21.3808 15.8886C20.6118 17.7449 19.3098 19.3316 17.6391 20.4479C15.9684 21.5642 14.0043 22.16 11.995 22.16C9.30067 22.16 6.7166 21.0896 4.81138 19.1844" fill="url(#paint0_linear_7861_380)"/>
<g style="mix-blend-mode:multiply">
<path d="M2.30332 12.4289C2.30293 10.4471 2.88062 8.50833 3.96562 6.84999C5.05061 5.19167 6.59579 3.88586 8.4118 3.09254C10.2278 2.29923 12.2358 2.05289 14.1897 2.3837C16.1436 2.71451 17.9587 3.60809 19.4124 4.95497C18.4812 3.94887 17.3566 3.14105 16.1059 2.57993C14.8551 2.01881 13.504 1.71591 12.1333 1.68941C10.7628 1.66289 9.40091 1.9133 8.12939 2.42561C6.85787 2.93795 5.70284 3.70166 4.73351 4.671C3.76417 5.64033 3.00046 6.79536 2.48813 8.06688C1.97581 9.3384 1.7254 10.7003 1.7519 12.0708C1.77842 13.4415 2.08132 14.7926 2.64245 16.0433C3.20357 17.2941 4.0114 18.4187 5.01749 19.3499C3.27007 17.469 2.30023 14.9961 2.30332 12.4289Z" fill="black"/>
</g>
<path d="M12.6514 22.4687C18.1024 22.4687 22.5214 17.817 22.5214 12.079C22.5214 6.34103 18.1024 1.68945 12.6514 1.68945C7.20025 1.68945 2.78125 6.34103 2.78125 12.079C2.78125 17.817 7.20025 22.4687 12.6514 22.4687Z" fill="black"/>
<path d="M19.1304 18.834C22.8743 15.1044 22.8743 9.0578 19.1304 5.32834C15.3869 1.59889 9.31709 1.59889 5.5734 5.32834C1.8297 9.0578 1.8297 15.1044 5.5734 18.834C9.31709 22.5634 15.3869 22.5634 19.1304 18.834Z" fill="black"/>
<path d="M22.5291 12.006C22.5382 14.7479 21.4563 17.3814 19.5207 19.3293C17.5849 21.2772 14.9535 22.3804 12.2032 22.3974C9.4529 22.4142 6.80809 21.3432 4.84859 19.4191C2.88909 17.4951 1.77479 14.8751 1.75 12.1333V12.006C1.75 9.25903 2.84462 6.62452 4.79309 4.6821C6.74156 2.73967 9.38426 1.64844 12.1397 1.64844H12.2679C15.0015 1.68105 17.6119 2.78665 19.533 4.72545C21.454 6.66424 22.53 9.28084 22.5291 12.006Z" fill="#2E3031"/>
<path d="M19.4122 4.72173L4.77976 19.3518C2.86605 17.4447 1.77802 14.8627 1.75 12.1615V12.0344C1.75 9.2909 2.84006 6.65978 4.78044 4.71974C6.72079 2.77973 9.35254 1.68969 12.0968 1.68945H12.2244C14.9248 1.7213 17.5054 2.80989 19.4122 4.72173Z" fill="#444444"/>
<path d="M22.5301 12.0788C22.5301 13.4432 22.2759 14.7943 21.7818 16.0548C21.2876 17.3154 20.5632 18.4607 19.65 19.4255C18.7368 20.3903 17.6526 21.1556 16.4595 21.6779C15.2662 22.1999 13.9875 22.4687 12.696 22.4687C12.5096 22.4687 12.3245 22.4633 12.1406 22.4523C14.6491 22.3029 17.0082 21.1448 18.7339 19.2158C20.4597 17.2869 21.4212 14.7333 21.4212 12.079C21.4212 9.42482 20.4597 6.87122 18.7339 4.94225C17.0082 3.01329 14.6491 1.85522 12.1406 1.7057C12.3245 1.69487 12.5096 1.68945 12.696 1.68945C15.3042 1.68945 17.8056 2.78403 19.6499 4.73241C21.4941 6.68081 22.5301 9.32339 22.5301 12.0788Z" fill="#151520"/>
<path d="M22.5301 12.0788C22.5301 13.4432 22.2759 14.7943 21.7818 16.0548C21.2876 17.3154 20.5632 18.4607 19.65 19.4255C18.7368 20.3903 17.6526 21.1556 16.4595 21.6779C15.2662 22.1999 13.9875 22.4687 12.696 22.4687C12.5096 22.4687 12.3245 22.4633 12.1406 22.4523C14.6491 22.3029 17.0082 21.1448 18.7339 19.2158C20.4597 17.2869 21.4212 14.7333 21.4212 12.079C21.4212 9.42482 20.4597 6.87122 18.7339 4.94225C17.0082 3.01329 14.6491 1.85522 12.1406 1.7057C12.3245 1.69487 12.5096 1.68945 12.696 1.68945C15.3042 1.68945 17.8056 2.78403 19.6499 4.73241C21.4941 6.68081 22.5301 9.32339 22.5301 12.0788Z" fill="#151520"/>
<path d="M15.4411 9.36319C15.4594 9.40254 15.4688 9.44529 15.4689 9.48859V10.5013C15.4682 10.8182 15.3932 11.1306 15.2499 11.4137C15.1067 11.6968 14.8992 11.9429 14.6438 12.1325C14.2361 12.451 13.8185 12.7497 13.3913 13.0501L12.4712 13.6859C12.3505 13.7729 12.2024 13.8141 12.0539 13.8018C11.977 13.7929 11.9017 13.7734 11.8304 13.7437C11.7668 13.7121 11.7052 13.6767 11.6458 13.638C10.8108 13.0687 9.97587 12.4998 9.16039 11.9021C8.79127 11.6418 8.43241 11.3716 8.06329 11.1018C8.01477 11.0729 7.97614 11.0339 7.92658 11.0053C7.79013 10.9003 7.69692 10.7493 7.66445 10.5808C7.65585 10.5361 7.65252 10.4904 7.65453 10.4449V9.52903C7.65597 9.49017 7.65276 9.45126 7.64496 9.41314C7.64211 9.4075 7.64062 9.40128 7.64062 9.39496C7.64062 9.38865 7.64211 9.38242 7.64496 9.37678C7.64778 9.37126 7.65189 9.36649 7.65693 9.36285C7.66204 9.3592 7.66785 9.35665 7.67402 9.35538H7.68358C7.68583 9.37165 7.68914 9.38778 7.69349 9.40363C7.70129 9.49821 7.74259 9.58696 7.81005 9.65409C7.85854 9.71545 7.91769 9.7677 7.98468 9.80838C8.95533 10.5315 9.94579 11.2357 10.9459 11.9299C11.1789 12.0941 11.4212 12.2481 11.6546 12.4119C11.7487 12.4775 11.8535 12.5263 11.9644 12.5563C12.0945 12.5872 12.2315 12.5736 12.3529 12.5175C12.3983 12.4978 12.4408 12.4718 12.479 12.4404C13.1198 11.9874 13.7508 11.5435 14.3929 11.0903C14.5191 11.0035 14.6357 10.9169 14.7512 10.8204C15.0555 10.5489 15.2775 10.1985 15.3923 9.80838C15.4101 9.74197 15.4232 9.67441 15.4313 9.60618C15.4395 9.56812 15.4428 9.52917 15.4411 9.49029V9.36319ZM11.9849 7.96408H12.2176C12.5951 7.99255 12.9609 8.10822 13.2857 8.30188C13.505 8.43438 13.7096 8.58966 13.896 8.76508C14.0206 8.87163 14.1032 9.01866 14.1292 9.18001C14.1551 9.33762 14.1312 9.49935 14.0608 9.64288C14.0413 9.69114 14.0119 9.72987 13.9925 9.76827C13.9829 9.78702 13.9665 9.80146 13.9466 9.80872C13.9267 9.81588 13.9049 9.81514 13.8854 9.80668C13.8758 9.80668 13.8758 9.79716 13.8662 9.79716C13.798 9.7489 13.7296 9.71017 13.6526 9.66123C13.3747 9.46537 13.0614 9.32449 12.7298 9.2463C12.5172 9.19693 12.2982 9.18076 12.0805 9.19837C11.6366 9.23059 11.2102 9.38341 10.8477 9.64015C10.711 9.73666 10.5661 9.81381 10.4202 9.90999C10.4106 9.90999 10.4106 9.91984 10.401 9.91984C10.3936 9.91878 10.3868 9.9153 10.3816 9.90999L9.56608 9.36048C9.54802 9.35022 9.53164 9.33726 9.51754 9.32206C9.50668 9.31491 9.49877 9.30412 9.4952 9.29166C9.49161 9.27921 9.49264 9.26589 9.49807 9.2541C9.49807 9.24426 9.50797 9.24426 9.51754 9.23473L9.53668 9.21537C9.76978 9.06141 9.99297 8.88708 10.2257 8.7226C10.425 8.57715 10.6321 8.44249 10.846 8.31921C11.0953 8.18194 11.3636 8.08153 11.642 8.02117C11.7532 7.98795 11.869 7.96945 11.9849 7.96408ZM11.5559 8.04225V6.34816C11.5576 6.28441 11.5846 6.2239 11.6311 6.17989C11.6774 6.1359 11.7395 6.11197 11.8037 6.11334H12.2969C12.361 6.11197 12.4231 6.1359 12.4694 6.17989C12.5159 6.2239 12.543 6.28441 12.5446 6.34816V8.01336C12.2146 7.97545 11.8807 7.98541 11.5535 8.04292L11.5559 8.04225ZM15.4521 12.1883C15.4709 12.2274 15.4809 12.2702 15.4815 12.3136V13.3454C15.4727 13.8002 15.3162 14.2401 15.0351 14.5991C14.9135 14.7507 14.7733 14.8869 14.6179 15.004C14.2077 15.3222 13.7822 15.6213 13.3533 15.9217L12.4989 16.5099C12.4255 16.5604 12.343 16.5964 12.2558 16.6159C12.1394 16.6452 12.0165 16.635 11.9065 16.5871C11.8273 16.5583 11.7524 16.5193 11.6833 16.4712C10.7319 15.8254 9.78038 15.1696 8.84837 14.4849C8.55717 14.2728 8.26734 14.0607 7.97443 13.8391C7.83048 13.735 7.7334 13.5789 7.70409 13.4042C7.6956 13.3594 7.69239 13.3138 7.69452 13.2683V12.3337C7.69584 12.2982 7.69251 12.2627 7.6846 12.228C7.67505 12.1987 7.69452 12.1699 7.71401 12.1699C7.71401 12.1893 7.72356 12.1987 7.72356 12.2182C7.73453 12.3245 7.78295 12.4236 7.86029 12.4979C7.90745 12.5482 7.95953 12.5938 8.01579 12.6338C9.0254 13.3859 10.0644 14.1185 11.102 14.8322C11.2951 14.9681 11.4902 15.0925 11.6748 15.2179C11.7535 15.2782 11.8422 15.3243 11.937 15.3538C12.0081 15.378 12.0833 15.3877 12.1583 15.3829C12.2333 15.3778 12.3065 15.3582 12.3738 15.3249C12.4213 15.3031 12.467 15.2773 12.5105 15.2481C13.2094 14.7554 13.9087 14.2626 14.6076 13.7627C14.9939 13.4853 15.2772 13.0888 15.4135 12.6348C15.4341 12.5585 15.4503 12.4812 15.462 12.4031C15.4423 12.3333 15.438 12.2602 15.4497 12.1886L15.4521 12.1883ZM12.3625 18.6577H11.7815C11.7125 18.657 11.6465 18.6292 11.598 18.5805C11.5495 18.5316 11.5223 18.4657 11.5224 18.397L11.5593 16.3818C11.6099 16.3113 11.6783 16.2555 11.7575 16.2196L12.5659 16.0641C12.5734 16.0641 12.5809 16.0656 12.5879 16.0684C12.5949 16.0713 12.6012 16.0756 12.6065 16.081C12.6119 16.0864 12.6161 16.0929 12.619 16.0998C12.6218 16.1068 12.6233 16.1143 12.6233 16.1218V18.3988C12.623 18.4672 12.5958 18.5329 12.5473 18.5815C12.4989 18.6301 12.4331 18.6579 12.3642 18.6588L12.3625 18.6577Z" fill="#151520"/>
<path d="M15.7694 9.03507C15.7875 9.07441 15.7969 9.11716 15.7971 9.16047V10.1732C15.7962 10.4901 15.7212 10.8025 15.5781 11.0856C15.4348 11.3687 15.2274 11.6148 14.972 11.8044C14.5642 12.1228 14.1466 12.4215 13.7194 12.7219L12.7993 13.3578C12.6787 13.4448 12.5305 13.4859 12.382 13.4737C12.3051 13.4647 12.2299 13.4452 12.1585 13.4155C12.0949 13.3839 12.0333 13.3487 11.9739 13.3098C11.139 12.7406 10.304 12.1718 9.48853 11.574C9.11941 11.3137 8.76054 11.0435 8.39142 10.7737C8.34289 10.7448 8.30427 10.7057 8.25472 10.6771C8.11827 10.5721 8.02506 10.4212 7.99257 10.2527C7.98398 10.2079 7.98065 10.1623 7.98266 10.1168V9.20091C7.9841 9.16204 7.98089 9.12313 7.97309 9.08502C7.97024 9.07938 7.96875 9.07315 7.96875 9.06684C7.96875 9.06052 7.97024 9.0543 7.97309 9.04866C7.97592 9.04314 7.98001 9.03837 7.98505 9.03472C7.99017 9.03108 7.99599 9.02853 8.00214 9.02725H8.01171C8.01396 9.04353 8.01728 9.05965 8.02163 9.07551C8.02941 9.17008 8.07072 9.25884 8.13817 9.32596C8.18667 9.38733 8.24582 9.43957 8.31282 9.48025C9.28346 10.2034 10.2739 10.9076 11.274 11.6019C11.507 11.766 11.7493 11.9199 11.9828 12.0838C12.0768 12.1493 12.1817 12.1982 12.2925 12.2282C12.4226 12.2591 12.5596 12.2454 12.6811 12.1895C12.7264 12.1696 12.7689 12.1437 12.8072 12.1122C13.448 11.6593 14.079 11.2155 14.7211 10.7621C14.8472 10.6755 14.9638 10.5888 15.0794 10.4923C15.3836 10.2208 15.6055 9.87033 15.7204 9.48025C15.7383 9.41385 15.7512 9.34629 15.7594 9.27805C15.7677 9.24 15.771 9.20104 15.7694 9.16216V9.03507ZM12.313 7.63596H12.5457C12.9232 7.66443 13.289 7.78009 13.6138 7.97376C13.8332 8.10625 14.0377 8.26152 14.2242 8.43696C14.3487 8.5435 14.4313 8.69053 14.4573 8.85189C14.4833 9.00949 14.4594 9.17122 14.3889 9.31474C14.3695 9.36301 14.34 9.40174 14.3206 9.44014C14.311 9.45889 14.2946 9.47334 14.2748 9.48058C14.2548 9.48775 14.233 9.48702 14.2136 9.47856C14.204 9.47856 14.204 9.46903 14.1945 9.46903C14.1261 9.42078 14.0577 9.38203 13.9808 9.3331C13.7028 9.13725 13.3895 8.99637 13.0581 8.91816C12.8454 8.86881 12.6263 8.85264 12.4087 8.87025C11.9648 8.90245 11.5383 9.05529 11.1758 9.31203C11.0391 9.40854 10.8942 9.48568 10.7483 9.58186C10.7387 9.58186 10.7387 9.59172 10.7292 9.59172C10.7218 9.59064 10.7149 9.58717 10.7097 9.58186L9.89421 9.03234C9.87615 9.02209 9.85978 9.00913 9.84568 8.99394C9.83482 8.98678 9.82689 8.976 9.82332 8.96353C9.81975 8.95108 9.82077 8.93776 9.8262 8.92597C9.8262 8.91613 9.83611 8.91613 9.84568 8.90661L9.86481 8.88724C10.0979 8.73328 10.3211 8.55895 10.5538 8.39448C10.7532 8.24902 10.9603 8.11437 11.1742 7.99108C11.4236 7.85382 11.6917 7.75341 11.9701 7.69305C12.0813 7.65982 12.1971 7.64133 12.313 7.63596ZM11.884 7.71412V6.02004C11.8857 5.95627 11.9127 5.89578 11.9592 5.85177C12.0056 5.80777 12.0677 5.78385 12.1318 5.78521H12.625C12.6891 5.78385 12.7512 5.80777 12.7977 5.85177C12.844 5.89578 12.8711 5.95627 12.8727 6.02004V7.68523C12.5427 7.64733 12.2088 7.65729 11.8817 7.7148L11.884 7.71412ZM15.7803 11.8601C15.799 11.8994 15.8091 11.9422 15.8097 11.9856V13.0173C15.8008 13.4722 15.6442 13.9119 15.3633 14.2709C15.2416 14.4227 15.1014 14.5587 14.946 14.676C14.5358 14.9941 14.1104 15.2931 13.6814 15.5935L12.827 16.1818C12.7536 16.2325 12.6711 16.2685 12.584 16.2879C12.4676 16.317 12.3446 16.3069 12.2347 16.2589C12.1556 16.2301 12.0805 16.1913 12.0115 16.143C11.06 15.4974 10.1085 14.8415 9.17649 14.1567C8.8853 13.9446 8.59546 13.7327 8.30257 13.5111C8.1586 13.4069 8.06153 13.2507 8.03222 13.0761C8.02373 13.0313 8.02053 12.9856 8.02265 12.9401V12.0055C8.02397 11.9701 8.02063 11.9345 8.01273 11.8999C8.00317 11.8707 8.02265 11.8418 8.04213 11.8418C8.04213 11.8611 8.0517 11.8707 8.0517 11.89C8.06265 11.9964 8.11109 12.0954 8.18841 12.1697C8.23557 12.22 8.28765 12.2656 8.34393 12.3057C9.35354 13.0577 10.3925 13.7904 11.4301 14.5041C11.6232 14.64 11.8184 14.7643 12.003 14.8898C12.0816 14.9501 12.1703 14.9962 12.2651 15.0256C12.3362 15.0498 12.4114 15.0597 12.4864 15.0547C12.5614 15.0496 12.6346 15.0301 12.7019 14.9968C12.7495 14.975 12.7952 14.9493 12.8386 14.92C13.5375 14.4273 14.2368 13.9345 14.9358 13.4346C15.322 13.1572 15.6054 12.7607 15.7416 12.3066C15.7623 12.2304 15.7785 12.153 15.7902 12.0749C15.7704 12.0052 15.7662 11.932 15.7779 11.8605L15.7803 11.8601ZM12.6907 18.3295H12.1097C12.0406 18.3289 11.9746 18.301 11.9262 18.2523C11.8776 18.2034 11.8505 18.1375 11.8506 18.0688L11.8874 16.0537C11.9381 15.9832 12.0065 15.9273 12.0857 15.8916L12.894 15.736C12.9015 15.7359 12.9091 15.7374 12.916 15.7404C12.923 15.7432 12.9294 15.7476 12.9347 15.7528C12.94 15.7582 12.9442 15.7647 12.9471 15.7717C12.95 15.7786 12.9514 15.7861 12.9514 15.7936V18.0706C12.9512 18.139 12.9239 18.2047 12.8755 18.2533C12.827 18.3021 12.7612 18.3297 12.6923 18.3306L12.6907 18.3295Z" fill="#EEF0FF"/>
</g>
<mask id="mask1_7861_380" style="mask-type:luminance" maskUnits="userSpaceOnUse" x="16" y="0" width="25" height="24">
<path d="M40.5 0H16.5V24H40.5V0Z" fill="white"/>
</mask>
<g mask="url(#mask1_7861_380)">
<path d="M35.0713 21.4192C33.2775 22.6178 31.1682 23.2577 29.0106 23.2577C26.1174 23.2577 23.3426 22.1083 21.2967 20.0624C19.2509 18.0166 18.1016 15.2417 18.1016 12.3486C18.1016 10.1909 18.7414 8.08177 19.94 6.28779C21.1387 4.49379 22.8425 3.09554 24.8359 2.26986C26.8292 1.44419 29.0227 1.22814 31.1389 1.64907C33.2551 2.07 35.1988 3.10899 36.7245 4.63466C38.2501 6.16032 39.2892 8.10414 39.7099 10.2203C40.131 12.3365 39.915 14.5299 39.0892 16.5233C38.2636 18.5165 36.8653 20.2204 35.0713 21.4192Z" fill="#0F0F0F"/>
<path fill-rule="evenodd" clip-rule="evenodd" d="M30.9925 2.38466C29.0219 1.99268 26.9792 2.19386 25.1229 2.96277C23.2665 3.73169 21.6799 5.03381 20.5636 6.70446C19.4474 8.37512 18.8516 10.3392 18.8516 12.3486C18.8516 15.0428 19.9219 17.6269 21.827 19.532C23.7322 21.4373 26.3163 22.5077 29.0106 22.5077C31.0199 22.5077 32.9841 21.9118 34.6546 20.7956C36.3253 19.6792 37.6275 18.0925 38.3964 16.2362L39.0582 16.5104M36.1942 5.16498C34.7733 3.7442 32.9632 2.77665 30.9925 2.38466ZM24.5488 1.57695C26.6793 0.694513 29.0235 0.463615 31.2852 0.913481C33.5469 1.36336 35.6242 2.47379 37.2549 4.10432C38.8854 5.73486 39.9958 7.81235 40.4455 10.074C40.8955 12.3357 40.6647 14.6798 39.7822 16.8103C38.8998 18.9406 37.4053 20.7616 35.488 22.0427C33.5707 23.3239 31.3165 24.0077 29.0106 24.0077C25.9184 24.0077 22.9529 22.7792 20.7664 20.5927C18.5799 18.4063 17.3516 15.4406 17.3516 12.3486C17.3516 10.0426 18.0353 7.78845 19.3164 5.87112C20.5975 3.95378 22.4184 2.4594 24.5488 1.57695Z" fill="url(#paint1_linear_7861_380)"/>
<g style="mix-blend-mode:multiply">
<path d="M19.2096 12.886C19.2092 10.9042 19.7869 8.96538 20.8719 7.30704C21.9569 5.64873 23.502 4.3429 25.3181 3.5496C27.1341 2.75628 29.1421 2.50993 31.096 2.84074C33.05 3.17155 34.8648 4.06515 36.3186 5.41203C35.3876 4.40592 34.2629 3.59811 33.012 3.03699C31.7613 2.47585 30.4102 2.17296 29.0396 2.14644C27.669 2.11993 26.3072 2.37034 25.0356 2.88267C23.7641 3.39499 22.6091 4.1587 21.6398 5.12805C20.6704 6.09739 19.9067 7.25241 19.3944 8.52393C18.882 9.79545 18.6316 11.1573 18.6582 12.5279C18.6847 13.8984 18.9876 15.2496 19.5487 16.5003C20.1098 17.751 20.9176 18.8757 21.9237 19.8069C20.1763 17.9262 19.2065 15.453 19.2096 12.886Z" fill="black"/>
</g>
<path d="M29.5577 22.9238C35.0088 22.9238 39.4278 18.2721 39.4278 12.5341C39.4278 6.79612 35.0088 2.14453 29.5577 2.14453C24.1065 2.14453 19.6875 6.79612 19.6875 12.5341C19.6875 18.2721 24.1065 22.9238 29.5577 22.9238Z" fill="black"/>
<path d="M36.0211 19.289C39.7648 15.5596 39.7648 9.51288 36.0211 5.78342C32.2774 2.05397 26.2077 2.05397 22.464 5.78342C18.7203 9.51288 18.7203 15.5596 22.464 19.289C26.2077 23.0185 32.2774 23.0185 36.0211 19.289Z" fill="black"/>
<path d="M39.4355 12.5172C39.4445 15.263 38.3625 17.9003 36.4268 19.851C34.4912 21.8018 31.8599 22.9067 29.1096 22.9235C26.3592 22.9404 23.7144 21.8678 21.7549 19.941C19.7954 18.0141 18.6811 15.3903 18.6562 12.6447V12.5172C18.6562 9.76618 19.7509 7.12786 21.6994 5.18262C23.6478 3.23737 26.2905 2.14453 29.0461 2.14453H29.1742C31.9077 2.17722 34.518 3.28441 36.4392 5.22603C38.3602 7.16764 39.4362 9.78804 39.4355 12.5172Z" fill="#2E3031"/>
<path d="M36.3186 5.17683L21.686 19.8069C19.7723 17.8998 18.6843 15.3177 18.6562 12.6166V12.4895C18.6562 9.74598 19.7463 7.11486 21.6867 5.17483C23.6271 3.23481 26.2588 2.14479 29.003 2.14453H29.1307C31.8312 2.17639 34.4116 3.26499 36.3186 5.17683Z" fill="#444444"/>
<path d="M39.4209 12.5339C39.4209 13.8983 39.1666 15.2493 38.6725 16.5098C38.1783 17.7704 37.4539 18.9158 36.5407 19.8806C35.6275 20.8454 34.5433 21.6107 33.3501 22.1328C32.157 22.655 30.8782 22.9238 29.5867 22.9238C29.4002 22.9238 29.2151 22.9182 29.0312 22.9074C31.5397 22.7579 33.8989 21.5999 35.6245 19.671C37.3504 17.742 38.3119 15.1884 38.3119 12.5341C38.3119 9.87991 37.3504 7.32631 35.6245 5.39734C33.8989 3.46837 31.5397 2.31031 29.0312 2.16079C29.2151 2.14996 29.4002 2.14453 29.5867 2.14453C32.1949 2.14453 34.6962 3.23913 36.5406 5.18751C38.3848 7.13589 39.4209 9.77847 39.4209 12.5339Z" fill="#151520"/>
</g>
<path fill-rule="evenodd" clip-rule="evenodd" d="M28.964 18.2999C25.6595 16.6535 24.0051 14.3909 24.0008 11.5122C23.9997 10.9596 23.9997 10.0538 24.0008 8.79459L28.964 7V18.2999Z" fill="url(#paint2_linear_7861_380)"/>
<path fill-rule="evenodd" clip-rule="evenodd" d="M28.9609 14.8295V12.5893L33.0412 8.48878L33.8796 8.79459L33.8803 9.88574L28.9609 14.8295ZM28.9609 16.8267L33.8695 11.8943C33.7258 14.5919 32.0897 16.7271 28.9609 18.2999V16.8267ZM28.9609 10.592V7L31.5829 7.95698L28.9609 10.5917V10.592Z" fill="black" fill-opacity="0.29"/>
<path fill-rule="evenodd" clip-rule="evenodd" d="M28.964 18.2999C25.6595 16.6535 24.0051 14.3909 24.0008 11.5122C23.9997 10.9596 23.9997 10.0538 24.0008 8.79459L28.964 7V18.2999Z" fill="url(#paint3_linear_7861_380)"/>
<path fill-rule="evenodd" clip-rule="evenodd" d="M28.9609 14.8295V12.5893L33.0412 8.48878L33.8796 8.79459L33.8803 9.88574L28.9609 14.8295ZM28.9609 16.8267L33.8695 11.8943C33.7258 14.5919 32.0897 16.7271 28.9609 18.2999V16.8267ZM28.9609 10.592V7L31.5829 7.95698L28.9609 10.5917V10.592Z" fill="white" fill-opacity="0.29"/>
<defs>
<linearGradient id="paint0_linear_7861_380" x1="5.5" y1="1.5" x2="17.5" y2="26" gradientUnits="userSpaceOnUse">
<stop stop-color="#9A9B9C"/>
<stop offset="1" stop-color="#D2E2FB" stop-opacity="0.25"/>
</linearGradient>
<linearGradient id="paint1_linear_7861_380" x1="26" y1="1" x2="40.5" y2="24.5" gradientUnits="userSpaceOnUse">
<stop stop-color="#BABABA"/>
<stop offset="1" stop-color="#DDEDFF" stop-opacity="0.19"/>
</linearGradient>
<linearGradient id="paint2_linear_7861_380" x1="24.565" y1="10.3476" x2="29.3623" y2="16.6046" gradientUnits="userSpaceOnUse">
<stop stop-color="#EEF0FF" stop-opacity="0.69"/>
<stop offset="1" stop-color="white" stop-opacity="0.42"/>
</linearGradient>
<linearGradient id="paint3_linear_7861_380" x1="24.565" y1="10.3476" x2="29.3623" y2="16.6046" gradientUnits="userSpaceOnUse">
<stop stop-color="#EEF0FF" stop-opacity="0.27"/>
<stop offset="1" stop-color="white" stop-opacity="0.28"/>
</linearGradient>
</defs>
</svg>
