<svg width="159" height="22" viewBox="0 0 159 22" fill="none" xmlns="http://www.w3.org/2000/svg">
<path d="M36.6116 16.3914V5.68423H38.2271V15.0007H43.0788V16.3914H36.6116ZM45.069 16.3914V5.68423H51.7818V7.07491H46.6844V10.3373H51.4315V11.7227H46.6844V15.0007H51.8446V16.3914H45.069ZM54.9914 16.3914H53.2766L57.1298 5.68423H58.9962L62.8493 16.3914H61.1345L58.1074 7.62909H58.0238L54.9914 16.3914ZM55.279 12.1985H60.8417V13.5578H55.279V12.1985ZM64.5428 16.3914V5.68423H68.3593C69.1889 5.68423 69.8773 5.82713 70.4245 6.11294C70.9751 6.39874 71.3864 6.79434 71.6583 7.29972C71.9301 7.80162 72.066 8.38194 72.066 9.04069C72.066 9.69594 71.9284 10.2728 71.6531 10.7712C71.3812 11.2661 70.9699 11.6513 70.4192 11.9266C69.872 12.202 69.1837 12.3396 68.3541 12.3396H65.4629V10.9489H68.2077C68.7305 10.9489 69.1558 10.874 69.4833 10.7241C69.8145 10.5742 70.0567 10.3564 70.2101 10.0706C70.3635 9.78483 70.4401 9.44151 70.4401 9.04069C70.4401 8.63638 70.3617 8.2861 70.2048 7.98983C70.0515 7.69357 69.8093 7.46702 69.4781 7.31017C69.1505 7.14985 68.7201 7.06968 68.1868 7.06968H66.1583V16.3914H64.5428ZM69.8284 11.5606L72.4738 16.3914H70.6335L68.0404 11.5606H69.8284ZM82.8212 5.68423V16.3914H81.3364L75.8939 8.53879H75.7946V16.3914H74.1791V5.68423H75.6743L81.1221 13.5473H81.2214V5.68423H82.8212ZM89.3685 16.3914V5.68423H90.984V10.3373H96.3219V5.68423H97.9426V16.3914H96.3219V11.7227H90.984V16.3914H89.3685ZM109.743 11.0378C109.743 12.181 109.534 13.1639 109.116 13.9865C108.698 14.8056 108.124 15.4364 107.396 15.8791C106.671 16.3183 105.847 16.5378 104.923 16.5378C103.996 16.5378 103.169 16.3183 102.44 15.8791C101.715 15.4364 101.143 14.8038 100.725 13.9813C100.307 13.1587 100.097 12.1776 100.097 11.0378C100.097 9.89461 100.307 8.91347 100.725 8.09439C101.143 7.27183 101.715 6.64097 102.44 6.20181C103.169 5.75917 103.996 5.53784 104.923 5.53784C105.847 5.53784 106.671 5.75917 107.396 6.20181C108.124 6.64097 108.698 7.27183 109.116 8.09439C109.534 8.91347 109.743 9.89461 109.743 11.0378ZM108.144 11.0378C108.144 10.1664 108.002 9.4328 107.721 8.83679C107.441 8.2373 107.058 7.78419 106.57 7.47748C106.085 7.16727 105.536 7.01217 104.923 7.01217C104.306 7.01217 103.756 7.16727 103.271 7.47748C102.787 7.78419 102.403 8.2373 102.12 8.83679C101.842 9.4328 101.703 10.1664 101.703 11.0378C101.703 11.9092 101.842 12.6446 102.12 13.2441C102.403 13.8401 102.787 14.2932 103.271 14.6034C103.756 14.9102 104.306 15.0635 104.923 15.0635C105.536 15.0635 106.085 14.9102 106.57 14.6034C107.058 14.2932 107.441 13.8401 107.721 13.2441C108.002 12.6446 108.144 11.9092 108.144 11.0378ZM113.872 16.3914L110.902 5.68423H112.601L114.687 13.976H114.786L116.956 5.68423H118.64L120.81 13.9813H120.909L122.99 5.68423H124.694L121.719 16.3914H120.093L117.84 8.37149H117.757L115.503 16.3914H113.872ZM129.83 7.07491V5.68423H138.116V7.07491H134.776V16.3914H133.165V7.07491H129.83ZM148.935 11.0378C148.935 12.181 148.726 13.1639 148.308 13.9865C147.89 14.8056 147.317 15.4364 146.588 15.8791C145.863 16.3183 145.039 16.5378 144.115 16.5378C143.188 16.5378 142.361 16.3183 141.632 15.8791C140.907 15.4364 140.335 14.8038 139.917 13.9813C139.499 13.1587 139.29 12.1776 139.29 11.0378C139.29 9.89461 139.499 8.91347 139.917 8.09439C140.335 7.27183 140.907 6.64097 141.632 6.20181C142.361 5.75917 143.188 5.53784 144.115 5.53784C145.039 5.53784 145.863 5.75917 146.588 6.20181C147.317 6.64097 147.89 7.27183 148.308 8.09439C148.726 8.91347 148.935 9.89461 148.935 11.0378ZM147.336 11.0378C147.336 10.1664 147.194 9.4328 146.913 8.83679C146.634 8.2373 146.25 7.78419 145.762 7.47748C145.277 7.16727 144.729 7.01217 144.115 7.01217C143.498 7.01217 142.948 7.16727 142.463 7.47748C141.979 7.78419 141.595 8.2373 141.313 8.83679C141.034 9.4328 140.895 10.1664 140.895 11.0378C140.895 11.9092 141.034 12.6446 141.313 13.2441C141.595 13.8401 141.979 14.2932 142.463 14.6034C142.948 14.9102 143.498 15.0635 144.115 15.0635C144.729 15.0635 145.277 14.9102 145.762 14.6034C146.25 14.2932 146.634 13.8401 146.913 13.2441C147.194 12.6446 147.336 11.9092 147.336 11.0378Z" fill="#ABABAB"/>
<path fill-rule="evenodd" clip-rule="evenodd" d="M13 2C17.9706 2 21.9999 6.02944 21.9999 11C21.9999 15.9705 17.9706 20 13 20C8.02943 20 4 15.9705 4 11C4 6.02944 8.02943 2 13 2Z" stroke="#ABABAB" stroke-width="1.5" stroke-linecap="round" stroke-linejoin="round"/>
<path fill-rule="evenodd" clip-rule="evenodd" d="M15.7448 11.42C15.0887 12.1274 13.3031 13.3244 12.3897 13.7087C12.2439 13.7699 11.8721 13.8995 11.792 13.9013C11.6219 13.9067 11.4581 13.8113 11.3789 13.6583C11.3483 13.5989 11.2584 13.211 11.2295 13.0382C11.144 12.5126 11.0999 11.6963 11.1008 10.8755C11.0999 10.0142 11.1477 9.15919 11.243 8.639C11.2682 8.4986 11.342 8.1755 11.3636 8.1233C11.4041 8.0261 11.4779 7.94959 11.567 7.9019C11.6354 7.865 11.7137 7.8452 11.792 7.8479C11.8721 7.84969 12.198 7.964 12.3095 8.0081C13.1897 8.3501 15.0519 9.59029 15.7358 10.3193C15.7971 10.385 15.9653 10.5614 15.9932 10.5974C16.0571 10.6784 16.0887 10.7765 16.0887 10.8755C16.0887 10.9673 16.0607 11.0609 16.0031 11.1392C15.9734 11.1797 15.8015 11.3597 15.7448 11.42Z" fill="#ABABAB" stroke="#ABABAB" stroke-width="1.5" stroke-linecap="round" stroke-linejoin="round"/>
</svg>
