<svg width="600" height="19" viewBox="0 0 600 19" fill="none" xmlns="http://www.w3.org/2000/svg">
<path d="M0 8.05969H187.16" stroke="#D7D7D7" stroke-opacity="0.04" stroke-width="2" stroke-dasharray="10 10"/>
<path d="M412.836 8.05969L600 8.05969" stroke="#D7D7D7" stroke-opacity="0.04" stroke-width="2" stroke-dasharray="10 10"/>
<path d="M215.233 14V3.81818H216.466V8.35227H221.895V3.81818H223.128V14H221.895V9.44602H216.466V14H215.233ZM227.834 14H226.541L230.28 3.81818H231.553L235.291 14H233.999L230.956 5.42898H230.876L227.834 14ZM228.311 10.0227H233.521V11.1165H228.311V10.0227ZM238.697 14V3.81818H242.138C242.933 3.81818 243.586 3.95407 244.096 4.22585C244.607 4.49432 244.985 4.86387 245.23 5.33452C245.475 5.80516 245.598 6.34044 245.598 6.94034C245.598 7.54025 245.475 8.07221 245.23 8.53622C244.985 9.00024 244.608 9.36482 244.101 9.62997C243.594 9.89181 242.946 10.0227 242.157 10.0227H239.373V8.90909H242.118C242.661 8.90909 243.099 8.82955 243.43 8.67045C243.765 8.51136 244.007 8.28598 244.156 7.99432C244.308 7.69934 244.385 7.34801 244.385 6.94034C244.385 6.53267 244.308 6.17637 244.156 5.87145C244.004 5.56652 243.76 5.3312 243.425 5.16548C243.09 4.99645 242.648 4.91193 242.098 4.91193H239.93V14H238.697ZM243.49 9.42614L245.995 14H244.564L242.098 9.42614H243.49ZM252.614 14H249.472V3.81818H252.754C253.741 3.81818 254.586 4.02202 255.289 4.42969C255.992 4.83404 256.53 5.41572 256.905 6.17472C257.279 6.9304 257.467 7.83523 257.467 8.8892C257.467 9.94981 257.278 10.8629 256.9 11.6286C256.522 12.3909 255.972 12.9775 255.249 13.3885C254.527 13.7962 253.648 14 252.614 14ZM250.705 12.9062H252.535C253.377 12.9062 254.074 12.7438 254.628 12.419C255.181 12.0942 255.594 11.6319 255.866 11.032C256.137 10.4321 256.273 9.7178 256.273 8.8892C256.273 8.06723 256.139 7.35961 255.871 6.76633C255.602 6.16974 255.201 5.71236 254.668 5.39418C254.134 5.07268 253.469 4.91193 252.674 4.91193H250.705V12.9062ZM263.204 14L260.42 3.81818H261.673L263.801 12.1108H263.9L266.068 3.81818H267.46L269.627 12.1108H269.727L271.855 3.81818H273.108L270.324 14H269.051L266.804 5.88636H266.724L264.477 14H263.204ZM276.088 14H274.796L278.534 3.81818H279.807L283.546 14H282.253L279.211 5.42898H279.131L276.088 14ZM276.566 10.0227H281.776V11.1165H276.566V10.0227ZM286.952 14V3.81818H290.392C291.188 3.81818 291.841 3.95407 292.351 4.22585C292.861 4.49432 293.239 4.86387 293.484 5.33452C293.73 5.80516 293.852 6.34044 293.852 6.94034C293.852 7.54025 293.73 8.07221 293.484 8.53622C293.239 9.00024 292.863 9.36482 292.356 9.62997C291.849 9.89181 291.201 10.0227 290.412 10.0227H287.628V8.90909H290.372C290.916 8.90909 291.353 8.82955 291.685 8.67045C292.019 8.51136 292.261 8.28598 292.411 7.99432C292.563 7.69934 292.639 7.34801 292.639 6.94034C292.639 6.53267 292.563 6.17637 292.411 5.87145C292.258 5.56652 292.015 5.3312 291.68 5.16548C291.345 4.99645 290.903 4.91193 290.352 4.91193H288.185V14H286.952ZM291.744 9.42614L294.25 14H292.818L290.352 9.42614H291.744ZM297.727 14V3.81818H303.872V4.91193H298.96V8.35227H303.554V9.44602H298.96V12.9062H303.951V14H297.727ZM315.521 14L312.737 3.81818H313.99L316.118 12.1108H316.217L318.385 3.81818H319.777L321.944 12.1108H322.044L324.172 3.81818H325.424L322.64 14H321.368L319.12 5.88636H319.041L316.794 14H315.521ZM328.405 14H327.113L330.851 3.81818H332.124L335.863 14H334.57L331.527 5.42898H331.448L328.405 14ZM328.883 10.0227H334.093V11.1165H328.883V10.0227ZM339.269 14V3.81818H340.502V12.9062H345.234V14H339.269ZM348.964 14V3.81818H350.197V12.9062H354.929V14H348.964ZM358.659 14V3.81818H364.803V4.91193H359.892V8.35227H364.485V9.44602H359.892V12.9062H364.883V14H358.659ZM368.289 4.91193V3.81818H375.925V4.91193H372.724V14H371.491V4.91193H368.289ZM385.216 6.36364C385.157 5.85985 384.915 5.46875 384.491 5.19034C384.066 4.91193 383.546 4.77273 382.929 4.77273C382.479 4.77273 382.084 4.84564 381.746 4.99148C381.411 5.13731 381.15 5.33783 380.961 5.59304C380.775 5.84825 380.682 6.13826 380.682 6.46307C380.682 6.73485 380.747 6.96851 380.876 7.16406C381.009 7.3563 381.178 7.51705 381.383 7.64631C381.589 7.77225 381.804 7.87666 382.03 7.95952C382.255 8.03906 382.462 8.10369 382.651 8.15341L383.685 8.43182C383.95 8.50142 384.245 8.59754 384.57 8.72017C384.898 8.8428 385.211 9.01018 385.51 9.2223C385.811 9.43111 386.06 9.69957 386.255 10.0277C386.451 10.3558 386.549 10.7585 386.549 11.2358C386.549 11.786 386.405 12.2831 386.116 12.7273C385.831 13.1714 385.414 13.5244 384.863 13.7862C384.317 14.0481 383.652 14.179 382.87 14.179C382.141 14.179 381.509 14.0613 380.976 13.826C380.445 13.5907 380.028 13.2625 379.723 12.8416C379.421 12.4207 379.25 11.9318 379.211 11.375H380.483C380.517 11.7595 380.646 12.0777 380.871 12.3295C381.1 12.5781 381.388 12.7637 381.736 12.8864C382.088 13.0057 382.465 13.0653 382.87 13.0653C383.34 13.0653 383.763 12.9891 384.138 12.8366C384.512 12.6809 384.809 12.4654 385.027 12.1903C385.246 11.9119 385.356 11.5871 385.356 11.2159C385.356 10.8778 385.261 10.6027 385.072 10.3906C384.883 10.1785 384.635 10.0062 384.326 9.87358C384.018 9.741 383.685 9.625 383.327 9.52557L382.074 9.16761C381.279 8.93892 380.649 8.61245 380.185 8.18821C379.721 7.76397 379.489 7.20881 379.489 6.52273C379.489 5.95265 379.643 5.45549 379.951 5.03125C380.263 4.60369 380.681 4.27225 381.204 4.03693C381.731 3.7983 382.32 3.67898 382.969 3.67898C383.625 3.67898 384.209 3.79664 384.719 4.03196C385.23 4.26397 385.634 4.58215 385.932 4.98651C386.234 5.39086 386.393 5.8499 386.41 6.36364H385.216Z" fill="#ADADAD"/>
</svg>
