<svg width="670" height="21" viewBox="0 0 670 21" fill="none" xmlns="http://www.w3.org/2000/svg">
<path d="M0 9H231" stroke="#F8F8F8" stroke-opacity="0.04" stroke-width="2" stroke-dasharray="10 10"/>
<path d="M461 9L670 9" stroke="#F8F8F8" stroke-opacity="0.04" stroke-width="2" stroke-dasharray="10 10"/>
<path d="M264.233 14V3.81818H265.466V8.35227H270.895V3.81818H272.128V14H270.895V9.44602H265.466V14H264.233ZM276.834 14H275.541L279.28 3.81818H280.553L284.291 14H282.999L279.956 5.42898H279.876L276.834 14ZM277.311 10.0227H282.521V11.1165H277.311V10.0227ZM287.697 14V3.81818H291.138C291.933 3.81818 292.586 3.95407 293.096 4.22585C293.607 4.49432 293.985 4.86387 294.23 5.33452C294.475 5.80516 294.598 6.34044 294.598 6.94034C294.598 7.54025 294.475 8.07221 294.23 8.53622C293.985 9.00024 293.608 9.36482 293.101 9.62997C292.594 9.89181 291.946 10.0227 291.157 10.0227H288.373V8.90909H291.118C291.661 8.90909 292.099 8.82955 292.43 8.67045C292.765 8.51136 293.007 8.28598 293.156 7.99432C293.308 7.69934 293.385 7.34801 293.385 6.94034C293.385 6.53267 293.308 6.17637 293.156 5.87145C293.004 5.56652 292.76 5.3312 292.425 5.16548C292.09 4.99645 291.648 4.91193 291.098 4.91193H288.93V14H287.697ZM292.49 9.42614L294.995 14H293.564L291.098 9.42614H292.49ZM301.614 14H298.472V3.81818H301.754C302.741 3.81818 303.586 4.02202 304.289 4.42969C304.992 4.83404 305.53 5.41572 305.905 6.17472C306.279 6.9304 306.467 7.83523 306.467 8.8892C306.467 9.94981 306.278 10.8629 305.9 11.6286C305.522 12.3909 304.972 12.9775 304.249 13.3885C303.527 13.7962 302.648 14 301.614 14ZM299.705 12.9062H301.535C302.377 12.9062 303.074 12.7438 303.628 12.419C304.181 12.0942 304.594 11.6319 304.866 11.032C305.137 10.4321 305.273 9.7178 305.273 8.8892C305.273 8.06723 305.139 7.35961 304.871 6.76633C304.602 6.16974 304.201 5.71236 303.668 5.39418C303.134 5.07268 302.469 4.91193 301.674 4.91193H299.705V12.9062ZM312.204 14L309.42 3.81818H310.673L312.801 12.1108H312.9L315.068 3.81818H316.46L318.627 12.1108H318.727L320.855 3.81818H322.108L319.324 14H318.051L315.804 5.88636H315.724L313.477 14H312.204ZM325.088 14H323.796L327.534 3.81818H328.807L332.546 14H331.253L328.211 5.42898H328.131L325.088 14ZM325.566 10.0227H330.776V11.1165H325.566V10.0227ZM335.952 14V3.81818H339.392C340.188 3.81818 340.841 3.95407 341.351 4.22585C341.861 4.49432 342.239 4.86387 342.484 5.33452C342.73 5.80516 342.852 6.34044 342.852 6.94034C342.852 7.54025 342.73 8.07221 342.484 8.53622C342.239 9.00024 341.863 9.36482 341.356 9.62997C340.849 9.89181 340.201 10.0227 339.412 10.0227H336.628V8.90909H339.372C339.916 8.90909 340.353 8.82955 340.685 8.67045C341.019 8.51136 341.261 8.28598 341.411 7.99432C341.563 7.69934 341.639 7.34801 341.639 6.94034C341.639 6.53267 341.563 6.17637 341.411 5.87145C341.258 5.56652 341.015 5.3312 340.68 5.16548C340.345 4.99645 339.903 4.91193 339.352 4.91193H337.185V14H335.952ZM340.744 9.42614L343.25 14H341.818L339.352 9.42614H340.744ZM346.727 14V3.81818H352.872V4.91193H347.96V8.35227H352.554V9.44602H347.96V12.9062H352.951V14H346.727ZM364.521 14L361.737 3.81818H362.99L365.118 12.1108H365.217L367.385 3.81818H368.777L370.944 12.1108H371.044L373.172 3.81818H374.424L371.64 14H370.368L368.12 5.88636H368.041L365.794 14H364.521ZM377.405 14H376.113L379.851 3.81818H381.124L384.863 14H383.57L380.527 5.42898H380.448L377.405 14ZM377.883 10.0227H383.093V11.1165H377.883V10.0227ZM388.269 14V3.81818H389.502V12.9062H394.234V14H388.269ZM397.964 14V3.81818H399.197V12.9062H403.929V14H397.964ZM407.659 14V3.81818H413.803V4.91193H408.892V8.35227H413.485V9.44602H408.892V12.9062H413.883V14H407.659ZM417.289 4.91193V3.81818H424.925V4.91193H421.724V14H420.491V4.91193H417.289ZM434.216 6.36364C434.157 5.85985 433.915 5.46875 433.491 5.19034C433.066 4.91193 432.546 4.77273 431.929 4.77273C431.479 4.77273 431.084 4.84564 430.746 4.99148C430.411 5.13731 430.15 5.33783 429.961 5.59304C429.775 5.84825 429.682 6.13826 429.682 6.46307C429.682 6.73485 429.747 6.96851 429.876 7.16406C430.009 7.3563 430.178 7.51705 430.383 7.64631C430.589 7.77225 430.804 7.87666 431.03 7.95952C431.255 8.03906 431.462 8.10369 431.651 8.15341L432.685 8.43182C432.95 8.50142 433.245 8.59754 433.57 8.72017C433.898 8.8428 434.211 9.01018 434.51 9.2223C434.811 9.43111 435.06 9.69957 435.255 10.0277C435.451 10.3558 435.549 10.7585 435.549 11.2358C435.549 11.786 435.405 12.2831 435.116 12.7273C434.831 13.1714 434.414 13.5244 433.863 13.7862C433.317 14.0481 432.652 14.179 431.87 14.179C431.141 14.179 430.509 14.0613 429.976 13.826C429.445 13.5907 429.028 13.2625 428.723 12.8416C428.421 12.4207 428.25 11.9318 428.211 11.375H429.483C429.517 11.7595 429.646 12.0777 429.871 12.3295C430.1 12.5781 430.388 12.7637 430.736 12.8864C431.088 13.0057 431.465 13.0653 431.87 13.0653C432.34 13.0653 432.763 12.9891 433.138 12.8366C433.512 12.6809 433.809 12.4654 434.027 12.1903C434.246 11.9119 434.356 11.5871 434.356 11.2159C434.356 10.8778 434.261 10.6027 434.072 10.3906C433.883 10.1785 433.635 10.0062 433.326 9.87358C433.018 9.741 432.685 9.625 432.327 9.52557L431.074 9.16761C430.279 8.93892 429.649 8.61245 429.185 8.18821C428.721 7.76397 428.489 7.20881 428.489 6.52273C428.489 5.95265 428.643 5.45549 428.951 5.03125C429.263 4.60369 429.681 4.27225 430.204 4.03693C430.731 3.7983 431.32 3.67898 431.969 3.67898C432.625 3.67898 433.209 3.79664 433.719 4.03196C434.23 4.26397 434.634 4.58215 434.932 4.98651C435.234 5.39086 435.393 5.8499 435.41 6.36364H434.216Z" fill="#FDFDFD"/>
</svg>
