<svg width="758" height="24" viewBox="0 0 758 24" fill="none" xmlns="http://www.w3.org/2000/svg">
<path d="M0 12.1807H236.413" stroke="#D7D7D7" stroke-opacity="0.04" stroke-width="2" stroke-dasharray="10 10"/>
<path d="M521.477 12.1807H757.895" stroke="#D7D7D7" stroke-opacity="0.04" stroke-width="2" stroke-dasharray="10 10"/>
<path d="M267.406 18V4.90908H269.464V10.5661H275.901V4.90908H277.96V18H275.901V12.3239H269.464V18H267.406ZM284.333 18H282.147L286.839 4.90908H289.248L293.94 18H291.754L288.091 7.35084H287.989L284.333 18ZM284.627 12.8736H291.447V14.5803H284.627V12.8736ZM298.137 18V4.90908H302.854C303.864 4.90908 304.706 5.0838 305.379 5.43323C306.057 5.78266 306.564 6.26632 306.901 6.88422C307.237 7.50212 307.405 8.2159 307.405 9.02556C307.405 9.83948 307.235 10.5511 306.894 11.1605C306.553 11.7656 306.046 12.2365 305.373 12.5732C304.7 12.9098 303.856 13.0781 302.842 13.0781H299.313V11.3267H302.637C303.268 11.3267 303.781 11.2372 304.178 11.0582C304.574 10.875 304.864 10.6129 305.047 10.272C305.234 9.9311 305.328 9.51561 305.328 9.02556C305.328 8.53976 305.234 8.12002 305.047 7.76633C304.859 7.40837 304.565 7.13564 304.165 6.94814C303.768 6.75638 303.251 6.6605 302.611 6.6605H300.195V18H298.137ZM304.663 12.0874L307.898 18H305.571L302.394 12.0874H304.663ZM316.379 18H312.096V4.90908H316.5C317.787 4.90908 318.891 5.17115 319.811 5.6953C320.736 6.21519 321.446 6.96306 321.94 7.93891C322.434 8.9105 322.681 10.076 322.681 11.4354C322.681 12.799 322.432 13.9709 321.934 14.951C321.439 15.9311 320.721 16.6854 319.779 17.2138C318.842 17.7379 317.708 18 316.379 18ZM314.154 16.2102H316.27C317.246 16.2102 318.06 16.027 318.712 15.6605C319.364 15.2898 319.85 14.7507 320.169 14.0433C320.493 13.3317 320.655 12.4624 320.655 11.4354C320.655 10.4126 320.495 9.54971 320.176 8.84658C319.856 8.14346 319.379 7.61079 318.744 7.24857C318.109 6.88209 317.321 6.69885 316.379 6.69885H314.154V16.2102ZM329.859 18L326.209 4.90908H328.382L330.894 14.9446H331.016L333.643 4.90908H335.752L338.379 14.951H338.501L341.006 4.90908H343.186L339.536 18H337.478L334.748 8.31604H334.646L331.917 18H329.859ZM347.376 18H345.19L349.882 4.90908H352.292L356.984 18H354.798L351.135 7.35084H351.033L347.376 18ZM347.671 12.8736H354.491V14.5803H347.671V12.8736ZM361.181 18V4.90908H365.898C366.908 4.90908 367.75 5.0838 368.423 5.43323C369.1 5.78266 369.607 6.26632 369.944 6.88422C370.281 7.50212 370.449 8.2159 370.449 9.02556C370.449 9.83948 370.279 10.5511 369.938 11.1605C369.597 11.7656 369.09 12.2365 368.416 12.5732C367.743 12.9098 366.899 13.0781 365.885 13.0781H362.357V11.3267H365.681C366.311 11.3267 366.825 11.2372 367.221 11.0582C367.617 10.875 367.907 10.6129 368.09 10.272C368.278 9.9311 368.372 9.51561 368.372 9.02556C368.372 8.53976 368.278 8.12002 368.09 7.76633C367.903 7.40837 367.609 7.13564 367.208 6.94814C366.812 6.75638 366.294 6.6605 365.655 6.6605H363.239V18H361.181ZM367.707 12.0874L370.941 18H368.615L365.438 12.0874H367.707ZM375.14 18V4.90908H383.411V6.66689H377.198V10.5661H382.983V12.3239H377.198V16.2422H383.481V18H375.14ZM398.002 18L394.352 4.90908H396.525L399.037 14.9446H399.159L401.786 4.90908H403.895L406.523 14.951H406.644L409.15 4.90908H411.329L407.679 18H405.621L402.892 8.31604H402.79L400.06 18H398.002ZM415.52 18H413.334L418.026 4.90908H420.435L425.127 18H422.941L419.278 7.35084H419.176L415.52 18ZM415.814 12.8736H422.634V14.5803H415.814V12.8736ZM429.324 18V4.90908H431.382V16.2422H437.276V18H429.324ZM441.824 18V4.90908H443.882V16.2422H449.776V18H441.824ZM454.324 18V4.90908H462.596V6.66689H456.383V10.5661H462.167V12.3239H456.383V16.2422H462.666V18H454.324ZM466.901 6.66689V4.90908H477.09V6.66689H473.018V18H470.973V6.66689H466.901ZM488.743 8.37996C488.679 7.78337 488.405 7.32101 487.919 6.99289C487.437 6.66476 486.826 6.5007 486.084 6.5007C485.556 6.5007 485.1 6.58167 484.716 6.7436C484.333 6.90553 484.037 7.12925 483.828 7.41476C483.619 7.70027 483.512 8.02414 483.508 8.38635C483.508 8.69317 483.579 8.95738 483.719 9.17897C483.864 9.3963 484.054 9.57954 484.288 9.72868C484.527 9.87783 484.782 10.0014 485.055 10.0994C485.332 10.1974 485.601 10.2784 485.86 10.3423L487.126 10.6683C487.561 10.7749 487.998 10.9176 488.436 11.0966C488.88 11.2756 489.287 11.5099 489.657 11.7997C490.032 12.0852 490.333 12.4389 490.559 12.8608C490.789 13.2827 490.904 13.7855 490.904 14.3693C490.904 15.1151 490.712 15.7777 490.329 16.3572C489.949 16.9325 489.395 17.3864 488.667 17.7188C487.942 18.0469 487.064 18.2109 486.033 18.2109C485.049 18.2109 484.194 18.0554 483.47 17.7443C482.75 17.4332 482.185 16.9879 481.776 16.4084C481.367 15.8288 481.143 15.1364 481.105 14.331H483.157C483.195 14.804 483.346 15.196 483.61 15.5071C483.875 15.8139 484.216 16.044 484.633 16.1974C485.055 16.3466 485.517 16.4212 486.02 16.4212C486.574 16.4212 487.064 16.3359 487.49 16.1655C487.917 15.9908 488.251 15.75 488.494 15.4432C488.741 15.1321 488.867 14.7678 488.871 14.3501C488.867 13.9751 488.758 13.6662 488.545 13.4233C488.332 13.1761 488.04 12.9737 487.669 12.8161C487.299 12.6584 486.881 12.5178 486.417 12.3942L484.876 11.9787C483.824 11.6932 482.99 11.2734 482.377 10.7195C481.763 10.1612 481.456 9.424 481.456 8.5078C481.456 7.75354 481.661 7.09303 482.07 6.52627C482.479 5.95951 483.035 5.51846 483.738 5.20311C484.446 4.88777 485.243 4.7301 486.129 4.7301C487.024 4.7301 487.812 4.88777 488.494 5.20311C489.18 5.51419 489.719 5.94459 490.111 6.49431C490.503 7.04402 490.708 7.67258 490.725 8.37996H488.743Z" fill="#ACACAC" fill-opacity="0.7"/>
</svg>
