<svg width="18" height="18" viewBox="0 0 18 18" fill="none" xmlns="http://www.w3.org/2000/svg">
<path fill-rule="evenodd" clip-rule="evenodd" d="M1.5 9.00024C1.5 4.85858 4.85834 1.50024 9 1.50024C13.1422 1.50024 16.5 4.85833 16.5 9.00024C16.5 13.1422 13.1422 16.5002 9 16.5002C4.85834 16.5002 1.5 13.1419 1.5 9.00024ZM15.375 9.00024C15.375 5.47964 12.5208 2.62524 9 2.62524C5.47966 2.62524 2.625 5.4799 2.625 9.00024C2.625 12.5206 5.47966 15.3752 9 15.3752C12.5208 15.3752 15.375 12.5209 15.375 9.00024ZM8.99633 5.59082C9.2811 5.59082 9.51644 5.80243 9.55369 6.07699L9.55882 6.15332V9.46757C9.55882 9.77823 9.30699 10.0301 8.99633 10.0301C8.71155 10.0301 8.47621 9.81845 8.43896 9.5439L8.43383 9.46757V6.15332C8.43383 5.84266 8.68566 5.59082 8.99633 5.59082ZM9.56633 11.8472C9.56633 11.5365 9.31449 11.2847 9.00382 11.2847L8.92 11.2898C8.64544 11.3271 8.43383 11.5624 8.43383 11.8472C8.43383 12.1578 8.68566 12.4097 8.99633 12.4097L9.08015 12.4045C9.35471 12.3673 9.56633 12.1319 9.56633 11.8472Z" fill="#ABABAB"/>
</svg>
