<svg width="50" height="50" viewBox="0 0 50 50" fill="none" xmlns="http://www.w3.org/2000/svg">
<g clip-path="url(#clip0_607_304)">
<path d="M32.9168 16L31.1297 17.7871M31.1297 17.7871L33.8103 20.4678L30.6829 23.5952L28.0022 20.9146M31.1297 17.7871L28.0022 20.9146M24.3297 24.5871C24.7911 25.0423 25.1578 25.5843 25.4089 26.1819C25.6599 26.7795 25.7903 27.4208 25.7925 28.069C25.7946 28.7171 25.6686 29.3593 25.4215 29.9585C25.1745 30.5578 24.8114 31.1022 24.353 31.5606C23.8947 32.0189 23.3503 32.382 22.751 32.629C22.1518 32.8761 21.5096 33.0021 20.8614 33C20.2133 32.9978 19.572 32.8674 18.9744 32.6164C18.3768 32.3653 17.8348 31.9986 17.3796 31.5372C16.4843 30.6103 15.989 29.3689 16.0002 28.0803C16.0114 26.7917 16.5282 25.5591 17.4394 24.6479C18.3506 23.7367 19.5833 23.2198 20.8719 23.2086C22.1605 23.1974 23.4019 23.6928 24.3288 24.588L24.3297 24.5871ZM24.3297 24.5871L28.0022 20.9146" stroke="white" stroke-width="1.5" stroke-linecap="round" stroke-linejoin="round"/>
</g>
<defs>
<clipPath id="clip0_607_304">
<rect width="24" height="24" fill="white" transform="translate(13 13)"/>
</clipPath>
</defs>
</svg>
