<svg width="975" height="311" viewBox="0 0 975 311" fill="none" xmlns="http://www.w3.org/2000/svg">
<rect width="975" height="311" fill="#101317"/>
<path d="M627.089 165.209C628.012 165.209 628.734 164.877 629.302 164.498L628.959 163.846C628.426 164.202 627.882 164.415 627.207 164.415C625.953 164.415 625.053 163.573 625.006 162.27H629.503C629.527 162.116 629.539 161.902 629.539 161.701C629.539 159.994 628.568 158.868 626.923 158.868C625.432 158.868 624 160.077 624 162.045C624 164.024 625.385 165.209 627.089 165.209ZM624.994 161.559C625.148 160.35 626 159.639 626.935 159.639C628 159.639 628.639 160.326 628.639 161.559H624.994ZM631.593 167.627C632.895 167.627 633.593 166.714 634.043 165.553L636.564 159.01H635.641L634.386 162.412C634.185 162.957 633.972 163.585 633.771 164.154H633.723C633.487 163.573 633.238 162.945 633.013 162.412L631.605 159.01H630.623L633.309 165.079L633.144 165.505C632.836 166.299 632.362 166.821 631.558 166.821C631.38 166.821 631.191 166.785 631.037 166.738L630.836 167.508C631.037 167.579 631.321 167.627 631.593 167.627ZM640.169 165.197C642.098 165.197 642.737 164.012 642.737 162.554V157.221H638.5V158.05H641.755V162.471C641.755 163.763 641.257 164.332 640.145 164.332C639.541 164.332 638.95 164 638.5 163.301L637.861 163.893C638.394 164.806 639.293 165.197 640.169 165.197ZM647.549 157.659C648.01 157.659 648.377 157.327 648.377 156.842C648.377 156.344 648.01 156 647.549 156C647.087 156 646.72 156.344 646.72 156.842C646.72 157.327 647.087 157.659 647.549 157.659ZM644.945 165.055H650.389V164.249H648.152V159.01H644.945V159.805H647.182V164.249H644.945V165.055ZM651.391 165.055H657V164.213H652.586L656.941 157.813V157.221H651.769V158.05H655.734L651.391 164.462V165.055ZM630.682 180.858H631.723L632.883 178.736C633.084 178.357 633.286 177.966 633.51 177.492H633.558C633.818 177.966 634.031 178.369 634.244 178.748L635.416 180.858H636.505L634.185 176.864L636.351 173.035H635.309L634.244 175.038C634.055 175.394 633.901 175.726 633.688 176.176H633.641C633.392 175.726 633.215 175.394 633.013 175.038L631.925 173.035H630.836L633.001 176.816L630.682 180.858ZM637.885 180.858H638.82V176.757C638.82 175.951 638.725 175.11 638.689 174.315H638.713L639.494 175.915L642.015 180.858H643.021V173.035H642.086V177.101C642.086 177.918 642.181 178.807 642.216 179.578H642.192L641.411 177.978L638.891 173.035H637.885V180.858ZM647.312 181C648.993 181 650.022 179.518 650.022 176.923C650.022 174.304 648.993 172.893 647.312 172.893C645.632 172.893 644.602 174.304 644.602 176.923C644.602 179.518 645.632 181 647.312 181ZM647.312 180.218C646.259 180.218 645.513 179.175 645.513 176.923C645.513 174.659 646.259 173.675 647.312 173.675C648.365 173.675 649.111 174.659 649.111 176.923C649.111 179.175 648.365 180.218 647.312 180.218ZM647.312 177.646C647.703 177.646 648.046 177.35 648.046 176.84C648.046 176.33 647.703 176.034 647.312 176.034C646.922 176.034 646.578 176.33 646.578 176.84C646.578 177.35 646.922 177.646 647.312 177.646Z" fill="#07B07E"/>
<path d="M679 165.419H680.016L681.148 163.346C681.344 162.976 681.54 162.594 681.76 162.13H681.806C682.06 162.594 682.268 162.987 682.475 163.358L683.618 165.419H684.681L682.418 161.517L684.531 157.776H683.515L682.475 159.733C682.291 160.081 682.141 160.405 681.933 160.845H681.887C681.644 160.405 681.471 160.081 681.275 159.733L680.212 157.776H679.15L681.263 161.47L679 165.419ZM685.912 165.419H691.096V164.597H688.671C688.232 164.597 687.747 164.632 687.297 164.667C689.306 162.744 690.692 161.32 690.692 159.884C690.692 158.529 689.768 157.637 688.29 157.637C687.251 157.637 686.524 158.1 685.865 158.795L686.408 159.339C686.881 158.818 687.482 158.413 688.175 158.413C689.26 158.413 689.78 159.05 689.78 159.918C689.78 161.204 688.406 162.547 685.912 164.852V165.419ZM692.916 165.419H693.874V162.188H695.225L697.049 165.419H698.146L696.218 162.084C697.245 161.818 697.915 161.111 697.915 159.918C697.915 158.332 696.807 157.776 695.271 157.776H692.916V165.419ZM693.874 161.401V158.552H695.132C696.31 158.552 696.957 158.911 696.957 159.918C696.957 160.914 696.31 161.401 695.132 161.401H693.874ZM699.528 165.419H700.474V161.297C701.133 160.555 701.583 160.196 702.253 160.196C703.176 160.196 703.546 160.741 703.546 161.876V165.419H704.493V161.748C704.493 160.196 703.881 159.374 702.553 159.374C701.675 159.374 701.029 159.872 700.428 160.544L700.474 159.131V157H699.528V165.419ZM708.275 165.57C708.968 165.57 709.638 165.13 710.099 164.632H710.134L710.215 165.419H711V157H710.053V159.038L710.088 160.15C709.568 159.664 709.072 159.374 708.391 159.374C707.063 159.374 705.839 160.567 705.839 162.478C705.839 164.447 706.809 165.57 708.275 165.57ZM708.471 164.771C707.432 164.771 706.82 163.891 706.82 162.466C706.82 161.111 707.605 160.173 708.575 160.173C709.06 160.173 709.545 160.37 710.053 160.88V163.856C709.557 164.458 709.026 164.771 708.471 164.771ZM688.96 181C689.941 181 690.738 180.606 691.223 180.12V176.9H688.821V177.699H690.334V179.703C690.045 179.981 689.549 180.155 689.018 180.155C687.528 180.155 686.685 178.939 686.685 177.016C686.685 175.117 687.62 173.924 689.041 173.924C689.768 173.924 690.218 174.225 690.588 174.619L691.13 174.005C690.703 173.553 690.045 173.078 689.041 173.078C687.078 173.078 685.681 174.572 685.681 177.039C685.681 179.529 687.055 181 688.96 181ZM693.32 180.861H694.278V177.433H697.384V176.622H694.278V174.028H697.95V173.217H693.32V180.861ZM702.149 173.634C702.599 173.634 702.957 173.31 702.957 172.835C702.957 172.349 702.599 172.013 702.149 172.013C701.698 172.013 701.34 172.349 701.34 172.835C701.34 173.31 701.698 173.634 702.149 173.634ZM699.608 180.861H704.92V180.074H702.738V174.955H699.608V175.731H701.791V180.074H699.608V180.861Z" fill="#07B07E"/>
<path d="M793.324 165.149C794.224 165.149 795.074 164.792 795.737 164.198L795.287 163.567C794.774 163.995 794.149 164.34 793.399 164.34C792 164.34 791.062 163.389 791.062 161.973C791.062 160.557 792.025 159.594 793.424 159.594C794.062 159.594 794.587 159.855 795.087 160.307L795.599 159.677C795.099 159.189 794.374 158.785 793.387 158.785C791.55 158.785 790 159.939 790 161.973C790 163.983 791.425 165.149 793.324 165.149ZM799.831 165.137C801.418 165.137 802.718 164.293 802.718 162.901C802.718 161.818 801.806 161.128 800.743 160.914V160.855C801.731 160.545 802.443 159.939 802.443 158.987C802.443 157.726 801.306 157 799.806 157C798.781 157 797.919 157.416 797.256 157.987L797.806 158.606C798.331 158.13 799.018 157.797 799.768 157.797C800.743 157.797 801.393 158.285 801.393 159.058C801.393 159.891 800.668 160.533 798.781 160.533V161.295C800.881 161.295 801.681 161.925 801.681 162.877C801.681 163.757 800.856 164.328 799.768 164.328C798.744 164.328 798.006 163.888 797.481 163.389L796.956 164.031C797.544 164.614 798.456 165.137 799.831 165.137ZM806.637 164.995H807.85L810.449 157.143H809.387L808.074 161.39C807.787 162.318 807.587 163.056 807.287 163.983H807.237C806.937 163.056 806.737 162.318 806.45 161.39L805.125 157.143H804.025L806.637 164.995ZM812.195 164.995H813.419L814.119 161.866C814.269 161.176 814.357 160.629 814.457 160.105H814.507C814.632 160.712 814.732 161.283 814.844 161.854L815.569 164.995H816.806L818.131 158.927H817.156L816.431 162.484C816.319 163.056 816.231 163.603 816.119 164.162H816.069C815.944 163.603 815.832 163.056 815.694 162.484L814.944 159.26H814.069L813.332 162.484C813.194 163.044 813.082 163.603 812.97 164.162H812.92C812.832 163.603 812.732 163.056 812.62 162.484L811.882 158.927H810.832L812.195 164.995ZM821.201 164.995H822.25V162.187L825 157.143H823.925L822.738 159.463C822.425 160.069 822.1 160.676 821.776 161.307H821.726C821.388 160.676 821.101 160.081 820.788 159.486L819.551 157.143H818.451L821.201 162.187V164.995ZM797.631 180.857H798.756L799.656 177.562C799.781 177.098 799.881 176.61 799.981 176.146H800.018C800.106 176.61 800.206 177.098 800.318 177.562L801.256 180.857H802.405L803.618 172.993H802.63L802.005 177.931C801.956 178.573 801.881 179.227 801.831 179.87H801.781C801.606 179.227 801.418 178.561 801.268 177.931L800.406 175.028H799.668L798.806 177.931C798.644 178.573 798.456 179.227 798.281 179.87H798.244C798.194 179.227 798.106 178.585 798.069 177.931L797.406 172.993H796.369L797.631 180.857ZM806.937 181C808.974 181 809.649 179.81 809.649 178.347V172.993H805.175V173.826H808.612V178.264C808.612 179.56 808.087 180.132 806.912 180.132C806.275 180.132 805.65 179.798 805.175 179.097L804.5 179.691C805.062 180.607 806.012 181 806.937 181ZM811.895 180.857H812.92V176.622C813.632 175.861 814.119 175.492 814.844 175.492C815.844 175.492 816.244 176.051 816.244 177.217V180.857H817.269V177.086C817.269 175.492 816.606 174.647 815.169 174.647C814.219 174.647 813.519 175.159 812.87 175.849L812.92 174.397V172.208H811.895V180.857Z" fill="#07B07E"/>
<path d="M849.211 165.277C850.08 165.277 850.901 164.919 851.541 164.322L851.107 163.689C850.612 164.119 850.008 164.465 849.284 164.465C847.932 164.465 847.026 163.51 847.026 162.089C847.026 160.668 847.956 159.701 849.308 159.701C849.923 159.701 850.43 159.964 850.913 160.418L851.408 159.785C850.925 159.295 850.225 158.889 849.272 158.889C847.497 158.889 846 160.048 846 162.089C846 164.107 847.376 165.277 849.211 165.277ZM852.913 165.122H858.333V164.274H855.798C855.339 164.274 854.832 164.31 854.361 164.346C856.462 162.364 857.91 160.895 857.91 159.415C857.91 158.018 856.945 157.098 855.399 157.098C854.313 157.098 853.552 157.576 852.864 158.292L853.432 158.854C853.927 158.316 854.554 157.898 855.279 157.898C856.413 157.898 856.957 158.555 856.957 159.451C856.957 160.776 855.52 162.161 852.913 164.537V165.122ZM862.662 165.265C864.207 165.265 865.318 164.406 865.318 162.149V157.242H864.34V162.161C864.34 163.809 863.616 164.394 862.662 164.394C861.708 164.394 860.996 163.809 860.996 162.161V157.242H859.982V162.149C859.982 164.406 861.105 165.265 862.662 165.265ZM869.888 157.672C870.359 157.672 870.733 157.337 870.733 156.848C870.733 156.346 870.359 156 869.888 156C869.418 156 869.043 156.346 869.043 156.848C869.043 157.337 869.418 157.672 869.888 157.672ZM867.232 165.122H872.786V164.31H870.504V159.033H867.232V159.833H869.514V164.31H867.232V165.122ZM875.944 165.122H876.922V159.833H879.384V159.033H876.922V158.722C876.922 157.719 877.356 157.098 878.406 157.098C878.913 157.098 879.288 157.158 879.771 157.397L880 156.657C879.445 156.406 878.889 156.298 878.31 156.298C876.692 156.298 875.944 157.266 875.944 158.758V159.033L874.266 159.104V159.833H875.944V165.122ZM857.814 183C858.164 183 858.454 182.928 858.707 182.833L858.526 182.033C858.381 182.093 858.176 182.152 857.935 182.152C857.114 182.152 856.486 181.806 856.22 181.125C857.681 180.827 858.647 179.311 858.647 177.066C858.647 174.559 857.427 173.006 855.641 173.006C853.842 173.006 852.623 174.547 852.623 177.066C852.623 179.346 853.625 180.875 855.146 181.137C855.544 182.212 856.413 183 857.814 183ZM855.641 180.325C854.422 180.325 853.649 179.024 853.649 177.066C853.649 175.108 854.422 173.866 855.641 173.866C856.848 173.866 857.621 175.108 857.621 177.066C857.621 179.024 856.848 180.325 855.641 180.325ZM860.054 176.194H865.245V175.454H860.054V176.194ZM860.054 178.749H865.245V178.009H860.054V178.749ZM867.051 176.194H872.242V175.454H867.051V176.194ZM867.051 178.749H872.242V178.009H867.051V178.749Z" fill="#07B07E"/>
<path d="M746.521 172.713C746.99 172.713 747.362 172.37 747.362 171.869C747.362 171.355 746.99 171 746.521 171C746.053 171 745.68 171.355 745.68 171.869C745.68 172.37 746.053 172.713 746.521 172.713ZM744.67 183C746.557 183 747.122 181.924 747.122 180.382V174.107H743.421V174.927H746.137V180.468C746.137 181.667 745.824 182.18 744.658 182.18C744.214 182.18 743.745 182.046 743.324 181.838L743 182.584C743.469 182.829 744.058 183 744.67 183ZM752.91 180.505C754.448 180.505 755.794 179.306 755.794 177.239C755.794 175.147 754.448 173.96 752.91 173.96C751.372 173.96 750.026 175.147 750.026 177.239C750.026 179.306 751.372 180.505 752.91 180.505ZM752.91 179.673C751.792 179.673 751.047 178.694 751.047 177.239C751.047 175.783 751.792 174.792 752.91 174.792C754.028 174.792 754.773 175.783 754.773 177.239C754.773 178.694 754.028 179.673 752.91 179.673ZM760.116 172.713C760.584 172.713 760.957 172.37 760.957 171.869C760.957 171.355 760.584 171 760.116 171C759.647 171 759.274 171.355 759.274 171.869C759.274 172.37 759.647 172.713 760.116 172.713ZM757.472 180.346H763V179.514H760.729V174.107H757.472V174.927H759.743V179.514H757.472V180.346Z" fill="#07B07E" fill-opacity="0.96"/>
<path d="M741.042 156.345C741.179 156.345 741.275 156.381 741.332 156.453C741.392 156.521 741.422 156.638 741.422 156.805V164.305H741.917C742.053 164.305 742.15 164.341 742.206 164.413C742.267 164.481 742.297 164.598 742.297 164.765C742.297 164.932 742.267 165.051 742.206 165.124C742.15 165.191 742.053 165.225 741.917 165.225H740.958C740.821 165.225 740.723 165.191 740.662 165.124C740.606 165.051 740.578 164.932 740.578 164.765V164.223C740.324 164.593 740.031 164.878 739.697 165.076C739.363 165.275 739 165.374 738.606 165.374C738.107 165.374 737.661 165.243 737.267 164.981C736.873 164.715 736.563 164.336 736.338 163.844C736.113 163.348 736 162.766 736 162.098C736 161.43 736.113 160.851 736.338 160.359C736.563 159.862 736.873 159.483 737.267 159.222C737.661 158.955 738.107 158.822 738.606 158.822C739.361 158.822 739.999 159.195 740.517 159.939V157.266H739.54C739.404 157.266 739.305 157.232 739.245 157.164C739.189 157.092 739.16 156.972 739.16 156.805C739.16 156.638 739.189 156.521 739.245 156.453C739.305 156.381 739.404 156.345 739.54 156.345H741.042ZM738.666 159.824C738.308 159.824 738 159.921 737.743 160.115C737.486 160.305 737.289 160.571 737.152 160.914C737.019 161.257 736.953 161.651 736.953 162.098C736.953 162.545 737.019 162.94 737.152 163.283C737.289 163.625 737.486 163.894 737.743 164.088C738 164.277 738.308 164.372 738.666 164.372C739.024 164.372 739.341 164.282 739.619 164.102C739.9 163.921 740.119 163.659 740.276 163.316C740.437 162.973 740.517 162.567 740.517 162.098C740.517 161.629 740.437 161.223 740.276 160.88C740.119 160.537 739.9 160.275 739.619 160.095C739.341 159.914 739.024 159.824 738.666 159.824Z" fill="#07B07E"/>
<path d="M747.723 157.191C747.859 157.191 747.956 157.227 748.012 157.299C748.072 157.367 748.103 157.484 748.103 157.651C748.103 157.818 748.072 157.938 748.012 158.01C747.956 158.078 747.859 158.112 747.723 158.112H746.179V164.305H747.843C747.98 164.305 748.076 164.341 748.133 164.413C748.193 164.481 748.223 164.598 748.223 164.765C748.223 164.932 748.193 165.051 748.133 165.124C748.076 165.191 747.98 165.225 747.843 165.225H743.609C743.472 165.225 743.374 165.191 743.314 165.124C743.257 165.051 743.229 164.932 743.229 164.765C743.229 164.598 743.257 164.481 743.314 164.413C743.374 164.341 743.472 164.305 743.609 164.305H745.274V158.112H743.73C743.593 158.112 743.495 158.078 743.434 158.01C743.378 157.938 743.35 157.818 743.35 157.651C743.35 157.484 743.378 157.367 743.434 157.299C743.495 157.227 743.593 157.191 743.73 157.191H747.723Z" fill="#07B07E"/>
<path d="M753.878 158.971C754.015 158.971 754.111 159.007 754.168 159.08C754.228 159.147 754.258 159.265 754.258 159.431V165.611C754.258 166.405 754.099 167.001 753.782 167.398C753.468 167.799 752.969 168 752.286 168C751.952 168 751.592 167.928 751.206 167.783C750.82 167.644 750.47 167.463 750.157 167.242C750.024 167.152 749.958 167.034 749.958 166.89C749.958 166.804 749.984 166.703 750.036 166.585C750.133 166.378 750.249 166.274 750.386 166.274C750.454 166.274 750.517 166.297 750.573 166.342C750.85 166.545 751.138 166.707 751.435 166.829C751.733 166.951 752.016 167.012 752.286 167.012C752.68 167.012 752.955 166.892 753.112 166.653C753.273 166.414 753.353 166.037 753.353 165.523V159.892H750.802C750.665 159.892 750.567 159.858 750.507 159.79C750.45 159.718 750.422 159.598 750.422 159.431C750.422 159.265 750.45 159.147 750.507 159.08C750.567 159.007 750.665 158.971 750.802 158.971H753.878ZM753.685 156C753.906 156 754.057 156.034 754.138 156.102C754.218 156.165 754.258 156.277 754.258 156.44V157.32C754.258 157.482 754.218 157.597 754.138 157.665C754.057 157.728 753.906 157.76 753.685 157.76C753.464 157.76 753.313 157.728 753.233 157.665C753.152 157.597 753.112 157.482 753.112 157.32V156.44C753.112 156.277 753.152 156.165 753.233 156.102C753.313 156.034 753.464 156 753.685 156Z" fill="#07B07E"/>
<path d="M761.783 162.315C761.948 162.315 762.064 162.349 762.133 162.416C762.201 162.484 762.235 162.597 762.235 162.755V164.765C762.235 164.932 762.205 165.051 762.145 165.124C762.088 165.191 761.992 165.225 761.855 165.225H756.463C756.326 165.225 756.228 165.191 756.168 165.124C756.111 165.051 756.083 164.932 756.083 164.765C756.083 164.598 756.111 164.481 756.168 164.413C756.228 164.341 756.326 164.305 756.463 164.305H757.078V158.112H756.463C756.326 158.112 756.228 158.078 756.168 158.01C756.111 157.938 756.083 157.818 756.083 157.651C756.083 157.484 756.111 157.367 756.168 157.299C756.228 157.227 756.326 157.191 756.463 157.191H761.735C761.871 157.191 761.968 157.227 762.024 157.299C762.084 157.367 762.115 157.484 762.115 157.651V159.371C762.115 159.528 762.08 159.641 762.012 159.709C761.944 159.777 761.827 159.81 761.662 159.81C761.497 159.81 761.381 159.777 761.312 159.709C761.244 159.641 761.21 159.528 761.21 159.371V158.112H757.983V160.623H759.539V160.007C759.539 159.849 759.569 159.736 759.63 159.668C759.694 159.601 759.807 159.567 759.967 159.567C760.128 159.567 760.239 159.601 760.299 159.668C760.363 159.736 760.396 159.849 760.396 160.007V162.159C760.396 162.317 760.363 162.43 760.299 162.497C760.239 162.565 760.128 162.599 759.967 162.599C759.807 162.599 759.694 162.565 759.63 162.497C759.569 162.43 759.539 162.317 759.539 162.159V161.543H757.983V164.305H761.331V162.755C761.331 162.597 761.365 162.484 761.433 162.416C761.501 162.349 761.618 162.315 761.783 162.315Z" fill="#07B07E"/>
<path d="M765.152 157.042C765.317 157.042 765.433 157.076 765.502 157.144C765.57 157.212 765.604 157.324 765.604 157.482V159.513H768.083C768.22 159.513 768.316 159.549 768.373 159.621C768.433 159.689 768.463 159.806 768.463 159.973C768.463 160.14 768.433 160.259 768.373 160.332C768.316 160.399 768.22 160.433 768.083 160.433H765.604V162.897C765.604 163.411 765.683 163.788 765.84 164.027C766 164.266 766.278 164.386 766.672 164.386C766.941 164.386 767.225 164.325 767.522 164.203C767.82 164.081 768.107 163.919 768.385 163.716C768.441 163.671 768.503 163.648 768.572 163.648C768.708 163.648 768.825 163.752 768.922 163.959C768.974 164.077 769 164.178 769 164.264C769 164.408 768.934 164.526 768.801 164.616C768.487 164.837 768.138 165.02 767.752 165.164C767.366 165.304 767.006 165.374 766.672 165.374C765.988 165.374 765.488 165.175 765.17 164.778C764.856 164.377 764.7 163.779 764.7 162.985V160.433H763.475C763.339 160.433 763.24 160.399 763.18 160.332C763.123 160.259 763.095 160.14 763.095 159.973C763.095 159.806 763.123 159.689 763.18 159.621C763.24 159.549 763.339 159.513 763.475 159.513H764.7V157.482C764.7 157.324 764.734 157.212 764.802 157.144C764.871 157.076 764.987 157.042 765.152 157.042Z" fill="#07B07E"/>
<path d="M662 126H619V220H662V126Z" fill="url(#paint0_linear_136_4198)" stroke="url(#paint1_linear_136_4198)"/>
<path d="M718 126H675V220H718V126Z" fill="url(#paint2_linear_136_4198)" stroke="url(#paint3_linear_136_4198)"/>
<path d="M773 126H729V220H773V126Z" fill="url(#paint4_linear_136_4198)" stroke="url(#paint5_linear_136_4198)"/>
<path d="M829 126H786V220H829V126Z" fill="url(#paint6_linear_136_4198)" stroke="url(#paint7_linear_136_4198)"/>
<path d="M885 126H842V220H885V126Z" fill="url(#paint8_linear_136_4198)" stroke="url(#paint9_linear_136_4198)"/>
<path d="M925 26H571V270H925V26Z" fill="url(#paint10_radial_136_4198)"/>
<g style="mix-blend-mode:luminosity">
<path d="M728.789 30.7972H700V2H728.789V30.7972Z" stroke="#1C1C1C" stroke-width="1.16139"/>
</g>
<g style="mix-blend-mode:luminosity">
<path d="M878.705 58.2848H851.356V30.9277H878.705V58.2848Z" stroke="#1C1C1C" stroke-width="1.16139"/>
</g>
<g style="mix-blend-mode:luminosity">
<path d="M906.057 30.928H878.708V3.5708H906.057V30.928Z" stroke="#1C1C1C" stroke-width="1.16139"/>
</g>
<g style="mix-blend-mode:luminosity">
<path d="M851.362 30.928H824.013V3.5708H851.362V30.928Z" stroke="#1C1C1C" stroke-width="1.16139"/>
</g>
<defs>
<linearGradient id="paint0_linear_136_4198" x1="662" y1="126" x2="667.923" y2="213.192" gradientUnits="userSpaceOnUse">
<stop stop-color="#133030" stop-opacity="0"/>
<stop offset="0.473958" stop-color="#1C4442" stop-opacity="0.63"/>
<stop offset="1" stop-color="#131313" stop-opacity="0"/>
</linearGradient>
<linearGradient id="paint1_linear_136_4198" x1="640.5" y1="126" x2="640.5" y2="220.001" gradientUnits="userSpaceOnUse">
<stop offset="0.078125" stop-color="#121212" stop-opacity="0"/>
<stop offset="0.489583" stop-color="#07B07E"/>
<stop offset="0.859375" stop-color="#121212" stop-opacity="0"/>
</linearGradient>
<linearGradient id="paint2_linear_136_4198" x1="718" y1="126" x2="723.923" y2="213.192" gradientUnits="userSpaceOnUse">
<stop stop-color="#133030" stop-opacity="0"/>
<stop offset="0.473958" stop-color="#1C4442" stop-opacity="0.63"/>
<stop offset="1" stop-color="#131313" stop-opacity="0"/>
</linearGradient>
<linearGradient id="paint3_linear_136_4198" x1="696.499" y1="126" x2="696.499" y2="220.001" gradientUnits="userSpaceOnUse">
<stop offset="0.078125" stop-color="#121212" stop-opacity="0"/>
<stop offset="0.489583" stop-color="#07B07E"/>
<stop offset="0.859375" stop-color="#121212" stop-opacity="0"/>
</linearGradient>
<linearGradient id="paint4_linear_136_4198" x1="773" y1="126" x2="778.79" y2="213.21" gradientUnits="userSpaceOnUse">
<stop stop-color="#133030" stop-opacity="0"/>
<stop offset="0.473958" stop-color="#1C4442" stop-opacity="0.63"/>
<stop offset="1" stop-color="#131313" stop-opacity="0"/>
</linearGradient>
<linearGradient id="paint5_linear_136_4198" x1="751" y1="126" x2="751" y2="220.001" gradientUnits="userSpaceOnUse">
<stop offset="0.078125" stop-color="#121212" stop-opacity="0"/>
<stop offset="0.489583" stop-color="#07B07E"/>
<stop offset="0.859375" stop-color="#121212" stop-opacity="0"/>
</linearGradient>
<linearGradient id="paint6_linear_136_4198" x1="829" y1="126" x2="834.923" y2="213.192" gradientUnits="userSpaceOnUse">
<stop stop-color="#133030" stop-opacity="0"/>
<stop offset="0.473958" stop-color="#1C4442" stop-opacity="0.63"/>
<stop offset="1" stop-color="#131313" stop-opacity="0"/>
</linearGradient>
<linearGradient id="paint7_linear_136_4198" x1="807.5" y1="126" x2="807.5" y2="220.001" gradientUnits="userSpaceOnUse">
<stop offset="0.078125" stop-color="#121212" stop-opacity="0"/>
<stop offset="0.489583" stop-color="#07B07E"/>
<stop offset="0.859375" stop-color="#121212" stop-opacity="0"/>
</linearGradient>
<linearGradient id="paint8_linear_136_4198" x1="885" y1="126" x2="890.923" y2="213.192" gradientUnits="userSpaceOnUse">
<stop stop-color="#133030" stop-opacity="0"/>
<stop offset="0.473958" stop-color="#1C4442" stop-opacity="0.63"/>
<stop offset="1" stop-color="#131313" stop-opacity="0"/>
</linearGradient>
<linearGradient id="paint9_linear_136_4198" x1="863.5" y1="126" x2="863.5" y2="220.001" gradientUnits="userSpaceOnUse">
<stop offset="0.078125" stop-color="#121212" stop-opacity="0"/>
<stop offset="0.489583" stop-color="#07B07E"/>
<stop offset="0.859375" stop-color="#121212" stop-opacity="0"/>
</linearGradient>
<radialGradient id="paint10_radial_136_4198" cx="0" cy="0" r="1" gradientUnits="userSpaceOnUse" gradientTransform="translate(753.622 159.514) rotate(90) scale(110.486 143.889)">
<stop stop-color="#101317" stop-opacity="0"/>
<stop offset="1" stop-color="#101317"/>
</radialGradient>
</defs>
</svg>
