<svg width="144" height="144" viewBox="0 0 144 144" fill="none" xmlns="http://www.w3.org/2000/svg">
<g clip-path="url(#clip0_7302_2851)">
<path d="M72 144C111.765 144 144 111.765 144 72C144 32.2355 111.765 0 72 0C32.2355 0 0 32.2355 0 72C0 111.765 32.2355 144 72 144Z" fill="white" fill-opacity="0.05"/>
<path d="M92.912 106.959H50.9105C45.1113 106.959 40.4102 102.258 40.4102 96.4588V71.9577C40.4102 66.1584 45.1113 61.4573 50.9105 61.4573H78.9113C80.8444 61.4573 82.4116 59.8902 82.4116 57.9571V53.104C82.5333 47.5501 78.466 42.7901 72.9612 42.0436C69.9996 41.7459 67.0506 42.7192 64.8476 44.7216C62.6452 46.724 61.3959 49.5672 61.4109 52.5439C61.4109 54.477 59.8437 56.044 57.9108 56.044C55.9777 56.044 54.4106 54.477 54.4106 52.5439C54.3867 47.5894 56.4641 42.8571 60.1272 39.5209C63.7902 36.1848 68.6955 34.5578 73.6265 35.0433C82.714 36.1491 89.5145 43.9149 89.4116 53.069V57.9571C89.4116 63.7564 84.7107 68.4574 78.9113 68.4574H50.9105C48.9774 68.4574 47.4103 70.0246 47.4103 71.9577V96.4588C47.4103 98.391 48.9774 99.958 50.9105 99.958H92.912C94.845 99.958 96.4123 98.391 96.4123 96.4588V64.9574C96.4123 63.0244 97.979 61.4573 99.912 61.4573C101.845 61.4573 103.412 63.0244 103.412 64.9574V96.4588C103.412 102.258 98.711 106.959 92.912 106.959Z" fill="white"/>
</g>
<defs>
<clipPath id="clip0_7302_2851">
<rect width="144" height="144" fill="white"/>
</clipPath>
</defs>
</svg>
