<svg width="812" height="302" viewBox="0 0 812 302" fill="none" xmlns="http://www.w3.org/2000/svg">
<path d="M738.938 51.0014C743.232 51.7948 747.564 52.4253 751.813 53.4117C765.349 56.5548 777.286 62.6004 786.059 73.6546C788.508 76.7408 790.802 80.425 791.671 84.1799C793.199 90.7803 789.341 97.7114 783.573 100.881C777.558 104.187 769.568 103.58 764.287 99.3853C761.656 97.2964 759.236 94.8882 756.419 93.0976C743.738 85.0381 730.413 84.4242 716.915 90.7046C711.308 93.3138 707.504 97.8116 706.706 104.31C706.031 109.809 707.626 114.583 712.485 117.27C717.351 119.96 722.547 122.389 727.899 123.807C740.777 127.22 753.88 129.82 766.136 135.275C778.575 140.811 788.96 148.692 795.015 161.252C803.697 179.262 798.941 204.457 784.073 219.698C771.632 232.451 756.294 238.976 738.666 240.108C716.592 241.524 697.116 235.065 680.72 220.047C675.268 215.053 671.003 209.121 668.242 202.248C665.722 195.979 665.872 189.749 670.333 184.378C674.616 179.223 680.191 176.394 687.104 177.861C693.085 179.13 697.237 183.221 700.413 188.083C711.829 205.561 735.408 208.71 750.8 201.254C754.558 199.434 758.124 196.398 760.674 193.078C766.793 185.106 764.503 174.844 755.911 169.588C748.188 164.863 739.368 163.257 730.722 161.309C719.21 158.716 707.991 155.42 697.608 149.658C661.19 129.45 664.26 85.4546 692.574 64.5185C702.598 57.1068 713.846 52.9895 726.181 51.6168C726.883 51.539 727.558 51.2111 728.245 51C731.808 51.0014 735.373 51.0014 738.938 51.0014Z" fill="black"/>
<path d="M16.0047 145.234C16.0047 120.542 16.0012 95.8507 16.0062 71.159C16.0084 59.7864 23.1052 52.683 34.5002 52.6881C45.9825 52.6931 57.469 52.5504 68.9462 52.8127C111.271 53.7804 149.174 85.7174 157.311 127.106C167.61 179.498 133.608 228.613 80.8398 237.049C72.1124 238.444 63.1168 238.307 54.2358 238.561C46.8219 238.773 39.3677 238.902 31.9804 238.381C22.2816 237.696 16.022 230.494 16.0134 220.79C15.9896 195.605 16.0047 170.42 16.0047 145.234ZM51.7045 203.663C59.8425 203.17 67.892 203.314 75.7289 202.097C109.27 196.886 130.594 164.358 121.844 131.641C113.615 100.875 85.5574 84.6509 51.7037 88.7055C51.7045 126.78 51.7045 164.854 51.7045 203.663Z" fill="black"/>
<path d="M426.587 203.347C440.093 203.347 453.347 203.347 466.603 203.347C472.148 203.347 477.692 203.313 483.236 203.355C493.26 203.431 500.804 211.083 500.785 221.103C500.766 231.044 493.358 238.6 483.399 238.62C458.547 238.672 433.695 238.677 408.844 238.618C398.215 238.593 390.895 231.254 390.89 220.719C390.869 170.736 390.871 120.752 390.888 70.7682C390.892 60.2292 398.432 52.7332 409.089 52.7166C433.644 52.6784 458.198 52.6878 482.753 52.7123C493.003 52.7231 500.727 60.3128 500.785 70.3273C500.843 80.4865 493.425 88.0063 482.975 88.0647C465.351 88.1627 447.727 88.0921 430.103 88.0921C429.018 88.0921 427.932 88.0921 426.64 88.0921C426.64 101.518 426.64 114.811 426.64 128.57C427.607 128.57 428.642 128.57 429.677 128.57C441.955 128.57 454.232 128.555 466.509 128.574C476.534 128.589 483.994 135.975 484.055 145.901C484.116 155.642 476.766 163.051 466.761 163.122C454.484 163.208 442.207 163.143 429.93 163.143C428.863 163.143 427.797 163.143 426.587 163.143C426.587 176.622 426.587 189.812 426.587 203.347Z" fill="black"/>
<path d="M320.779 85.7032C315.157 85.7032 309.641 85.7032 304.124 85.7032C299.67 85.7032 295.216 85.7349 290.762 85.6938C286.616 85.6549 284.671 83.8283 284.632 79.7938C284.567 72.9809 284.574 66.1658 284.63 59.3521C284.662 55.4855 286.383 53.8751 290.356 53.8729C310.548 53.8607 330.74 53.8628 350.932 53.8707C355.409 53.8729 356.721 55.2694 356.723 60.077C356.733 82.6912 356.728 105.305 356.728 127.92C356.728 145.3 356.652 162.681 356.75 180.061C356.84 196.056 352.602 210.388 341.451 222.343C330.527 234.054 317.122 240.384 301.138 240.953C277.374 241.799 259.413 231.049 245.565 212.537C242.9 208.974 243.92 205.494 247.803 203.407C253.626 200.275 259.462 197.17 265.308 194.082C269.546 191.843 272.177 192.417 275.107 196.147C281.558 204.361 293.832 208.253 303.944 205.291C314.149 202.302 320.866 193.649 320.946 181.894C321.162 150.197 321.006 118.497 320.993 86.7977C320.992 86.6046 320.92 86.4129 320.779 85.7032Z" fill="black"/>
<path d="M602.917 88.1887C602.917 89.4526 602.917 90.6307 602.917 91.8081C602.917 134.669 602.922 177.529 602.913 220.39C602.911 232.031 594.137 239.797 582.603 238.408C573.927 237.363 568.019 230.31 567.975 220.798C567.924 209.836 567.962 198.874 567.962 187.912C567.962 155.816 567.962 123.721 567.962 91.6244C567.962 90.465 567.962 89.3063 567.962 87.868C566.691 87.868 565.727 87.868 564.764 87.868C554.865 87.868 544.967 87.8976 535.069 87.8601C524.566 87.8205 517.255 80.5435 517.273 70.2221C517.292 60.0506 524.584 52.7289 534.901 52.7174C568.655 52.6807 602.409 52.6843 636.163 52.7152C646.446 52.7246 654.037 60.3417 654.007 70.457C653.978 80.4426 646.474 87.8097 636.191 87.8587C625.402 87.9098 614.613 87.8861 603.824 87.9041C603.643 87.9048 603.463 88.0129 602.917 88.1887Z" fill="black"/>
<path d="M227.309 145.887C227.309 170.869 227.329 195.851 227.296 220.833C227.286 228.529 223.008 234.77 216.115 237.419C209.179 240.084 201.201 238.296 196.235 232.92C193.298 229.74 191.78 225.928 191.778 221.63C191.75 170.975 191.728 120.32 191.788 69.6653C191.8 59.9701 199.515 52.6989 209.377 52.6909C219.634 52.683 227.266 60.1012 227.289 70.3498C227.348 95.5279 227.309 120.708 227.309 145.887Z" fill="black"/>
</svg>
