<svg width="24" height="24" viewBox="0 0 24 24" fill="none" xmlns="http://www.w3.org/2000/svg">
<path fill-rule="evenodd" clip-rule="evenodd" d="M16.334 2H7.665C4.26742 2 2 4.4326 2 7.916V16.084C2 19.5707 4.26137 22 7.665 22H16.333C19.7376 22 22 19.5707 22 16.084V7.916C22 4.42951 19.7378 2 16.334 2ZM7.665 3.5H16.334C18.8845 3.5 20.5 5.23497 20.5 7.916V16.084C20.5 18.7651 18.8844 20.5 16.333 20.5H7.665C5.11476 20.5 3.5 18.7653 3.5 16.084V7.916C3.5 5.23838 5.12034 3.5 7.665 3.5Z" fill="#F5A938"/>
<path d="M7.29688 7.80078H9.57244L11.9759 13.6644H12.0781L14.4815 7.80078H16.7571V16.5281H14.9673V10.8477H14.8949L12.6364 16.4854H11.4176L9.15909 10.8263H9.08665V16.5281H7.29688V7.80078Z" fill="#F5A938"/>
</svg>
