<svg width="50" height="50" viewBox="0 0 50 50" fill="none" xmlns="http://www.w3.org/2000/svg">
<g clip-path="url(#clip0_607_304)">
<path d="M17.5618 29.7466H20.5597M16.9907 32.1146H32.9999C34.1045 32.1146 34.9999 31.2192 34.9999 30.1146V20.0208C34.9999 18.9163 34.1045 18.0208 32.9999 18.0208H16.9907C15.8862 18.0208 14.9907 18.9163 14.9907 20.0208V30.1146C14.9907 31.2192 15.8862 32.1146 16.9907 32.1146ZM27.9424 25C27.9424 26.6251 26.625 27.9425 24.9999 27.9425C23.3748 27.9425 22.0574 26.6251 22.0574 25C22.0574 23.3749 23.3748 22.0575 24.9999 22.0575C26.625 22.0575 27.9424 23.3749 27.9424 25Z" stroke="white" stroke-width="1.5" stroke-linecap="round" stroke-linejoin="round"/>
<path d="M29.3594 20.6973H32.3573" stroke="white" stroke-width="1.5" stroke-linecap="round" stroke-linejoin="round"/>
</g>
<defs>
<clipPath id="clip0_607_304">
<rect width="24" height="24" fill="white" transform="translate(13 13)"/>
</clipPath>
</defs>
</svg>
