<svg width="920" height="400" viewBox="0 0 920 400" fill="none" xmlns="http://www.w3.org/2000/svg">
<g clip-path="url(#clip0_136_3965)">
<path d="M929.95 -19.1289H0.4375V400.287H929.95V-19.1289Z" fill="#131313"/>
<path d="M845.343 167L847.853 171.104H847.935L850.446 167H852.28L849.011 172.246L852.301 177.493H850.456L847.935 173.445H847.853L845.333 177.493H843.488L846.834 172.246L843.509 167H845.343Z" fill="url(#paint0_linear_136_3965)"/>
<path d="M758.2 338L761.12 346.546H761.238L764.158 338H765.869L762.093 348.493H760.264L756.488 338H758.2Z" fill="url(#paint1_linear_136_3965)"/>
<path d="M765.541 299.556H763.943C763.881 299.214 763.767 298.914 763.6 298.654C763.432 298.394 763.227 298.174 762.985 297.993C762.742 297.812 762.471 297.675 762.17 297.583C761.873 297.491 761.557 297.445 761.222 297.445C760.618 297.445 760.076 297.597 759.598 297.901C759.123 298.205 758.748 298.651 758.471 299.238C758.198 299.826 758.061 300.543 758.061 301.39C758.061 302.244 758.198 302.964 758.471 303.552C758.748 304.139 759.125 304.583 759.603 304.884C760.082 305.185 760.619 305.335 761.217 305.335C761.549 305.335 761.863 305.291 762.16 305.202C762.461 305.109 762.732 304.975 762.975 304.797C763.217 304.619 763.422 304.402 763.589 304.146C763.76 303.887 763.878 303.59 763.943 303.255L765.541 303.26C765.456 303.776 765.29 304.25 765.044 304.684C764.802 305.115 764.489 305.487 764.107 305.801C763.728 306.112 763.294 306.353 762.805 306.524C762.317 306.694 761.784 306.78 761.207 306.78C760.298 306.78 759.489 306.565 758.778 306.134C758.068 305.7 757.508 305.08 757.098 304.274C756.692 303.468 756.488 302.507 756.488 301.39C756.488 300.27 756.693 299.308 757.103 298.505C757.513 297.699 758.073 297.081 758.784 296.651C759.494 296.217 760.302 296 761.207 296C761.764 296 762.283 296.08 762.764 296.241C763.25 296.398 763.685 296.63 764.071 296.938C764.457 297.242 764.776 297.614 765.029 298.054C765.282 298.492 765.453 298.992 765.541 299.556Z" fill="url(#paint2_linear_136_3965)"/>
<path d="M670.488 264.493V254H674.331C675.075 254 675.692 254.123 676.18 254.369C676.669 254.611 677.034 254.941 677.277 255.358C677.519 255.771 677.641 256.237 677.641 256.756C677.641 257.194 677.56 257.562 677.4 257.863C677.239 258.16 677.024 258.399 676.754 258.58C676.488 258.758 676.194 258.888 675.873 258.97V259.072C676.221 259.089 676.561 259.202 676.893 259.41C677.227 259.615 677.504 259.907 677.723 260.286C677.941 260.666 678.05 261.127 678.05 261.67C678.05 262.206 677.924 262.688 677.671 263.115C677.422 263.538 677.036 263.875 676.513 264.124C675.991 264.37 675.323 264.493 674.51 264.493H670.488ZM672.071 263.135H674.356C675.115 263.135 675.658 262.988 675.986 262.694C676.314 262.401 676.478 262.034 676.478 261.593C676.478 261.262 676.394 260.958 676.227 260.681C676.059 260.404 675.82 260.184 675.509 260.02C675.202 259.856 674.836 259.774 674.413 259.774H672.071V263.135ZM672.071 258.539H674.193C674.548 258.539 674.867 258.471 675.151 258.334C675.438 258.198 675.665 258.007 675.832 257.761C676.003 257.511 676.088 257.218 676.088 256.879C676.088 256.446 675.936 256.082 675.632 255.788C675.328 255.494 674.862 255.347 674.234 255.347H672.071V258.539Z" fill="url(#paint3_linear_136_3965)"/>
<path d="M628.488 354.493V344H630.071V349.011H630.2L634.601 344H636.594L632.362 348.724L636.609 354.493H634.703L631.311 349.805L630.071 351.229V354.493H628.488Z" fill="url(#paint4_linear_136_3965)"/>
<path d="M800.488 339H802.287L805.028 343.77H805.14L807.881 339H809.68L805.873 345.374V349.493H804.295V345.374L800.488 339Z" fill="url(#paint5_linear_136_3965)"/>
<path d="M674.684 130.234H676.242L677.338 131.664L677.856 132.299L679.603 134.579H677.984L676.816 133.057L676.416 132.504L674.684 130.234ZM679.941 128.39C679.941 129.51 679.736 130.473 679.326 131.279C678.916 132.082 678.354 132.7 677.641 133.134C676.93 133.565 676.122 133.78 675.217 133.78C674.309 133.78 673.497 133.565 672.784 133.134C672.073 132.7 671.513 132.08 671.103 131.274C670.693 130.468 670.488 129.507 670.488 128.39C670.488 127.27 670.693 126.308 671.103 125.505C671.513 124.699 672.073 124.081 672.784 123.651C673.497 123.217 674.309 123 675.217 123C676.122 123 676.93 123.217 677.641 123.651C678.354 124.081 678.916 124.699 679.326 125.505C679.736 126.308 679.941 127.27 679.941 128.39ZM678.373 128.39C678.373 127.536 678.235 126.817 677.958 126.233C677.685 125.645 677.309 125.201 676.831 124.901C676.356 124.597 675.818 124.445 675.217 124.445C674.613 124.445 674.073 124.597 673.598 124.901C673.123 125.201 672.748 125.645 672.471 126.233C672.198 126.817 672.061 127.536 672.061 128.39C672.061 129.244 672.198 129.964 672.471 130.552C672.748 131.136 673.123 131.58 673.598 131.884C674.073 132.185 674.613 132.335 675.217 132.335C675.818 132.335 676.356 132.185 676.831 131.884C677.309 131.58 677.685 131.136 677.958 130.552C678.235 129.964 678.373 129.244 678.373 128.39Z" fill="url(#paint6_linear_136_3965)"/>
<path d="M714.488 133.493V123H718.331C719.075 123 719.692 123.123 720.18 123.369C720.669 123.611 721.034 123.941 721.277 124.358C721.519 124.771 721.641 125.237 721.641 125.756C721.641 126.194 721.56 126.562 721.4 126.863C721.239 127.16 721.024 127.399 720.754 127.58C720.488 127.758 720.194 127.888 719.873 127.97V128.072C720.221 128.089 720.561 128.202 720.893 128.41C721.227 128.615 721.504 128.907 721.723 129.286C721.941 129.666 722.05 130.127 722.05 130.67C722.05 131.206 721.924 131.688 721.671 132.115C721.422 132.538 721.036 132.875 720.513 133.124C719.991 133.37 719.323 133.493 718.51 133.493H714.488ZM716.071 132.135H718.356C719.115 132.135 719.658 131.988 719.986 131.694C720.314 131.401 720.478 131.034 720.478 130.593C720.478 130.262 720.394 129.958 720.227 129.681C720.059 129.404 719.82 129.184 719.509 129.02C719.202 128.856 718.836 128.774 718.413 128.774H716.071V132.135ZM716.071 127.539H718.193C718.548 127.539 718.867 127.471 719.151 127.334C719.438 127.198 719.665 127.007 719.832 126.761C720.003 126.511 720.088 126.218 720.088 125.879C720.088 125.446 719.936 125.082 719.632 124.788C719.328 124.494 718.862 124.347 718.234 124.347H716.071V127.539Z" fill="url(#paint7_linear_136_3965)"/>
<path d="M671.488 166.363V165H679.609V166.363H676.335V175.493H674.757V166.363H671.488Z" fill="url(#paint8_linear_136_3965)"/>
<path d="M763.626 125.9C763.572 125.415 763.346 125.039 762.95 124.773C762.554 124.503 762.055 124.368 761.454 124.368C761.023 124.368 760.651 124.436 760.337 124.573C760.023 124.706 759.778 124.891 759.604 125.126C759.433 125.358 759.348 125.623 759.348 125.92C759.348 126.17 759.406 126.385 759.522 126.566C759.642 126.747 759.797 126.899 759.989 127.022C760.183 127.141 760.392 127.242 760.614 127.324C760.836 127.403 761.049 127.468 761.254 127.519L762.279 127.785C762.613 127.867 762.957 127.978 763.309 128.118C763.66 128.258 763.987 128.443 764.287 128.672C764.588 128.9 764.83 129.184 765.015 129.522C765.202 129.86 765.296 130.265 765.296 130.736C765.296 131.331 765.143 131.858 764.835 132.32C764.531 132.781 764.089 133.144 763.508 133.411C762.931 133.677 762.233 133.81 761.413 133.81C760.627 133.81 759.948 133.686 759.374 133.436C758.8 133.187 758.351 132.834 758.026 132.376C757.702 131.915 757.522 131.368 757.488 130.736H759.077C759.107 131.116 759.23 131.431 759.445 131.684C759.664 131.934 759.942 132.12 760.281 132.243C760.622 132.362 760.996 132.422 761.403 132.422C761.85 132.422 762.248 132.352 762.596 132.212C762.948 132.068 763.225 131.87 763.426 131.618C763.628 131.361 763.729 131.063 763.729 130.721C763.729 130.41 763.64 130.156 763.462 129.958C763.288 129.76 763.051 129.596 762.75 129.466C762.453 129.336 762.116 129.222 761.741 129.123L760.501 128.784C759.661 128.556 758.995 128.219 758.503 127.775C758.014 127.331 757.77 126.744 757.77 126.013C757.77 125.408 757.934 124.88 758.262 124.429C758.59 123.979 759.034 123.628 759.594 123.379C760.154 123.126 760.786 123 761.49 123C762.2 123 762.827 123.125 763.37 123.374C763.916 123.623 764.347 123.967 764.661 124.404C764.975 124.838 765.139 125.336 765.153 125.9H763.626Z" fill="url(#paint9_linear_136_3965)"/>
<path d="M715.343 166L717.853 170.104H717.935L720.446 166H722.28L719.011 171.246L722.301 176.493H720.456L717.935 172.445H717.853L715.333 176.493H713.488L716.834 171.246L713.509 166H715.343Z" fill="url(#paint10_linear_136_3965)"/>
<path d="M844.2 211L847.12 219.546H847.238L850.158 211H851.869L848.093 221.493H846.264L842.488 211H844.2Z" fill="url(#paint11_linear_136_3965)"/>
<path d="M674.885 220.493H671.488V210H674.993C676.021 210 676.904 210.21 677.642 210.63C678.379 211.047 678.945 211.646 679.337 212.429C679.734 213.207 679.932 214.141 679.932 215.231C679.932 216.324 679.732 217.263 679.332 218.049C678.936 218.835 678.362 219.439 677.611 219.863C676.859 220.283 675.951 220.493 674.885 220.493ZM673.071 219.109H674.798C675.597 219.109 676.262 218.959 676.791 218.659C677.32 218.355 677.717 217.916 677.98 217.342C678.243 216.765 678.374 216.061 678.374 215.231C678.374 214.408 678.243 213.709 677.98 213.136C677.72 212.562 677.332 212.126 676.817 211.829C676.301 211.532 675.66 211.383 674.895 211.383H673.071V219.109Z" fill="#0A9E73"/>
<path d="M852.541 254.556H850.943C850.881 254.214 850.767 253.914 850.6 253.654C850.432 253.394 850.227 253.174 849.985 252.993C849.742 252.812 849.471 252.675 849.17 252.583C848.873 252.491 848.557 252.445 848.222 252.445C847.618 252.445 847.076 252.597 846.598 252.901C846.123 253.205 845.748 253.651 845.471 254.238C845.198 254.826 845.061 255.543 845.061 256.39C845.061 257.244 845.198 257.964 845.471 258.552C845.748 259.139 846.125 259.583 846.603 259.884C847.082 260.185 847.619 260.335 848.217 260.335C848.549 260.335 848.863 260.291 849.16 260.202C849.461 260.109 849.732 259.975 849.975 259.797C850.217 259.619 850.422 259.402 850.589 259.146C850.76 258.887 850.878 258.59 850.943 258.255L852.541 258.26C852.456 258.776 852.29 259.25 852.044 259.684C851.802 260.115 851.489 260.487 851.107 260.801C850.728 261.112 850.294 261.353 849.805 261.524C849.317 261.694 848.784 261.78 848.207 261.78C847.298 261.78 846.489 261.565 845.778 261.134C845.068 260.7 844.508 260.08 844.098 259.274C843.692 258.468 843.488 257.507 843.488 256.39C843.488 255.27 843.693 254.308 844.103 253.505C844.513 252.699 845.073 252.081 845.784 251.651C846.494 251.217 847.302 251 848.207 251C848.764 251 849.283 251.08 849.764 251.241C850.25 251.398 850.685 251.63 851.071 251.938C851.457 252.242 851.776 252.614 852.029 253.054C852.282 253.492 852.453 253.992 852.541 254.556Z" fill="#0A9E73"/>
<path d="M757.488 264.493V254H759.071V259.011H759.2L763.601 254H765.594L761.362 258.724L765.609 264.493H763.703L760.311 259.805L759.071 261.229V264.493H757.488Z" fill="url(#paint12_linear_136_3965)"/>
<path d="M890.488 220.493V210H896.995V211.363H892.071V214.56H896.529V215.918H892.071V220.493H890.488Z" fill="url(#paint13_linear_136_3965)"/>
<path d="M804.684 173.234H806.242L807.338 174.664L807.856 175.299L809.603 177.579H807.984L806.816 176.057L806.416 175.504L804.684 173.234ZM809.941 171.39C809.941 172.51 809.736 173.473 809.326 174.279C808.916 175.082 808.354 175.7 807.641 176.134C806.93 176.565 806.122 176.78 805.217 176.78C804.309 176.78 803.497 176.565 802.784 176.134C802.073 175.7 801.513 175.08 801.103 174.274C800.693 173.468 800.488 172.507 800.488 171.39C800.488 170.27 800.693 169.308 801.103 168.505C801.513 167.699 802.073 167.081 802.784 166.651C803.497 166.217 804.309 166 805.217 166C806.122 166 806.93 166.217 807.641 166.651C808.354 167.081 808.916 167.699 809.326 168.505C809.736 169.308 809.941 170.27 809.941 171.39ZM808.373 171.39C808.373 170.536 808.235 169.817 807.958 169.233C807.685 168.645 807.309 168.201 806.831 167.901C806.356 167.597 805.818 167.445 805.217 167.445C804.613 167.445 804.073 167.597 803.598 167.901C803.123 168.201 802.748 168.645 802.471 169.233C802.198 169.817 802.061 170.536 802.061 171.39C802.061 172.244 802.198 172.964 802.471 173.552C802.748 174.136 803.123 174.58 803.598 174.884C804.073 175.185 804.613 175.335 805.217 175.335C805.818 175.335 806.356 175.185 806.831 174.884C807.309 174.58 807.685 174.136 807.958 173.552C808.235 172.964 808.373 172.244 808.373 171.39Z" fill="url(#paint14_linear_136_3965)"/>
<path d="M844.488 135.493V125H848.228C849.045 125 849.721 125.149 850.257 125.446C850.794 125.743 851.195 126.149 851.461 126.665C851.728 127.177 851.861 127.755 851.861 128.397C851.861 129.042 851.726 129.623 851.456 130.139C851.19 130.651 850.787 131.058 850.247 131.358C849.711 131.655 849.036 131.804 848.223 131.804H845.651V130.462H848.08C848.596 130.462 849.014 130.373 849.335 130.195C849.656 130.014 849.892 129.768 850.042 129.457C850.192 129.147 850.268 128.793 850.268 128.397C850.268 128.001 850.192 127.649 850.042 127.341C849.892 127.034 849.654 126.793 849.33 126.619C849.009 126.445 848.585 126.358 848.059 126.358H846.071V135.493H844.488Z" fill="url(#paint15_linear_136_3965)"/>
<path d="M757.488 220.493V210H761.331C762.075 210 762.692 210.123 763.18 210.369C763.669 210.611 764.034 210.941 764.277 211.358C764.519 211.771 764.641 212.237 764.641 212.756C764.641 213.194 764.56 213.562 764.4 213.863C764.239 214.16 764.024 214.399 763.754 214.58C763.488 214.758 763.194 214.888 762.873 214.97V215.072C763.221 215.089 763.561 215.202 763.893 215.41C764.227 215.615 764.504 215.907 764.723 216.286C764.941 216.666 765.05 217.127 765.05 217.67C765.05 218.206 764.924 218.688 764.671 219.115C764.422 219.538 764.036 219.875 763.513 220.124C762.991 220.37 762.323 220.493 761.51 220.493H757.488ZM759.071 219.135H761.356C762.115 219.135 762.658 218.988 762.986 218.694C763.314 218.401 763.478 218.034 763.478 217.593C763.478 217.262 763.394 216.958 763.227 216.681C763.059 216.404 762.82 216.184 762.509 216.02C762.202 215.856 761.836 215.774 761.413 215.774H759.071V219.135ZM759.071 214.539H761.193C761.548 214.539 761.867 214.471 762.151 214.334C762.438 214.198 762.665 214.007 762.832 213.761C763.003 213.511 763.088 213.218 763.088 212.879C763.088 212.446 762.936 212.082 762.632 211.788C762.328 211.494 761.862 211.347 761.234 211.347H759.071V214.539Z" fill="url(#paint16_linear_136_3965)"/>
<path d="M757.398 177.493L754.488 167H756.153L758.198 175.126H758.295L760.421 167H762.071L764.197 175.131H764.295L766.334 167H768.004L765.089 177.493H763.495L761.287 169.633H761.205L758.997 177.493H757.398Z" fill="url(#paint17_linear_136_3965)"/>
<path d="M715.169 220.493H713.488L717.264 210H719.093L722.869 220.493H721.189L718.222 211.906H718.14L715.169 220.493ZM715.451 216.384H720.902V217.716H715.451V216.384Z" fill="url(#paint18_linear_136_3965)"/>
<path d="M801.398 220.493L798.488 210H800.153L802.198 218.126H802.295L804.421 210H806.071L808.197 218.131H808.295L810.334 210H812.004L809.089 220.493H807.495L805.287 212.633H805.205L802.997 220.493H801.398Z" fill="url(#paint19_linear_136_3965)"/>
<path d="M800.488 133.493V123H802.071V127.56H807.302V123H808.891V133.493H807.302V128.918H802.071V133.493H800.488Z" fill="#0A9E73"/>
<path d="M438.566 408.359L395.515 408.359L395.515 365.308L438.566 365.308L438.566 408.359Z" stroke="#1C1C1C" stroke-width="1.16139"/>
<path d="M653.868 408.359L610.816 408.359L610.816 365.308L653.868 365.308L653.868 408.359Z" stroke="#1C1C1C" stroke-width="1.16139"/>
<path d="M869.122 408.359L826.07 408.359L826.07 365.308L869.122 365.308L869.122 408.359Z" stroke="#1C1C1C" stroke-width="1.16139"/>
<path d="M438.566 365.311L395.515 365.311L395.515 322.26L438.566 322.26L438.566 365.311Z" stroke="#1C1C1C" stroke-width="1.16139"/>
<path d="M223.31 365.311L180.258 365.311L180.258 322.26L223.31 322.26L223.31 365.311Z" stroke="#1C1C1C" stroke-width="1.16139"/>
<path d="M653.868 365.311L610.816 365.311L610.816 322.26L653.868 322.26L653.868 365.311Z" stroke="#1C1C1C" stroke-width="1.16139"/>
<path d="M869.122 365.311L826.07 365.311L826.07 322.26L869.122 322.26L869.122 365.311Z" stroke="#1C1C1C" stroke-width="1.16139"/>
<path d="M481.614 408.359L438.562 408.359L438.562 365.308L481.614 365.308L481.614 408.359Z" stroke="#1C1C1C" stroke-width="1.16139"/>
<path d="M266.359 408.359L223.308 408.359L223.308 365.308L266.359 365.308L266.359 408.359Z" stroke="#1C1C1C" stroke-width="1.16139"/>
<path d="M696.918 408.359L653.867 408.359L653.867 365.308L696.918 365.308L696.918 408.359Z" stroke="#1C1C1C" stroke-width="1.16139"/>
<path d="M912.177 408.359L869.125 408.359L869.125 365.308L912.177 365.308L912.177 408.359Z" stroke="#1C1C1C" stroke-width="1.16139"/>
<path d="M481.614 365.311L438.562 365.311L438.562 322.26L481.614 322.26L481.614 365.311Z" stroke="#1C1C1C" stroke-width="1.16139"/>
<path d="M266.359 365.311L223.308 365.311L223.308 322.26L266.359 322.26L266.359 365.311Z" stroke="#1C1C1C" stroke-width="1.16139"/>
<path d="M696.918 365.311L653.867 365.311L653.867 322.26L696.918 322.26L696.918 365.311Z" stroke="#1C1C1C" stroke-width="1.16139"/>
<path d="M912.177 365.311L869.125 365.311L869.125 322.26L912.177 322.26L912.177 365.311Z" stroke="#1C1C1C" stroke-width="1.16139"/>
<path d="M524.668 408.359L481.617 408.359L481.617 365.308L524.668 365.308L524.668 408.359Z" stroke="#1C1C1C" stroke-width="1.16139"/>
<path d="M309.411 408.359L266.359 408.359L266.359 365.308L309.411 365.308L309.411 408.359Z" stroke="#1C1C1C" stroke-width="1.16139"/>
<path d="M739.97 408.359L696.918 408.359L696.918 365.308L739.97 365.308L739.97 408.359Z" stroke="#1C1C1C" stroke-width="1.16139"/>
<path d="M524.668 365.311L481.617 365.311L481.617 322.26L524.668 322.26L524.668 365.311Z" stroke="#1C1C1C" stroke-width="1.16139"/>
<path d="M309.411 365.311L266.359 365.311L266.359 322.26L309.411 322.26L309.411 365.311Z" stroke="#1C1C1C" stroke-width="1.16139"/>
<path d="M739.97 365.311L696.918 365.311L696.918 322.26L739.97 322.26L739.97 365.311Z" stroke="#1C1C1C" stroke-width="1.16139"/>
<path d="M567.72 408.359L524.668 408.359L524.668 365.308L567.72 365.308L567.72 408.359Z" stroke="#1C1C1C" stroke-width="1.16139"/>
<path d="M352.461 408.359L309.41 408.359L309.41 365.308L352.461 365.308L352.461 408.359Z" stroke="#1C1C1C" stroke-width="1.16139"/>
<path d="M567.72 365.311L524.668 365.311L524.668 322.26L567.72 322.26L567.72 365.311Z" stroke="#1C1C1C" stroke-width="1.16139"/>
<path d="M352.461 365.311L309.41 365.311L309.41 322.26L352.461 322.26L352.461 365.311Z" stroke="#1C1C1C" stroke-width="1.16139"/>
<path d="M783.023 365.311L739.972 365.311L739.972 322.26L783.023 322.26L783.023 365.311Z" stroke="#1C1C1C" stroke-width="1.16139"/>
<path d="M137.208 365.311L94.1562 365.311L94.1562 322.26L137.208 322.26L137.208 365.311Z" stroke="#1C1C1C" stroke-width="1.16139"/>
<path d="M610.773 408.359L567.722 408.359L567.722 365.308L610.773 365.308L610.773 408.359Z" stroke="#1C1C1C" stroke-width="1.16139"/>
<path d="M395.517 408.359L352.465 408.359L352.465 365.308L395.517 365.308L395.517 408.359Z" stroke="#1C1C1C" stroke-width="1.16139"/>
<path d="M826.079 408.359L783.027 408.359L783.027 365.308L826.079 365.308L826.079 408.359Z" stroke="#1C1C1C" stroke-width="1.16139"/>
<path d="M610.773 365.311L567.722 365.311L567.722 322.26L610.773 322.26L610.773 365.311Z" stroke="#1C1C1C" stroke-width="1.16139"/>
<path d="M395.517 365.311L352.465 365.311L352.465 322.26L395.517 322.26L395.517 365.311Z" stroke="#1C1C1C" stroke-width="1.16139"/>
<path d="M826.079 365.311L783.027 365.311L783.027 322.26L826.079 322.26L826.079 365.311Z" stroke="#1C1C1C" stroke-width="1.16139"/>
<path d="M438.566 322.258L395.515 322.258L395.515 279.207L438.566 279.207L438.566 322.258Z" stroke="#1C1C1C" stroke-width="1.16139"/>
<path d="M223.31 322.258L180.258 322.258L180.258 279.207L223.31 279.207L223.31 322.258Z" stroke="#1C1C1C" stroke-width="1.16139"/>
<path d="M653.868 322.258L610.816 322.258L610.816 279.207L653.868 279.207L653.868 322.258Z" stroke="#1C1C1C" stroke-width="1.16139"/>
<path d="M869.122 322.258L826.07 322.258L826.07 279.207L869.122 279.207L869.122 322.258Z" stroke="#1C1C1C" stroke-width="1.16139"/>
<path d="M438.566 279.205L395.515 279.205L395.515 236.154L438.566 236.154L438.566 279.205Z" stroke="#1C1C1C" stroke-width="1.16139"/>
<path d="M223.31 279.205L180.258 279.205L180.258 236.154L223.31 236.154L223.31 279.205Z" stroke="#1C1C1C" stroke-width="1.16139"/>
<path d="M653.868 279.205L610.816 279.205L610.816 236.154L653.868 236.154L653.868 279.205Z" stroke="#1C1C1C" stroke-width="1.16139"/>
<path d="M481.614 322.258L438.562 322.258L438.562 279.207L481.614 279.207L481.614 322.258Z" stroke="#1C1C1C" stroke-width="1.16139"/>
<path d="M266.359 322.258L223.308 322.258L223.308 279.207L266.359 279.207L266.359 322.258Z" stroke="#1C1C1C" stroke-width="1.16139"/>
<path d="M696.918 322.258L653.867 322.258L653.867 279.207L696.918 279.207L696.918 322.258Z" stroke="#1C1C1C" stroke-width="1.16139"/>
<path d="M912.177 322.258L869.125 322.258L869.125 279.207L912.177 279.207L912.177 322.258Z" stroke="#1C1C1C" stroke-width="1.16139"/>
<path d="M266.359 279.205L223.308 279.205L223.308 236.154L266.359 236.154L266.359 279.205Z" stroke="#1C1C1C" stroke-width="1.16139"/>
<path d="M696.918 279.205L653.867 279.205L653.867 236.154L696.918 236.154L696.918 279.205Z" stroke="#1C1C1C" stroke-width="1.16139"/>
<path d="M524.668 322.258L481.617 322.258L481.617 279.207L524.668 279.207L524.668 322.258Z" stroke="#1C1C1C" stroke-width="1.16139"/>
<path d="M309.411 322.258L266.359 322.258L266.359 279.207L309.411 279.207L309.411 322.258Z" stroke="#1C1C1C" stroke-width="1.16139"/>
<path d="M739.97 322.258L696.918 322.258L696.918 279.207L739.97 279.207L739.97 322.258Z" stroke="#1C1C1C" stroke-width="1.16139"/>
<path d="M955.228 322.258L912.176 322.258L912.176 279.207L955.228 279.207L955.228 322.258Z" stroke="#1C1C1C" stroke-width="1.16139"/>
<path d="M524.668 279.205L481.617 279.205L481.617 236.154L524.668 236.154L524.668 279.205Z" stroke="#1C1C1C" stroke-width="1.16139"/>
<path d="M309.411 279.205L266.359 279.205L266.359 236.154L309.411 236.154L309.411 279.205Z" stroke="#1C1C1C" stroke-width="1.16139"/>
<path d="M739.97 279.205L696.918 279.205L696.918 236.154L739.97 236.154L739.97 279.205Z" stroke="#1C1C1C" stroke-width="1.16139"/>
<path d="M352.461 322.258L309.41 322.258L309.41 279.207L352.461 279.207L352.461 322.258Z" stroke="#1C1C1C" stroke-width="1.16139"/>
<path d="M783.023 322.258L739.972 322.258L739.972 279.207L783.023 279.207L783.023 322.258Z" stroke="#1C1C1C" stroke-width="1.16139"/>
<path d="M567.72 279.205L524.668 279.205L524.668 236.154L567.72 236.154L567.72 279.205Z" stroke="#1C1C1C" stroke-width="1.16139"/>
<path d="M352.461 279.205L309.41 279.205L309.41 236.154L352.461 236.154L352.461 279.205Z" stroke="#1C1C1C" stroke-width="1.16139"/>
<path d="M783.023 279.205L739.972 279.205L739.972 236.154L783.023 236.154L783.023 279.205Z" stroke="#1C1C1C" stroke-width="1.16139"/>
<path d="M137.208 279.205L94.1562 279.205L94.1562 236.154L137.208 236.154L137.208 279.205Z" stroke="#1C1C1C" stroke-width="1.16139"/>
<path d="M610.773 322.258L567.722 322.258L567.722 279.207L610.773 279.207L610.773 322.258Z" stroke="#1C1C1C" stroke-width="1.16139"/>
<path d="M395.517 322.258L352.465 322.258L352.465 279.207L395.517 279.207L395.517 322.258Z" stroke="#1C1C1C" stroke-width="1.16139"/>
<path d="M826.079 322.258L783.027 322.258L783.027 279.207L826.079 279.207L826.079 322.258Z" stroke="#1C1C1C" stroke-width="1.16139"/>
<path d="M180.258 322.258L137.207 322.258L137.207 279.207L180.258 279.207L180.258 322.258Z" stroke="#1C1C1C" stroke-width="1.16139"/>
<path d="M610.773 279.205L567.722 279.205L567.722 236.154L610.773 236.154L610.773 279.205Z" stroke="#1C1C1C" stroke-width="1.16139"/>
<path d="M395.517 279.205L352.465 279.205L352.465 236.154L395.517 236.154L395.517 279.205Z" stroke="#1C1C1C" stroke-width="1.16139"/>
<path d="M180.258 279.205L137.207 279.205L137.207 236.154L180.258 236.154L180.258 279.205Z" stroke="#1C1C1C" stroke-width="1.16139"/>
<path d="M438.566 236.154L395.515 236.154L395.515 193.103L438.566 193.103L438.566 236.154Z" stroke="#1C1C1C" stroke-width="1.16139"/>
<path d="M223.31 236.154L180.258 236.154L180.258 193.103L223.31 193.103L223.31 236.154Z" stroke="#1C1C1C" stroke-width="1.16139"/>
<path d="M438.566 193.105L395.515 193.105L395.515 150.054L438.566 150.054L438.566 193.105Z" stroke="#1C1C1C" stroke-width="1.16139"/>
<path d="M223.31 193.105L180.258 193.105L180.258 150.054L223.31 150.054L223.31 193.105Z" stroke="#1C1C1C" stroke-width="1.16139"/>
<path d="M869.122 193.105L826.07 193.105L826.07 150.054L869.122 150.054L869.122 193.105Z" stroke="#1C1C1C" stroke-width="1.16139"/>
<path d="M8.0513 193.105L-35 193.105L-35 150.054L8.0513 150.054L8.0513 193.105Z" stroke="#1C1C1C" stroke-width="1.16139"/>
<path d="M481.614 236.154L438.562 236.154L438.562 193.103L481.614 193.103L481.614 236.154Z" stroke="#1C1C1C" stroke-width="1.16139"/>
<path d="M266.359 236.154L223.308 236.154L223.308 193.103L266.359 193.103L266.359 236.154Z" stroke="#1C1C1C" stroke-width="1.16139"/>
<path d="M696.918 236.154L653.867 236.154L653.867 193.103L696.918 193.103L696.918 236.154Z" stroke="#1C1C1C" stroke-width="1.16139"/>
<path d="M481.614 193.105L438.562 193.105L438.562 150.054L481.614 150.054L481.614 193.105Z" stroke="#1C1C1C" stroke-width="1.16139"/>
<path d="M266.359 193.105L223.308 193.105L223.308 150.054L266.359 150.054L266.359 193.105Z" stroke="#1C1C1C" stroke-width="1.16139"/>
<path d="M51.1021 193.105L8.05078 193.105L8.05078 150.054L51.1021 150.054L51.1021 193.105Z" stroke="#1C1C1C" stroke-width="1.16139"/>
<path d="M524.668 236.154L481.617 236.154L481.617 193.103L524.668 193.103L524.668 236.154Z" stroke="#1C1C1C" stroke-width="1.16139"/>
<path d="M309.411 236.154L266.359 236.154L266.359 193.103L309.411 193.103L309.411 236.154Z" stroke="#1C1C1C" stroke-width="1.16139"/>
<path d="M739.97 193.105L696.918 193.105L696.918 150.054L739.97 150.054L739.97 193.105Z" stroke="#1C1C1C" stroke-width="1.16139"/>
<path d="M955.228 193.105L912.176 193.105L912.176 150.054L955.228 150.054L955.228 193.105Z" stroke="#1C1C1C" stroke-width="1.16139"/>
<path d="M94.1568 193.105L51.1055 193.105L51.1055 150.054L94.1568 150.054L94.1568 193.105Z" stroke="#1C1C1C" stroke-width="1.16139"/>
<path d="M567.72 236.154L524.668 236.154L524.668 193.103L567.72 193.103L567.72 236.154Z" stroke="#1C1C1C" stroke-width="1.16139"/>
<path d="M352.461 236.154L309.41 236.154L309.41 193.103L352.461 193.103L352.461 236.154Z" stroke="#1C1C1C" stroke-width="1.16139"/>
<path d="M783.023 236.154L739.972 236.154L739.972 193.103L783.023 193.103L783.023 236.154Z" stroke="#1C1C1C" stroke-width="1.16139"/>
<path d="M137.208 236.154L94.1562 236.154L94.1562 193.103L137.208 193.103L137.208 236.154Z" stroke="#1C1C1C" stroke-width="1.16139"/>
<path d="M567.72 193.105L524.668 193.105L524.668 150.054L567.72 150.054L567.72 193.105Z" stroke="#1C1C1C" stroke-width="1.16139"/>
<path d="M352.461 193.105L309.41 193.105L309.41 150.054L352.461 150.054L352.461 193.105Z" stroke="#1C1C1C" stroke-width="1.16139"/>
<path d="M783.023 193.105L739.972 193.105L739.972 150.054L783.023 150.054L783.023 193.105Z" stroke="#1C1C1C" stroke-width="1.16139"/>
<path d="M137.208 193.105L94.1562 193.105L94.1562 150.054L137.208 150.054L137.208 193.105Z" stroke="#1C1C1C" stroke-width="1.16139"/>
<path d="M180.258 236.154L137.207 236.154L137.207 193.103L180.258 193.103L180.258 236.154Z" stroke="#1C1C1C" stroke-width="1.16139"/>
<path d="M395.517 193.105L352.465 193.105L352.465 150.054L395.517 150.054L395.517 193.105Z" stroke="#1C1C1C" stroke-width="1.16139"/>
<path d="M826.079 193.105L783.027 193.105L783.027 150.054L826.079 150.054L826.079 193.105Z" stroke="#1C1C1C" stroke-width="1.16139"/>
<path d="M438.566 150.053L395.515 150.053L395.515 107.002L438.566 107.002L438.566 150.053Z" stroke="#1C1C1C" stroke-width="1.16139"/>
<path d="M869.122 150.053L826.07 150.053L826.07 107.002L869.122 107.002L869.122 150.053Z" stroke="#1C1C1C" stroke-width="1.16139"/>
<path d="M8.0513 150.053L-35 150.053L-35 107.002L8.0513 107.002L8.0513 150.053Z" stroke="#1C1C1C" stroke-width="1.16139"/>
<path d="M438.566 107.002L395.515 107.002L395.515 63.9507L438.566 63.9507L438.566 107.002Z" stroke="#1C1C1C" stroke-width="1.16139"/>
<path d="M869.122 107.002L826.07 107.002L826.07 63.9507L869.122 63.9507L869.122 107.002Z" stroke="#1C1C1C" stroke-width="1.16139"/>
<path d="M8.0513 107.002L-35 107.002L-35 63.9507L8.0513 63.9507L8.0513 107.002Z" stroke="#1C1C1C" stroke-width="1.16139"/>
<path d="M481.614 150.053L438.562 150.053L438.562 107.002L481.614 107.002L481.614 150.053Z" stroke="#1C1C1C" stroke-width="1.16139"/>
<path d="M266.359 150.053L223.308 150.053L223.308 107.002L266.359 107.002L266.359 150.053Z" stroke="#1C1C1C" stroke-width="1.16139"/>
<path d="M912.177 150.053L869.125 150.053L869.125 107.002L912.177 107.002L912.177 150.053Z" stroke="#1C1C1C" stroke-width="1.16139"/>
<path d="M51.1021 150.053L8.05078 150.053L8.05078 107.002L51.1021 107.002L51.1021 150.053Z" stroke="#1C1C1C" stroke-width="1.16139"/>
<path d="M481.614 107.002L438.562 107.002L438.562 63.9507L481.614 63.9507L481.614 107.002Z" stroke="#1C1C1C" stroke-width="1.16139"/>
<path d="M266.359 107.002L223.308 107.002L223.308 63.9507L266.359 63.9507L266.359 107.002Z" stroke="#1C1C1C" stroke-width="1.16139"/>
<path d="M912.177 107.002L869.125 107.002L869.125 63.9507L912.177 63.9507L912.177 107.002Z" stroke="#1C1C1C" stroke-width="1.16139"/>
<path d="M51.1021 107.002L8.05078 107.002L8.05078 63.9507L51.1021 63.9507L51.1021 107.002Z" stroke="#1C1C1C" stroke-width="1.16139"/>
<path d="M524.668 150.053L481.617 150.053L481.617 107.002L524.668 107.002L524.668 150.053Z" stroke="#1C1C1C" stroke-width="1.16139"/>
<path d="M309.411 150.053L266.359 150.053L266.359 107.002L309.411 107.002L309.411 150.053Z" stroke="#1C1C1C" stroke-width="1.16139"/>
<path d="M955.228 150.053L912.176 150.053L912.176 107.002L955.228 107.002L955.228 150.053Z" stroke="#1C1C1C" stroke-width="1.16139"/>
<path d="M94.1568 150.053L51.1055 150.053L51.1055 107.002L94.1568 107.002L94.1568 150.053Z" stroke="#1C1C1C" stroke-width="1.16139"/>
<path d="M524.668 107.002L481.617 107.002L481.617 63.9507L524.668 63.9507L524.668 107.002Z" stroke="#1C1C1C" stroke-width="1.16139"/>
<path d="M309.411 107.002L266.359 107.002L266.359 63.9507L309.411 63.9507L309.411 107.002Z" stroke="#1C1C1C" stroke-width="1.16139"/>
<path d="M94.1568 107.002L51.1055 107.002L51.1055 63.9507L94.1568 63.9507L94.1568 107.002Z" stroke="#1C1C1C" stroke-width="1.16139"/>
<path d="M567.72 150.053L524.668 150.053L524.668 107.002L567.72 107.002L567.72 150.053Z" stroke="#1C1C1C" stroke-width="1.16139"/>
<path d="M352.461 150.053L309.41 150.053L309.41 107.002L352.461 107.002L352.461 150.053Z" stroke="#1C1C1C" stroke-width="1.16139"/>
<path d="M783.023 150.053L739.972 150.053L739.972 107.002L783.023 107.002L783.023 150.053Z" stroke="#1C1C1C" stroke-width="1.16139"/>
<path d="M137.208 150.053L94.1562 150.053L94.1562 107.002L137.208 107.002L137.208 150.053Z" stroke="#1C1C1C" stroke-width="1.16139"/>
<path d="M567.72 107.002L524.668 107.002L524.668 63.9507L567.72 63.9507L567.72 107.002Z" stroke="#1C1C1C" stroke-width="1.16139"/>
<path d="M352.461 107.002L309.41 107.002L309.41 63.9507L352.461 63.9507L352.461 107.002Z" stroke="#1C1C1C" stroke-width="1.16139"/>
<path d="M137.208 107.002L94.1562 107.002L94.1562 63.9507L137.208 63.9507L137.208 107.002Z" stroke="#1C1C1C" stroke-width="1.16139"/>
<path d="M395.517 150.053L352.465 150.053L352.465 107.002L395.517 107.002L395.517 150.053Z" stroke="#1C1C1C" stroke-width="1.16139"/>
<path d="M180.258 150.053L137.207 150.053L137.207 107.002L180.258 107.002L180.258 150.053Z" stroke="#1C1C1C" stroke-width="1.16139"/>
<path d="M395.517 107.002L352.465 107.002L352.465 63.9507L395.517 63.9507L395.517 107.002Z" stroke="#1C1C1C" stroke-width="1.16139"/>
<path d="M826.079 107.002L783.027 107.002L783.027 63.9507L826.079 63.9507L826.079 107.002Z" stroke="#1C1C1C" stroke-width="1.16139"/>
<path d="M180.258 107.002L137.207 107.002L137.207 63.9507L180.258 63.9507L180.258 107.002Z" stroke="#1C1C1C" stroke-width="1.16139"/>
<path d="M869.122 63.9492L826.07 63.9492L826.07 20.8979L869.122 20.8979L869.122 63.9492Z" stroke="#1C1C1C" stroke-width="1.16139"/>
<path d="M8.0513 63.9492L-35 63.9492L-35 20.8979L8.0513 20.8979L8.0513 63.9492Z" stroke="#1C1C1C" stroke-width="1.16139"/>
<path d="M438.566 20.8984L395.515 20.8984L395.515 -22.1529L438.566 -22.1529L438.566 20.8984Z" stroke="#1C1C1C" stroke-width="1.16139"/>
<path d="M8.0513 20.8984L-35 20.8984L-35 -22.1529L8.0513 -22.1529L8.0513 20.8984Z" stroke="#1C1C1C" stroke-width="1.16139"/>
<path d="M481.614 63.9492L438.562 63.9492L438.562 20.8979L481.614 20.8979L481.614 63.9492Z" stroke="#1C1C1C" stroke-width="1.16139"/>
<path d="M912.177 63.9492L869.125 63.9492L869.125 20.8979L912.177 20.8979L912.177 63.9492Z" stroke="#1C1C1C" stroke-width="1.16139"/>
<path d="M51.1021 63.9492L8.05078 63.9492L8.05078 20.8979L51.1021 20.8979L51.1021 63.9492Z" stroke="#1C1C1C" stroke-width="1.16139"/>
<path d="M481.614 20.8984L438.562 20.8984L438.562 -22.1529L481.614 -22.1529L481.614 20.8984Z" stroke="#1C1C1C" stroke-width="1.16139"/>
<path d="M912.177 20.8984L869.125 20.8984L869.125 -22.1529L912.177 -22.1529L912.177 20.8984Z" stroke="#1C1C1C" stroke-width="1.16139"/>
<path d="M524.668 63.9492L481.617 63.9492L481.617 20.8979L524.668 20.8979L524.668 63.9492Z" stroke="#1C1C1C" stroke-width="1.16139"/>
<path d="M309.411 63.9492L266.359 63.9492L266.359 20.8979L309.411 20.8979L309.411 63.9492Z" stroke="#1C1C1C" stroke-width="1.16139"/>
<path d="M524.668 20.8984L481.617 20.8984L481.617 -22.1529L524.668 -22.1529L524.668 20.8984Z" stroke="#1C1C1C" stroke-width="1.16139"/>
<path d="M309.411 20.8984L266.359 20.8984L266.359 -22.1529L309.411 -22.1529L309.411 20.8984Z" stroke="#1C1C1C" stroke-width="1.16139"/>
<path d="M955.228 20.8984L912.176 20.8984L912.176 -22.1529L955.228 -22.1529L955.228 20.8984Z" stroke="#1C1C1C" stroke-width="1.16139"/>
<path d="M352.461 63.9492L309.41 63.9492L309.41 20.8979L352.461 20.8979L352.461 63.9492Z" stroke="#1C1C1C" stroke-width="1.16139"/>
<path d="M783.023 63.9492L739.972 63.9492L739.972 20.8979L783.023 20.8979L783.023 63.9492Z" stroke="#1C1C1C" stroke-width="1.16139"/>
<path d="M567.72 20.8984L524.668 20.8984L524.668 -22.1529L567.72 -22.1529L567.72 20.8984Z" stroke="#1C1C1C" stroke-width="1.16139"/>
<path d="M352.461 20.8984L309.41 20.8984L309.41 -22.1529L352.461 -22.1529L352.461 20.8984Z" stroke="#1C1C1C" stroke-width="1.16139"/>
<path d="M783.023 20.8984L739.972 20.8984L739.972 -22.1529L783.023 -22.1529L783.023 20.8984Z" stroke="#1C1C1C" stroke-width="1.16139"/>
<path d="M395.517 63.9492L352.465 63.9492L352.465 20.8979L395.517 20.8979L395.517 63.9492Z" stroke="#1C1C1C" stroke-width="1.16139"/>
<path d="M826.079 63.9492L783.027 63.9492L783.027 20.8979L826.079 20.8979L826.079 63.9492Z" stroke="#1C1C1C" stroke-width="1.16139"/>
<path d="M395.517 20.8984L352.465 20.8984L352.465 -22.1529L395.517 -22.1529L395.517 20.8984Z" stroke="#1C1C1C" stroke-width="1.16139"/>
<path d="M826.079 20.8984L783.027 20.8984L783.027 -22.1529L826.079 -22.1529L826.079 20.8984Z" stroke="#1C1C1C" stroke-width="1.16139"/>
<path d="M438.566 63.9492L395.515 63.9492L395.515 20.8979L438.566 20.8979L438.566 63.9492Z" stroke="#1C1C1C" stroke-width="1.16139"/>
<path d="M542.858 49.0797H549.308V48.0597H546.803V39.1797H545.888C545.288 39.4947 544.553 39.7497 543.533 39.8997V40.6947H545.573V48.0597H542.858V49.0797Z" fill="url(#paint20_linear_136_3965)"/>
<path d="M545.888 92.26C548.018 92.26 549.323 90.385 549.323 87.1C549.323 83.785 548.018 81.9997 545.888 81.9997C543.758 81.9997 542.453 83.785 542.453 87.1C542.453 90.385 543.758 92.26 545.888 92.26ZM545.888 91.27C544.553 91.27 543.608 89.95 543.608 87.1C543.608 84.235 544.553 82.9897 545.888 82.9897C547.223 82.9897 548.168 84.235 548.168 87.1C548.168 89.95 547.223 91.27 545.888 91.27ZM545.888 88.015C546.383 88.015 546.818 87.64 546.818 86.995C546.818 86.35 546.383 85.975 545.888 85.975C545.393 85.975 544.958 86.35 544.958 86.995C544.958 87.64 545.393 88.015 545.888 88.015Z" fill="url(#paint21_linear_136_3965)"/>
<path d="M545.888 178.26C548.018 178.26 549.323 176.385 549.323 173.1C549.323 169.785 548.018 168 545.888 168C543.758 168 542.453 169.785 542.453 173.1C542.453 176.385 543.758 178.26 545.888 178.26ZM545.888 177.27C544.553 177.27 543.608 175.95 543.608 173.1C543.608 170.235 544.553 168.99 545.888 168.99C547.223 168.99 548.168 170.235 548.168 173.1C548.168 175.95 547.223 177.27 545.888 177.27ZM545.888 174.015C546.383 174.015 546.818 173.64 546.818 172.995C546.818 172.35 546.383 171.975 545.888 171.975C545.393 171.975 544.958 172.35 544.958 172.995C544.958 173.64 545.393 174.015 545.888 174.015Z" fill="url(#paint22_linear_136_3965)"/>
<path d="M542.858 221.08H549.308V220.06H546.803V211.18H545.888C545.288 211.495 544.553 211.75 543.533 211.9V212.695H545.573V220.06H542.858V221.08Z" fill="url(#paint23_linear_136_3965)"/>
<path d="M542.858 264.08H549.308V263.06H546.803V254.18H545.888C545.288 254.495 544.553 254.75 543.533 254.9V255.695H545.573V263.06H542.858V264.08Z" fill="url(#paint24_linear_136_3965)"/>
<path d="M586.041 49.0797H592.491V48.0597H589.986V39.1797H589.071C588.471 39.4947 587.736 39.7497 586.716 39.8997V40.6947H588.756V48.0597H586.041V49.0797Z" fill="url(#paint25_linear_136_3965)"/>
<path d="M589.071 92.26C591.201 92.26 592.506 90.385 592.506 87.1C592.506 83.785 591.201 81.9997 589.071 81.9997C586.941 81.9997 585.636 83.785 585.636 87.1C585.636 90.385 586.941 92.26 589.071 92.26ZM589.071 91.27C587.736 91.27 586.791 89.95 586.791 87.1C586.791 84.235 587.736 82.9897 589.071 82.9897C590.406 82.9897 591.351 84.235 591.351 87.1C591.351 89.95 590.406 91.27 589.071 91.27ZM589.071 88.015C589.566 88.015 590.001 87.64 590.001 86.995C590.001 86.35 589.566 85.975 589.071 85.975C588.576 85.975 588.141 86.35 588.141 86.995C588.141 87.64 588.576 88.015 589.071 88.015Z" fill="url(#paint26_linear_136_3965)"/>
<path d="M586.041 135.08H592.491V134.06H589.986V125.18H589.071C588.471 125.495 587.736 125.75 586.716 125.9V126.695H588.756V134.06H586.041V135.08Z" fill="url(#paint27_linear_136_3965)"/>
<path d="M586.041 221.08H592.491V220.06H589.986V211.18H589.071C588.471 211.495 587.736 211.75 586.716 211.9V212.695H588.756V220.06H586.041V221.08Z" fill="url(#paint28_linear_136_3965)"/>
<path d="M589.071 264.26C591.201 264.26 592.506 262.385 592.506 259.1C592.506 255.785 591.201 254 589.071 254C586.941 254 585.636 255.785 585.636 259.1C585.636 262.385 586.941 264.26 589.071 264.26ZM589.071 263.27C587.736 263.27 586.791 261.95 586.791 259.1C586.791 256.235 587.736 254.99 589.071 254.99C590.406 254.99 591.351 256.235 591.351 259.1C591.351 261.95 590.406 263.27 589.071 263.27ZM589.071 260.015C589.566 260.015 590.001 259.64 590.001 258.995C590.001 258.35 589.566 257.975 589.071 257.975C588.576 257.975 588.141 258.35 588.141 258.995C588.141 259.64 588.576 260.015 589.071 260.015Z" fill="url(#paint29_linear_136_3965)"/>
<path d="M589.071 307.26C591.201 307.26 592.506 305.385 592.506 302.1C592.506 298.785 591.201 297 589.071 297C586.941 297 585.636 298.785 585.636 302.1C585.636 305.385 586.941 307.26 589.071 307.26ZM589.071 306.27C587.736 306.27 586.791 304.95 586.791 302.1C586.791 299.235 587.736 297.99 589.071 297.99C590.406 297.99 591.351 299.235 591.351 302.1C591.351 304.95 590.406 306.27 589.071 306.27ZM589.071 303.015C589.566 303.015 590.001 302.64 590.001 301.995C590.001 301.35 589.566 300.975 589.071 300.975C588.576 300.975 588.141 301.35 588.141 301.995C588.141 302.64 588.576 303.015 589.071 303.015Z" fill="url(#paint30_linear_136_3965)"/>
<path d="M586.043 177.08H592.493V176.06H589.988V167.18H589.073C588.473 167.495 587.738 167.75 586.718 167.9V168.695H588.758V176.06H586.043V177.08Z" fill="#0A9E73"/>
<path d="M631.653 92.26C633.783 92.26 635.088 90.385 635.088 87.1C635.088 83.785 633.783 82 631.653 82C629.523 82 628.218 83.785 628.218 87.1C628.218 90.385 629.523 92.26 631.653 92.26ZM631.653 91.27C630.318 91.27 629.373 89.95 629.373 87.1C629.373 84.235 630.318 82.99 631.653 82.99C632.988 82.99 633.933 84.235 633.933 87.1C633.933 89.95 632.988 91.27 631.653 91.27ZM631.653 88.015C632.148 88.015 632.583 87.64 632.583 86.995C632.583 86.35 632.148 85.975 631.653 85.975C631.158 85.975 630.723 86.35 630.723 86.995C630.723 87.64 631.158 88.015 631.653 88.015Z" fill="url(#paint31_linear_136_3965)"/>
<path d="M628.623 135.08H635.073V134.06H632.568V125.18H631.653C631.053 125.495 630.318 125.75 629.298 125.9V126.695H631.338V134.06H628.623V135.08Z" fill="url(#paint32_linear_136_3965)"/>
<path d="M631.653 178.26C633.783 178.26 635.088 176.385 635.088 173.1C635.088 169.785 633.783 168 631.653 168C629.523 168 628.218 169.785 628.218 173.1C628.218 176.385 629.523 178.26 631.653 178.26ZM631.653 177.27C630.318 177.27 629.373 175.95 629.373 173.1C629.373 170.235 630.318 168.99 631.653 168.99C632.988 168.99 633.933 170.235 633.933 173.1C633.933 175.95 632.988 177.27 631.653 177.27ZM631.653 174.015C632.148 174.015 632.583 173.64 632.583 172.995C632.583 172.35 632.148 171.975 631.653 171.975C631.158 171.975 630.723 172.35 630.723 172.995C630.723 173.64 631.158 174.015 631.653 174.015Z" fill="url(#paint33_linear_136_3965)"/>
<path d="M631.653 221.26C633.783 221.26 635.088 219.385 635.088 216.1C635.088 212.785 633.783 211 631.653 211C629.523 211 628.218 212.785 628.218 216.1C628.218 219.385 629.523 221.26 631.653 221.26ZM631.653 220.27C630.318 220.27 629.373 218.95 629.373 216.1C629.373 213.235 630.318 211.99 631.653 211.99C632.988 211.99 633.933 213.235 633.933 216.1C633.933 218.95 632.988 220.27 631.653 220.27ZM631.653 217.015C632.148 217.015 632.583 216.64 632.583 215.995C632.583 215.35 632.148 214.975 631.653 214.975C631.158 214.975 630.723 215.35 630.723 215.995C630.723 216.64 631.158 217.015 631.653 217.015Z" fill="url(#paint34_linear_136_3965)"/>
<path d="M631.653 264.26C633.783 264.26 635.088 262.385 635.088 259.1C635.088 255.785 633.783 254 631.653 254C629.523 254 628.218 255.785 628.218 259.1C628.218 262.385 629.523 264.26 631.653 264.26ZM631.653 263.27C630.318 263.27 629.373 261.95 629.373 259.1C629.373 256.235 630.318 254.99 631.653 254.99C632.988 254.99 633.933 256.235 633.933 259.1C633.933 261.95 632.988 263.27 631.653 263.27ZM631.653 260.015C632.148 260.015 632.583 259.64 632.583 258.995C632.583 258.35 632.148 257.975 631.653 257.975C631.158 257.975 630.723 258.35 630.723 258.995C630.723 259.64 631.158 260.015 631.653 260.015Z" fill="url(#paint35_linear_136_3965)"/>
<path d="M628.623 307.08H635.073V306.06H632.568V297.18H631.653C631.053 297.495 630.318 297.75 629.298 297.9V298.695H631.338V306.06H628.623V307.08Z" fill="url(#paint36_linear_136_3965)"/>
<path d="M804.11 92.26C806.241 92.26 807.546 90.385 807.546 87.1C807.546 83.785 806.241 82 804.11 82C801.98 82 800.676 83.785 800.676 87.1C800.676 90.385 801.98 92.26 804.11 92.26ZM804.11 91.27C802.775 91.27 801.83 89.95 801.83 87.1C801.83 84.235 802.775 82.99 804.11 82.99C805.446 82.99 806.391 84.235 806.391 87.1C806.391 89.95 805.446 91.27 804.11 91.27ZM804.11 88.015C804.605 88.015 805.041 87.64 805.041 86.995C805.041 86.35 804.605 85.975 804.11 85.975C803.616 85.975 803.181 86.35 803.181 86.995C803.181 87.64 803.616 88.015 804.11 88.015Z" fill="url(#paint37_linear_136_3965)"/>
<path d="M675.208 6.26C677.338 6.26 678.643 4.385 678.643 1.1C678.643 -2.215 677.338 -4 675.208 -4C673.078 -4 671.773 -2.215 671.773 1.1C671.773 4.385 673.078 6.26 675.208 6.26ZM675.208 5.27C673.873 5.27 672.928 3.95 672.928 1.1C672.928 -1.765 673.873 -3.01 675.208 -3.01C676.543 -3.01 677.488 -1.765 677.488 1.1C677.488 3.95 676.543 5.27 675.208 5.27ZM675.208 2.015C675.703 2.015 676.138 1.64 676.138 0.995001C676.138 0.350001 675.703 -0.0249996 675.208 -0.0249996C674.713 -0.0249996 674.278 0.350001 674.278 0.995001C674.278 1.64 674.713 2.015 675.208 2.015Z" fill="url(#paint38_linear_136_3965)"/>
<path d="M672.178 49.08H678.628V48.06H676.123V39.18H675.208C674.608 39.495 673.873 39.75 672.853 39.9V40.695H674.893V48.06H672.178V49.08Z" fill="url(#paint39_linear_136_3965)"/>
<path d="M675.208 92.26C677.338 92.26 678.643 90.385 678.643 87.1C678.643 83.785 677.338 82 675.208 82C673.078 82 671.773 83.785 671.773 87.1C671.773 90.385 673.078 92.26 675.208 92.26ZM675.208 91.27C673.873 91.27 672.928 89.95 672.928 87.1C672.928 84.235 673.873 82.99 675.208 82.99C676.543 82.99 677.488 84.235 677.488 87.1C677.488 89.95 676.543 91.27 675.208 91.27ZM675.208 88.015C675.703 88.015 676.138 87.64 676.138 86.995C676.138 86.35 675.703 85.975 675.208 85.975C674.713 85.975 674.278 86.35 674.278 86.995C674.278 87.64 674.713 88.015 675.208 88.015Z" fill="url(#paint40_linear_136_3965)"/>
<path d="M675.208 307.26C677.338 307.26 678.643 305.385 678.643 302.1C678.643 298.785 677.338 297 675.208 297C673.078 297 671.773 298.785 671.773 302.1C671.773 305.385 673.078 307.26 675.208 307.26ZM675.208 306.27C673.873 306.27 672.928 304.95 672.928 302.1C672.928 299.235 673.873 297.99 675.208 297.99C676.543 297.99 677.488 299.235 677.488 302.1C677.488 304.95 676.543 306.27 675.208 306.27ZM675.208 303.015C675.703 303.015 676.138 302.64 676.138 301.995C676.138 301.35 675.703 300.975 675.208 300.975C674.713 300.975 674.278 301.35 674.278 301.995C674.278 302.64 674.713 303.015 675.208 303.015Z" fill="url(#paint41_linear_136_3965)"/>
<path d="M847.665 6.26C849.795 6.26 851.1 4.385 851.1 1.1C851.1 -2.215 849.795 -4 847.665 -4C845.535 -4 844.23 -2.215 844.23 1.1C844.23 4.385 845.535 6.26 847.665 6.26ZM847.665 5.27C846.33 5.27 845.385 3.95 845.385 1.1C845.385 -1.765 846.33 -3.01 847.665 -3.01C849 -3.01 849.945 -1.765 849.945 1.1C849.945 3.95 849 5.27 847.665 5.27ZM847.665 2.015C848.16 2.015 848.595 1.64 848.595 0.995001C848.595 0.350001 848.16 -0.0249996 847.665 -0.0249996C847.17 -0.0249996 846.735 0.350001 846.735 0.995001C846.735 1.64 847.17 2.015 847.665 2.015Z" fill="url(#paint42_linear_136_3965)"/>
<path d="M844.635 49.08H851.085V48.06H848.58V39.18H847.665C847.065 39.495 846.33 39.75 845.31 39.9V40.695H847.35V48.06H844.635V49.08Z" fill="url(#paint43_linear_136_3965)"/>
<path d="M847.665 92.26C849.795 92.26 851.1 90.385 851.1 87.1C851.1 83.785 849.795 82 847.665 82C845.535 82 844.23 83.785 844.23 87.1C844.23 90.385 845.535 92.26 847.665 92.26ZM847.665 91.27C846.33 91.27 845.385 89.95 845.385 87.1C845.385 84.235 846.33 82.99 847.665 82.99C849 82.99 849.945 84.235 849.945 87.1C849.945 89.95 849 91.27 847.665 91.27ZM847.665 88.015C848.16 88.015 848.595 87.64 848.595 86.995C848.595 86.35 848.16 85.975 847.665 85.975C847.17 85.975 846.735 86.35 846.735 86.995C846.735 87.64 847.17 88.015 847.665 88.015Z" fill="url(#paint44_linear_136_3965)"/>
<path d="M847.665 307.26C849.795 307.26 851.1 305.385 851.1 302.1C851.1 298.785 849.795 297 847.665 297C845.535 297 844.23 298.785 844.23 302.1C844.23 305.385 845.535 307.26 847.665 307.26ZM847.665 306.27C846.33 306.27 845.385 304.95 845.385 302.1C845.385 299.235 846.33 297.99 847.665 297.99C849 297.99 849.945 299.235 849.945 302.1C849.945 304.95 849 306.27 847.665 306.27ZM847.665 303.015C848.16 303.015 848.595 302.64 848.595 301.995C848.595 301.35 848.16 300.975 847.665 300.975C847.17 300.975 846.735 301.35 846.735 301.995C846.735 302.64 847.17 303.015 847.665 303.015Z" fill="url(#paint45_linear_136_3965)"/>
<path d="M717.743 6.26C719.873 6.26 721.178 4.385 721.178 1.1C721.178 -2.215 719.873 -4 717.743 -4C715.613 -4 714.308 -2.215 714.308 1.1C714.308 4.385 715.613 6.26 717.743 6.26ZM717.743 5.27C716.408 5.27 715.463 3.95 715.463 1.1C715.463 -1.765 716.408 -3.01 717.743 -3.01C719.078 -3.01 720.023 -1.765 720.023 1.1C720.023 3.95 719.078 5.27 717.743 5.27ZM717.743 2.015C718.238 2.015 718.673 1.64 718.673 0.995001C718.673 0.350001 718.238 -0.0249996 717.743 -0.0249996C717.248 -0.0249996 716.813 0.350001 716.813 0.995001C716.813 1.64 717.248 2.015 717.743 2.015Z" fill="url(#paint46_linear_136_3965)"/>
<path d="M717.743 49.26C719.873 49.26 721.178 47.385 721.178 44.1C721.178 40.785 719.873 39 717.743 39C715.613 39 714.308 40.785 714.308 44.1C714.308 47.385 715.613 49.26 717.743 49.26ZM717.743 48.27C716.408 48.27 715.463 46.95 715.463 44.1C715.463 41.235 716.408 39.99 717.743 39.99C719.078 39.99 720.023 41.235 720.023 44.1C720.023 46.95 719.078 48.27 717.743 48.27ZM717.743 45.015C718.238 45.015 718.673 44.64 718.673 43.995C718.673 43.35 718.238 42.975 717.743 42.975C717.248 42.975 716.813 43.35 716.813 43.995C716.813 44.64 717.248 45.015 717.743 45.015Z" fill="url(#paint47_linear_136_3965)"/>
<path d="M714.713 92.08H721.163V91.06H718.658V82.18H717.743C717.143 82.495 716.408 82.75 715.388 82.9V83.695H717.428V91.06H714.713V92.08Z" fill="url(#paint48_linear_136_3965)"/>
<path d="M890.2 6.26C892.33 6.26 893.635 4.385 893.635 1.1C893.635 -2.215 892.33 -4 890.2 -4C888.07 -4 886.765 -2.215 886.765 1.1C886.765 4.385 888.07 6.26 890.2 6.26ZM890.2 5.27C888.865 5.27 887.92 3.95 887.92 1.1C887.92 -1.765 888.865 -3.01 890.2 -3.01C891.535 -3.01 892.48 -1.765 892.48 1.1C892.48 3.95 891.535 5.27 890.2 5.27ZM890.2 2.015C890.695 2.015 891.13 1.64 891.13 0.995001C891.13 0.350001 890.695 -0.0249996 890.2 -0.0249996C889.705 -0.0249996 889.27 0.350001 889.27 0.995001C889.27 1.64 889.705 2.015 890.2 2.015Z" fill="url(#paint49_linear_136_3965)"/>
<path d="M890.2 49.26C892.33 49.26 893.635 47.385 893.635 44.1C893.635 40.785 892.33 39 890.2 39C888.07 39 886.765 40.785 886.765 44.1C886.765 47.385 888.07 49.26 890.2 49.26ZM890.2 48.27C888.865 48.27 887.92 46.95 887.92 44.1C887.92 41.235 888.865 39.99 890.2 39.99C891.535 39.99 892.48 41.235 892.48 44.1C892.48 46.95 891.535 48.27 890.2 48.27ZM890.2 45.015C890.695 45.015 891.13 44.64 891.13 43.995C891.13 43.35 890.695 42.975 890.2 42.975C889.705 42.975 889.27 43.35 889.27 43.995C889.27 44.64 889.705 45.015 890.2 45.015Z" fill="url(#paint50_linear_136_3965)"/>
<path d="M887.17 92.08H893.62V91.06H891.115V82.18H890.2C889.6 82.495 888.865 82.75 887.845 82.9V83.695H889.885V91.06H887.17V92.08Z" fill="url(#paint51_linear_136_3965)"/>
<path d="M887.17 135.08H893.62V134.06H891.115V125.18H890.2C889.6 125.495 888.865 125.75 887.845 125.9V126.695H889.885V134.06H887.17V135.08Z" fill="url(#paint52_linear_136_3965)"/>
<path d="M887.17 264.08H893.62V263.06H891.115V254.18H890.2C889.6 254.495 888.865 254.75 887.845 254.9V255.695H889.885V263.06H887.17V264.08Z" fill="url(#paint53_linear_136_3965)"/>
<path d="M760.927 47.26C763.057 47.26 764.362 45.385 764.362 42.1C764.362 38.785 763.057 37 760.927 37C758.797 37 757.492 38.785 757.492 42.1C757.492 45.385 758.797 47.26 760.927 47.26ZM760.927 46.27C759.592 46.27 758.647 44.95 758.647 42.1C758.647 39.235 759.592 37.99 760.927 37.99C762.262 37.99 763.207 39.235 763.207 42.1C763.207 44.95 762.262 46.27 760.927 46.27ZM760.927 43.015C761.422 43.015 761.857 42.64 761.857 41.995C761.857 41.35 761.422 40.975 760.927 40.975C760.432 40.975 759.997 41.35 759.997 41.995C759.997 42.64 760.432 43.015 760.927 43.015Z" fill="url(#paint54_linear_136_3965)"/>
<path d="M610.773 193.105L567.722 193.105L567.722 150.054L610.773 150.054L610.773 193.105Z" stroke="#0A9E73" stroke-width="1.16139"/>
<path d="M869.079 279.205L826.027 279.205L826.027 236.154L869.079 236.154L869.079 279.205Z" stroke="#0A9E73" stroke-width="1.16139"/>
<path d="M697 236L653 236L653 193L697 193L697 236Z" stroke="#0A9E73" stroke-width="1.16139"/>
<path d="M783.023 408.359L739.972 408.359L739.972 365.308L783.023 365.308L783.023 408.359Z" stroke="#0A9E73" stroke-width="1.16139"/>
<path d="M826.079 150.053L783.027 150.053L783.027 107.002L826.079 107.002L826.079 150.053Z" stroke="#0A9E73" stroke-width="1.16139"/>
<path d="M610.816 113.059H567.718V231.201H610.816V113.059Z" fill="url(#paint55_linear_136_3965)"/>
<path d="M735.733 235.9L735.486 192.803L618.623 193.472L618.87 236.569L735.733 235.9Z" fill="url(#paint56_linear_136_3965)"/>
<path d="M542.688 133.92H549.138V132.9H546.633V124.02H545.718C545.118 124.335 544.383 124.59 543.363 124.74V125.535H545.403V132.9H542.688V133.92Z" fill="#0A9E73"/>
<path d="M567.438 150.193L524.386 150.193L524.386 107.142L567.438 107.142L567.438 150.193Z" stroke="#0A9E73" stroke-width="1.16139"/>
<path d="M567.438 66.3965H524.34V184.538H567.438V66.3965Z" fill="url(#paint57_linear_136_3965)"/>
<path d="M545.337 348.674C547.467 348.674 548.772 346.799 548.772 343.514C548.772 340.199 547.467 338.414 545.337 338.414C543.207 338.414 541.902 340.199 541.902 343.514C541.902 346.799 543.207 348.674 545.337 348.674ZM545.337 347.684C544.002 347.684 543.057 346.364 543.057 343.514C543.057 340.649 544.002 339.404 545.337 339.404C546.672 339.404 547.617 340.649 547.617 343.514C547.617 346.364 546.672 347.684 545.337 347.684ZM545.337 344.429C545.832 344.429 546.267 344.054 546.267 343.409C546.267 342.764 545.832 342.389 545.337 342.389C544.842 342.389 544.407 342.764 544.407 343.409C544.407 344.054 544.842 344.429 545.337 344.429Z" fill="#0A9E73"/>
<path d="M567.438 365.07L524.386 365.07L524.386 322.019L567.438 322.019L567.438 365.07Z" stroke="#0A9E73" stroke-width="1.16139"/>
<path d="M566.988 277.818H523.89V395.96H566.988V277.818Z" fill="url(#paint58_linear_136_3965)"/>
<path d="M826.586 71H783.488V189.142H826.586V71Z" fill="url(#paint59_linear_136_3965)"/>
<path d="M869.586 199H826.488V317.142H869.586V199Z" fill="url(#paint60_linear_136_3965)"/>
<path d="M782.586 328H739.488V446.142H782.586V328Z" fill="url(#paint61_linear_136_3965)"/>
</g>
<defs>
<linearGradient id="paint0_linear_136_3965" x1="847.627" y1="-19.6446" x2="847.627" y2="362.972" gradientUnits="userSpaceOnUse">
<stop stop-color="#3D3D3D"/>
<stop offset="1" stop-color="#2F2F2F" stop-opacity="0"/>
</linearGradient>
<linearGradient id="paint1_linear_136_3965" x1="760.893" y1="60.2059" x2="760.893" y2="442.822" gradientUnits="userSpaceOnUse">
<stop stop-color="#3D3D3D"/>
<stop offset="1" stop-color="#2F2F2F" stop-opacity="0"/>
</linearGradient>
<linearGradient id="paint2_linear_136_3965" x1="760.74" y1="-36.2111" x2="760.74" y2="356.867" gradientUnits="userSpaceOnUse">
<stop stop-color="#3D3D3D"/>
<stop offset="1" stop-color="#2F2F2F" stop-opacity="0"/>
</linearGradient>
<linearGradient id="paint3_linear_136_3965" x1="674.268" y1="-13.8629" x2="674.268" y2="355.328" gradientUnits="userSpaceOnUse">
<stop stop-color="#3D3D3D"/>
<stop offset="1" stop-color="#2F2F2F" stop-opacity="0"/>
</linearGradient>
<linearGradient id="paint4_linear_136_3965" x1="632.302" y1="20.6311" x2="632.302" y2="403.247" gradientUnits="userSpaceOnUse">
<stop stop-color="#3D3D3D"/>
<stop offset="1" stop-color="#2F2F2F" stop-opacity="0"/>
</linearGradient>
<linearGradient id="paint5_linear_136_3965" x1="804.804" y1="61.2059" x2="804.804" y2="443.822" gradientUnits="userSpaceOnUse">
<stop stop-color="#3D3D3D"/>
<stop offset="1" stop-color="#2F2F2F" stop-opacity="0"/>
</linearGradient>
<linearGradient id="paint6_linear_136_3965" x1="675.213" y1="-27.0074" x2="675.213" y2="380.401" gradientUnits="userSpaceOnUse">
<stop stop-color="#3D3D3D"/>
<stop offset="1" stop-color="#2F2F2F" stop-opacity="0"/>
</linearGradient>
<linearGradient id="paint7_linear_136_3965" x1="718.267" y1="-12.9359" x2="718.267" y2="356.255" gradientUnits="userSpaceOnUse">
<stop stop-color="#3D3D3D"/>
<stop offset="1" stop-color="#2F2F2F" stop-opacity="0"/>
</linearGradient>
<linearGradient id="paint8_linear_136_3965" x1="675.302" y1="-21.6446" x2="675.302" y2="360.972" gradientUnits="userSpaceOnUse">
<stop stop-color="#3D3D3D"/>
<stop offset="1" stop-color="#2F2F2F" stop-opacity="0"/>
</linearGradient>
<linearGradient id="paint9_linear_136_3965" x1="761.155" y1="24.6141" x2="761.155" y2="418.813" gradientUnits="userSpaceOnUse">
<stop stop-color="#3D3D3D"/>
<stop offset="1" stop-color="#2F2F2F" stop-opacity="0"/>
</linearGradient>
<linearGradient id="paint10_linear_136_3965" x1="717.893" y1="-57.8872" x2="717.893" y2="311.304" gradientUnits="userSpaceOnUse">
<stop stop-color="#3D3D3D"/>
<stop offset="1" stop-color="#2F2F2F" stop-opacity="0"/>
</linearGradient>
<linearGradient id="paint11_linear_136_3965" x1="846.894" y1="-21.2194" x2="846.894" y2="361.397" gradientUnits="userSpaceOnUse">
<stop stop-color="#3D3D3D"/>
<stop offset="1" stop-color="#2F2F2F" stop-opacity="0"/>
</linearGradient>
<linearGradient id="paint12_linear_136_3965" x1="761.547" y1="30.1128" x2="761.547" y2="399.304" gradientUnits="userSpaceOnUse">
<stop stop-color="#3D3D3D"/>
<stop offset="1" stop-color="#2F2F2F" stop-opacity="0"/>
</linearGradient>
<linearGradient id="paint13_linear_136_3965" x1="893.741" y1="-57.8629" x2="893.741" y2="311.328" gradientUnits="userSpaceOnUse">
<stop stop-color="#3D3D3D"/>
<stop offset="1" stop-color="#2F2F2F" stop-opacity="0"/>
</linearGradient>
<linearGradient id="paint14_linear_136_3965" x1="805.212" y1="15.9926" x2="805.212" y2="423.401" gradientUnits="userSpaceOnUse">
<stop stop-color="#3D3D3D"/>
<stop offset="1" stop-color="#2F2F2F" stop-opacity="0"/>
</linearGradient>
<linearGradient id="paint15_linear_136_3965" x1="848.174" y1="-10.9359" x2="848.174" y2="358.255" gradientUnits="userSpaceOnUse">
<stop stop-color="#3D3D3D"/>
<stop offset="1" stop-color="#2F2F2F" stop-opacity="0"/>
</linearGradient>
<linearGradient id="paint16_linear_136_3965" x1="761.268" y1="74.0641" x2="761.268" y2="443.255" gradientUnits="userSpaceOnUse">
<stop stop-color="#3D3D3D"/>
<stop offset="1" stop-color="#2F2F2F" stop-opacity="0"/>
</linearGradient>
<linearGradient id="paint17_linear_136_3965" x1="761.244" y1="31.0641" x2="761.244" y2="400.255" gradientUnits="userSpaceOnUse">
<stop stop-color="#3D3D3D"/>
<stop offset="1" stop-color="#2F2F2F" stop-opacity="0"/>
</linearGradient>
<linearGradient id="paint18_linear_136_3965" x1="718.177" y1="-13.8872" x2="718.177" y2="355.304" gradientUnits="userSpaceOnUse">
<stop stop-color="#3D3D3D"/>
<stop offset="1" stop-color="#2F2F2F" stop-opacity="0"/>
</linearGradient>
<linearGradient id="paint19_linear_136_3965" x1="804.834" y1="-67.7941" x2="804.834" y2="314.822" gradientUnits="userSpaceOnUse">
<stop stop-color="#3D3D3D"/>
<stop offset="1" stop-color="#2F2F2F" stop-opacity="0"/>
</linearGradient>
<linearGradient id="paint20_linear_136_3965" x1="545.886" y1="-7.91992" x2="545.886" y2="353.08" gradientUnits="userSpaceOnUse">
<stop stop-color="#3D3D3D"/>
<stop offset="1" stop-color="#2F2F2F" stop-opacity="0"/>
</linearGradient>
<linearGradient id="paint21_linear_136_3965" x1="545.886" y1="-7.91992" x2="545.886" y2="353.08" gradientUnits="userSpaceOnUse">
<stop stop-color="#3D3D3D"/>
<stop offset="1" stop-color="#2F2F2F" stop-opacity="0"/>
</linearGradient>
<linearGradient id="paint22_linear_136_3965" x1="545.886" y1="-7.91983" x2="545.886" y2="353.08" gradientUnits="userSpaceOnUse">
<stop stop-color="#3D3D3D"/>
<stop offset="1" stop-color="#2F2F2F" stop-opacity="0"/>
</linearGradient>
<linearGradient id="paint23_linear_136_3965" x1="545.886" y1="-7.92013" x2="545.886" y2="353.08" gradientUnits="userSpaceOnUse">
<stop stop-color="#3D3D3D"/>
<stop offset="1" stop-color="#2F2F2F" stop-opacity="0"/>
</linearGradient>
<linearGradient id="paint24_linear_136_3965" x1="545.886" y1="-7.91976" x2="545.886" y2="353.08" gradientUnits="userSpaceOnUse">
<stop stop-color="#3D3D3D"/>
<stop offset="1" stop-color="#2F2F2F" stop-opacity="0"/>
</linearGradient>
<linearGradient id="paint25_linear_136_3965" x1="589.07" y1="-7.91992" x2="589.07" y2="353.08" gradientUnits="userSpaceOnUse">
<stop stop-color="#3D3D3D"/>
<stop offset="1" stop-color="#2F2F2F" stop-opacity="0"/>
</linearGradient>
<linearGradient id="paint26_linear_136_3965" x1="589.07" y1="-7.91992" x2="589.07" y2="353.08" gradientUnits="userSpaceOnUse">
<stop stop-color="#3D3D3D"/>
<stop offset="1" stop-color="#2F2F2F" stop-opacity="0"/>
</linearGradient>
<linearGradient id="paint27_linear_136_3965" x1="589.07" y1="-7.92005" x2="589.07" y2="353.08" gradientUnits="userSpaceOnUse">
<stop stop-color="#3D3D3D"/>
<stop offset="1" stop-color="#2F2F2F" stop-opacity="0"/>
</linearGradient>
<linearGradient id="paint28_linear_136_3965" x1="589.07" y1="-7.92013" x2="589.07" y2="353.08" gradientUnits="userSpaceOnUse">
<stop stop-color="#3D3D3D"/>
<stop offset="1" stop-color="#2F2F2F" stop-opacity="0"/>
</linearGradient>
<linearGradient id="paint29_linear_136_3965" x1="589.07" y1="-7.92016" x2="589.07" y2="353.08" gradientUnits="userSpaceOnUse">
<stop stop-color="#3D3D3D"/>
<stop offset="1" stop-color="#2F2F2F" stop-opacity="0"/>
</linearGradient>
<linearGradient id="paint30_linear_136_3965" x1="589.07" y1="-7.92021" x2="589.07" y2="353.08" gradientUnits="userSpaceOnUse">
<stop stop-color="#3D3D3D"/>
<stop offset="1" stop-color="#2F2F2F" stop-opacity="0"/>
</linearGradient>
<linearGradient id="paint31_linear_136_3965" x1="631.652" y1="35.0801" x2="631.652" y2="396.08" gradientUnits="userSpaceOnUse">
<stop stop-color="#3D3D3D"/>
<stop offset="1" stop-color="#2F2F2F" stop-opacity="0"/>
</linearGradient>
<linearGradient id="paint32_linear_136_3965" x1="631.652" y1="35.08" x2="631.652" y2="396.08" gradientUnits="userSpaceOnUse">
<stop stop-color="#3D3D3D"/>
<stop offset="1" stop-color="#2F2F2F" stop-opacity="0"/>
</linearGradient>
<linearGradient id="paint33_linear_136_3965" x1="631.652" y1="35.0802" x2="631.652" y2="396.08" gradientUnits="userSpaceOnUse">
<stop stop-color="#3D3D3D"/>
<stop offset="1" stop-color="#2F2F2F" stop-opacity="0"/>
</linearGradient>
<linearGradient id="paint34_linear_136_3965" x1="631.652" y1="35.0802" x2="631.652" y2="396.08" gradientUnits="userSpaceOnUse">
<stop stop-color="#3D3D3D"/>
<stop offset="1" stop-color="#2F2F2F" stop-opacity="0"/>
</linearGradient>
<linearGradient id="paint35_linear_136_3965" x1="631.652" y1="35.0799" x2="631.652" y2="396.08" gradientUnits="userSpaceOnUse">
<stop stop-color="#3D3D3D"/>
<stop offset="1" stop-color="#2F2F2F" stop-opacity="0"/>
</linearGradient>
<linearGradient id="paint36_linear_136_3965" x1="631.652" y1="35.0803" x2="631.652" y2="396.08" gradientUnits="userSpaceOnUse">
<stop stop-color="#3D3D3D"/>
<stop offset="1" stop-color="#2F2F2F" stop-opacity="0"/>
</linearGradient>
<linearGradient id="paint37_linear_136_3965" x1="804.109" y1="35.0801" x2="804.109" y2="396.08" gradientUnits="userSpaceOnUse">
<stop stop-color="#3D3D3D"/>
<stop offset="1" stop-color="#2F2F2F" stop-opacity="0"/>
</linearGradient>
<linearGradient id="paint38_linear_136_3965" x1="675.207" y1="-7.91992" x2="675.207" y2="353.08" gradientUnits="userSpaceOnUse">
<stop stop-color="#3D3D3D"/>
<stop offset="1" stop-color="#2F2F2F" stop-opacity="0"/>
</linearGradient>
<linearGradient id="paint39_linear_136_3965" x1="675.207" y1="-7.91994" x2="675.207" y2="353.08" gradientUnits="userSpaceOnUse">
<stop stop-color="#3D3D3D"/>
<stop offset="1" stop-color="#2F2F2F" stop-opacity="0"/>
</linearGradient>
<linearGradient id="paint40_linear_136_3965" x1="675.207" y1="-7.91994" x2="675.207" y2="353.08" gradientUnits="userSpaceOnUse">
<stop stop-color="#3D3D3D"/>
<stop offset="1" stop-color="#2F2F2F" stop-opacity="0"/>
</linearGradient>
<linearGradient id="paint41_linear_136_3965" x1="675.207" y1="-7.92021" x2="675.207" y2="353.08" gradientUnits="userSpaceOnUse">
<stop stop-color="#3D3D3D"/>
<stop offset="1" stop-color="#2F2F2F" stop-opacity="0"/>
</linearGradient>
<linearGradient id="paint42_linear_136_3965" x1="847.664" y1="-7.91992" x2="847.664" y2="353.08" gradientUnits="userSpaceOnUse">
<stop stop-color="#3D3D3D"/>
<stop offset="1" stop-color="#2F2F2F" stop-opacity="0"/>
</linearGradient>
<linearGradient id="paint43_linear_136_3965" x1="847.664" y1="-7.91994" x2="847.664" y2="353.08" gradientUnits="userSpaceOnUse">
<stop stop-color="#3D3D3D"/>
<stop offset="1" stop-color="#2F2F2F" stop-opacity="0"/>
</linearGradient>
<linearGradient id="paint44_linear_136_3965" x1="847.664" y1="-7.91994" x2="847.664" y2="353.08" gradientUnits="userSpaceOnUse">
<stop stop-color="#3D3D3D"/>
<stop offset="1" stop-color="#2F2F2F" stop-opacity="0"/>
</linearGradient>
<linearGradient id="paint45_linear_136_3965" x1="847.664" y1="-7.92021" x2="847.664" y2="353.08" gradientUnits="userSpaceOnUse">
<stop stop-color="#3D3D3D"/>
<stop offset="1" stop-color="#2F2F2F" stop-opacity="0"/>
</linearGradient>
<linearGradient id="paint46_linear_136_3965" x1="717.742" y1="-50.9199" x2="717.742" y2="310.08" gradientUnits="userSpaceOnUse">
<stop stop-color="#3D3D3D"/>
<stop offset="1" stop-color="#2F2F2F" stop-opacity="0"/>
</linearGradient>
<linearGradient id="paint47_linear_136_3965" x1="717.742" y1="-50.9199" x2="717.742" y2="310.08" gradientUnits="userSpaceOnUse">
<stop stop-color="#3D3D3D"/>
<stop offset="1" stop-color="#2F2F2F" stop-opacity="0"/>
</linearGradient>
<linearGradient id="paint48_linear_136_3965" x1="717.742" y1="-50.9199" x2="717.742" y2="310.08" gradientUnits="userSpaceOnUse">
<stop stop-color="#3D3D3D"/>
<stop offset="1" stop-color="#2F2F2F" stop-opacity="0"/>
</linearGradient>
<linearGradient id="paint49_linear_136_3965" x1="890.199" y1="-50.9199" x2="890.199" y2="310.08" gradientUnits="userSpaceOnUse">
<stop stop-color="#3D3D3D"/>
<stop offset="1" stop-color="#2F2F2F" stop-opacity="0"/>
</linearGradient>
<linearGradient id="paint50_linear_136_3965" x1="890.199" y1="-50.9199" x2="890.199" y2="310.08" gradientUnits="userSpaceOnUse">
<stop stop-color="#3D3D3D"/>
<stop offset="1" stop-color="#2F2F2F" stop-opacity="0"/>
</linearGradient>
<linearGradient id="paint51_linear_136_3965" x1="890.199" y1="-50.9199" x2="890.199" y2="310.08" gradientUnits="userSpaceOnUse">
<stop stop-color="#3D3D3D"/>
<stop offset="1" stop-color="#2F2F2F" stop-opacity="0"/>
</linearGradient>
<linearGradient id="paint52_linear_136_3965" x1="890.199" y1="-50.9201" x2="890.199" y2="310.08" gradientUnits="userSpaceOnUse">
<stop stop-color="#3D3D3D"/>
<stop offset="1" stop-color="#2F2F2F" stop-opacity="0"/>
</linearGradient>
<linearGradient id="paint53_linear_136_3965" x1="890.199" y1="-50.9197" x2="890.199" y2="310.08" gradientUnits="userSpaceOnUse">
<stop stop-color="#3D3D3D"/>
<stop offset="1" stop-color="#2F2F2F" stop-opacity="0"/>
</linearGradient>
<linearGradient id="paint54_linear_136_3965" x1="760.926" y1="33.0801" x2="760.926" y2="394.08" gradientUnits="userSpaceOnUse">
<stop stop-color="#3D3D3D"/>
<stop offset="1" stop-color="#2F2F2F" stop-opacity="0"/>
</linearGradient>
<linearGradient id="paint55_linear_136_3965" x1="610.816" y1="113.059" x2="620.127" y2="222.357" gradientUnits="userSpaceOnUse">
<stop stop-color="#133030" stop-opacity="0"/>
<stop offset="0.473958" stop-color="#1C4442" stop-opacity="0.63"/>
<stop offset="1" stop-color="#131313" stop-opacity="0"/>
</linearGradient>
<linearGradient id="paint56_linear_136_3965" x1="735.733" y1="235.9" x2="627.653" y2="245.632" gradientUnits="userSpaceOnUse">
<stop stop-color="#133030" stop-opacity="0"/>
<stop offset="0.473958" stop-color="#1C4442" stop-opacity="0.63"/>
<stop offset="1" stop-color="#131313" stop-opacity="0"/>
</linearGradient>
<linearGradient id="paint57_linear_136_3965" x1="567.437" y1="66.3965" x2="576.748" y2="175.695" gradientUnits="userSpaceOnUse">
<stop stop-color="#133030" stop-opacity="0"/>
<stop offset="0.473958" stop-color="#1C4442" stop-opacity="0.63"/>
<stop offset="1" stop-color="#131313" stop-opacity="0"/>
</linearGradient>
<linearGradient id="paint58_linear_136_3965" x1="566.988" y1="277.818" x2="576.299" y2="387.117" gradientUnits="userSpaceOnUse">
<stop stop-color="#133030" stop-opacity="0"/>
<stop offset="0.473958" stop-color="#1C4442" stop-opacity="0.63"/>
<stop offset="1" stop-color="#131313" stop-opacity="0"/>
</linearGradient>
<linearGradient id="paint59_linear_136_3965" x1="826.585" y1="71" x2="835.896" y2="180.298" gradientUnits="userSpaceOnUse">
<stop stop-color="#133030" stop-opacity="0"/>
<stop offset="0.473958" stop-color="#1C4442" stop-opacity="0.63"/>
<stop offset="1" stop-color="#131313" stop-opacity="0"/>
</linearGradient>
<linearGradient id="paint60_linear_136_3965" x1="869.586" y1="199" x2="878.896" y2="308.299" gradientUnits="userSpaceOnUse">
<stop stop-color="#133030" stop-opacity="0"/>
<stop offset="0.473958" stop-color="#1C4442" stop-opacity="0.63"/>
<stop offset="1" stop-color="#131313" stop-opacity="0"/>
</linearGradient>
<linearGradient id="paint61_linear_136_3965" x1="782.586" y1="328" x2="791.897" y2="437.298" gradientUnits="userSpaceOnUse">
<stop stop-color="#133030" stop-opacity="0"/>
<stop offset="0.473958" stop-color="#1C4442" stop-opacity="0.63"/>
<stop offset="1" stop-color="#131313" stop-opacity="0"/>
</linearGradient>
<clipPath id="clip0_136_3965">
<rect width="920" height="400" fill="white"/>
</clipPath>
</defs>
</svg>
