<svg width="920" height="400" viewBox="0 0 920 400" fill="none" xmlns="http://www.w3.org/2000/svg">
<g clip-path="url(#clip0_136_4202)">
<path d="M927.95 -19.1289H-1.5625V400.287H927.95V-19.1289Z" fill="#101317"/>
<path d="M843.343 167L845.853 171.104H845.935L848.446 167H850.28L847.011 172.246L850.301 177.493H848.456L845.935 173.445H845.853L843.333 177.493H841.488L844.834 172.246L841.509 167H843.343Z" fill="url(#paint0_linear_136_4202)"/>
<path d="M756.2 338L759.12 346.546H759.238L762.158 338H763.869L760.093 348.493H758.264L754.488 338H756.2Z" fill="url(#paint1_linear_136_4202)"/>
<path d="M763.541 299.556H761.943C761.881 299.214 761.767 298.914 761.6 298.654C761.432 298.394 761.227 298.174 760.985 297.993C760.742 297.812 760.471 297.675 760.17 297.583C759.873 297.491 759.557 297.445 759.222 297.445C758.618 297.445 758.076 297.597 757.598 297.901C757.123 298.205 756.748 298.651 756.471 299.238C756.198 299.826 756.061 300.543 756.061 301.39C756.061 302.244 756.198 302.964 756.471 303.552C756.748 304.139 757.125 304.583 757.603 304.884C758.082 305.185 758.619 305.335 759.217 305.335C759.549 305.335 759.863 305.291 760.16 305.202C760.461 305.109 760.732 304.975 760.975 304.797C761.217 304.619 761.422 304.402 761.589 304.146C761.76 303.887 761.878 303.59 761.943 303.255L763.541 303.26C763.456 303.776 763.29 304.25 763.044 304.684C762.802 305.115 762.489 305.487 762.107 305.801C761.728 306.112 761.294 306.353 760.805 306.524C760.317 306.694 759.784 306.78 759.207 306.78C758.298 306.78 757.489 306.565 756.778 306.134C756.068 305.7 755.508 305.08 755.098 304.274C754.692 303.468 754.488 302.507 754.488 301.39C754.488 300.27 754.693 299.308 755.103 298.505C755.513 297.699 756.073 297.081 756.784 296.651C757.494 296.217 758.302 296 759.207 296C759.764 296 760.283 296.08 760.764 296.241C761.25 296.398 761.685 296.63 762.071 296.938C762.457 297.242 762.776 297.614 763.029 298.054C763.282 298.492 763.453 298.992 763.541 299.556Z" fill="url(#paint2_linear_136_4202)"/>
<path d="M668.488 264.493V254H672.331C673.075 254 673.692 254.123 674.18 254.369C674.669 254.611 675.034 254.941 675.277 255.358C675.519 255.771 675.641 256.237 675.641 256.756C675.641 257.194 675.56 257.562 675.4 257.863C675.239 258.16 675.024 258.399 674.754 258.58C674.488 258.758 674.194 258.888 673.873 258.97V259.072C674.221 259.089 674.561 259.202 674.893 259.41C675.227 259.615 675.504 259.907 675.723 260.286C675.941 260.666 676.05 261.127 676.05 261.67C676.05 262.206 675.924 262.688 675.671 263.115C675.422 263.538 675.036 263.875 674.513 264.124C673.991 264.37 673.323 264.493 672.51 264.493H668.488ZM670.071 263.135H672.356C673.115 263.135 673.658 262.988 673.986 262.694C674.314 262.401 674.478 262.034 674.478 261.593C674.478 261.262 674.394 260.958 674.227 260.681C674.059 260.404 673.82 260.184 673.509 260.02C673.202 259.856 672.836 259.774 672.413 259.774H670.071V263.135ZM670.071 258.539H672.193C672.548 258.539 672.867 258.471 673.151 258.334C673.438 258.198 673.665 258.007 673.832 257.761C674.003 257.511 674.088 257.218 674.088 256.879C674.088 256.446 673.936 256.082 673.632 255.788C673.328 255.494 672.862 255.347 672.234 255.347H670.071V258.539Z" fill="url(#paint3_linear_136_4202)"/>
<path d="M626.488 354.493V344H628.071V349.011H628.2L632.601 344H634.594L630.362 348.724L634.609 354.493H632.703L629.311 349.805L628.071 351.229V354.493H626.488Z" fill="url(#paint4_linear_136_4202)"/>
<path d="M798.488 339H800.287L803.028 343.77H803.14L805.881 339H807.68L803.873 345.374V349.493H802.295V345.374L798.488 339Z" fill="url(#paint5_linear_136_4202)"/>
<path d="M672.684 130.234H674.242L675.338 131.664L675.856 132.299L677.603 134.579H675.984L674.816 133.057L674.416 132.504L672.684 130.234ZM677.941 128.39C677.941 129.51 677.736 130.473 677.326 131.279C676.916 132.082 676.354 132.7 675.641 133.134C674.93 133.565 674.122 133.78 673.217 133.78C672.309 133.78 671.497 133.565 670.784 133.134C670.073 132.7 669.513 132.08 669.103 131.274C668.693 130.468 668.488 129.507 668.488 128.39C668.488 127.27 668.693 126.308 669.103 125.505C669.513 124.699 670.073 124.081 670.784 123.651C671.497 123.217 672.309 123 673.217 123C674.122 123 674.93 123.217 675.641 123.651C676.354 124.081 676.916 124.699 677.326 125.505C677.736 126.308 677.941 127.27 677.941 128.39ZM676.373 128.39C676.373 127.536 676.235 126.817 675.958 126.233C675.685 125.645 675.309 125.201 674.831 124.901C674.356 124.597 673.818 124.445 673.217 124.445C672.613 124.445 672.073 124.597 671.598 124.901C671.123 125.201 670.748 125.645 670.471 126.233C670.198 126.817 670.061 127.536 670.061 128.39C670.061 129.244 670.198 129.964 670.471 130.552C670.748 131.136 671.123 131.58 671.598 131.884C672.073 132.185 672.613 132.335 673.217 132.335C673.818 132.335 674.356 132.185 674.831 131.884C675.309 131.58 675.685 131.136 675.958 130.552C676.235 129.964 676.373 129.244 676.373 128.39Z" fill="url(#paint6_linear_136_4202)"/>
<path d="M712.488 133.493V123H716.331C717.075 123 717.692 123.123 718.18 123.369C718.669 123.611 719.034 123.941 719.277 124.358C719.519 124.771 719.641 125.237 719.641 125.756C719.641 126.194 719.56 126.562 719.4 126.863C719.239 127.16 719.024 127.399 718.754 127.58C718.488 127.758 718.194 127.888 717.873 127.97V128.072C718.221 128.089 718.561 128.202 718.893 128.41C719.227 128.615 719.504 128.907 719.723 129.286C719.941 129.666 720.05 130.127 720.05 130.67C720.05 131.206 719.924 131.688 719.671 132.115C719.422 132.538 719.036 132.875 718.513 133.124C717.991 133.37 717.323 133.493 716.51 133.493H712.488ZM714.071 132.135H716.356C717.115 132.135 717.658 131.988 717.986 131.694C718.314 131.401 718.478 131.034 718.478 130.593C718.478 130.262 718.394 129.958 718.227 129.681C718.059 129.404 717.82 129.184 717.509 129.02C717.202 128.856 716.836 128.774 716.413 128.774H714.071V132.135ZM714.071 127.539H716.193C716.548 127.539 716.867 127.471 717.151 127.334C717.438 127.198 717.665 127.007 717.832 126.761C718.003 126.511 718.088 126.218 718.088 125.879C718.088 125.446 717.936 125.082 717.632 124.788C717.328 124.494 716.862 124.347 716.234 124.347H714.071V127.539Z" fill="url(#paint7_linear_136_4202)"/>
<path d="M669.488 166.363V165H677.609V166.363H674.335V175.493H672.757V166.363H669.488Z" fill="url(#paint8_linear_136_4202)"/>
<path d="M761.626 125.9C761.572 125.415 761.346 125.039 760.95 124.773C760.554 124.503 760.055 124.368 759.454 124.368C759.023 124.368 758.651 124.436 758.337 124.573C758.023 124.706 757.778 124.891 757.604 125.126C757.433 125.358 757.348 125.623 757.348 125.92C757.348 126.17 757.406 126.385 757.522 126.566C757.642 126.747 757.797 126.899 757.989 127.022C758.183 127.141 758.392 127.242 758.614 127.324C758.836 127.403 759.049 127.468 759.254 127.519L760.279 127.785C760.613 127.867 760.957 127.978 761.309 128.118C761.66 128.258 761.987 128.443 762.287 128.672C762.588 128.9 762.83 129.184 763.015 129.522C763.202 129.86 763.296 130.265 763.296 130.736C763.296 131.331 763.143 131.858 762.835 132.32C762.531 132.781 762.089 133.144 761.508 133.411C760.931 133.677 760.233 133.81 759.413 133.81C758.627 133.81 757.948 133.686 757.374 133.436C756.8 133.187 756.351 132.834 756.026 132.376C755.702 131.915 755.522 131.368 755.488 130.736H757.077C757.107 131.116 757.23 131.431 757.445 131.684C757.664 131.934 757.942 132.12 758.281 132.243C758.622 132.362 758.996 132.422 759.403 132.422C759.85 132.422 760.248 132.352 760.596 132.212C760.948 132.068 761.225 131.87 761.426 131.618C761.628 131.361 761.729 131.063 761.729 130.721C761.729 130.41 761.64 130.156 761.462 129.958C761.288 129.76 761.051 129.596 760.75 129.466C760.453 129.336 760.116 129.222 759.741 129.123L758.501 128.784C757.661 128.556 756.995 128.219 756.503 127.775C756.014 127.331 755.77 126.744 755.77 126.013C755.77 125.408 755.934 124.88 756.262 124.429C756.59 123.979 757.034 123.628 757.594 123.379C758.154 123.126 758.786 123 759.49 123C760.2 123 760.827 123.125 761.37 123.374C761.916 123.623 762.347 123.967 762.661 124.404C762.975 124.838 763.139 125.336 763.153 125.9H761.626Z" fill="url(#paint9_linear_136_4202)"/>
<path d="M713.343 166L715.853 170.104H715.935L718.446 166H720.28L717.011 171.246L720.301 176.493H718.456L715.935 172.445H715.853L713.333 176.493H711.488L714.834 171.246L711.509 166H713.343Z" fill="url(#paint10_linear_136_4202)"/>
<path d="M842.2 211L845.12 219.546H845.238L848.158 211H849.869L846.093 221.493H844.264L840.488 211H842.2Z" fill="url(#paint11_linear_136_4202)"/>
<path d="M672.885 220.493H669.488V210H672.993C674.021 210 674.904 210.21 675.642 210.63C676.379 211.047 676.945 211.646 677.337 212.429C677.734 213.207 677.932 214.141 677.932 215.231C677.932 216.324 677.732 217.263 677.332 218.049C676.936 218.835 676.362 219.439 675.611 219.863C674.859 220.283 673.951 220.493 672.885 220.493ZM671.071 219.109H672.798C673.597 219.109 674.262 218.959 674.791 218.659C675.32 218.355 675.717 217.916 675.98 217.342C676.243 216.765 676.374 216.061 676.374 215.231C676.374 214.408 676.243 213.709 675.98 213.136C675.72 212.562 675.332 212.126 674.817 211.829C674.301 211.532 673.66 211.383 672.895 211.383H671.071V219.109Z" fill="#0A9E73"/>
<path d="M850.541 254.556H848.943C848.881 254.214 848.767 253.914 848.6 253.654C848.432 253.394 848.227 253.174 847.985 252.993C847.742 252.812 847.471 252.675 847.17 252.583C846.873 252.491 846.557 252.445 846.222 252.445C845.618 252.445 845.076 252.597 844.598 252.901C844.123 253.205 843.748 253.651 843.471 254.238C843.198 254.826 843.061 255.543 843.061 256.39C843.061 257.244 843.198 257.964 843.471 258.552C843.748 259.139 844.125 259.583 844.603 259.884C845.082 260.185 845.619 260.335 846.217 260.335C846.549 260.335 846.863 260.291 847.16 260.202C847.461 260.109 847.732 259.975 847.975 259.797C848.217 259.619 848.422 259.402 848.589 259.146C848.76 258.887 848.878 258.59 848.943 258.255L850.541 258.26C850.456 258.776 850.29 259.25 850.044 259.684C849.802 260.115 849.489 260.487 849.107 260.801C848.728 261.112 848.294 261.353 847.805 261.524C847.317 261.694 846.784 261.78 846.207 261.78C845.298 261.78 844.489 261.565 843.778 261.134C843.068 260.7 842.508 260.08 842.098 259.274C841.692 258.468 841.488 257.507 841.488 256.39C841.488 255.27 841.693 254.308 842.103 253.505C842.513 252.699 843.073 252.081 843.784 251.651C844.494 251.217 845.302 251 846.207 251C846.764 251 847.283 251.08 847.764 251.241C848.25 251.398 848.685 251.63 849.071 251.938C849.457 252.242 849.776 252.614 850.029 253.054C850.282 253.492 850.453 253.992 850.541 254.556Z" fill="#0A9E73"/>
<path d="M755.488 264.493V254H757.071V259.011H757.2L761.601 254H763.594L759.362 258.724L763.609 264.493H761.703L758.311 259.805L757.071 261.229V264.493H755.488Z" fill="url(#paint12_linear_136_4202)"/>
<path d="M888.488 220.493V210H894.995V211.363H890.071V214.56H894.529V215.918H890.071V220.493H888.488Z" fill="url(#paint13_linear_136_4202)"/>
<path d="M802.684 173.234H804.242L805.338 174.664L805.856 175.299L807.603 177.579H805.984L804.816 176.057L804.416 175.504L802.684 173.234ZM807.941 171.39C807.941 172.51 807.736 173.473 807.326 174.279C806.916 175.082 806.354 175.7 805.641 176.134C804.93 176.565 804.122 176.78 803.217 176.78C802.309 176.78 801.497 176.565 800.784 176.134C800.073 175.7 799.513 175.08 799.103 174.274C798.693 173.468 798.488 172.507 798.488 171.39C798.488 170.27 798.693 169.308 799.103 168.505C799.513 167.699 800.073 167.081 800.784 166.651C801.497 166.217 802.309 166 803.217 166C804.122 166 804.93 166.217 805.641 166.651C806.354 167.081 806.916 167.699 807.326 168.505C807.736 169.308 807.941 170.27 807.941 171.39ZM806.373 171.39C806.373 170.536 806.235 169.817 805.958 169.233C805.685 168.645 805.309 168.201 804.831 167.901C804.356 167.597 803.818 167.445 803.217 167.445C802.613 167.445 802.073 167.597 801.598 167.901C801.123 168.201 800.748 168.645 800.471 169.233C800.198 169.817 800.061 170.536 800.061 171.39C800.061 172.244 800.198 172.964 800.471 173.552C800.748 174.136 801.123 174.58 801.598 174.884C802.073 175.185 802.613 175.335 803.217 175.335C803.818 175.335 804.356 175.185 804.831 174.884C805.309 174.58 805.685 174.136 805.958 173.552C806.235 172.964 806.373 172.244 806.373 171.39Z" fill="url(#paint14_linear_136_4202)"/>
<path d="M842.488 135.493V125H846.228C847.045 125 847.721 125.149 848.257 125.446C848.794 125.743 849.195 126.149 849.461 126.665C849.728 127.177 849.861 127.755 849.861 128.397C849.861 129.042 849.726 129.623 849.456 130.139C849.19 130.651 848.787 131.058 848.247 131.358C847.711 131.655 847.036 131.804 846.223 131.804H843.651V130.462H846.08C846.596 130.462 847.014 130.373 847.335 130.195C847.656 130.014 847.892 129.768 848.042 129.457C848.192 129.147 848.268 128.793 848.268 128.397C848.268 128.001 848.192 127.649 848.042 127.341C847.892 127.034 847.654 126.793 847.33 126.619C847.009 126.445 846.585 126.358 846.059 126.358H844.071V135.493H842.488Z" fill="url(#paint15_linear_136_4202)"/>
<path d="M755.488 220.493V210H759.331C760.075 210 760.692 210.123 761.18 210.369C761.669 210.611 762.034 210.941 762.277 211.358C762.519 211.771 762.641 212.237 762.641 212.756C762.641 213.194 762.56 213.562 762.4 213.863C762.239 214.16 762.024 214.399 761.754 214.58C761.488 214.758 761.194 214.888 760.873 214.97V215.072C761.221 215.089 761.561 215.202 761.893 215.41C762.227 215.615 762.504 215.907 762.723 216.286C762.941 216.666 763.05 217.127 763.05 217.67C763.05 218.206 762.924 218.688 762.671 219.115C762.422 219.538 762.036 219.875 761.513 220.124C760.991 220.37 760.323 220.493 759.51 220.493H755.488ZM757.071 219.135H759.356C760.115 219.135 760.658 218.988 760.986 218.694C761.314 218.401 761.478 218.034 761.478 217.593C761.478 217.262 761.394 216.958 761.227 216.681C761.059 216.404 760.82 216.184 760.509 216.02C760.202 215.856 759.836 215.774 759.413 215.774H757.071V219.135ZM757.071 214.539H759.193C759.548 214.539 759.867 214.471 760.151 214.334C760.438 214.198 760.665 214.007 760.832 213.761C761.003 213.511 761.088 213.218 761.088 212.879C761.088 212.446 760.936 212.082 760.632 211.788C760.328 211.494 759.862 211.347 759.234 211.347H757.071V214.539Z" fill="url(#paint16_linear_136_4202)"/>
<path d="M755.398 177.493L752.488 167H754.153L756.198 175.126H756.295L758.421 167H760.071L762.197 175.131H762.295L764.334 167H766.004L763.089 177.493H761.495L759.287 169.633H759.205L756.997 177.493H755.398Z" fill="url(#paint17_linear_136_4202)"/>
<path d="M713.169 220.493H711.488L715.264 210H717.093L720.869 220.493H719.189L716.222 211.906H716.14L713.169 220.493ZM713.451 216.384H718.902V217.716H713.451V216.384Z" fill="url(#paint18_linear_136_4202)"/>
<path d="M799.398 220.493L796.488 210H798.153L800.198 218.126H800.295L802.421 210H804.071L806.197 218.131H806.295L808.334 210H810.004L807.089 220.493H805.495L803.287 212.633H803.205L800.997 220.493H799.398Z" fill="url(#paint19_linear_136_4202)"/>
<path d="M798.488 133.493V123H800.071V127.56H805.302V123H806.891V133.493H805.302V128.918H800.071V133.493H798.488Z" fill="#0A9E73"/>
<path d="M436.566 408.359L393.515 408.359L393.515 365.308L436.566 365.308L436.566 408.359Z" stroke="#1A1A1A" stroke-width="1.16139"/>
<path d="M651.868 408.359L608.816 408.359L608.816 365.308L651.868 365.308L651.868 408.359Z" stroke="#1A1A1A" stroke-width="1.16139"/>
<path d="M867.122 408.359L824.07 408.359L824.07 365.308L867.122 365.308L867.122 408.359Z" stroke="#1A1A1A" stroke-width="1.16139"/>
<path d="M436.566 365.311L393.515 365.311L393.515 322.26L436.566 322.26L436.566 365.311Z" stroke="#1A1A1A" stroke-width="1.16139"/>
<path d="M221.31 365.311L178.258 365.311L178.258 322.26L221.31 322.26L221.31 365.311Z" stroke="#1A1A1A" stroke-width="1.16139"/>
<path d="M651.868 365.311L608.816 365.311L608.816 322.26L651.868 322.26L651.868 365.311Z" stroke="#1A1A1A" stroke-width="1.16139"/>
<path d="M867.122 365.311L824.07 365.311L824.07 322.26L867.122 322.26L867.122 365.311Z" stroke="#1A1A1A" stroke-width="1.16139"/>
<path d="M479.614 408.359L436.562 408.359L436.562 365.308L479.614 365.308L479.614 408.359Z" stroke="#1A1A1A" stroke-width="1.16139"/>
<path d="M264.359 408.359L221.308 408.359L221.308 365.308L264.359 365.308L264.359 408.359Z" stroke="#1A1A1A" stroke-width="1.16139"/>
<path d="M694.918 408.359L651.867 408.359L651.867 365.308L694.918 365.308L694.918 408.359Z" stroke="#1A1A1A" stroke-width="1.16139"/>
<path d="M910.177 408.359L867.125 408.359L867.125 365.308L910.177 365.308L910.177 408.359Z" stroke="#1A1A1A" stroke-width="1.16139"/>
<path d="M479.614 365.311L436.562 365.311L436.562 322.26L479.614 322.26L479.614 365.311Z" stroke="#1A1A1A" stroke-width="1.16139"/>
<path d="M264.359 365.311L221.308 365.311L221.308 322.26L264.359 322.26L264.359 365.311Z" stroke="#1A1A1A" stroke-width="1.16139"/>
<path d="M694.918 365.311L651.867 365.311L651.867 322.26L694.918 322.26L694.918 365.311Z" stroke="#1A1A1A" stroke-width="1.16139"/>
<path d="M910.177 365.311L867.125 365.311L867.125 322.26L910.177 322.26L910.177 365.311Z" stroke="#1A1A1A" stroke-width="1.16139"/>
<path d="M522.668 408.359L479.617 408.359L479.617 365.308L522.668 365.308L522.668 408.359Z" stroke="#1A1A1A" stroke-width="1.16139"/>
<path d="M307.411 408.359L264.359 408.359L264.359 365.308L307.411 365.308L307.411 408.359Z" stroke="#1A1A1A" stroke-width="1.16139"/>
<path d="M737.97 408.359L694.918 408.359L694.918 365.308L737.97 365.308L737.97 408.359Z" stroke="#1A1A1A" stroke-width="1.16139"/>
<path d="M522.668 365.311L479.617 365.311L479.617 322.26L522.668 322.26L522.668 365.311Z" stroke="#1A1A1A" stroke-width="1.16139"/>
<path d="M307.411 365.311L264.359 365.311L264.359 322.26L307.411 322.26L307.411 365.311Z" stroke="#1A1A1A" stroke-width="1.16139"/>
<path d="M737.97 365.311L694.918 365.311L694.918 322.26L737.97 322.26L737.97 365.311Z" stroke="#1A1A1A" stroke-width="1.16139"/>
<path d="M565.72 408.359L522.668 408.359L522.668 365.308L565.72 365.308L565.72 408.359Z" stroke="#1A1A1A" stroke-width="1.16139"/>
<path d="M350.461 408.359L307.41 408.359L307.41 365.308L350.461 365.308L350.461 408.359Z" stroke="#1A1A1A" stroke-width="1.16139"/>
<path d="M565.72 365.311L522.668 365.311L522.668 322.26L565.72 322.26L565.72 365.311Z" stroke="#1A1A1A" stroke-width="1.16139"/>
<path d="M350.461 365.311L307.41 365.311L307.41 322.26L350.461 322.26L350.461 365.311Z" stroke="#1A1A1A" stroke-width="1.16139"/>
<path d="M781.023 365.311L737.972 365.311L737.972 322.26L781.023 322.26L781.023 365.311Z" stroke="#1A1A1A" stroke-width="1.16139"/>
<path d="M135.208 365.311L92.1562 365.311L92.1562 322.26L135.208 322.26L135.208 365.311Z" stroke="#1A1A1A" stroke-width="1.16139"/>
<path d="M608.773 408.359L565.722 408.359L565.722 365.308L608.773 365.308L608.773 408.359Z" stroke="#1A1A1A" stroke-width="1.16139"/>
<path d="M393.517 408.359L350.465 408.359L350.465 365.308L393.517 365.308L393.517 408.359Z" stroke="#1A1A1A" stroke-width="1.16139"/>
<path d="M824.079 408.359L781.027 408.359L781.027 365.308L824.079 365.308L824.079 408.359Z" stroke="#1A1A1A" stroke-width="1.16139"/>
<path d="M608.773 365.311L565.722 365.311L565.722 322.26L608.773 322.26L608.773 365.311Z" stroke="#1A1A1A" stroke-width="1.16139"/>
<path d="M393.517 365.311L350.465 365.311L350.465 322.26L393.517 322.26L393.517 365.311Z" stroke="#1A1A1A" stroke-width="1.16139"/>
<path d="M824.079 365.311L781.027 365.311L781.027 322.26L824.079 322.26L824.079 365.311Z" stroke="#1A1A1A" stroke-width="1.16139"/>
<path d="M436.566 322.258L393.515 322.258L393.515 279.207L436.566 279.207L436.566 322.258Z" stroke="#1A1A1A" stroke-width="1.16139"/>
<path d="M221.31 322.258L178.258 322.258L178.258 279.207L221.31 279.207L221.31 322.258Z" stroke="#1A1A1A" stroke-width="1.16139"/>
<path d="M651.868 322.258L608.816 322.258L608.816 279.207L651.868 279.207L651.868 322.258Z" stroke="#1A1A1A" stroke-width="1.16139"/>
<path d="M867.122 322.258L824.07 322.258L824.07 279.207L867.122 279.207L867.122 322.258Z" stroke="#1A1A1A" stroke-width="1.16139"/>
<path d="M436.566 279.205L393.515 279.205L393.515 236.154L436.566 236.154L436.566 279.205Z" stroke="#1A1A1A" stroke-width="1.16139"/>
<path d="M221.31 279.205L178.258 279.205L178.258 236.154L221.31 236.154L221.31 279.205Z" stroke="#1A1A1A" stroke-width="1.16139"/>
<path d="M651.868 279.205L608.816 279.205L608.816 236.154L651.868 236.154L651.868 279.205Z" stroke="#1A1A1A" stroke-width="1.16139"/>
<path d="M479.614 322.258L436.562 322.258L436.562 279.207L479.614 279.207L479.614 322.258Z" stroke="#1A1A1A" stroke-width="1.16139"/>
<path d="M264.359 322.258L221.308 322.258L221.308 279.207L264.359 279.207L264.359 322.258Z" stroke="#1A1A1A" stroke-width="1.16139"/>
<path d="M694.918 322.258L651.867 322.258L651.867 279.207L694.918 279.207L694.918 322.258Z" stroke="#1A1A1A" stroke-width="1.16139"/>
<path d="M910.177 322.258L867.125 322.258L867.125 279.207L910.177 279.207L910.177 322.258Z" stroke="#1A1A1A" stroke-width="1.16139"/>
<path d="M264.359 279.205L221.308 279.205L221.308 236.154L264.359 236.154L264.359 279.205Z" stroke="#1A1A1A" stroke-width="1.16139"/>
<path d="M694.918 279.205L651.867 279.205L651.867 236.154L694.918 236.154L694.918 279.205Z" stroke="#1A1A1A" stroke-width="1.16139"/>
<path d="M522.668 322.258L479.617 322.258L479.617 279.207L522.668 279.207L522.668 322.258Z" stroke="#1A1A1A" stroke-width="1.16139"/>
<path d="M307.411 322.258L264.359 322.258L264.359 279.207L307.411 279.207L307.411 322.258Z" stroke="#1A1A1A" stroke-width="1.16139"/>
<path d="M737.97 322.258L694.918 322.258L694.918 279.207L737.97 279.207L737.97 322.258Z" stroke="#1A1A1A" stroke-width="1.16139"/>
<path d="M953.228 322.258L910.176 322.258L910.176 279.207L953.228 279.207L953.228 322.258Z" stroke="#1A1A1A" stroke-width="1.16139"/>
<path d="M522.668 279.205L479.617 279.205L479.617 236.154L522.668 236.154L522.668 279.205Z" stroke="#1A1A1A" stroke-width="1.16139"/>
<path d="M307.411 279.205L264.359 279.205L264.359 236.154L307.411 236.154L307.411 279.205Z" stroke="#1A1A1A" stroke-width="1.16139"/>
<path d="M737.97 279.205L694.918 279.205L694.918 236.154L737.97 236.154L737.97 279.205Z" stroke="#1A1A1A" stroke-width="1.16139"/>
<path d="M350.461 322.258L307.41 322.258L307.41 279.207L350.461 279.207L350.461 322.258Z" stroke="#1A1A1A" stroke-width="1.16139"/>
<path d="M781.023 322.258L737.972 322.258L737.972 279.207L781.023 279.207L781.023 322.258Z" stroke="#1A1A1A" stroke-width="1.16139"/>
<path d="M565.72 279.205L522.668 279.205L522.668 236.154L565.72 236.154L565.72 279.205Z" stroke="#1A1A1A" stroke-width="1.16139"/>
<path d="M350.461 279.205L307.41 279.205L307.41 236.154L350.461 236.154L350.461 279.205Z" stroke="#1A1A1A" stroke-width="1.16139"/>
<path d="M781.023 279.205L737.972 279.205L737.972 236.154L781.023 236.154L781.023 279.205Z" stroke="#1A1A1A" stroke-width="1.16139"/>
<path d="M135.208 279.205L92.1562 279.205L92.1562 236.154L135.208 236.154L135.208 279.205Z" stroke="#1A1A1A" stroke-width="1.16139"/>
<path d="M608.773 322.258L565.722 322.258L565.722 279.207L608.773 279.207L608.773 322.258Z" stroke="#1A1A1A" stroke-width="1.16139"/>
<path d="M393.517 322.258L350.465 322.258L350.465 279.207L393.517 279.207L393.517 322.258Z" stroke="#1A1A1A" stroke-width="1.16139"/>
<path d="M824.079 322.258L781.027 322.258L781.027 279.207L824.079 279.207L824.079 322.258Z" stroke="#1A1A1A" stroke-width="1.16139"/>
<path d="M178.258 322.258L135.207 322.258L135.207 279.207L178.258 279.207L178.258 322.258Z" stroke="#1A1A1A" stroke-width="1.16139"/>
<path d="M608.773 279.205L565.722 279.205L565.722 236.154L608.773 236.154L608.773 279.205Z" stroke="#1A1A1A" stroke-width="1.16139"/>
<path d="M393.517 279.205L350.465 279.205L350.465 236.154L393.517 236.154L393.517 279.205Z" stroke="#1A1A1A" stroke-width="1.16139"/>
<path d="M178.258 279.205L135.207 279.205L135.207 236.154L178.258 236.154L178.258 279.205Z" stroke="#1A1A1A" stroke-width="1.16139"/>
<path d="M436.566 236.154L393.515 236.154L393.515 193.103L436.566 193.103L436.566 236.154Z" stroke="#1A1A1A" stroke-width="1.16139"/>
<path d="M221.31 236.154L178.258 236.154L178.258 193.103L221.31 193.103L221.31 236.154Z" stroke="#1A1A1A" stroke-width="1.16139"/>
<path d="M436.566 193.105L393.515 193.105L393.515 150.054L436.566 150.054L436.566 193.105Z" stroke="#1A1A1A" stroke-width="1.16139"/>
<path d="M221.31 193.105L178.258 193.105L178.258 150.054L221.31 150.054L221.31 193.105Z" stroke="#1A1A1A" stroke-width="1.16139"/>
<path d="M867.122 193.105L824.07 193.105L824.07 150.054L867.122 150.054L867.122 193.105Z" stroke="#1A1A1A" stroke-width="1.16139"/>
<path d="M6.0513 193.105L-37 193.105L-37 150.054L6.0513 150.054L6.0513 193.105Z" stroke="#1A1A1A" stroke-width="1.16139"/>
<path d="M479.614 236.154L436.562 236.154L436.562 193.103L479.614 193.103L479.614 236.154Z" stroke="#1A1A1A" stroke-width="1.16139"/>
<path d="M264.359 236.154L221.308 236.154L221.308 193.103L264.359 193.103L264.359 236.154Z" stroke="#1A1A1A" stroke-width="1.16139"/>
<path d="M694.918 236.154L651.867 236.154L651.867 193.103L694.918 193.103L694.918 236.154Z" stroke="#1A1A1A" stroke-width="1.16139"/>
<path d="M479.614 193.105L436.562 193.105L436.562 150.054L479.614 150.054L479.614 193.105Z" stroke="#1A1A1A" stroke-width="1.16139"/>
<path d="M264.359 193.105L221.308 193.105L221.308 150.054L264.359 150.054L264.359 193.105Z" stroke="#1A1A1A" stroke-width="1.16139"/>
<path d="M49.1021 193.105L6.05078 193.105L6.05078 150.054L49.1021 150.054L49.1021 193.105Z" stroke="#1A1A1A" stroke-width="1.16139"/>
<path d="M522.668 236.154L479.617 236.154L479.617 193.103L522.668 193.103L522.668 236.154Z" stroke="#1A1A1A" stroke-width="1.16139"/>
<path d="M307.411 236.154L264.359 236.154L264.359 193.103L307.411 193.103L307.411 236.154Z" stroke="#1A1A1A" stroke-width="1.16139"/>
<path d="M737.97 193.105L694.918 193.105L694.918 150.054L737.97 150.054L737.97 193.105Z" stroke="#1A1A1A" stroke-width="1.16139"/>
<path d="M953.228 193.105L910.176 193.105L910.176 150.054L953.228 150.054L953.228 193.105Z" stroke="#1A1A1A" stroke-width="1.16139"/>
<path d="M92.1568 193.105L49.1055 193.105L49.1055 150.054L92.1568 150.054L92.1568 193.105Z" stroke="#1A1A1A" stroke-width="1.16139"/>
<path d="M565.72 236.154L522.668 236.154L522.668 193.103L565.72 193.103L565.72 236.154Z" stroke="#1A1A1A" stroke-width="1.16139"/>
<path d="M350.461 236.154L307.41 236.154L307.41 193.103L350.461 193.103L350.461 236.154Z" stroke="#1A1A1A" stroke-width="1.16139"/>
<path d="M781.023 236.154L737.972 236.154L737.972 193.103L781.023 193.103L781.023 236.154Z" stroke="#1A1A1A" stroke-width="1.16139"/>
<path d="M135.208 236.154L92.1562 236.154L92.1562 193.103L135.208 193.103L135.208 236.154Z" stroke="#1A1A1A" stroke-width="1.16139"/>
<path d="M565.72 193.105L522.668 193.105L522.668 150.054L565.72 150.054L565.72 193.105Z" stroke="#1A1A1A" stroke-width="1.16139"/>
<path d="M350.461 193.105L307.41 193.105L307.41 150.054L350.461 150.054L350.461 193.105Z" stroke="#1A1A1A" stroke-width="1.16139"/>
<path d="M781.023 193.105L737.972 193.105L737.972 150.054L781.023 150.054L781.023 193.105Z" stroke="#1A1A1A" stroke-width="1.16139"/>
<path d="M135.208 193.105L92.1562 193.105L92.1562 150.054L135.208 150.054L135.208 193.105Z" stroke="#1A1A1A" stroke-width="1.16139"/>
<path d="M178.258 236.154L135.207 236.154L135.207 193.103L178.258 193.103L178.258 236.154Z" stroke="#1A1A1A" stroke-width="1.16139"/>
<path d="M393.517 193.105L350.465 193.105L350.465 150.054L393.517 150.054L393.517 193.105Z" stroke="#1A1A1A" stroke-width="1.16139"/>
<path d="M824.079 193.105L781.027 193.105L781.027 150.054L824.079 150.054L824.079 193.105Z" stroke="#1A1A1A" stroke-width="1.16139"/>
<path d="M436.566 150.053L393.515 150.053L393.515 107.002L436.566 107.002L436.566 150.053Z" stroke="#1A1A1A" stroke-width="1.16139"/>
<path d="M867.122 150.053L824.07 150.053L824.07 107.002L867.122 107.002L867.122 150.053Z" stroke="#1A1A1A" stroke-width="1.16139"/>
<path d="M6.0513 150.053L-37 150.053L-37 107.002L6.0513 107.002L6.0513 150.053Z" stroke="#1A1A1A" stroke-width="1.16139"/>
<path d="M436.566 107.002L393.515 107.002L393.515 63.9507L436.566 63.9507L436.566 107.002Z" stroke="#1A1A1A" stroke-width="1.16139"/>
<path d="M867.122 107.002L824.07 107.002L824.07 63.9507L867.122 63.9507L867.122 107.002Z" stroke="#1A1A1A" stroke-width="1.16139"/>
<path d="M6.0513 107.002L-37 107.002L-37 63.9507L6.0513 63.9507L6.0513 107.002Z" stroke="#1A1A1A" stroke-width="1.16139"/>
<path d="M479.614 150.053L436.562 150.053L436.562 107.002L479.614 107.002L479.614 150.053Z" stroke="#1A1A1A" stroke-width="1.16139"/>
<path d="M264.359 150.053L221.308 150.053L221.308 107.002L264.359 107.002L264.359 150.053Z" stroke="#1A1A1A" stroke-width="1.16139"/>
<path d="M910.177 150.053L867.125 150.053L867.125 107.002L910.177 107.002L910.177 150.053Z" stroke="#1A1A1A" stroke-width="1.16139"/>
<path d="M49.1021 150.053L6.05078 150.053L6.05078 107.002L49.1021 107.002L49.1021 150.053Z" stroke="#1A1A1A" stroke-width="1.16139"/>
<path d="M479.614 107.002L436.562 107.002L436.562 63.9507L479.614 63.9507L479.614 107.002Z" stroke="#1A1A1A" stroke-width="1.16139"/>
<path d="M264.359 107.002L221.308 107.002L221.308 63.9507L264.359 63.9507L264.359 107.002Z" stroke="#1A1A1A" stroke-width="1.16139"/>
<path d="M910.177 107.002L867.125 107.002L867.125 63.9507L910.177 63.9507L910.177 107.002Z" stroke="#1A1A1A" stroke-width="1.16139"/>
<path d="M49.1021 107.002L6.05078 107.002L6.05078 63.9507L49.1021 63.9507L49.1021 107.002Z" stroke="#1A1A1A" stroke-width="1.16139"/>
<path d="M522.668 150.053L479.617 150.053L479.617 107.002L522.668 107.002L522.668 150.053Z" stroke="#1A1A1A" stroke-width="1.16139"/>
<path d="M307.411 150.053L264.359 150.053L264.359 107.002L307.411 107.002L307.411 150.053Z" stroke="#1A1A1A" stroke-width="1.16139"/>
<path d="M953.228 150.053L910.176 150.053L910.176 107.002L953.228 107.002L953.228 150.053Z" stroke="#1A1A1A" stroke-width="1.16139"/>
<path d="M92.1568 150.053L49.1055 150.053L49.1055 107.002L92.1568 107.002L92.1568 150.053Z" stroke="#1A1A1A" stroke-width="1.16139"/>
<path d="M522.668 107.002L479.617 107.002L479.617 63.9507L522.668 63.9507L522.668 107.002Z" stroke="#1A1A1A" stroke-width="1.16139"/>
<path d="M307.411 107.002L264.359 107.002L264.359 63.9507L307.411 63.9507L307.411 107.002Z" stroke="#1A1A1A" stroke-width="1.16139"/>
<path d="M92.1568 107.002L49.1055 107.002L49.1055 63.9507L92.1568 63.9507L92.1568 107.002Z" stroke="#1A1A1A" stroke-width="1.16139"/>
<path d="M565.72 150.053L522.668 150.053L522.668 107.002L565.72 107.002L565.72 150.053Z" stroke="#1A1A1A" stroke-width="1.16139"/>
<path d="M350.461 150.053L307.41 150.053L307.41 107.002L350.461 107.002L350.461 150.053Z" stroke="#1A1A1A" stroke-width="1.16139"/>
<path d="M781.023 150.053L737.972 150.053L737.972 107.002L781.023 107.002L781.023 150.053Z" stroke="#1A1A1A" stroke-width="1.16139"/>
<path d="M135.208 150.053L92.1562 150.053L92.1562 107.002L135.208 107.002L135.208 150.053Z" stroke="#1A1A1A" stroke-width="1.16139"/>
<path d="M565.72 107.002L522.668 107.002L522.668 63.9507L565.72 63.9507L565.72 107.002Z" stroke="#1A1A1A" stroke-width="1.16139"/>
<path d="M350.461 107.002L307.41 107.002L307.41 63.9507L350.461 63.9507L350.461 107.002Z" stroke="#1A1A1A" stroke-width="1.16139"/>
<path d="M135.208 107.002L92.1562 107.002L92.1562 63.9507L135.208 63.9507L135.208 107.002Z" stroke="#1A1A1A" stroke-width="1.16139"/>
<path d="M393.517 150.053L350.465 150.053L350.465 107.002L393.517 107.002L393.517 150.053Z" stroke="#1A1A1A" stroke-width="1.16139"/>
<path d="M178.258 150.053L135.207 150.053L135.207 107.002L178.258 107.002L178.258 150.053Z" stroke="#1A1A1A" stroke-width="1.16139"/>
<path d="M393.517 107.002L350.465 107.002L350.465 63.9507L393.517 63.9507L393.517 107.002Z" stroke="#1A1A1A" stroke-width="1.16139"/>
<path d="M824.079 107.002L781.027 107.002L781.027 63.9507L824.079 63.9507L824.079 107.002Z" stroke="#1A1A1A" stroke-width="1.16139"/>
<path d="M178.258 107.002L135.207 107.002L135.207 63.9507L178.258 63.9507L178.258 107.002Z" stroke="#1A1A1A" stroke-width="1.16139"/>
<path d="M867.122 63.9492L824.07 63.9492L824.07 20.8979L867.122 20.8979L867.122 63.9492Z" stroke="#1A1A1A" stroke-width="1.16139"/>
<path d="M6.0513 63.9492L-37 63.9492L-37 20.8979L6.0513 20.8979L6.0513 63.9492Z" stroke="#1A1A1A" stroke-width="1.16139"/>
<path d="M436.566 20.8984L393.515 20.8984L393.515 -22.1529L436.566 -22.1529L436.566 20.8984Z" stroke="#1A1A1A" stroke-width="1.16139"/>
<path d="M6.0513 20.8984L-37 20.8984L-37 -22.1529L6.0513 -22.1529L6.0513 20.8984Z" stroke="#1A1A1A" stroke-width="1.16139"/>
<path d="M479.614 63.9492L436.562 63.9492L436.562 20.8979L479.614 20.8979L479.614 63.9492Z" stroke="#1A1A1A" stroke-width="1.16139"/>
<path d="M910.177 63.9492L867.125 63.9492L867.125 20.8979L910.177 20.8979L910.177 63.9492Z" stroke="#1A1A1A" stroke-width="1.16139"/>
<path d="M49.1021 63.9492L6.05078 63.9492L6.05078 20.8979L49.1021 20.8979L49.1021 63.9492Z" stroke="#1A1A1A" stroke-width="1.16139"/>
<path d="M479.614 20.8984L436.562 20.8984L436.562 -22.1529L479.614 -22.1529L479.614 20.8984Z" stroke="#1A1A1A" stroke-width="1.16139"/>
<path d="M910.177 20.8984L867.125 20.8984L867.125 -22.1529L910.177 -22.1529L910.177 20.8984Z" stroke="#1A1A1A" stroke-width="1.16139"/>
<path d="M522.668 63.9492L479.617 63.9492L479.617 20.8979L522.668 20.8979L522.668 63.9492Z" stroke="#1A1A1A" stroke-width="1.16139"/>
<path d="M307.411 63.9492L264.359 63.9492L264.359 20.8979L307.411 20.8979L307.411 63.9492Z" stroke="#1A1A1A" stroke-width="1.16139"/>
<path d="M522.668 20.8984L479.617 20.8984L479.617 -22.1529L522.668 -22.1529L522.668 20.8984Z" stroke="#1A1A1A" stroke-width="1.16139"/>
<path d="M307.411 20.8984L264.359 20.8984L264.359 -22.1529L307.411 -22.1529L307.411 20.8984Z" stroke="#1A1A1A" stroke-width="1.16139"/>
<path d="M953.228 20.8984L910.176 20.8984L910.176 -22.1529L953.228 -22.1529L953.228 20.8984Z" stroke="#1A1A1A" stroke-width="1.16139"/>
<path d="M350.461 63.9492L307.41 63.9492L307.41 20.8979L350.461 20.8979L350.461 63.9492Z" stroke="#1A1A1A" stroke-width="1.16139"/>
<path d="M781.023 63.9492L737.972 63.9492L737.972 20.8979L781.023 20.8979L781.023 63.9492Z" stroke="#1A1A1A" stroke-width="1.16139"/>
<path d="M565.72 20.8984L522.668 20.8984L522.668 -22.1529L565.72 -22.1529L565.72 20.8984Z" stroke="#1A1A1A" stroke-width="1.16139"/>
<path d="M350.461 20.8984L307.41 20.8984L307.41 -22.1529L350.461 -22.1529L350.461 20.8984Z" stroke="#1A1A1A" stroke-width="1.16139"/>
<path d="M781.023 20.8984L737.972 20.8984L737.972 -22.1529L781.023 -22.1529L781.023 20.8984Z" stroke="#1A1A1A" stroke-width="1.16139"/>
<path d="M393.517 63.9492L350.465 63.9492L350.465 20.8979L393.517 20.8979L393.517 63.9492Z" stroke="#1A1A1A" stroke-width="1.16139"/>
<path d="M824.079 63.9492L781.027 63.9492L781.027 20.8979L824.079 20.8979L824.079 63.9492Z" stroke="#1A1A1A" stroke-width="1.16139"/>
<path d="M393.517 20.8984L350.465 20.8984L350.465 -22.1529L393.517 -22.1529L393.517 20.8984Z" stroke="#1A1A1A" stroke-width="1.16139"/>
<path d="M824.079 20.8984L781.027 20.8984L781.027 -22.1529L824.079 -22.1529L824.079 20.8984Z" stroke="#1A1A1A" stroke-width="1.16139"/>
<path d="M436.566 63.9492L393.515 63.9492L393.515 20.8979L436.566 20.8979L436.566 63.9492Z" stroke="#1A1A1A" stroke-width="1.16139"/>
<path d="M540.858 49.0797H547.308V48.0597H544.803V39.1797H543.888C543.288 39.4947 542.553 39.7497 541.533 39.8997V40.6947H543.573V48.0597H540.858V49.0797Z" fill="url(#paint20_linear_136_4202)"/>
<path d="M543.888 92.26C546.018 92.26 547.323 90.385 547.323 87.1C547.323 83.785 546.018 81.9997 543.888 81.9997C541.758 81.9997 540.453 83.785 540.453 87.1C540.453 90.385 541.758 92.26 543.888 92.26ZM543.888 91.27C542.553 91.27 541.608 89.95 541.608 87.1C541.608 84.235 542.553 82.9897 543.888 82.9897C545.223 82.9897 546.168 84.235 546.168 87.1C546.168 89.95 545.223 91.27 543.888 91.27ZM543.888 88.015C544.383 88.015 544.818 87.64 544.818 86.995C544.818 86.35 544.383 85.975 543.888 85.975C543.393 85.975 542.958 86.35 542.958 86.995C542.958 87.64 543.393 88.015 543.888 88.015Z" fill="url(#paint21_linear_136_4202)"/>
<path d="M543.888 178.26C546.018 178.26 547.323 176.385 547.323 173.1C547.323 169.785 546.018 168 543.888 168C541.758 168 540.453 169.785 540.453 173.1C540.453 176.385 541.758 178.26 543.888 178.26ZM543.888 177.27C542.553 177.27 541.608 175.95 541.608 173.1C541.608 170.235 542.553 168.99 543.888 168.99C545.223 168.99 546.168 170.235 546.168 173.1C546.168 175.95 545.223 177.27 543.888 177.27ZM543.888 174.015C544.383 174.015 544.818 173.64 544.818 172.995C544.818 172.35 544.383 171.975 543.888 171.975C543.393 171.975 542.958 172.35 542.958 172.995C542.958 173.64 543.393 174.015 543.888 174.015Z" fill="url(#paint22_linear_136_4202)"/>
<path d="M540.858 221.08H547.308V220.06H544.803V211.18H543.888C543.288 211.495 542.553 211.75 541.533 211.9V212.695H543.573V220.06H540.858V221.08Z" fill="url(#paint23_linear_136_4202)"/>
<path d="M540.858 264.08H547.308V263.06H544.803V254.18H543.888C543.288 254.495 542.553 254.75 541.533 254.9V255.695H543.573V263.06H540.858V264.08Z" fill="url(#paint24_linear_136_4202)"/>
<path d="M584.041 49.0797H590.491V48.0597H587.986V39.1797H587.071C586.471 39.4947 585.736 39.7497 584.716 39.8997V40.6947H586.756V48.0597H584.041V49.0797Z" fill="url(#paint25_linear_136_4202)"/>
<path d="M587.071 92.26C589.201 92.26 590.506 90.385 590.506 87.1C590.506 83.785 589.201 81.9997 587.071 81.9997C584.941 81.9997 583.636 83.785 583.636 87.1C583.636 90.385 584.941 92.26 587.071 92.26ZM587.071 91.27C585.736 91.27 584.791 89.95 584.791 87.1C584.791 84.235 585.736 82.9897 587.071 82.9897C588.406 82.9897 589.351 84.235 589.351 87.1C589.351 89.95 588.406 91.27 587.071 91.27ZM587.071 88.015C587.566 88.015 588.001 87.64 588.001 86.995C588.001 86.35 587.566 85.975 587.071 85.975C586.576 85.975 586.141 86.35 586.141 86.995C586.141 87.64 586.576 88.015 587.071 88.015Z" fill="url(#paint26_linear_136_4202)"/>
<path d="M584.041 135.08H590.491V134.06H587.986V125.18H587.071C586.471 125.495 585.736 125.75 584.716 125.9V126.695H586.756V134.06H584.041V135.08Z" fill="url(#paint27_linear_136_4202)"/>
<path d="M584.041 221.08H590.491V220.06H587.986V211.18H587.071C586.471 211.495 585.736 211.75 584.716 211.9V212.695H586.756V220.06H584.041V221.08Z" fill="url(#paint28_linear_136_4202)"/>
<path d="M587.071 264.26C589.201 264.26 590.506 262.385 590.506 259.1C590.506 255.785 589.201 254 587.071 254C584.941 254 583.636 255.785 583.636 259.1C583.636 262.385 584.941 264.26 587.071 264.26ZM587.071 263.27C585.736 263.27 584.791 261.95 584.791 259.1C584.791 256.235 585.736 254.99 587.071 254.99C588.406 254.99 589.351 256.235 589.351 259.1C589.351 261.95 588.406 263.27 587.071 263.27ZM587.071 260.015C587.566 260.015 588.001 259.64 588.001 258.995C588.001 258.35 587.566 257.975 587.071 257.975C586.576 257.975 586.141 258.35 586.141 258.995C586.141 259.64 586.576 260.015 587.071 260.015Z" fill="url(#paint29_linear_136_4202)"/>
<path d="M587.071 307.26C589.201 307.26 590.506 305.385 590.506 302.1C590.506 298.785 589.201 297 587.071 297C584.941 297 583.636 298.785 583.636 302.1C583.636 305.385 584.941 307.26 587.071 307.26ZM587.071 306.27C585.736 306.27 584.791 304.95 584.791 302.1C584.791 299.235 585.736 297.99 587.071 297.99C588.406 297.99 589.351 299.235 589.351 302.1C589.351 304.95 588.406 306.27 587.071 306.27ZM587.071 303.015C587.566 303.015 588.001 302.64 588.001 301.995C588.001 301.35 587.566 300.975 587.071 300.975C586.576 300.975 586.141 301.35 586.141 301.995C586.141 302.64 586.576 303.015 587.071 303.015Z" fill="url(#paint30_linear_136_4202)"/>
<path d="M584.043 177.08H590.493V176.06H587.988V167.18H587.073C586.473 167.495 585.738 167.75 584.718 167.9V168.695H586.758V176.06H584.043V177.08Z" fill="#0A9E73"/>
<path d="M629.653 92.26C631.783 92.26 633.088 90.385 633.088 87.1C633.088 83.785 631.783 82 629.653 82C627.523 82 626.218 83.785 626.218 87.1C626.218 90.385 627.523 92.26 629.653 92.26ZM629.653 91.27C628.318 91.27 627.373 89.95 627.373 87.1C627.373 84.235 628.318 82.99 629.653 82.99C630.988 82.99 631.933 84.235 631.933 87.1C631.933 89.95 630.988 91.27 629.653 91.27ZM629.653 88.015C630.148 88.015 630.583 87.64 630.583 86.995C630.583 86.35 630.148 85.975 629.653 85.975C629.158 85.975 628.723 86.35 628.723 86.995C628.723 87.64 629.158 88.015 629.653 88.015Z" fill="url(#paint31_linear_136_4202)"/>
<path d="M626.623 135.08H633.073V134.06H630.568V125.18H629.653C629.053 125.495 628.318 125.75 627.298 125.9V126.695H629.338V134.06H626.623V135.08Z" fill="url(#paint32_linear_136_4202)"/>
<path d="M629.653 178.26C631.783 178.26 633.088 176.385 633.088 173.1C633.088 169.785 631.783 168 629.653 168C627.523 168 626.218 169.785 626.218 173.1C626.218 176.385 627.523 178.26 629.653 178.26ZM629.653 177.27C628.318 177.27 627.373 175.95 627.373 173.1C627.373 170.235 628.318 168.99 629.653 168.99C630.988 168.99 631.933 170.235 631.933 173.1C631.933 175.95 630.988 177.27 629.653 177.27ZM629.653 174.015C630.148 174.015 630.583 173.64 630.583 172.995C630.583 172.35 630.148 171.975 629.653 171.975C629.158 171.975 628.723 172.35 628.723 172.995C628.723 173.64 629.158 174.015 629.653 174.015Z" fill="url(#paint33_linear_136_4202)"/>
<path d="M629.653 221.26C631.783 221.26 633.088 219.385 633.088 216.1C633.088 212.785 631.783 211 629.653 211C627.523 211 626.218 212.785 626.218 216.1C626.218 219.385 627.523 221.26 629.653 221.26ZM629.653 220.27C628.318 220.27 627.373 218.95 627.373 216.1C627.373 213.235 628.318 211.99 629.653 211.99C630.988 211.99 631.933 213.235 631.933 216.1C631.933 218.95 630.988 220.27 629.653 220.27ZM629.653 217.015C630.148 217.015 630.583 216.64 630.583 215.995C630.583 215.35 630.148 214.975 629.653 214.975C629.158 214.975 628.723 215.35 628.723 215.995C628.723 216.64 629.158 217.015 629.653 217.015Z" fill="url(#paint34_linear_136_4202)"/>
<path d="M629.653 264.26C631.783 264.26 633.088 262.385 633.088 259.1C633.088 255.785 631.783 254 629.653 254C627.523 254 626.218 255.785 626.218 259.1C626.218 262.385 627.523 264.26 629.653 264.26ZM629.653 263.27C628.318 263.27 627.373 261.95 627.373 259.1C627.373 256.235 628.318 254.99 629.653 254.99C630.988 254.99 631.933 256.235 631.933 259.1C631.933 261.95 630.988 263.27 629.653 263.27ZM629.653 260.015C630.148 260.015 630.583 259.64 630.583 258.995C630.583 258.35 630.148 257.975 629.653 257.975C629.158 257.975 628.723 258.35 628.723 258.995C628.723 259.64 629.158 260.015 629.653 260.015Z" fill="url(#paint35_linear_136_4202)"/>
<path d="M626.623 307.08H633.073V306.06H630.568V297.18H629.653C629.053 297.495 628.318 297.75 627.298 297.9V298.695H629.338V306.06H626.623V307.08Z" fill="url(#paint36_linear_136_4202)"/>
<path d="M802.11 92.26C804.241 92.26 805.546 90.385 805.546 87.1C805.546 83.785 804.241 82 802.11 82C799.98 82 798.676 83.785 798.676 87.1C798.676 90.385 799.98 92.26 802.11 92.26ZM802.11 91.27C800.775 91.27 799.83 89.95 799.83 87.1C799.83 84.235 800.775 82.99 802.11 82.99C803.446 82.99 804.391 84.235 804.391 87.1C804.391 89.95 803.446 91.27 802.11 91.27ZM802.11 88.015C802.605 88.015 803.041 87.64 803.041 86.995C803.041 86.35 802.605 85.975 802.11 85.975C801.616 85.975 801.181 86.35 801.181 86.995C801.181 87.64 801.616 88.015 802.11 88.015Z" fill="url(#paint37_linear_136_4202)"/>
<path d="M673.208 6.26C675.338 6.26 676.643 4.385 676.643 1.1C676.643 -2.215 675.338 -4 673.208 -4C671.078 -4 669.773 -2.215 669.773 1.1C669.773 4.385 671.078 6.26 673.208 6.26ZM673.208 5.27C671.873 5.27 670.928 3.95 670.928 1.1C670.928 -1.765 671.873 -3.01 673.208 -3.01C674.543 -3.01 675.488 -1.765 675.488 1.1C675.488 3.95 674.543 5.27 673.208 5.27ZM673.208 2.015C673.703 2.015 674.138 1.64 674.138 0.995001C674.138 0.350001 673.703 -0.0249996 673.208 -0.0249996C672.713 -0.0249996 672.278 0.350001 672.278 0.995001C672.278 1.64 672.713 2.015 673.208 2.015Z" fill="url(#paint38_linear_136_4202)"/>
<path d="M670.178 49.08H676.628V48.06H674.123V39.18H673.208C672.608 39.495 671.873 39.75 670.853 39.9V40.695H672.893V48.06H670.178V49.08Z" fill="url(#paint39_linear_136_4202)"/>
<path d="M673.208 92.26C675.338 92.26 676.643 90.385 676.643 87.1C676.643 83.785 675.338 82 673.208 82C671.078 82 669.773 83.785 669.773 87.1C669.773 90.385 671.078 92.26 673.208 92.26ZM673.208 91.27C671.873 91.27 670.928 89.95 670.928 87.1C670.928 84.235 671.873 82.99 673.208 82.99C674.543 82.99 675.488 84.235 675.488 87.1C675.488 89.95 674.543 91.27 673.208 91.27ZM673.208 88.015C673.703 88.015 674.138 87.64 674.138 86.995C674.138 86.35 673.703 85.975 673.208 85.975C672.713 85.975 672.278 86.35 672.278 86.995C672.278 87.64 672.713 88.015 673.208 88.015Z" fill="url(#paint40_linear_136_4202)"/>
<path d="M673.208 307.26C675.338 307.26 676.643 305.385 676.643 302.1C676.643 298.785 675.338 297 673.208 297C671.078 297 669.773 298.785 669.773 302.1C669.773 305.385 671.078 307.26 673.208 307.26ZM673.208 306.27C671.873 306.27 670.928 304.95 670.928 302.1C670.928 299.235 671.873 297.99 673.208 297.99C674.543 297.99 675.488 299.235 675.488 302.1C675.488 304.95 674.543 306.27 673.208 306.27ZM673.208 303.015C673.703 303.015 674.138 302.64 674.138 301.995C674.138 301.35 673.703 300.975 673.208 300.975C672.713 300.975 672.278 301.35 672.278 301.995C672.278 302.64 672.713 303.015 673.208 303.015Z" fill="url(#paint41_linear_136_4202)"/>
<path d="M845.665 6.26C847.795 6.26 849.1 4.385 849.1 1.1C849.1 -2.215 847.795 -4 845.665 -4C843.535 -4 842.23 -2.215 842.23 1.1C842.23 4.385 843.535 6.26 845.665 6.26ZM845.665 5.27C844.33 5.27 843.385 3.95 843.385 1.1C843.385 -1.765 844.33 -3.01 845.665 -3.01C847 -3.01 847.945 -1.765 847.945 1.1C847.945 3.95 847 5.27 845.665 5.27ZM845.665 2.015C846.16 2.015 846.595 1.64 846.595 0.995001C846.595 0.350001 846.16 -0.0249996 845.665 -0.0249996C845.17 -0.0249996 844.735 0.350001 844.735 0.995001C844.735 1.64 845.17 2.015 845.665 2.015Z" fill="url(#paint42_linear_136_4202)"/>
<path d="M842.635 49.08H849.085V48.06H846.58V39.18H845.665C845.065 39.495 844.33 39.75 843.31 39.9V40.695H845.35V48.06H842.635V49.08Z" fill="url(#paint43_linear_136_4202)"/>
<path d="M845.665 92.26C847.795 92.26 849.1 90.385 849.1 87.1C849.1 83.785 847.795 82 845.665 82C843.535 82 842.23 83.785 842.23 87.1C842.23 90.385 843.535 92.26 845.665 92.26ZM845.665 91.27C844.33 91.27 843.385 89.95 843.385 87.1C843.385 84.235 844.33 82.99 845.665 82.99C847 82.99 847.945 84.235 847.945 87.1C847.945 89.95 847 91.27 845.665 91.27ZM845.665 88.015C846.16 88.015 846.595 87.64 846.595 86.995C846.595 86.35 846.16 85.975 845.665 85.975C845.17 85.975 844.735 86.35 844.735 86.995C844.735 87.64 845.17 88.015 845.665 88.015Z" fill="url(#paint44_linear_136_4202)"/>
<path d="M845.665 307.26C847.795 307.26 849.1 305.385 849.1 302.1C849.1 298.785 847.795 297 845.665 297C843.535 297 842.23 298.785 842.23 302.1C842.23 305.385 843.535 307.26 845.665 307.26ZM845.665 306.27C844.33 306.27 843.385 304.95 843.385 302.1C843.385 299.235 844.33 297.99 845.665 297.99C847 297.99 847.945 299.235 847.945 302.1C847.945 304.95 847 306.27 845.665 306.27ZM845.665 303.015C846.16 303.015 846.595 302.64 846.595 301.995C846.595 301.35 846.16 300.975 845.665 300.975C845.17 300.975 844.735 301.35 844.735 301.995C844.735 302.64 845.17 303.015 845.665 303.015Z" fill="url(#paint45_linear_136_4202)"/>
<path d="M715.743 6.26C717.873 6.26 719.178 4.385 719.178 1.1C719.178 -2.215 717.873 -4 715.743 -4C713.613 -4 712.308 -2.215 712.308 1.1C712.308 4.385 713.613 6.26 715.743 6.26ZM715.743 5.27C714.408 5.27 713.463 3.95 713.463 1.1C713.463 -1.765 714.408 -3.01 715.743 -3.01C717.078 -3.01 718.023 -1.765 718.023 1.1C718.023 3.95 717.078 5.27 715.743 5.27ZM715.743 2.015C716.238 2.015 716.673 1.64 716.673 0.995001C716.673 0.350001 716.238 -0.0249996 715.743 -0.0249996C715.248 -0.0249996 714.813 0.350001 714.813 0.995001C714.813 1.64 715.248 2.015 715.743 2.015Z" fill="url(#paint46_linear_136_4202)"/>
<path d="M715.743 49.26C717.873 49.26 719.178 47.385 719.178 44.1C719.178 40.785 717.873 39 715.743 39C713.613 39 712.308 40.785 712.308 44.1C712.308 47.385 713.613 49.26 715.743 49.26ZM715.743 48.27C714.408 48.27 713.463 46.95 713.463 44.1C713.463 41.235 714.408 39.99 715.743 39.99C717.078 39.99 718.023 41.235 718.023 44.1C718.023 46.95 717.078 48.27 715.743 48.27ZM715.743 45.015C716.238 45.015 716.673 44.64 716.673 43.995C716.673 43.35 716.238 42.975 715.743 42.975C715.248 42.975 714.813 43.35 714.813 43.995C714.813 44.64 715.248 45.015 715.743 45.015Z" fill="url(#paint47_linear_136_4202)"/>
<path d="M712.713 92.08H719.163V91.06H716.658V82.18H715.743C715.143 82.495 714.408 82.75 713.388 82.9V83.695H715.428V91.06H712.713V92.08Z" fill="url(#paint48_linear_136_4202)"/>
<path d="M888.2 6.26C890.33 6.26 891.635 4.385 891.635 1.1C891.635 -2.215 890.33 -4 888.2 -4C886.07 -4 884.765 -2.215 884.765 1.1C884.765 4.385 886.07 6.26 888.2 6.26ZM888.2 5.27C886.865 5.27 885.92 3.95 885.92 1.1C885.92 -1.765 886.865 -3.01 888.2 -3.01C889.535 -3.01 890.48 -1.765 890.48 1.1C890.48 3.95 889.535 5.27 888.2 5.27ZM888.2 2.015C888.695 2.015 889.13 1.64 889.13 0.995001C889.13 0.350001 888.695 -0.0249996 888.2 -0.0249996C887.705 -0.0249996 887.27 0.350001 887.27 0.995001C887.27 1.64 887.705 2.015 888.2 2.015Z" fill="url(#paint49_linear_136_4202)"/>
<path d="M888.2 49.26C890.33 49.26 891.635 47.385 891.635 44.1C891.635 40.785 890.33 39 888.2 39C886.07 39 884.765 40.785 884.765 44.1C884.765 47.385 886.07 49.26 888.2 49.26ZM888.2 48.27C886.865 48.27 885.92 46.95 885.92 44.1C885.92 41.235 886.865 39.99 888.2 39.99C889.535 39.99 890.48 41.235 890.48 44.1C890.48 46.95 889.535 48.27 888.2 48.27ZM888.2 45.015C888.695 45.015 889.13 44.64 889.13 43.995C889.13 43.35 888.695 42.975 888.2 42.975C887.705 42.975 887.27 43.35 887.27 43.995C887.27 44.64 887.705 45.015 888.2 45.015Z" fill="url(#paint50_linear_136_4202)"/>
<path d="M885.17 92.08H891.62V91.06H889.115V82.18H888.2C887.6 82.495 886.865 82.75 885.845 82.9V83.695H887.885V91.06H885.17V92.08Z" fill="url(#paint51_linear_136_4202)"/>
<path d="M885.17 135.08H891.62V134.06H889.115V125.18H888.2C887.6 125.495 886.865 125.75 885.845 125.9V126.695H887.885V134.06H885.17V135.08Z" fill="url(#paint52_linear_136_4202)"/>
<path d="M885.17 264.08H891.62V263.06H889.115V254.18H888.2C887.6 254.495 886.865 254.75 885.845 254.9V255.695H887.885V263.06H885.17V264.08Z" fill="url(#paint53_linear_136_4202)"/>
<path d="M758.927 47.26C761.057 47.26 762.362 45.385 762.362 42.1C762.362 38.785 761.057 37 758.927 37C756.797 37 755.492 38.785 755.492 42.1C755.492 45.385 756.797 47.26 758.927 47.26ZM758.927 46.27C757.592 46.27 756.647 44.95 756.647 42.1C756.647 39.235 757.592 37.99 758.927 37.99C760.262 37.99 761.207 39.235 761.207 42.1C761.207 44.95 760.262 46.27 758.927 46.27ZM758.927 43.015C759.422 43.015 759.857 42.64 759.857 41.995C759.857 41.35 759.422 40.975 758.927 40.975C758.432 40.975 757.997 41.35 757.997 41.995C757.997 42.64 758.432 43.015 758.927 43.015Z" fill="url(#paint54_linear_136_4202)"/>
<path d="M608.773 193.105L565.722 193.105L565.722 150.054L608.773 150.054L608.773 193.105Z" stroke="#0A9E73" stroke-width="1.16139"/>
<path d="M867.079 279.205L824.027 279.205L824.027 236.154L867.079 236.154L867.079 279.205Z" stroke="#0A9E73" stroke-width="1.16139"/>
<path d="M695 236L651 236L651 193L695 193L695 236Z" stroke="#0A9E73" stroke-width="1.16139"/>
<path d="M781.023 408.359L737.972 408.359L737.972 365.308L781.023 365.308L781.023 408.359Z" stroke="#0A9E73" stroke-width="1.16139"/>
<path d="M824.079 150.053L781.027 150.053L781.027 107.002L824.079 107.002L824.079 150.053Z" stroke="#0A9E73" stroke-width="1.16139"/>
<path d="M608.816 113.059H565.718V231.201H608.816V113.059Z" fill="url(#paint55_linear_136_4202)"/>
<path d="M733.733 235.9L733.486 192.803L616.623 193.472L616.87 236.569L733.733 235.9Z" fill="url(#paint56_linear_136_4202)"/>
<path d="M540.688 133.92H547.138V132.9H544.633V124.02H543.718C543.118 124.335 542.383 124.59 541.363 124.74V125.535H543.403V132.9H540.688V133.92Z" fill="#0A9E73"/>
<path d="M565.438 150.193L522.386 150.193L522.386 107.142L565.438 107.142L565.438 150.193Z" stroke="#0A9E73" stroke-width="1.16139"/>
<path d="M565.438 66.3965H522.34V184.538H565.438V66.3965Z" fill="url(#paint57_linear_136_4202)"/>
<path d="M543.337 348.674C545.467 348.674 546.772 346.799 546.772 343.514C546.772 340.199 545.467 338.414 543.337 338.414C541.207 338.414 539.902 340.199 539.902 343.514C539.902 346.799 541.207 348.674 543.337 348.674ZM543.337 347.684C542.002 347.684 541.057 346.364 541.057 343.514C541.057 340.649 542.002 339.404 543.337 339.404C544.672 339.404 545.617 340.649 545.617 343.514C545.617 346.364 544.672 347.684 543.337 347.684ZM543.337 344.429C543.832 344.429 544.267 344.054 544.267 343.409C544.267 342.764 543.832 342.389 543.337 342.389C542.842 342.389 542.407 342.764 542.407 343.409C542.407 344.054 542.842 344.429 543.337 344.429Z" fill="#0A9E73"/>
<path d="M565.438 365.07L522.386 365.07L522.386 322.019L565.438 322.019L565.438 365.07Z" stroke="#0A9E73" stroke-width="1.16139"/>
<path d="M564.988 277.818H521.89V395.96H564.988V277.818Z" fill="url(#paint58_linear_136_4202)"/>
<path d="M824.586 71H781.488V189.142H824.586V71Z" fill="url(#paint59_linear_136_4202)"/>
<path d="M867.586 199H824.488V317.142H867.586V199Z" fill="url(#paint60_linear_136_4202)"/>
<path d="M780.586 328H737.488V446.142H780.586V328Z" fill="url(#paint61_linear_136_4202)"/>
<g style="mix-blend-mode:luminosity">
<path d="M957.176 -19H1V399.322H957.176V-19Z" fill="url(#paint62_radial_136_4202)"/>
</g>
</g>
<defs>
<linearGradient id="paint0_linear_136_4202" x1="845.627" y1="-19.6446" x2="845.627" y2="362.972" gradientUnits="userSpaceOnUse">
<stop stop-color="#3D3D3D"/>
<stop offset="1" stop-color="#2F2F2F" stop-opacity="0"/>
</linearGradient>
<linearGradient id="paint1_linear_136_4202" x1="758.893" y1="60.2059" x2="758.893" y2="442.822" gradientUnits="userSpaceOnUse">
<stop stop-color="#3D3D3D"/>
<stop offset="1" stop-color="#2F2F2F" stop-opacity="0"/>
</linearGradient>
<linearGradient id="paint2_linear_136_4202" x1="758.74" y1="-36.2111" x2="758.74" y2="356.867" gradientUnits="userSpaceOnUse">
<stop stop-color="#3D3D3D"/>
<stop offset="1" stop-color="#2F2F2F" stop-opacity="0"/>
</linearGradient>
<linearGradient id="paint3_linear_136_4202" x1="672.268" y1="-13.8629" x2="672.268" y2="355.328" gradientUnits="userSpaceOnUse">
<stop stop-color="#3D3D3D"/>
<stop offset="1" stop-color="#2F2F2F" stop-opacity="0"/>
</linearGradient>
<linearGradient id="paint4_linear_136_4202" x1="630.302" y1="20.6311" x2="630.302" y2="403.247" gradientUnits="userSpaceOnUse">
<stop stop-color="#3D3D3D"/>
<stop offset="1" stop-color="#2F2F2F" stop-opacity="0"/>
</linearGradient>
<linearGradient id="paint5_linear_136_4202" x1="802.804" y1="61.2059" x2="802.804" y2="443.822" gradientUnits="userSpaceOnUse">
<stop stop-color="#3D3D3D"/>
<stop offset="1" stop-color="#2F2F2F" stop-opacity="0"/>
</linearGradient>
<linearGradient id="paint6_linear_136_4202" x1="673.213" y1="-27.0074" x2="673.213" y2="380.401" gradientUnits="userSpaceOnUse">
<stop stop-color="#3D3D3D"/>
<stop offset="1" stop-color="#2F2F2F" stop-opacity="0"/>
</linearGradient>
<linearGradient id="paint7_linear_136_4202" x1="716.267" y1="-12.9359" x2="716.267" y2="356.255" gradientUnits="userSpaceOnUse">
<stop stop-color="#3D3D3D"/>
<stop offset="1" stop-color="#2F2F2F" stop-opacity="0"/>
</linearGradient>
<linearGradient id="paint8_linear_136_4202" x1="673.302" y1="-21.6446" x2="673.302" y2="360.972" gradientUnits="userSpaceOnUse">
<stop stop-color="#3D3D3D"/>
<stop offset="1" stop-color="#2F2F2F" stop-opacity="0"/>
</linearGradient>
<linearGradient id="paint9_linear_136_4202" x1="759.155" y1="24.6141" x2="759.155" y2="418.813" gradientUnits="userSpaceOnUse">
<stop stop-color="#3D3D3D"/>
<stop offset="1" stop-color="#2F2F2F" stop-opacity="0"/>
</linearGradient>
<linearGradient id="paint10_linear_136_4202" x1="715.893" y1="-57.8872" x2="715.893" y2="311.304" gradientUnits="userSpaceOnUse">
<stop stop-color="#3D3D3D"/>
<stop offset="1" stop-color="#2F2F2F" stop-opacity="0"/>
</linearGradient>
<linearGradient id="paint11_linear_136_4202" x1="844.894" y1="-21.2194" x2="844.894" y2="361.397" gradientUnits="userSpaceOnUse">
<stop stop-color="#3D3D3D"/>
<stop offset="1" stop-color="#2F2F2F" stop-opacity="0"/>
</linearGradient>
<linearGradient id="paint12_linear_136_4202" x1="759.547" y1="30.1128" x2="759.547" y2="399.304" gradientUnits="userSpaceOnUse">
<stop stop-color="#3D3D3D"/>
<stop offset="1" stop-color="#2F2F2F" stop-opacity="0"/>
</linearGradient>
<linearGradient id="paint13_linear_136_4202" x1="891.741" y1="-57.8629" x2="891.741" y2="311.328" gradientUnits="userSpaceOnUse">
<stop stop-color="#3D3D3D"/>
<stop offset="1" stop-color="#2F2F2F" stop-opacity="0"/>
</linearGradient>
<linearGradient id="paint14_linear_136_4202" x1="803.212" y1="15.9926" x2="803.212" y2="423.401" gradientUnits="userSpaceOnUse">
<stop stop-color="#3D3D3D"/>
<stop offset="1" stop-color="#2F2F2F" stop-opacity="0"/>
</linearGradient>
<linearGradient id="paint15_linear_136_4202" x1="846.174" y1="-10.9359" x2="846.174" y2="358.255" gradientUnits="userSpaceOnUse">
<stop stop-color="#3D3D3D"/>
<stop offset="1" stop-color="#2F2F2F" stop-opacity="0"/>
</linearGradient>
<linearGradient id="paint16_linear_136_4202" x1="759.268" y1="74.0641" x2="759.268" y2="443.255" gradientUnits="userSpaceOnUse">
<stop stop-color="#3D3D3D"/>
<stop offset="1" stop-color="#2F2F2F" stop-opacity="0"/>
</linearGradient>
<linearGradient id="paint17_linear_136_4202" x1="759.244" y1="31.0641" x2="759.244" y2="400.255" gradientUnits="userSpaceOnUse">
<stop stop-color="#3D3D3D"/>
<stop offset="1" stop-color="#2F2F2F" stop-opacity="0"/>
</linearGradient>
<linearGradient id="paint18_linear_136_4202" x1="716.177" y1="-13.8872" x2="716.177" y2="355.304" gradientUnits="userSpaceOnUse">
<stop stop-color="#3D3D3D"/>
<stop offset="1" stop-color="#2F2F2F" stop-opacity="0"/>
</linearGradient>
<linearGradient id="paint19_linear_136_4202" x1="802.834" y1="-67.7941" x2="802.834" y2="314.822" gradientUnits="userSpaceOnUse">
<stop stop-color="#3D3D3D"/>
<stop offset="1" stop-color="#2F2F2F" stop-opacity="0"/>
</linearGradient>
<linearGradient id="paint20_linear_136_4202" x1="543.886" y1="-7.91992" x2="543.886" y2="353.08" gradientUnits="userSpaceOnUse">
<stop stop-color="#3D3D3D"/>
<stop offset="1" stop-color="#2F2F2F" stop-opacity="0"/>
</linearGradient>
<linearGradient id="paint21_linear_136_4202" x1="543.886" y1="-7.91992" x2="543.886" y2="353.08" gradientUnits="userSpaceOnUse">
<stop stop-color="#3D3D3D"/>
<stop offset="1" stop-color="#2F2F2F" stop-opacity="0"/>
</linearGradient>
<linearGradient id="paint22_linear_136_4202" x1="543.886" y1="-7.91983" x2="543.886" y2="353.08" gradientUnits="userSpaceOnUse">
<stop stop-color="#3D3D3D"/>
<stop offset="1" stop-color="#2F2F2F" stop-opacity="0"/>
</linearGradient>
<linearGradient id="paint23_linear_136_4202" x1="543.886" y1="-7.92013" x2="543.886" y2="353.08" gradientUnits="userSpaceOnUse">
<stop stop-color="#3D3D3D"/>
<stop offset="1" stop-color="#2F2F2F" stop-opacity="0"/>
</linearGradient>
<linearGradient id="paint24_linear_136_4202" x1="543.886" y1="-7.91976" x2="543.886" y2="353.08" gradientUnits="userSpaceOnUse">
<stop stop-color="#3D3D3D"/>
<stop offset="1" stop-color="#2F2F2F" stop-opacity="0"/>
</linearGradient>
<linearGradient id="paint25_linear_136_4202" x1="587.07" y1="-7.91992" x2="587.07" y2="353.08" gradientUnits="userSpaceOnUse">
<stop stop-color="#3D3D3D"/>
<stop offset="1" stop-color="#2F2F2F" stop-opacity="0"/>
</linearGradient>
<linearGradient id="paint26_linear_136_4202" x1="587.07" y1="-7.91992" x2="587.07" y2="353.08" gradientUnits="userSpaceOnUse">
<stop stop-color="#3D3D3D"/>
<stop offset="1" stop-color="#2F2F2F" stop-opacity="0"/>
</linearGradient>
<linearGradient id="paint27_linear_136_4202" x1="587.07" y1="-7.92005" x2="587.07" y2="353.08" gradientUnits="userSpaceOnUse">
<stop stop-color="#3D3D3D"/>
<stop offset="1" stop-color="#2F2F2F" stop-opacity="0"/>
</linearGradient>
<linearGradient id="paint28_linear_136_4202" x1="587.07" y1="-7.92013" x2="587.07" y2="353.08" gradientUnits="userSpaceOnUse">
<stop stop-color="#3D3D3D"/>
<stop offset="1" stop-color="#2F2F2F" stop-opacity="0"/>
</linearGradient>
<linearGradient id="paint29_linear_136_4202" x1="587.07" y1="-7.92016" x2="587.07" y2="353.08" gradientUnits="userSpaceOnUse">
<stop stop-color="#3D3D3D"/>
<stop offset="1" stop-color="#2F2F2F" stop-opacity="0"/>
</linearGradient>
<linearGradient id="paint30_linear_136_4202" x1="587.07" y1="-7.92021" x2="587.07" y2="353.08" gradientUnits="userSpaceOnUse">
<stop stop-color="#3D3D3D"/>
<stop offset="1" stop-color="#2F2F2F" stop-opacity="0"/>
</linearGradient>
<linearGradient id="paint31_linear_136_4202" x1="629.652" y1="35.0801" x2="629.652" y2="396.08" gradientUnits="userSpaceOnUse">
<stop stop-color="#3D3D3D"/>
<stop offset="1" stop-color="#2F2F2F" stop-opacity="0"/>
</linearGradient>
<linearGradient id="paint32_linear_136_4202" x1="629.652" y1="35.08" x2="629.652" y2="396.08" gradientUnits="userSpaceOnUse">
<stop stop-color="#3D3D3D"/>
<stop offset="1" stop-color="#2F2F2F" stop-opacity="0"/>
</linearGradient>
<linearGradient id="paint33_linear_136_4202" x1="629.652" y1="35.0802" x2="629.652" y2="396.08" gradientUnits="userSpaceOnUse">
<stop stop-color="#3D3D3D"/>
<stop offset="1" stop-color="#2F2F2F" stop-opacity="0"/>
</linearGradient>
<linearGradient id="paint34_linear_136_4202" x1="629.652" y1="35.0802" x2="629.652" y2="396.08" gradientUnits="userSpaceOnUse">
<stop stop-color="#3D3D3D"/>
<stop offset="1" stop-color="#2F2F2F" stop-opacity="0"/>
</linearGradient>
<linearGradient id="paint35_linear_136_4202" x1="629.652" y1="35.0799" x2="629.652" y2="396.08" gradientUnits="userSpaceOnUse">
<stop stop-color="#3D3D3D"/>
<stop offset="1" stop-color="#2F2F2F" stop-opacity="0"/>
</linearGradient>
<linearGradient id="paint36_linear_136_4202" x1="629.652" y1="35.0802" x2="629.652" y2="396.08" gradientUnits="userSpaceOnUse">
<stop stop-color="#3D3D3D"/>
<stop offset="1" stop-color="#2F2F2F" stop-opacity="0"/>
</linearGradient>
<linearGradient id="paint37_linear_136_4202" x1="802.109" y1="35.0801" x2="802.109" y2="396.08" gradientUnits="userSpaceOnUse">
<stop stop-color="#3D3D3D"/>
<stop offset="1" stop-color="#2F2F2F" stop-opacity="0"/>
</linearGradient>
<linearGradient id="paint38_linear_136_4202" x1="673.207" y1="-7.91992" x2="673.207" y2="353.08" gradientUnits="userSpaceOnUse">
<stop stop-color="#3D3D3D"/>
<stop offset="1" stop-color="#2F2F2F" stop-opacity="0"/>
</linearGradient>
<linearGradient id="paint39_linear_136_4202" x1="673.207" y1="-7.91994" x2="673.207" y2="353.08" gradientUnits="userSpaceOnUse">
<stop stop-color="#3D3D3D"/>
<stop offset="1" stop-color="#2F2F2F" stop-opacity="0"/>
</linearGradient>
<linearGradient id="paint40_linear_136_4202" x1="673.207" y1="-7.91994" x2="673.207" y2="353.08" gradientUnits="userSpaceOnUse">
<stop stop-color="#3D3D3D"/>
<stop offset="1" stop-color="#2F2F2F" stop-opacity="0"/>
</linearGradient>
<linearGradient id="paint41_linear_136_4202" x1="673.207" y1="-7.92021" x2="673.207" y2="353.08" gradientUnits="userSpaceOnUse">
<stop stop-color="#3D3D3D"/>
<stop offset="1" stop-color="#2F2F2F" stop-opacity="0"/>
</linearGradient>
<linearGradient id="paint42_linear_136_4202" x1="845.664" y1="-7.91992" x2="845.664" y2="353.08" gradientUnits="userSpaceOnUse">
<stop stop-color="#3D3D3D"/>
<stop offset="1" stop-color="#2F2F2F" stop-opacity="0"/>
</linearGradient>
<linearGradient id="paint43_linear_136_4202" x1="845.664" y1="-7.91994" x2="845.664" y2="353.08" gradientUnits="userSpaceOnUse">
<stop stop-color="#3D3D3D"/>
<stop offset="1" stop-color="#2F2F2F" stop-opacity="0"/>
</linearGradient>
<linearGradient id="paint44_linear_136_4202" x1="845.664" y1="-7.91994" x2="845.664" y2="353.08" gradientUnits="userSpaceOnUse">
<stop stop-color="#3D3D3D"/>
<stop offset="1" stop-color="#2F2F2F" stop-opacity="0"/>
</linearGradient>
<linearGradient id="paint45_linear_136_4202" x1="845.664" y1="-7.92021" x2="845.664" y2="353.08" gradientUnits="userSpaceOnUse">
<stop stop-color="#3D3D3D"/>
<stop offset="1" stop-color="#2F2F2F" stop-opacity="0"/>
</linearGradient>
<linearGradient id="paint46_linear_136_4202" x1="715.742" y1="-50.9199" x2="715.742" y2="310.08" gradientUnits="userSpaceOnUse">
<stop stop-color="#3D3D3D"/>
<stop offset="1" stop-color="#2F2F2F" stop-opacity="0"/>
</linearGradient>
<linearGradient id="paint47_linear_136_4202" x1="715.742" y1="-50.9199" x2="715.742" y2="310.08" gradientUnits="userSpaceOnUse">
<stop stop-color="#3D3D3D"/>
<stop offset="1" stop-color="#2F2F2F" stop-opacity="0"/>
</linearGradient>
<linearGradient id="paint48_linear_136_4202" x1="715.742" y1="-50.9199" x2="715.742" y2="310.08" gradientUnits="userSpaceOnUse">
<stop stop-color="#3D3D3D"/>
<stop offset="1" stop-color="#2F2F2F" stop-opacity="0"/>
</linearGradient>
<linearGradient id="paint49_linear_136_4202" x1="888.199" y1="-50.9199" x2="888.199" y2="310.08" gradientUnits="userSpaceOnUse">
<stop stop-color="#3D3D3D"/>
<stop offset="1" stop-color="#2F2F2F" stop-opacity="0"/>
</linearGradient>
<linearGradient id="paint50_linear_136_4202" x1="888.199" y1="-50.9199" x2="888.199" y2="310.08" gradientUnits="userSpaceOnUse">
<stop stop-color="#3D3D3D"/>
<stop offset="1" stop-color="#2F2F2F" stop-opacity="0"/>
</linearGradient>
<linearGradient id="paint51_linear_136_4202" x1="888.199" y1="-50.9199" x2="888.199" y2="310.08" gradientUnits="userSpaceOnUse">
<stop stop-color="#3D3D3D"/>
<stop offset="1" stop-color="#2F2F2F" stop-opacity="0"/>
</linearGradient>
<linearGradient id="paint52_linear_136_4202" x1="888.199" y1="-50.9201" x2="888.199" y2="310.08" gradientUnits="userSpaceOnUse">
<stop stop-color="#3D3D3D"/>
<stop offset="1" stop-color="#2F2F2F" stop-opacity="0"/>
</linearGradient>
<linearGradient id="paint53_linear_136_4202" x1="888.199" y1="-50.9197" x2="888.199" y2="310.08" gradientUnits="userSpaceOnUse">
<stop stop-color="#3D3D3D"/>
<stop offset="1" stop-color="#2F2F2F" stop-opacity="0"/>
</linearGradient>
<linearGradient id="paint54_linear_136_4202" x1="758.926" y1="33.0801" x2="758.926" y2="394.08" gradientUnits="userSpaceOnUse">
<stop stop-color="#3D3D3D"/>
<stop offset="1" stop-color="#2F2F2F" stop-opacity="0"/>
</linearGradient>
<linearGradient id="paint55_linear_136_4202" x1="608.816" y1="113.059" x2="618.127" y2="222.357" gradientUnits="userSpaceOnUse">
<stop stop-color="#133030" stop-opacity="0"/>
<stop offset="0.473958" stop-color="#1C4442" stop-opacity="0.63"/>
<stop offset="1" stop-color="#131313" stop-opacity="0"/>
</linearGradient>
<linearGradient id="paint56_linear_136_4202" x1="733.733" y1="235.9" x2="625.653" y2="245.632" gradientUnits="userSpaceOnUse">
<stop stop-color="#133030" stop-opacity="0"/>
<stop offset="0.473958" stop-color="#1C4442" stop-opacity="0.63"/>
<stop offset="1" stop-color="#131313" stop-opacity="0"/>
</linearGradient>
<linearGradient id="paint57_linear_136_4202" x1="565.437" y1="66.3965" x2="574.748" y2="175.695" gradientUnits="userSpaceOnUse">
<stop stop-color="#133030" stop-opacity="0"/>
<stop offset="0.473958" stop-color="#1C4442" stop-opacity="0.63"/>
<stop offset="1" stop-color="#131313" stop-opacity="0"/>
</linearGradient>
<linearGradient id="paint58_linear_136_4202" x1="564.988" y1="277.818" x2="574.299" y2="387.117" gradientUnits="userSpaceOnUse">
<stop stop-color="#133030" stop-opacity="0"/>
<stop offset="0.473958" stop-color="#1C4442" stop-opacity="0.63"/>
<stop offset="1" stop-color="#131313" stop-opacity="0"/>
</linearGradient>
<linearGradient id="paint59_linear_136_4202" x1="824.585" y1="71" x2="833.896" y2="180.298" gradientUnits="userSpaceOnUse">
<stop stop-color="#133030" stop-opacity="0"/>
<stop offset="0.473958" stop-color="#1C4442" stop-opacity="0.63"/>
<stop offset="1" stop-color="#131313" stop-opacity="0"/>
</linearGradient>
<linearGradient id="paint60_linear_136_4202" x1="867.586" y1="199" x2="876.896" y2="308.299" gradientUnits="userSpaceOnUse">
<stop stop-color="#133030" stop-opacity="0"/>
<stop offset="0.473958" stop-color="#1C4442" stop-opacity="0.63"/>
<stop offset="1" stop-color="#131313" stop-opacity="0"/>
</linearGradient>
<linearGradient id="paint61_linear_136_4202" x1="780.586" y1="328" x2="789.897" y2="437.298" gradientUnits="userSpaceOnUse">
<stop stop-color="#133030" stop-opacity="0"/>
<stop offset="0.473958" stop-color="#1C4442" stop-opacity="0.63"/>
<stop offset="1" stop-color="#131313" stop-opacity="0"/>
</linearGradient>
<radialGradient id="paint62_radial_136_4202" cx="0" cy="0" r="1" gradientUnits="userSpaceOnUse" gradientTransform="translate(828.779 208.54) rotate(180) scale(337.277 207.547)">
<stop stop-color="#101317" stop-opacity="0"/>
<stop offset="0.630208" stop-color="#101317" stop-opacity="0.35"/>
<stop offset="1" stop-color="#101317" stop-opacity="0.88"/>
</radialGradient>
<clipPath id="clip0_136_4202">
<rect width="920" height="400" fill="white"/>
</clipPath>
</defs>
</svg>
