<svg width="144" height="144" viewBox="0 0 144 144" fill="none" xmlns="http://www.w3.org/2000/svg">
<path d="M72 144C111.765 144 144 111.765 144 72C144 32.2355 111.765 0 72 0C32.2355 0 0 32.2355 0 72C0 111.765 32.2355 144 72 144Z" fill="white" fill-opacity="0.05"/>
<path d="M74.7985 70.1987L74.7992 42.4998C74.7992 40.4013 73.0979 38.7 70.9995 38.7C68.9008 38.7 67.2001 40.4014 67.2001 42.4998V70.1966L40.4998 70.1961C38.4465 70.1961 36.7 71.6313 36.7 73.4949C36.7 75.3587 38.4465 76.7935 40.4998 76.7935H67.1978L67.1971 105.495C67.1971 107.594 68.8984 109.295 70.9968 109.295C73.0954 109.295 74.7962 107.594 74.7962 105.495V76.7955L103.495 76.7961C105.549 76.7961 107.295 75.3608 107.295 73.4973C107.295 71.6335 105.549 70.1987 103.495 70.1987H74.7985Z" fill="white" stroke="white" stroke-width="0.6"/>
</svg>
