<svg width="24" height="24" viewBox="0 0 24 24" fill="none" xmlns="http://www.w3.org/2000/svg">
<path d="M12.1295 21.1992C8.31161 21.1992 5.19922 18.0868 5.19922 14.269C5.19922 10.7001 10.8015 4.22631 11.4655 3.47933C11.7975 3.10585 12.4615 3.10585 12.7935 3.47933C13.4159 4.22631 19.0597 10.7001 19.0597 14.269C19.0182 18.0868 15.9058 21.1992 12.1295 21.1992ZM12.1295 5.38827C10.2205 7.67069 6.90066 12.111 6.90066 14.269C6.90066 17.1324 9.22458 19.4563 12.088 19.4563C14.9514 19.4563 17.2753 17.1324 17.2753 14.269C17.2753 12.111 13.9969 7.67069 12.1295 5.38827Z" fill="white"/>
<path fill-rule="evenodd" clip-rule="evenodd" d="M12.948 3.35201L12.9479 3.35208C12.9804 3.39105 13.0268 3.44595 13.0856 3.51551C13.5867 4.1079 14.9875 5.76377 16.3254 7.70314C17.073 8.78665 17.8042 9.96325 18.3492 11.0966C18.892 12.2253 19.2605 13.332 19.2605 14.2697V14.2719L19.2605 14.2719C19.2178 18.1973 16.0183 21.4 12.1303 21.4C8.20193 21.4 5 18.1981 5 14.2697C5 13.3323 5.36571 12.2258 5.90529 11.097C6.44706 9.96365 7.17435 8.78703 7.91934 7.70341C9.40947 5.53595 10.982 3.72387 11.3168 3.34724C11.5271 3.1107 11.8344 3 12.1303 3C12.4261 3 12.7335 3.1107 12.9437 3.34724L12.948 3.35201ZM7.63228 12.375C7.29451 13.1231 7.10144 13.7737 7.10144 14.2697C7.10144 17.0227 9.33582 19.2571 12.0888 19.2571C14.8417 19.2571 17.0761 17.0227 17.0761 14.2697C17.0761 13.7731 16.8853 13.1222 16.552 12.3741C16.2208 11.6308 15.7581 10.8111 15.2344 9.98298C14.2436 8.41617 13.0433 6.83328 12.1286 5.70381C11.1944 6.83309 9.97423 8.41664 8.96832 9.9841C8.43694 10.8121 7.96786 11.6318 7.63228 12.375ZM11.9999 5.54561C10.0743 7.86923 6.90144 12.1601 6.90144 14.2697C6.90144 17.1331 9.22536 19.4571 12.0888 19.4571C14.9522 19.4571 17.2761 17.1331 17.2761 14.2697C17.2761 12.1606 14.1441 7.87092 12.2589 5.54698C12.2154 5.49327 12.1724 5.44061 12.1303 5.38905C12.0875 5.44017 12.044 5.49237 11.9999 5.54561ZM5.2 14.2697C5.2 18.0876 8.31239 21.2 12.1303 21.2C15.9066 21.2 19.019 18.0876 19.0605 14.2697C19.0605 10.889 13.996 4.90153 12.933 3.64472C12.8738 3.57478 12.827 3.51949 12.7942 3.48012C12.4622 3.10663 11.7983 3.10663 11.4663 3.48012C10.8023 4.22709 5.2 10.7009 5.2 14.2697Z" fill="white"/>
<path d="M10.1597 17.6122C10.2842 17.6952 10.4502 17.7367 10.5747 17.7367C10.9067 17.7367 11.1972 17.5707 11.3632 17.3217C11.6122 16.8652 11.4462 16.3672 11.0312 16.1183C10.4917 15.8278 10.1183 15.3298 9.91076 14.7903C9.74476 14.3338 9.24678 14.0848 8.7903 14.2508C8.33381 14.4168 8.08482 14.9148 8.25082 15.3713C8.5828 16.3257 9.28828 17.1142 10.1597 17.6122Z" fill="white"/>
<path fill-rule="evenodd" clip-rule="evenodd" d="M9.81925 14.8269C9.67104 14.4194 9.22859 14.2012 8.82694 14.3473C8.41938 14.4955 8.20121 14.9379 8.34727 15.3396L8.34775 15.3409L8.34774 15.3409C8.67093 16.2701 9.35896 17.0405 10.2118 17.5278L10.2178 17.5313L10.2177 17.5315C10.324 17.6023 10.4702 17.6392 10.5772 17.6392C10.8737 17.6392 11.1319 17.4918 11.28 17.2724C11.4982 16.8679 11.3536 16.4305 10.9842 16.2076C10.4205 15.9033 10.0338 15.3847 9.8199 14.8287L9.81923 14.8269L9.81925 14.8269ZM10.0069 14.7577C9.82277 14.2529 9.26962 13.9735 8.75859 14.1593C8.25341 14.343 7.97362 14.8961 8.15906 15.4072C8.49957 16.3856 9.22118 17.1913 10.1097 17.6998C10.252 17.7936 10.4362 17.8392 10.5772 17.8392C10.943 17.8392 11.2646 17.6561 11.4489 17.3797L11.4492 17.3799L11.4535 17.3721C11.7298 16.8654 11.543 16.3097 11.0851 16.035L11.0852 16.0349L11.0811 16.0327C10.5673 15.756 10.2078 15.2796 10.0069 14.7577Z" fill="white"/>
</svg>
