<svg width="24" height="24" viewBox="0 0 24 24" fill="none" xmlns="http://www.w3.org/2000/svg">
<path fill-rule="evenodd" clip-rule="evenodd" d="M7.04338 3H7.11334C7.54208 2.99999 7.91885 2.99997 8.23205 3.02134C8.56388 3.04399 8.90563 3.09435 9.24642 3.23551C10.0046 3.54953 10.6067 4.15185 10.9206 4.90981C11.0618 5.25064 11.1122 5.59249 11.1348 5.92433C11.1562 6.23757 11.1562 6.61439 11.1561 7.04315V7.1131C11.1562 7.54186 11.1562 7.91867 11.1348 8.23192C11.1122 8.56375 11.0618 8.90559 10.9206 9.24642C10.6067 10.0044 10.0046 10.6067 9.24642 10.9208C8.90563 11.0619 8.56386 11.1123 8.23205 11.1349C7.91885 11.1563 7.54209 11.1563 7.11335 11.1563H7.04338C6.61461 11.1563 6.2378 11.1563 5.92456 11.1349C5.59272 11.1123 5.25087 11.0619 4.91004 10.9208C4.15221 10.6069 3.54958 10.0047 3.23551 9.24642C3.09432 8.90559 3.04399 8.56374 3.02134 8.23191C2.99997 7.91867 2.99999 7.54185 3 7.11308V7.04315C2.99999 6.61437 2.99997 6.23756 3.02134 5.92432C3.04399 5.59249 3.09432 5.25063 3.23551 4.90981C3.5496 4.15151 4.15224 3.5494 4.91004 3.23551C5.25087 3.09432 5.59272 3.04399 5.92456 3.02134C6.2378 2.99997 6.61462 2.99999 7.04338 3ZM6.07772 5.26612C5.86044 5.28095 5.79206 5.30554 5.77109 5.31423C5.5641 5.39997 5.39976 5.56436 5.31423 5.77084C5.30554 5.79183 5.28095 5.8602 5.26612 6.07747C5.2506 6.30485 5.25 6.60405 5.25 7.07811C5.25 7.55216 5.2506 7.85136 5.26612 8.07875C5.28095 8.29602 5.30554 8.36441 5.31423 8.38538C5.39977 8.59191 5.56413 8.75631 5.77109 8.84204C5.79206 8.85072 5.86044 8.87532 6.07772 8.89014C6.3051 8.90566 6.60429 8.90626 7.07835 8.90626C7.55241 8.90626 7.85154 8.90566 8.07885 8.89014C8.29602 8.87532 8.36437 8.85073 8.38538 8.84204C8.59201 8.75645 8.75623 8.59225 8.84191 8.38538C8.8506 8.36441 8.8752 8.29602 8.89002 8.07875C8.90553 7.85137 8.90615 7.55218 8.90615 7.07812C8.90615 6.60408 8.90553 6.30486 8.89002 6.07749C8.8752 5.8602 8.8506 5.79181 8.84191 5.77084C8.75625 5.56401 8.59203 5.39982 8.38538 5.31423C8.36437 5.30553 8.29602 5.28095 8.07885 5.26612C7.85154 5.25062 7.55241 5.25 7.07835 5.25C6.60429 5.25 6.3051 5.2506 6.07772 5.26612ZM16.8871 3H16.9571C17.3859 2.99999 17.7626 2.99997 18.0758 3.02134C18.4076 3.04399 18.7494 3.09435 19.0902 3.23551C19.8483 3.54953 20.4505 4.15185 20.7643 4.90981C20.9055 5.25064 20.9559 5.59249 20.9785 5.92433C20.9999 6.23758 20.9999 6.61441 20.9999 7.04321V7.11304C20.9999 7.54182 20.9999 7.91865 20.9785 8.23192C20.9559 8.56375 20.9055 8.90559 20.7643 9.24642C20.4505 10.0044 19.8484 10.6067 19.0902 10.9208C18.7494 11.0619 18.4076 11.1123 18.0758 11.1349C17.7626 11.1563 17.3859 11.1563 16.9571 11.1563H16.8871C16.4583 11.1563 16.0815 11.1563 15.7683 11.1349C15.4365 11.1123 15.0946 11.0619 14.7537 10.9208C13.9959 10.6069 13.3933 10.0047 13.0792 9.24642C12.9381 8.90559 12.8877 8.56374 12.8651 8.23191C12.8437 7.91867 12.8437 7.54185 12.8437 7.11309V7.04313C12.8437 6.61437 12.8437 6.23756 12.8651 5.92432C12.8877 5.59249 12.9381 5.25063 13.0792 4.90981C13.3933 4.15151 13.996 3.5494 14.7537 3.23551C15.0946 3.09432 15.4365 3.04399 15.7683 3.02134C16.0815 2.99997 16.4583 2.99999 16.8871 3ZM15.9214 5.26612C15.7041 5.28095 15.6357 5.30554 15.6148 5.31423C15.4078 5.39997 15.2435 5.56436 15.158 5.77084C15.1492 5.79183 15.1247 5.8602 15.1099 6.07747C15.0943 6.30486 15.0937 6.60405 15.0937 7.07811C15.0937 7.55216 15.0943 7.85136 15.1099 8.07875C15.1247 8.29602 15.1492 8.36441 15.158 8.38538C15.2435 8.59191 15.4079 8.75631 15.6148 8.84204C15.6357 8.85072 15.7041 8.87532 15.9214 8.89014C16.1489 8.90566 16.4481 8.90626 16.9221 8.90626C17.3961 8.90626 17.6953 8.90566 17.9226 8.89014C18.1398 8.87532 18.2081 8.85073 18.2292 8.84204C18.4358 8.75645 18.6 8.59225 18.6857 8.38538C18.6943 8.36441 18.7189 8.29602 18.7338 8.07875C18.7492 7.85137 18.7499 7.55218 18.7499 7.07812C18.7499 6.60408 18.7492 6.30486 18.7338 6.07749C18.7189 5.8602 18.6943 5.79181 18.6857 5.77084C18.6 5.56401 18.4358 5.39982 18.2292 5.31423C18.2081 5.30553 18.1398 5.28095 17.9226 5.26612C17.6953 5.25062 17.3961 5.25 16.9221 5.25C16.4481 5.25 16.1489 5.2506 15.9214 5.26612ZM7.04338 12.8437H7.11335C7.54209 12.8437 7.91886 12.8437 8.23205 12.8651C8.56388 12.8877 8.90563 12.9381 9.24642 13.0792C10.0046 13.3933 10.6067 13.9956 10.9206 14.7535C11.0618 15.0943 11.1122 15.4362 11.1348 15.768C11.1562 16.0814 11.1562 16.4581 11.1561 16.8869V16.9568C11.1562 17.3856 11.1562 17.7624 11.1348 18.0756C11.1122 18.4075 11.0618 18.7494 10.9206 19.0902C10.6067 19.8481 10.0046 20.4505 9.24642 20.7645C8.90563 20.9056 8.56386 20.956 8.23205 20.9787C7.91886 21 7.54211 21 7.11339 21H7.04338C6.61461 21 6.2378 21 5.92456 20.9787C5.59272 20.956 5.25087 20.9056 4.91004 20.7645C4.15221 20.4506 3.54959 19.8484 3.23551 19.0902C3.09432 18.7494 3.04399 18.4075 3.02134 18.0756C2.99997 17.7624 2.99999 17.3856 3 16.9568V16.8869C2.99999 16.4581 2.99997 16.0812 3.02134 15.768C3.04399 15.4362 3.09432 15.0943 3.23551 14.7535C3.5496 13.9952 4.15224 13.3931 4.91004 13.0792C5.25087 12.9381 5.59272 12.8877 5.92456 12.8651C6.2378 12.8437 6.61461 12.8437 7.04338 12.8437ZM6.07772 15.1099C5.86044 15.1247 5.79206 15.1492 5.77109 15.158C5.5641 15.2437 5.39976 15.408 5.31423 15.6145C5.30554 15.6356 5.28095 15.7039 5.26612 15.9212C5.2506 16.1486 5.25 16.4478 5.25 16.9218C5.25 17.3959 5.2506 17.6951 5.26612 17.9225C5.28095 18.1398 5.30554 18.2082 5.31423 18.2292C5.39977 18.4356 5.56413 18.6001 5.77109 18.6857C5.79206 18.6945 5.86044 18.719 6.07772 18.7339C6.3051 18.7494 6.60429 18.75 7.07835 18.75C7.55241 18.75 7.85154 18.7494 8.07885 18.7339C8.29602 18.719 8.36437 18.6945 8.38538 18.6857C8.59201 18.6002 8.75623 18.436 8.84191 18.2292C8.8506 18.2082 8.8752 18.1398 8.89002 17.9225C8.90553 17.6951 8.90615 17.3959 8.90615 16.9218C8.90615 16.4478 8.90553 16.1486 8.89002 15.9212C8.8752 15.7039 8.8506 15.6356 8.84191 15.6145C8.75625 15.4078 8.59203 15.2436 8.38538 15.158C8.36437 15.1492 8.29602 15.1247 8.07885 15.1099C7.85154 15.0943 7.55241 15.0937 7.07835 15.0937C6.60429 15.0937 6.3051 15.0943 6.07772 15.1099ZM12.8437 13.9687C12.8437 13.3474 13.3474 12.8437 13.9687 12.8437H15.9375C16.5588 12.8437 17.0625 13.3474 17.0625 13.9687C17.0625 14.5901 16.5588 15.0937 15.9375 15.0937H13.9687C13.3474 15.0937 12.8437 14.5901 12.8437 13.9687ZM17.7657 13.9687C17.7657 13.3474 18.2693 12.8437 18.8907 12.8437H19.875C20.4963 12.8437 21 13.3474 21 13.9687V16.9218C21 17.5432 20.4963 18.0468 19.875 18.0468H16.9218C16.3006 18.0468 15.7968 17.5432 15.7968 16.9218C15.7968 16.3006 16.3006 15.7968 16.9218 15.7968H18.75V15.0851C18.1951 15.0158 17.7657 14.5424 17.7657 13.9687ZM13.9687 15.7968C14.5901 15.7968 15.0937 16.3006 15.0937 16.9218V18.75H15.9375C16.5588 18.75 17.0625 19.2536 17.0625 19.875C17.0625 20.4963 16.5588 21 15.9375 21H13.9687C13.3474 21 12.8437 20.4963 12.8437 19.875V16.9218C12.8437 16.3006 13.3474 15.7968 13.9687 15.7968ZM17.7657 19.875C17.7657 19.2536 18.2693 18.75 18.8907 18.75H19.875C20.4963 18.75 21 19.2536 21 19.875C21 20.4963 20.4963 21 19.875 21H18.8907C18.2693 21 17.7657 20.4963 17.7657 19.875Z" fill="white"/>
</svg>
