<svg width="16" height="16" viewBox="0 0 16 16" fill="none" xmlns="http://www.w3.org/2000/svg">
<g clip-path="url(#clip0_7599_376)">
<mask id="mask0_7599_376" style="mask-type:luminance" maskUnits="userSpaceOnUse" x="0" y="0" width="16" height="16">
<path d="M16 0H0V16H16V0Z" fill="white"/>
</mask>
<g mask="url(#mask0_7599_376)">
<path d="M8.00616 12.842C8.64287 12.842 9.26325 12.718 9.85425 12.4731C11.0493 11.98 11.9766 11.0495 12.4729 9.8544C12.9692 8.65935 12.9692 7.34675 12.4729 6.1517C11.7219 4.33626 9.96526 3.16406 7.99963 3.16406C7.36292 3.16406 6.74254 3.28814 6.15154 3.53303C3.68634 4.55176 2.51087 7.3892 3.53287 9.8544C4.28386 11.6666 6.04053 12.842 8.00616 12.842ZM6.3997 4.13055C6.91233 3.91832 7.45108 3.81057 7.99963 3.81057C9.70079 3.81057 11.2224 4.82604 11.8754 6.39985C12.3031 7.43491 12.3031 8.57445 11.8754 9.60625C11.4477 10.6413 10.6412 11.4445 9.6061 11.8755C9.09346 12.0878 8.55471 12.1955 8.00616 12.1955C6.30501 12.1955 4.78343 11.1801 4.1304 9.60625C3.24554 7.47083 4.26427 5.01215 6.3997 4.13055Z" fill="#F93262"/>
<path d="M0.470517 10.7102C0.519495 10.8408 0.643571 10.9257 0.774178 10.9257C0.810095 10.9257 0.846012 10.9192 0.881929 10.9061C1.04845 10.8474 1.13661 10.6613 1.07784 10.4915C0.121144 7.8173 0.757852 4.89497 2.74308 2.86403C4.11445 1.46001 5.95274 0.673098 7.91511 0.650242C9.87422 0.627386 11.7321 1.36858 13.1361 2.73995L12.31 2.74975C12.1304 2.75301 11.99 2.89668 11.99 3.07627C11.9933 3.25258 12.137 3.39625 12.3133 3.39625H12.3166L13.923 3.37666C14.0079 3.37666 14.0896 3.34074 14.1516 3.27871C14.2104 3.21667 14.243 3.13504 14.243 3.05014L14.2234 1.44368C14.2202 1.26409 14.0765 1.11716 13.8969 1.12369C13.7173 1.12696 13.5769 1.27062 13.5769 1.45021L13.5867 2.2763C12.0586 0.784114 10.044 -0.0223834 7.90858 0.000472798C5.77316 0.0298593 3.77161 0.88207 2.27942 2.41017C1.21171 3.504 0.480313 4.87211 0.170121 6.36103C-0.13354 7.81403 -0.0290541 9.31601 0.470517 10.7102Z" fill="#677076"/>
<path d="M13.2578 13.1398C10.4268 16.0392 5.76418 16.0915 2.86471 13.2638L3.69079 13.254C3.87038 13.2508 4.01078 13.1071 4.01078 12.9275C4.00752 12.7512 3.86385 12.6075 3.68753 12.6075H3.68426L2.0778 12.6271C1.89821 12.6304 1.75781 12.7741 1.75781 12.9536L1.7774 14.5601C1.78067 14.7364 1.92434 14.8801 2.10066 14.8801H2.10392C2.28351 14.8768 2.42391 14.7332 2.42391 14.5536L2.41411 13.7275C3.96833 15.2425 5.98295 16 8.00082 16C10.0807 16 12.1574 15.1968 13.7214 13.5969C14.7891 12.503 15.5205 11.1349 15.8307 9.64602C16.1344 8.19628 16.0299 6.69103 15.5303 5.30007C15.4715 5.13355 15.2854 5.04539 15.1156 5.10416C14.9491 5.16293 14.861 5.34905 14.9197 5.51884C15.8797 8.18648 15.243 11.1088 13.2578 13.1398Z" fill="#677076"/>
</g>
</g>
<defs>
<clipPath id="clip0_7599_376">
<rect width="16" height="16" fill="white"/>
</clipPath>
</defs>
</svg>
