<svg width="90" height="90" viewBox="0 0 90 90" fill="none" xmlns="http://www.w3.org/2000/svg">
<path d="M78.6621 39.3749H80.1562C82.4941 39.3749 84.375 37.4941 84.375 35.1562V12.6562C84.375 10.9511 83.3555 9.40421 81.7734 8.75382C80.1914 8.10343 78.3809 8.45499 77.168 9.66789L69.8555 16.9804C54.457 1.77531 29.6543 1.82804 14.3437 17.1562C-1.03711 32.537 -1.03711 57.4628 14.3437 72.8437C29.7246 88.2245 54.6504 88.2245 70.0312 72.8437C72.2285 70.6464 72.2285 67.078 70.0312 64.8808C67.834 62.6835 64.2656 62.6835 62.0684 64.8808C51.082 75.8671 33.2754 75.8671 22.2891 64.8808C11.3027 53.8945 11.3027 36.0878 22.2891 25.1015C33.2227 14.1679 50.8887 14.1152 61.8926 24.9257L54.668 32.1679C53.4551 33.3808 53.1035 35.1913 53.7539 36.7734C54.4043 38.3554 55.9512 39.3749 57.6562 39.3749H78.6621Z" fill="white"/>
</svg>
