<svg width="64" height="24" viewBox="0 0 64 24" fill="none" xmlns="http://www.w3.org/2000/svg">
<path fill-rule="evenodd" clip-rule="evenodd" d="M49.8774 15.2062C46.0334 15.2062 42.7504 15.7872 42.7504 18.1152C42.7504 20.4422 46.0124 21.0452 49.8774 21.0452C53.7214 21.0452 57.0044 20.4632 57.0044 18.1362C57.0044 15.8092 53.7424 15.2062 49.8774 15.2062Z" stroke="white" stroke-width="1.5" stroke-linecap="round" stroke-linejoin="round"/>
<path fill-rule="evenodd" clip-rule="evenodd" d="M49.8774 11.8859C52.4134 11.8859 54.4454 9.85288 54.4454 7.31788C54.4454 4.78188 52.4134 2.74988 49.8774 2.74988C47.3424 2.74988 45.3094 4.78188 45.3094 7.31788C45.3094 9.85288 47.3424 11.8859 49.8774 11.8859Z" stroke="white" stroke-width="1.5" stroke-linecap="round" stroke-linejoin="round"/>
<path d="M59.2041 8.66907V12.6791" stroke="white" stroke-width="1.5" stroke-linecap="round" stroke-linejoin="round"/>
<path d="M61.25 10.674H57.16" stroke="white" stroke-width="1.5" stroke-linecap="round" stroke-linejoin="round"/>
</svg>
