<svg width="50" height="50" viewBox="0 0 50 50" fill="none" xmlns="http://www.w3.org/2000/svg">
<path d="M34 25C34 26.78 33.4722 28.5201 32.4832 30.0001C31.4943 31.4802 30.0887 32.6337 28.4442 33.3149C26.7996 33.9961 24.99 34.1743 23.2442 33.8271C21.4984 33.4798 19.8947 32.6226 18.636 31.364C17.3774 30.1053 16.5202 28.5016 16.1729 26.7558C15.8257 25.01 16.0039 23.2004 16.6851 21.5558C17.3663 19.9113 18.5198 18.5057 19.9999 17.5168C21.4799 16.5278 23.22 16 25 16M30.4708 19.5292L35 15M35 15V18.6233M35 15H31.3767" stroke="white" stroke-width="1.5" stroke-linecap="round" stroke-linejoin="round"/>
<path d="M25.2805 29.9994C25.5567 29.9994 25.7609 29.8433 25.7609 29.5071V28.9546C27.3341 28.7925 28.3069 27.8678 28.3069 26.5227C28.3069 25.3638 27.6163 24.6553 26.1512 24.313L24.8782 24.0068C24.1156 23.8326 23.7253 23.4363 23.7253 22.8839C23.7253 22.1933 24.3138 21.713 25.2265 21.713C25.953 21.713 26.4454 21.9712 26.9678 22.6197C27.214 22.9079 27.3882 23.004 27.6283 23.004C27.9286 23.004 28.1508 22.7998 28.1508 22.4816C28.1508 22.1513 27.9466 21.773 27.5983 21.4428C27.166 21.0224 26.5235 20.7522 25.8089 20.6561V20.1157C25.8089 19.7795 25.5928 19.6233 25.3165 19.6233C25.0403 19.6233 24.8302 19.7795 24.8302 20.1157V20.6381C23.329 20.7762 22.3682 21.6769 22.3682 22.974C22.3682 24.0908 23.0708 24.8654 24.3798 25.1717L25.6708 25.4899C26.5775 25.7121 26.9558 26.0544 26.9558 26.6428C26.9558 27.4054 26.3614 27.8798 25.3285 27.8798C24.5419 27.8798 23.9415 27.5916 23.395 26.9431C23.1128 26.6248 22.9867 26.5648 22.7826 26.5648C22.4583 26.5648 22.2241 26.7749 22.2241 27.1292C22.2241 27.4835 22.4463 27.8678 22.8246 28.192C23.299 28.6064 24.0075 28.8766 24.7881 28.9486V29.5071C24.7881 29.8433 24.9983 29.9994 25.2805 29.9994Z" fill="white"/>
</svg>
