<svg width="20" height="20" viewBox="0 0 20 20" fill="none" xmlns="http://www.w3.org/2000/svg">
<g clip-path="url(#clip0_7202_322)">
<path d="M18.7918 11.1453L2.3558 19.3593C1.2488 19.9133 0.0967967 18.7253 0.637797 17.6423C0.637797 17.6423 2.6748 13.5283 3.2348 12.4513C3.7958 11.3733 4.4368 11.1873 10.3928 10.4173C10.6138 10.3883 10.7938 10.2223 10.7938 10.0003C10.7938 9.77826 10.6138 9.61226 10.3928 9.58326C4.4368 8.81326 3.7958 8.62726 3.2348 7.54926C2.6748 6.47226 0.637797 2.35826 0.637797 2.35826C0.0967967 1.27526 1.2488 0.0872641 2.3558 0.640264L18.7918 8.85526C19.7358 9.32626 19.7358 10.6743 18.7918 11.1453Z" fill="white"/>
</g>
<defs>
<clipPath id="clip0_7202_322">
<rect width="20" height="20" fill="white"/>
</clipPath>
</defs>
</svg>
