<svg width="16" height="16" viewBox="0 0 16 16" fill="none" xmlns="http://www.w3.org/2000/svg">
<g clip-path="url(#clip0_7597_344)">
<path d="M12.0398 14.0473C10.8438 14.8464 9.43769 15.273 7.99929 15.273C6.07043 15.273 4.22056 14.5067 2.85664 13.1429C1.49278 11.779 0.726562 9.92914 0.726562 8.00027C0.726562 6.56184 1.15309 5.15576 1.95221 3.95976C2.75133 2.76376 3.88717 1.8316 5.21609 1.28115C6.54501 0.730695 8.00729 0.586665 9.41813 0.867284C10.8289 1.14791 12.1247 1.84056 13.1418 2.85768C14.159 3.87478 14.8517 5.17067 15.1322 6.58144C15.4129 7.99227 15.2688 9.45452 14.7184 10.7834C14.1679 12.1123 13.2358 13.2482 12.0398 14.0473Z" fill="#0F0F0F"/>
<path fill-rule="evenodd" clip-rule="evenodd" d="M9.32059 1.35768C8.00674 1.09635 6.64498 1.23048 5.40743 1.74309L5.21609 1.28115L5.40743 1.74309C4.16988 2.2557 3.11212 3.12377 2.36794 4.23754L1.96189 3.96623L2.36794 4.23755C1.62376 5.35131 1.22656 6.66073 1.22656 8.00027C1.22656 9.79654 1.94011 11.5192 3.21019 12.7893M9.51567 0.376891L9.41813 0.867284L9.51567 0.376892C11.0234 0.676809 12.4084 1.41708 13.4954 2.50411C14.5825 3.59115 15.3228 4.97612 15.6226 6.48389C15.9226 7.99172 15.7686 9.5545 15.1804 10.9747L15.1804 10.9747C14.592 12.395 13.5958 13.609 12.3176 14.4631C11.0394 15.3171 9.53658 15.773 7.99929 15.773C5.93782 15.773 3.96078 14.9541 2.5031 13.4964L2.50309 13.4964C1.04545 12.0388 0.226562 10.0617 0.226562 8.00027C0.226562 6.46295 0.682409 4.9602 1.53647 3.68198C2.39053 2.40375 3.60447 1.40751 5.02475 0.819207L5.19669 1.23432L5.02475 0.819206C6.44503 0.230912 8.00784 0.0769802 9.51567 0.376891ZM9.32059 1.35768C10.6344 1.61901 11.8411 2.26404 12.7883 3.21123ZM14.6418 6.67898C14.3806 5.3652 13.7355 4.15841 12.7883 3.21124L12.7883 3.21123M14.2565 10.5921C14.769 9.35453 14.9032 7.99281 14.6418 6.679L14.6418 6.67898M14.2565 10.5921C13.7438 11.8296 12.8758 12.8874 11.762 13.6316C10.6482 14.3758 9.3388 14.773 7.99929 14.773C6.20305 14.773 4.48035 14.0594 3.2102 12.7893" fill="#757575"/>
<g style="mix-blend-mode:multiply">
<path d="M1.54075 8.2869C1.54049 6.96573 1.92562 5.6732 2.64895 4.56764C3.37228 3.46209 4.4024 2.59155 5.61307 2.06267C6.82376 1.5338 8.16239 1.36957 9.46501 1.59011C10.7676 1.81065 11.9777 2.40637 12.9468 3.30429C12.326 2.63356 11.5763 2.09501 10.7425 1.72093C9.90857 1.34685 9.00784 1.14492 8.0941 1.12725C7.18038 1.10957 6.27248 1.27651 5.4248 1.61805C4.57712 1.95961 3.8071 2.46875 3.16088 3.11498C2.51465 3.7612 2.00551 4.53122 1.66396 5.3789C1.32241 6.22658 1.15547 7.13448 1.17314 8.04821C1.19082 8.96195 1.39275 9.86268 1.76684 10.6965C2.14092 11.5304 2.67947 12.2801 3.3502 12.9009C2.18525 11.647 1.53869 9.99839 1.54075 8.2869Z" fill="black"/>
</g>
<path d="M8.43947 14.9788C12.0735 14.9788 15.0195 11.8777 15.0195 8.05235C15.0195 4.22703 12.0735 1.12598 8.43947 1.12598C4.80538 1.12598 1.85938 4.22703 1.85938 8.05235C1.85938 11.8777 4.80538 14.9788 8.43947 14.9788Z" fill="black"/>
<path d="M12.7536 12.555C15.2495 10.0686 15.2495 6.03756 12.7536 3.55125C10.2579 1.06495 6.21139 1.06495 3.7156 3.55125C1.2198 6.03756 1.2198 10.0686 3.7156 12.555C6.21139 15.0413 10.2579 15.0413 12.7536 12.555Z" fill="black"/>
<path d="M15.0246 8.0027C15.0307 9.83062 14.3094 11.5863 13.019 12.8849C11.7285 14.1835 9.97424 14.919 8.14071 14.9303C6.30715 14.9415 4.54394 14.2275 3.23761 12.9448C1.93127 11.6621 1.18841 9.91542 1.17188 8.08757V8.0027C1.17188 6.17139 1.90163 4.41505 3.20061 3.1201C4.49959 1.82515 6.26139 1.09766 8.09838 1.09766H8.18384C10.0062 1.1194 11.7465 1.85647 13.0272 3.149C14.3079 4.44153 15.0252 6.18593 15.0246 8.0027Z" fill="#2E3031"/>
<path d="M12.9467 3.1475L3.19172 12.9009C1.91591 11.6295 1.19056 9.90814 1.17188 8.10734V8.02261C1.17188 6.19361 1.89859 4.43953 3.19217 3.14617C4.48574 1.85283 6.24024 1.12614 8.06973 1.12598H8.15482C9.95511 1.14721 11.6755 1.87294 12.9467 3.1475Z" fill="#444444"/>
<path d="M15.0201 8.05221C15.0201 8.96181 14.8506 9.86254 14.5212 10.7029C14.1917 11.5433 13.7088 12.3068 13.1 12.95C12.4912 13.5932 11.7684 14.1034 10.973 14.4516C10.1775 14.7996 9.32502 14.9788 8.464 14.9788C8.33971 14.9788 8.2163 14.9752 8.09375 14.9679C9.76604 14.8683 11.3388 14.0962 12.4893 12.8102C13.6398 11.5243 14.2808 9.82188 14.2808 8.05235C14.2808 6.28289 13.6398 4.58049 12.4893 3.29451C11.3388 2.00854 9.76604 1.23649 8.09375 1.13681C8.2163 1.12959 8.33971 1.12598 8.464 1.12598C10.2028 1.12598 11.8704 1.8557 13.0999 3.15462C14.3294 4.45355 15.0201 6.21527 15.0201 8.05221Z" fill="#151520"/>
<path d="M15.0201 8.05221C15.0201 8.96181 14.8506 9.86254 14.5212 10.7029C14.1917 11.5433 13.7088 12.3068 13.1 12.95C12.4912 13.5932 11.7684 14.1034 10.973 14.4516C10.1775 14.7996 9.32502 14.9788 8.464 14.9788C8.33971 14.9788 8.2163 14.9752 8.09375 14.9679C9.76604 14.8683 11.3388 14.0962 12.4893 12.8102C13.6398 11.5243 14.2808 9.82188 14.2808 8.05235C14.2808 6.28289 13.6398 4.58049 12.4893 3.29451C11.3388 2.00854 9.76604 1.23649 8.09375 1.13681C8.2163 1.12959 8.33971 1.12598 8.464 1.12598C10.2028 1.12598 11.8704 1.8557 13.0999 3.15462C14.3294 4.45355 15.0201 6.21527 15.0201 8.05221Z" fill="#151520"/>
<path d="M10.2941 6.24083C10.3063 6.26706 10.3125 6.29556 10.3126 6.32443V6.99957C10.3121 7.21084 10.2621 7.41912 10.1666 7.60785C10.0711 7.79658 9.93282 7.96065 9.76256 8.08705C9.49071 8.29934 9.21231 8.49847 8.92751 8.69876L8.31413 9.12261C8.23369 9.18065 8.13493 9.20807 8.03595 9.19992C7.98467 9.19396 7.93449 9.18094 7.88693 9.16116C7.84453 9.14007 7.80344 9.1165 7.76387 9.09068C7.20722 8.71119 6.65058 8.33192 6.10693 7.93345C5.86085 7.75992 5.62161 7.57978 5.37553 7.39992C5.34318 7.38065 5.31743 7.35461 5.28439 7.33556C5.19342 7.26554 5.13128 7.16492 5.10963 7.05258C5.1039 7.02274 5.10168 6.99232 5.10302 6.96196V6.35139C5.10398 6.32548 5.10184 6.29954 5.09664 6.27413C5.09474 6.27037 5.09375 6.26622 5.09375 6.26201C5.09375 6.2578 5.09474 6.25365 5.09664 6.24989C5.09852 6.24621 5.10126 6.24303 5.10462 6.2406C5.10803 6.23817 5.1119 6.23647 5.11601 6.23562H5.12239C5.12389 6.24647 5.12609 6.25722 5.12899 6.26779C5.13419 6.33084 5.16173 6.39001 5.2067 6.43476C5.23903 6.47567 5.27846 6.5105 5.32312 6.53762C5.97022 7.01973 6.63053 7.48916 7.29726 7.95199C7.4526 8.06145 7.61413 8.16407 7.76976 8.2733C7.83246 8.31701 7.90235 8.34959 7.97624 8.36959C8.063 8.39018 8.15435 8.38108 8.23529 8.3437C8.26555 8.33054 8.29384 8.31323 8.31936 8.29228C8.74656 7.99032 9.16722 7.69439 9.59529 7.39221C9.67937 7.33439 9.75711 7.27665 9.83413 7.21231C10.037 7.03132 10.185 6.79767 10.2615 6.53762C10.2734 6.49335 10.2821 6.44831 10.2875 6.40282C10.293 6.37745 10.2952 6.35148 10.2941 6.32556V6.24083ZM7.98991 5.30809H8.14504C8.39675 5.32707 8.6406 5.40418 8.85711 5.53329C9.00336 5.62162 9.13973 5.72514 9.26402 5.84209C9.34707 5.91312 9.40213 6.01114 9.41944 6.11871C9.43675 6.22378 9.42082 6.3316 9.37384 6.42729C9.36089 6.45946 9.34126 6.48528 9.32831 6.51088C9.32191 6.52338 9.311 6.53301 9.29776 6.53785C9.28446 6.54262 9.26991 6.54213 9.25696 6.53649C9.25056 6.53649 9.25056 6.53014 9.24416 6.53014C9.19864 6.49797 9.15304 6.47215 9.10176 6.43952C8.91646 6.30895 8.70758 6.21503 8.48656 6.1629C8.34482 6.12999 8.19878 6.11921 8.05369 6.13095C7.75776 6.15243 7.47347 6.25431 7.23183 6.42547C7.14069 6.48981 7.04408 6.54124 6.94678 6.60536C6.9404 6.60536 6.9404 6.61193 6.93403 6.61193C6.92909 6.61122 6.92453 6.6089 6.92104 6.60536L6.37739 6.23902C6.36535 6.23218 6.35443 6.22354 6.34503 6.21341C6.33779 6.20864 6.33251 6.20145 6.33013 6.19314C6.32774 6.18484 6.32843 6.17596 6.33205 6.1681C6.33205 6.16154 6.33865 6.16154 6.34503 6.15519L6.35779 6.14228C6.51319 6.03964 6.66198 5.92342 6.81714 5.81377C6.95003 5.7168 7.08808 5.62703 7.23069 5.54484C7.39689 5.45333 7.57573 5.38639 7.76133 5.34615C7.83544 5.324 7.91195 5.31099 7.98918 5.30741L7.98991 5.30809ZM7.70395 5.3602V4.23081C7.70504 4.18831 7.72307 4.14797 7.75406 4.11863C7.78496 4.0893 7.82635 4.07335 7.86911 4.07426H8.19791C8.24067 4.07335 8.28206 4.0893 8.31296 4.11863C8.34395 4.14797 8.36198 4.18831 8.36307 4.23081V5.34094C8.14307 5.31567 7.92046 5.32231 7.70235 5.36065L7.70395 5.3602ZM10.3014 8.12421C10.3139 8.15032 10.3206 8.17883 10.321 8.20778V8.89563C10.3151 9.19883 10.2108 9.49207 10.0234 9.73141C9.94235 9.8325 9.84889 9.92327 9.74526 10.0014C9.4718 10.2135 9.18816 10.4129 8.9022 10.6132L8.3326 11.0053C8.28366 11.039 8.22867 11.063 8.17056 11.076C8.09296 11.0955 8.011 11.0887 7.93769 11.0568C7.88489 11.0376 7.83493 11.0116 7.78889 10.9795C7.15459 10.549 6.52025 10.1118 5.89891 9.65527C5.70478 9.51388 5.51156 9.3725 5.31629 9.22479C5.22032 9.15534 5.1556 9.05127 5.13606 8.93483C5.1304 8.90494 5.12826 8.87454 5.12968 8.84421V8.22116C5.13056 8.19752 5.12834 8.17381 5.12307 8.15068C5.1167 8.13119 5.12968 8.11199 5.14267 8.11199C5.14267 8.12487 5.14904 8.13119 5.14904 8.14414C5.15635 8.21505 5.18863 8.28108 5.24019 8.33061C5.27163 8.36414 5.30635 8.39454 5.34386 8.42123C6.01693 8.92261 6.7096 9.41105 7.40133 9.88683C7.53006 9.97745 7.66016 10.0604 7.78322 10.144C7.83566 10.1842 7.89478 10.2149 7.95798 10.2346C8.0054 10.2507 8.05551 10.2572 8.10555 10.254C8.15551 10.2506 8.20431 10.2375 8.24918 10.2153C8.28089 10.2008 8.31136 10.1836 8.34031 10.1641C8.80627 9.83563 9.27246 9.50712 9.73842 9.17381C9.99595 8.98887 10.1848 8.72458 10.2757 8.42188C10.2894 8.37105 10.3002 8.31948 10.308 8.26741C10.2949 8.22087 10.292 8.17214 10.2998 8.12443L10.3014 8.12421ZM8.24169 12.4372H7.85435C7.80831 12.4367 7.76431 12.4182 7.73202 12.3857C7.69966 12.3531 7.68155 12.3092 7.68162 12.2634L7.7062 10.9199C7.73995 10.8729 7.78555 10.8357 7.83835 10.8118L8.37726 10.7081C8.38227 10.7081 8.38729 10.7091 8.39195 10.711C8.3966 10.7129 8.40082 10.7158 8.40431 10.7194C8.40795 10.723 8.41071 10.7273 8.41267 10.7319C8.41456 10.7366 8.41551 10.7416 8.41551 10.7466V12.2646C8.41536 12.3102 8.39718 12.354 8.36489 12.3864C8.3326 12.4188 8.28875 12.4373 8.24278 12.4379L8.24169 12.4372Z" fill="#151520"/>
<path d="M10.5129 6.02208C10.525 6.04831 10.5313 6.07681 10.5314 6.10568V6.78082C10.5308 6.99209 10.4808 7.20034 10.3854 7.38908C10.2899 7.57781 10.1516 7.74188 9.98131 7.86828C9.70946 8.08057 9.43106 8.2797 9.14626 8.47999L8.53288 8.90392C8.45244 8.96188 8.35368 8.9893 8.2547 8.98116C8.20342 8.97519 8.15324 8.96217 8.10568 8.94239C8.06328 8.9213 8.02219 8.89781 7.98262 8.87192C7.42597 8.49243 6.86934 8.11323 6.32569 7.71468C6.07961 7.54116 5.84036 7.36101 5.59428 7.18115C5.56193 7.16189 5.53618 7.13583 5.50315 7.1168C5.41218 7.04679 5.35004 6.94617 5.32838 6.83383C5.32265 6.80399 5.32043 6.77357 5.32177 6.74321V6.13264C5.32273 6.10673 5.32059 6.08079 5.31539 6.05538C5.31349 6.05162 5.3125 6.04747 5.3125 6.04326C5.3125 6.03905 5.31349 6.0349 5.31539 6.03114C5.31728 6.02746 5.32001 6.02428 5.32337 6.02185C5.32678 6.01942 5.33066 6.01772 5.33476 6.01687H5.34114C5.34264 6.02772 5.34485 6.03847 5.34775 6.04904C5.35294 6.11209 5.38048 6.17126 5.42545 6.21601C5.45778 6.25692 5.49721 6.29175 5.54188 6.31887C6.18897 6.80098 6.84929 7.27041 7.51601 7.7333C7.67135 7.84268 7.83288 7.9453 7.98851 8.05454C8.05121 8.09825 8.1211 8.13083 8.19499 8.15083C8.28175 8.17141 8.3731 8.16232 8.45404 8.12501C8.4843 8.11177 8.51259 8.09447 8.53811 8.07352C8.96531 7.77156 9.38597 7.4757 9.81404 7.17344C9.89812 7.11567 9.97586 7.0579 10.0529 6.99356C10.2557 6.81257 10.4037 6.57892 10.4803 6.31887C10.4922 6.2746 10.5008 6.22956 10.5063 6.18407C10.5118 6.1587 10.514 6.13273 10.5129 6.10681V6.02208ZM8.20866 5.08934H8.36379C8.6155 5.10832 8.85935 5.18543 9.07586 5.31454C9.22211 5.40287 9.35848 5.50638 9.48277 5.62334C9.56582 5.69437 9.62088 5.79239 9.63819 5.89996C9.6555 6.00503 9.63957 6.11285 9.59259 6.20853C9.57964 6.24071 9.56001 6.26653 9.54706 6.29213C9.54066 6.30463 9.52975 6.31426 9.51651 6.31909C9.50321 6.32387 9.48866 6.32338 9.47571 6.31774C9.46931 6.31774 9.46931 6.31139 9.46299 6.31139C9.41739 6.27922 9.37179 6.25339 9.32051 6.22077C9.13521 6.0902 8.92633 5.99628 8.70539 5.94414C8.56357 5.91124 8.41753 5.90046 8.27244 5.9122C7.97651 5.93367 7.69222 6.03556 7.45055 6.20672C7.35942 6.27106 7.26283 6.32249 7.16554 6.38661C7.15916 6.38661 7.15916 6.39318 7.15278 6.39318C7.14785 6.39246 7.14328 6.39015 7.13979 6.38661L6.59614 6.02026C6.5841 6.01343 6.57319 6.00479 6.56379 5.99466C6.55655 5.98989 6.55126 5.9827 6.54888 5.97439C6.5465 5.96609 6.54718 5.95721 6.5508 5.94935C6.5508 5.94279 6.55741 5.94279 6.56379 5.93644L6.57654 5.92353C6.73194 5.82089 6.88073 5.70467 7.03589 5.59502C7.16878 5.49805 7.30684 5.40828 7.44946 5.32609C7.61572 5.23458 7.79448 5.16764 7.98008 5.1274C8.05419 5.10525 8.1307 5.09224 8.20793 5.08866L8.20866 5.08934ZM7.9227 5.14145V4.01206C7.92379 3.96955 7.94182 3.92922 7.97281 3.89988C8.00371 3.87055 8.0451 3.8546 8.08786 3.85551H8.41666C8.45942 3.8546 8.50081 3.87055 8.53179 3.89988C8.5627 3.92922 8.58073 3.96955 8.58182 4.01206V5.12219C8.36182 5.09692 8.13921 5.10356 7.9211 5.1419L7.9227 5.14145ZM10.5202 7.90545C10.5327 7.93163 10.5394 7.96014 10.5398 7.98908V8.67687C10.5339 8.98014 10.4295 9.2733 10.2422 9.51265C10.1611 9.61381 10.0676 9.7045 9.96401 9.78268C9.69055 9.99476 9.40691 10.1941 9.12095 10.3944L8.55135 10.7866C8.50241 10.8204 8.44742 10.8444 8.38931 10.8573C8.31171 10.8767 8.22975 10.87 8.15644 10.838C8.10371 10.8188 8.05368 10.7929 8.00764 10.7607C7.37332 10.3303 6.739 9.89301 6.11766 9.4365C5.92353 9.29512 5.73031 9.15381 5.53505 9.0061C5.43907 8.93665 5.37435 8.8325 5.35481 8.71607C5.34915 8.68625 5.34702 8.65577 5.34843 8.62545V8.00239C5.34931 7.97876 5.34709 7.95505 5.34182 7.93199C5.33545 7.9125 5.34843 7.89323 5.36142 7.89323C5.36142 7.9061 5.3678 7.9125 5.3678 7.92537C5.3751 7.99628 5.40739 8.06232 5.45894 8.11185C5.49038 8.14537 5.5251 8.17577 5.56262 8.20247C6.23569 8.70385 6.92835 9.19228 7.62008 9.66807C7.74881 9.75868 7.87891 9.84159 8.00197 9.92523C8.05441 9.96545 8.11353 9.99614 8.17673 10.0158C8.22415 10.0319 8.27426 10.0385 8.3243 10.0352C8.37426 10.0318 8.42306 10.0188 8.46793 9.99657C8.49964 9.98203 8.53011 9.96487 8.55906 9.94537C9.02502 9.61687 9.49121 9.28836 9.95717 8.95512C10.2147 8.77017 10.4036 8.50581 10.4944 8.20312C10.5082 8.15228 10.519 8.10072 10.5268 8.04865C10.5136 8.00217 10.5108 7.95337 10.5186 7.90567L10.5202 7.90545ZM8.46044 12.2184H8.0731C8.02706 12.218 7.98306 12.1994 7.95077 12.1669C7.91841 12.1343 7.9003 12.0904 7.90037 12.0446L7.92495 10.7012C7.9587 10.6542 8.0043 10.6169 8.0571 10.5931L8.59601 10.4894C8.60102 10.4893 8.60604 10.4903 8.6107 10.4923C8.61535 10.4942 8.61957 10.4971 8.62313 10.5006C8.6267 10.5042 8.62946 10.5085 8.63142 10.5132C8.63331 10.5178 8.63426 10.5228 8.63426 10.5278V12.0458C8.63411 12.0914 8.61593 12.1352 8.58364 12.1676C8.55135 12.2001 8.5075 12.2185 8.46153 12.2191L8.46044 12.2184Z" fill="#EEF0FF"/>
</g>
<defs>
<clipPath id="clip0_7597_344">
<rect width="16" height="16" fill="white"/>
</clipPath>
</defs>
</svg>
