<svg width="16" height="16" viewBox="0 0 16 16" fill="none" xmlns="http://www.w3.org/2000/svg">
<g clip-path="url(#clip0_7597_356)">
<path d="M12.3835 14.2788C11.1876 15.0779 9.7814 15.5045 8.343 15.5045C6.41418 15.5045 4.56431 14.7382 3.20039 13.3743C1.83653 12.0104 1.07031 10.1605 1.07031 8.23174C1.07031 6.79328 1.49684 5.3872 2.29596 4.19121C3.09508 2.99521 4.23092 2.06304 5.55984 1.51259C6.88876 0.96214 8.35108 0.818111 9.76184 1.09873C11.1727 1.37935 12.4685 2.07201 13.4856 3.08912C14.5027 4.10623 15.1954 5.40211 15.4759 6.81289C15.7566 8.22367 15.6126 9.68592 15.0621 11.0149C14.5117 12.3437 13.5795 13.4796 12.3835 14.2788Z" fill="#0F0F0F"/>
<path fill-rule="evenodd" clip-rule="evenodd" d="M9.66429 1.58912C8.35052 1.3278 6.98874 1.46192 5.75118 1.97453C4.51363 2.48714 3.45587 3.35522 2.71169 4.46899L2.30564 4.19768L2.71169 4.46899C1.96751 5.58276 1.57031 6.89217 1.57031 8.23174C1.57031 10.0279 2.28386 11.7506 3.55395 13.0207L3.23525 13.3394L3.55395 13.0207C4.8241 14.2909 6.54679 15.0045 8.343 15.0045C9.68252 15.0045 10.992 14.6072 12.1057 13.8631C13.2195 13.1188 14.0876 12.061 14.6002 10.8235C14.6002 10.8235 14.6002 10.8235 14.6002 10.8235L15.0414 11.0063L15.0621 11.0149L15.0414 11.0063M13.1321 3.44267C12.1848 2.49548 10.9781 1.85045 9.6643 1.58912L9.76184 1.09873L9.66429 1.58912M5.3685 1.05065C6.78878 0.462357 8.35163 0.308425 9.85938 0.608336C11.3672 0.908256 12.7521 1.64854 13.8392 2.73556L13.8392 2.73557C14.9262 3.8226 15.6665 5.20758 15.9663 6.71536C16.2663 8.22313 16.1124 9.7859 15.5241 11.2062L15.5241 11.2062C14.9358 12.6264 13.9395 13.8404 12.6613 14.6945L12.3987 14.3015L12.6613 14.6945C11.3831 15.5486 9.88029 16.0045 8.343 16.0045C6.28157 16.0045 4.30452 15.1855 2.84684 13.7278C1.38921 12.2702 0.570312 10.2931 0.570312 8.23174C0.570312 6.6944 1.02616 5.19165 1.88022 3.91343C2.73428 2.6352 3.94822 1.63895 5.3685 1.05065Z" fill="#757575"/>
<g style="mix-blend-mode:multiply">
<path d="M1.80638 8.59161C1.80612 7.27043 2.19124 5.97789 2.91457 4.87233C3.6379 3.76679 4.66801 2.89624 5.8787 2.36737C7.08937 1.83849 8.42804 1.67426 9.73065 1.8948C11.0333 2.11534 12.2432 2.71107 13.2124 3.60899C12.5917 2.93825 11.8419 2.39971 11.008 2.02563C10.1742 1.65154 9.27349 1.44961 8.35975 1.43193C7.446 1.41426 6.5381 1.5812 5.69042 1.92275C4.84274 2.2643 4.07273 2.77344 3.4265 3.41967C2.78028 4.0659 2.27113 4.83591 1.92958 5.68359C1.58803 6.53127 1.42109 7.43918 1.43877 8.35292C1.45644 9.2666 1.65837 10.1674 2.03246 11.0012C2.40655 11.835 2.94508 12.5848 3.61582 13.2056C2.45087 11.9518 1.80431 10.303 1.80638 8.59161Z" fill="black"/>
</g>
<path d="M8.70512 15.2835C12.3392 15.2835 15.2852 12.1824 15.2852 8.35706C15.2852 4.53172 12.3392 1.43066 8.70512 1.43066C5.07101 1.43066 2.125 4.53172 2.125 8.35706C2.125 12.1824 5.07101 15.2835 8.70512 15.2835Z" fill="black"/>
<path d="M13.0193 12.8587C15.5151 10.3724 15.5151 6.34127 13.0193 3.85496C10.5235 1.36866 6.47701 1.36866 3.98122 3.85496C1.48543 6.34127 1.48543 10.3724 3.98122 12.8587C6.47701 15.345 10.5235 15.345 13.0193 12.8587Z" fill="black"/>
<path d="M15.2903 8.34579C15.2963 10.1763 14.575 11.9345 13.2845 13.235C11.9941 14.5355 10.2399 15.2721 8.40637 15.2833C6.57278 15.2946 4.80957 14.5795 3.50324 13.295C2.1969 12.0104 1.45404 10.2612 1.4375 8.43074V8.34579C1.4375 6.51176 2.16726 4.75288 3.46624 3.45605C4.76522 2.15922 6.52701 1.43066 8.36404 1.43066H8.44949C10.2718 1.45245 12.012 2.19058 13.2928 3.48499C14.5735 4.7794 15.2908 6.52633 15.2903 8.34579Z" fill="#2E3031"/>
<path d="M13.2124 3.45219L3.45735 13.2056C2.18154 11.9342 1.45618 10.2128 1.4375 8.41205V8.32732C1.4375 6.49829 2.16421 4.74421 3.45779 3.45086C4.75137 2.15751 6.50586 1.43083 8.33531 1.43066H8.42047C10.2208 1.4519 11.9411 2.17763 13.2124 3.45219Z" fill="#444444"/>
<path d="M15.2858 8.35692C15.2858 9.26652 15.1163 10.1672 14.7869 11.0075C14.4574 11.8479 13.9745 12.6115 13.3657 13.2547C12.7569 13.8979 12.0341 14.4081 11.2386 14.7562C10.4432 15.1043 9.59065 15.2835 8.7297 15.2835C8.60534 15.2835 8.48192 15.2798 8.35938 15.2726C10.0317 15.1729 11.6045 14.4009 12.7549 13.115C13.9055 11.829 14.5465 10.1266 14.5465 8.35706C14.5465 6.58758 13.9055 4.88518 12.7549 3.5992C11.6045 2.31322 10.0317 1.54118 8.35938 1.4415C8.48192 1.43428 8.60534 1.43066 8.7297 1.43066C10.4685 1.43066 12.136 2.16039 13.3656 3.45931C14.5951 4.75823 15.2858 6.51995 15.2858 8.35692Z" fill="#151520"/>
<path d="M10.4581 9.35769C10.4581 8.25194 9.7852 7.87914 8.48368 7.70067C7.52164 7.56161 7.33684 7.3358 7.33684 6.8872C7.33684 6.4386 7.66229 6.159 8.28462 6.159C8.85167 6.159 9.17866 6.35648 9.31291 6.81293C9.32717 6.8629 9.3572 6.90693 9.39844 6.93853C9.43968 6.97013 9.49 6.98757 9.54193 6.98826H10.0395C10.072 6.98893 10.1043 6.98244 10.1339 6.96927C10.1637 6.95604 10.1901 6.93643 10.2113 6.91188C10.2326 6.88727 10.2482 6.85832 10.257 6.82703C10.2658 6.79574 10.2676 6.76284 10.2622 6.73081C10.1043 6.00894 9.61778 5.57455 8.8548 5.43871V4.67736C8.8548 4.61452 8.82986 4.55426 8.78542 4.50982C8.74098 4.46539 8.68077 4.44043 8.61793 4.44043H8.14404C8.0812 4.44043 8.02091 4.46539 7.97648 4.50982C7.93204 4.55426 7.90709 4.61452 7.90709 4.67736V5.41186C6.95931 5.54455 6.36069 6.17006 6.36069 6.97248C6.36069 8.01027 6.99253 8.41303 8.31306 8.59158C9.21182 8.73842 9.46768 8.93274 9.46768 9.44292C9.46768 9.95311 9.03327 10.2959 8.42047 10.2959C7.59429 10.2959 7.31473 9.9342 7.22152 9.46503C7.2107 9.41122 7.18176 9.36271 7.13952 9.32765C7.09728 9.2926 7.04429 9.27303 6.98937 9.27231H6.44912C6.4169 9.27216 6.38499 9.279 6.35567 9.29238C6.32637 9.30576 6.30039 9.32547 6.27943 9.34998C6.25853 9.37456 6.24325 9.40329 6.23459 9.43442C6.22599 9.46547 6.22426 9.49805 6.22958 9.52983C6.36699 10.3196 6.87403 10.8977 7.90709 11.0367V11.7855C7.90709 11.8483 7.93204 11.9086 7.97648 11.953C8.02091 11.9975 8.0812 12.0223 8.14404 12.0223H8.61793C8.68077 12.0223 8.74098 11.9975 8.78542 11.953C8.82986 11.9086 8.8548 11.8483 8.8548 11.7855V11.0367C9.83415 10.8819 10.4581 10.2059 10.4581 9.35769Z" fill="#E3E6FF"/>
</g>
<defs>
<clipPath id="clip0_7597_356">
<rect width="16" height="16" fill="white"/>
</clipPath>
</defs>
</svg>
