<svg width="24" height="24" viewBox="0 0 24 24" fill="none" xmlns="http://www.w3.org/2000/svg">
<path fill-rule="evenodd" clip-rule="evenodd" d="M16.334 2H7.665C4.26742 2 2 4.4326 2 7.916V16.084C2 19.5707 4.26137 22 7.665 22H16.333C19.7376 22 22 19.5707 22 16.084V7.916C22 4.42951 19.7378 2 16.334 2ZM7.665 3.5H16.334C18.8845 3.5 20.5 5.23497 20.5 7.916V16.084C20.5 18.7651 18.8844 20.5 16.333 20.5H7.665C5.11476 20.5 3.5 18.7653 3.5 16.084V7.916C3.5 5.23838 5.12034 3.5 7.665 3.5Z" fill="#33B57B"/>
<path d="M13.8906 8H15.7358V13.6676C15.7358 14.304 15.5838 14.8608 15.2798 15.3381C14.9787 15.8153 14.5568 16.1875 14.0142 16.4545C13.4716 16.7188 12.8395 16.8509 12.1179 16.8509C11.3935 16.8509 10.7599 16.7188 10.2173 16.4545C9.67472 16.1875 9.25284 15.8153 8.9517 15.3381C8.65057 14.8608 8.5 14.304 8.5 13.6676V8H10.3452V13.5099C10.3452 13.8423 10.4176 14.1378 10.5625 14.3963C10.7102 14.6548 10.9176 14.858 11.1847 15.0057C11.4517 15.1534 11.7628 15.2273 12.1179 15.2273C12.4759 15.2273 12.7869 15.1534 13.0511 15.0057C13.3182 14.858 13.5241 14.6548 13.669 14.3963C13.8168 14.1378 13.8906 13.8423 13.8906 13.5099V8Z" fill="#33B57B"/>
</svg>
