<svg width="24" height="24" viewBox="0 0 24 24" fill="none" xmlns="http://www.w3.org/2000/svg">
<path fill-rule="evenodd" clip-rule="evenodd" d="M16.334 2H7.665C4.26742 2 2 4.4326 2 7.916V16.084C2 19.5707 4.26137 22 7.665 22H16.333C19.7376 22 22 19.5707 22 16.084V7.916C22 4.42951 19.7378 2 16.334 2ZM7.665 3.5H16.334C18.8845 3.5 20.5 5.23497 20.5 7.916V16.084C20.5 18.7651 18.8844 20.5 16.333 20.5H7.665C5.11476 20.5 3.5 18.7653 3.5 16.084V7.916C3.5 5.23838 5.12034 3.5 7.665 3.5Z" fill="#8094FF"/>
<path d="M9.84659 7.80078L11.956 14.4315H12.0369L14.1506 7.80078H16.196L13.1875 16.5281H10.8097L7.79688 7.80078H9.84659Z" fill="#8094FF"/>
</svg>
