<svg width="920" height="400" viewBox="0 0 920 400" fill="none" xmlns="http://www.w3.org/2000/svg">
<g clip-path="url(#clip0_136_4435)">
<path d="M930.461 -2.12891H0.949219V417.287H930.461V-2.12891Z" fill="#101317"/>
<path d="M439.078 425.359L396.027 425.359L396.027 382.308L439.078 382.308L439.078 425.359Z" stroke="#1A1A1A" stroke-width="1.16139"/>
<path d="M654.379 425.359L611.328 425.359L611.328 382.308L654.379 382.308L654.379 425.359Z" stroke="#1A1A1A" stroke-width="1.16139"/>
<path d="M869.633 425.359L826.582 425.359L826.582 382.308L869.633 382.308L869.633 425.359Z" stroke="#1A1A1A" stroke-width="1.16139"/>
<path d="M439.078 382.311L396.027 382.311L396.027 339.26L439.078 339.26L439.078 382.311Z" stroke="#1A1A1A" stroke-width="1.16139"/>
<path d="M223.821 382.311L180.77 382.311L180.77 339.26L223.821 339.26L223.821 382.311Z" stroke="#1A1A1A" stroke-width="1.16139"/>
<path d="M654.379 382.311L611.328 382.311L611.328 339.26L654.379 339.26L654.379 382.311Z" stroke="#1A1A1A" stroke-width="1.16139"/>
<path d="M869.633 382.311L826.582 382.311L826.582 339.26L869.633 339.26L869.633 382.311Z" stroke="#1A1A1A" stroke-width="1.16139"/>
<path d="M482.126 425.359L439.074 425.359L439.074 382.308L482.126 382.308L482.126 425.359Z" stroke="#1A1A1A" stroke-width="1.16139"/>
<path d="M266.871 425.359L223.82 425.359L223.82 382.308L266.871 382.308L266.871 425.359Z" stroke="#1A1A1A" stroke-width="1.16139"/>
<path d="M697.43 425.359L654.379 425.359L654.379 382.308L697.43 382.308L697.43 425.359Z" stroke="#1A1A1A" stroke-width="1.16139"/>
<path d="M912.689 425.359L869.637 425.359L869.637 382.308L912.689 382.308L912.689 425.359Z" stroke="#1A1A1A" stroke-width="1.16139"/>
<path d="M482.126 382.311L439.074 382.311L439.074 339.26L482.126 339.26L482.126 382.311Z" stroke="#1A1A1A" stroke-width="1.16139"/>
<path d="M266.871 382.311L223.82 382.311L223.82 339.26L266.871 339.26L266.871 382.311Z" stroke="#1A1A1A" stroke-width="1.16139"/>
<path d="M697.43 382.311L654.379 382.311L654.379 339.26L697.43 339.26L697.43 382.311Z" stroke="#1A1A1A" stroke-width="1.16139"/>
<path d="M912.689 382.311L869.637 382.311L869.637 339.26L912.689 339.26L912.689 382.311Z" stroke="#1A1A1A" stroke-width="1.16139"/>
<path d="M525.18 425.359L482.129 425.359L482.129 382.308L525.18 382.308L525.18 425.359Z" stroke="#1A1A1A" stroke-width="1.16139"/>
<path d="M309.922 425.359L266.871 425.359L266.871 382.308L309.922 382.308L309.922 425.359Z" stroke="#1A1A1A" stroke-width="1.16139"/>
<path d="M740.481 425.359L697.43 425.359L697.43 382.308L740.481 382.308L740.481 425.359Z" stroke="#1A1A1A" stroke-width="1.16139"/>
<path d="M525.18 382.311L482.129 382.311L482.129 339.26L525.18 339.26L525.18 382.311Z" stroke="#1A1A1A" stroke-width="1.16139"/>
<path d="M309.922 382.311L266.871 382.311L266.871 339.26L309.922 339.26L309.922 382.311Z" stroke="#1A1A1A" stroke-width="1.16139"/>
<path d="M740.481 382.311L697.43 382.311L697.43 339.26L740.481 339.26L740.481 382.311Z" stroke="#1A1A1A" stroke-width="1.16139"/>
<path d="M568.231 425.359L525.18 425.359L525.18 382.308L568.231 382.308L568.231 425.359Z" stroke="#1A1A1A" stroke-width="1.16139"/>
<path d="M352.973 425.359L309.922 425.359L309.922 382.308L352.973 382.308L352.973 425.359Z" stroke="#1A1A1A" stroke-width="1.16139"/>
<path d="M568.231 382.311L525.18 382.311L525.18 339.26L568.231 339.26L568.231 382.311Z" stroke="#1A1A1A" stroke-width="1.16139"/>
<path d="M352.973 382.311L309.922 382.311L309.922 339.26L352.973 339.26L352.973 382.311Z" stroke="#1A1A1A" stroke-width="1.16139"/>
<path d="M783.535 382.311L740.484 382.311L740.484 339.26L783.535 339.26L783.535 382.311Z" stroke="#1A1A1A" stroke-width="1.16139"/>
<path d="M137.719 382.311L94.668 382.311L94.668 339.26L137.719 339.26L137.719 382.311Z" stroke="#1A1A1A" stroke-width="1.16139"/>
<path d="M611.285 425.359L568.234 425.359L568.234 382.308L611.285 382.308L611.285 425.359Z" stroke="#1A1A1A" stroke-width="1.16139"/>
<path d="M396.028 425.359L352.977 425.359L352.977 382.308L396.028 382.308L396.028 425.359Z" stroke="#1A1A1A" stroke-width="1.16139"/>
<path d="M826.59 425.359L783.539 425.359L783.539 382.308L826.59 382.308L826.59 425.359Z" stroke="#1A1A1A" stroke-width="1.16139"/>
<path d="M611.285 382.311L568.234 382.311L568.234 339.26L611.285 339.26L611.285 382.311Z" stroke="#1A1A1A" stroke-width="1.16139"/>
<path d="M396.028 382.311L352.977 382.311L352.977 339.26L396.028 339.26L396.028 382.311Z" stroke="#1A1A1A" stroke-width="1.16139"/>
<path d="M826.59 382.311L783.539 382.311L783.539 339.26L826.59 339.26L826.59 382.311Z" stroke="#1A1A1A" stroke-width="1.16139"/>
<path d="M439.078 339.258L396.027 339.258L396.027 296.207L439.078 296.207L439.078 339.258Z" stroke="#1A1A1A" stroke-width="1.16139"/>
<path d="M223.821 339.258L180.77 339.258L180.77 296.207L223.821 296.207L223.821 339.258Z" stroke="#1A1A1A" stroke-width="1.16139"/>
<path d="M654.379 339.258L611.328 339.258L611.328 296.207L654.379 296.207L654.379 339.258Z" stroke="#1A1A1A" stroke-width="1.16139"/>
<path d="M869.633 339.258L826.582 339.258L826.582 296.207L869.633 296.207L869.633 339.258Z" stroke="#1A1A1A" stroke-width="1.16139"/>
<path d="M439.078 296.205L396.027 296.205L396.027 253.154L439.078 253.154L439.078 296.205Z" stroke="#1A1A1A" stroke-width="1.16139"/>
<path d="M223.821 296.205L180.77 296.205L180.77 253.154L223.821 253.154L223.821 296.205Z" stroke="#1A1A1A" stroke-width="1.16139"/>
<path d="M654.379 296.205L611.328 296.205L611.328 253.154L654.379 253.154L654.379 296.205Z" stroke="#1A1A1A" stroke-width="1.16139"/>
<path d="M482.126 339.258L439.074 339.258L439.074 296.207L482.126 296.207L482.126 339.258Z" stroke="#1A1A1A" stroke-width="1.16139"/>
<path d="M266.871 339.258L223.82 339.258L223.82 296.207L266.871 296.207L266.871 339.258Z" stroke="#1A1A1A" stroke-width="1.16139"/>
<path d="M697.43 339.258L654.379 339.258L654.379 296.207L697.43 296.207L697.43 339.258Z" stroke="#1A1A1A" stroke-width="1.16139"/>
<path d="M912.689 339.258L869.637 339.258L869.637 296.207L912.689 296.207L912.689 339.258Z" stroke="#1A1A1A" stroke-width="1.16139"/>
<path d="M266.871 296.205L223.82 296.205L223.82 253.154L266.871 253.154L266.871 296.205Z" stroke="#1A1A1A" stroke-width="1.16139"/>
<path d="M697.43 296.205L654.379 296.205L654.379 253.154L697.43 253.154L697.43 296.205Z" stroke="#1A1A1A" stroke-width="1.16139"/>
<path d="M525.18 339.258L482.129 339.258L482.129 296.207L525.18 296.207L525.18 339.258Z" stroke="#1A1A1A" stroke-width="1.16139"/>
<path d="M309.922 339.258L266.871 339.258L266.871 296.207L309.922 296.207L309.922 339.258Z" stroke="#1A1A1A" stroke-width="1.16139"/>
<path d="M740.481 339.258L697.43 339.258L697.43 296.207L740.481 296.207L740.481 339.258Z" stroke="#1A1A1A" stroke-width="1.16139"/>
<path d="M955.739 339.258L912.688 339.258L912.688 296.207L955.739 296.207L955.739 339.258Z" stroke="#1A1A1A" stroke-width="1.16139"/>
<path d="M525.18 296.205L482.129 296.205L482.129 253.154L525.18 253.154L525.18 296.205Z" stroke="#1A1A1A" stroke-width="1.16139"/>
<path d="M309.922 296.205L266.871 296.205L266.871 253.154L309.922 253.154L309.922 296.205Z" stroke="#1A1A1A" stroke-width="1.16139"/>
<path d="M740.481 296.205L697.43 296.205L697.43 253.154L740.481 253.154L740.481 296.205Z" stroke="#1A1A1A" stroke-width="1.16139"/>
<path d="M352.973 339.258L309.922 339.258L309.922 296.207L352.973 296.207L352.973 339.258Z" stroke="#1A1A1A" stroke-width="1.16139"/>
<path d="M783.535 339.258L740.484 339.258L740.484 296.207L783.535 296.207L783.535 339.258Z" stroke="#1A1A1A" stroke-width="1.16139"/>
<path d="M568.231 296.205L525.18 296.205L525.18 253.154L568.231 253.154L568.231 296.205Z" stroke="#1A1A1A" stroke-width="1.16139"/>
<path d="M352.973 296.205L309.922 296.205L309.922 253.154L352.973 253.154L352.973 296.205Z" stroke="#1A1A1A" stroke-width="1.16139"/>
<path d="M783.535 296.205L740.484 296.205L740.484 253.154L783.535 253.154L783.535 296.205Z" stroke="#1A1A1A" stroke-width="1.16139"/>
<path d="M137.719 296.205L94.668 296.205L94.668 253.154L137.719 253.154L137.719 296.205Z" stroke="#1A1A1A" stroke-width="1.16139"/>
<path d="M611.285 339.258L568.234 339.258L568.234 296.207L611.285 296.207L611.285 339.258Z" stroke="#1A1A1A" stroke-width="1.16139"/>
<path d="M396.028 339.258L352.977 339.258L352.977 296.207L396.028 296.207L396.028 339.258Z" stroke="#1A1A1A" stroke-width="1.16139"/>
<path d="M826.59 339.258L783.539 339.258L783.539 296.207L826.59 296.207L826.59 339.258Z" stroke="#1A1A1A" stroke-width="1.16139"/>
<path d="M180.77 339.258L137.719 339.258L137.719 296.207L180.77 296.207L180.77 339.258Z" stroke="#1A1A1A" stroke-width="1.16139"/>
<path d="M611.285 296.205L568.234 296.205L568.234 253.154L611.285 253.154L611.285 296.205Z" stroke="#1A1A1A" stroke-width="1.16139"/>
<path d="M396.028 296.205L352.977 296.205L352.977 253.154L396.028 253.154L396.028 296.205Z" stroke="#1A1A1A" stroke-width="1.16139"/>
<path d="M180.77 296.205L137.719 296.205L137.719 253.154L180.77 253.154L180.77 296.205Z" stroke="#1A1A1A" stroke-width="1.16139"/>
<path d="M439.078 253.154L396.027 253.154L396.027 210.103L439.078 210.103L439.078 253.154Z" stroke="#1A1A1A" stroke-width="1.16139"/>
<path d="M223.821 253.154L180.77 253.154L180.77 210.103L223.821 210.103L223.821 253.154Z" stroke="#1A1A1A" stroke-width="1.16139"/>
<path d="M439.078 210.105L396.027 210.105L396.027 167.054L439.078 167.054L439.078 210.105Z" stroke="#1A1A1A" stroke-width="1.16139"/>
<path d="M223.821 210.105L180.77 210.105L180.77 167.054L223.821 167.054L223.821 210.105Z" stroke="#1A1A1A" stroke-width="1.16139"/>
<path d="M869.633 210.105L826.582 210.105L826.582 167.054L869.633 167.054L869.633 210.105Z" stroke="#1A1A1A" stroke-width="1.16139"/>
<path d="M8.56302 210.105L-34.4883 210.105L-34.4883 167.054L8.56302 167.054L8.56302 210.105Z" stroke="#1A1A1A" stroke-width="1.16139"/>
<path d="M482.126 253.154L439.074 253.154L439.074 210.103L482.126 210.103L482.126 253.154Z" stroke="#1A1A1A" stroke-width="1.16139"/>
<path d="M266.871 253.154L223.82 253.154L223.82 210.103L266.871 210.103L266.871 253.154Z" stroke="#1A1A1A" stroke-width="1.16139"/>
<path d="M697.43 253.154L654.379 253.154L654.379 210.103L697.43 210.103L697.43 253.154Z" stroke="#1A1A1A" stroke-width="1.16139"/>
<path d="M482.126 210.105L439.074 210.105L439.074 167.054L482.126 167.054L482.126 210.105Z" stroke="#1A1A1A" stroke-width="1.16139"/>
<path d="M266.871 210.105L223.82 210.105L223.82 167.054L266.871 167.054L266.871 210.105Z" stroke="#1A1A1A" stroke-width="1.16139"/>
<path d="M51.6138 210.105L8.5625 210.105L8.5625 167.054L51.6138 167.054L51.6138 210.105Z" stroke="#1A1A1A" stroke-width="1.16139"/>
<path d="M525.18 253.154L482.129 253.154L482.129 210.103L525.18 210.103L525.18 253.154Z" stroke="#1A1A1A" stroke-width="1.16139"/>
<path d="M309.922 253.154L266.871 253.154L266.871 210.103L309.922 210.103L309.922 253.154Z" stroke="#1A1A1A" stroke-width="1.16139"/>
<path d="M740.481 210.105L697.43 210.105L697.43 167.054L740.481 167.054L740.481 210.105Z" stroke="#1A1A1A" stroke-width="1.16139"/>
<path d="M955.739 210.105L912.688 210.105L912.688 167.054L955.739 167.054L955.739 210.105Z" stroke="#1A1A1A" stroke-width="1.16139"/>
<path d="M94.6685 210.105L51.6172 210.105L51.6172 167.054L94.6685 167.054L94.6685 210.105Z" stroke="#1A1A1A" stroke-width="1.16139"/>
<path d="M568.231 253.154L525.18 253.154L525.18 210.103L568.231 210.103L568.231 253.154Z" stroke="#1A1A1A" stroke-width="1.16139"/>
<path d="M352.973 253.154L309.922 253.154L309.922 210.103L352.973 210.103L352.973 253.154Z" stroke="#1A1A1A" stroke-width="1.16139"/>
<path d="M783.535 253.154L740.484 253.154L740.484 210.103L783.535 210.103L783.535 253.154Z" stroke="#1A1A1A" stroke-width="1.16139"/>
<path d="M137.719 253.154L94.668 253.154L94.668 210.103L137.719 210.103L137.719 253.154Z" stroke="#1A1A1A" stroke-width="1.16139"/>
<path d="M568.231 210.105L525.18 210.105L525.18 167.054L568.231 167.054L568.231 210.105Z" stroke="#1A1A1A" stroke-width="1.16139"/>
<path d="M352.973 210.105L309.922 210.105L309.922 167.054L352.973 167.054L352.973 210.105Z" stroke="#1A1A1A" stroke-width="1.16139"/>
<path d="M783.535 210.105L740.484 210.105L740.484 167.054L783.535 167.054L783.535 210.105Z" stroke="#1A1A1A" stroke-width="1.16139"/>
<path d="M137.719 210.105L94.668 210.105L94.668 167.054L137.719 167.054L137.719 210.105Z" stroke="#1A1A1A" stroke-width="1.16139"/>
<path d="M180.77 253.154L137.719 253.154L137.719 210.103L180.77 210.103L180.77 253.154Z" stroke="#1A1A1A" stroke-width="1.16139"/>
<path d="M396.028 210.105L352.977 210.105L352.977 167.054L396.028 167.054L396.028 210.105Z" stroke="#1A1A1A" stroke-width="1.16139"/>
<path d="M826.59 210.105L783.539 210.105L783.539 167.054L826.59 167.054L826.59 210.105Z" stroke="#1A1A1A" stroke-width="1.16139"/>
<path d="M439.078 167.053L396.027 167.053L396.027 124.002L439.078 124.002L439.078 167.053Z" stroke="#1A1A1A" stroke-width="1.16139"/>
<path d="M869.633 167.053L826.582 167.053L826.582 124.002L869.633 124.002L869.633 167.053Z" stroke="#1A1A1A" stroke-width="1.16139"/>
<path d="M8.56302 167.053L-34.4883 167.053L-34.4883 124.002L8.56302 124.002L8.56302 167.053Z" stroke="#1A1A1A" stroke-width="1.16139"/>
<path d="M439.078 124.002L396.027 124.002L396.027 80.9507L439.078 80.9506L439.078 124.002Z" stroke="#1A1A1A" stroke-width="1.16139"/>
<path d="M869.633 124.002L826.582 124.002L826.582 80.9507L869.633 80.9506L869.633 124.002Z" stroke="#1A1A1A" stroke-width="1.16139"/>
<path d="M8.56302 124.002L-34.4883 124.002L-34.4883 80.9507L8.56302 80.9506L8.56302 124.002Z" stroke="#1A1A1A" stroke-width="1.16139"/>
<path d="M482.126 167.053L439.074 167.053L439.074 124.002L482.126 124.002L482.126 167.053Z" stroke="#1A1A1A" stroke-width="1.16139"/>
<path d="M266.871 167.053L223.82 167.053L223.82 124.002L266.871 124.002L266.871 167.053Z" stroke="#1A1A1A" stroke-width="1.16139"/>
<path d="M912.689 167.053L869.637 167.053L869.637 124.002L912.689 124.002L912.689 167.053Z" stroke="#1A1A1A" stroke-width="1.16139"/>
<path d="M51.6138 167.053L8.5625 167.053L8.5625 124.002L51.6138 124.002L51.6138 167.053Z" stroke="#1A1A1A" stroke-width="1.16139"/>
<path d="M482.126 124.002L439.074 124.002L439.074 80.9507L482.126 80.9506L482.126 124.002Z" stroke="#1A1A1A" stroke-width="1.16139"/>
<path d="M266.871 124.002L223.82 124.002L223.82 80.9507L266.871 80.9506L266.871 124.002Z" stroke="#1A1A1A" stroke-width="1.16139"/>
<path d="M912.689 124.002L869.637 124.002L869.637 80.9507L912.689 80.9506L912.689 124.002Z" stroke="#1A1A1A" stroke-width="1.16139"/>
<path d="M51.6138 124.002L8.5625 124.002L8.5625 80.9507L51.6138 80.9506L51.6138 124.002Z" stroke="#1A1A1A" stroke-width="1.16139"/>
<path d="M525.18 167.053L482.129 167.053L482.129 124.002L525.18 124.002L525.18 167.053Z" stroke="#1A1A1A" stroke-width="1.16139"/>
<path d="M309.922 167.053L266.871 167.053L266.871 124.002L309.922 124.002L309.922 167.053Z" stroke="#1A1A1A" stroke-width="1.16139"/>
<path d="M955.739 167.053L912.688 167.053L912.688 124.002L955.739 124.002L955.739 167.053Z" stroke="#1A1A1A" stroke-width="1.16139"/>
<path d="M94.6685 167.053L51.6172 167.053L51.6172 124.002L94.6685 124.002L94.6685 167.053Z" stroke="#1A1A1A" stroke-width="1.16139"/>
<path d="M525.18 124.002L482.129 124.002L482.129 80.9507L525.18 80.9506L525.18 124.002Z" stroke="#1A1A1A" stroke-width="1.16139"/>
<path d="M309.922 124.002L266.871 124.002L266.871 80.9507L309.922 80.9506L309.922 124.002Z" stroke="#1A1A1A" stroke-width="1.16139"/>
<path d="M94.6685 124.002L51.6172 124.002L51.6172 80.9507L94.6685 80.9506L94.6685 124.002Z" stroke="#1A1A1A" stroke-width="1.16139"/>
<path d="M568.231 167.053L525.18 167.053L525.18 124.002L568.231 124.002L568.231 167.053Z" stroke="#1A1A1A" stroke-width="1.16139"/>
<path d="M352.973 167.053L309.922 167.053L309.922 124.002L352.973 124.002L352.973 167.053Z" stroke="#1A1A1A" stroke-width="1.16139"/>
<path d="M783.535 167.053L740.484 167.053L740.484 124.002L783.535 124.002L783.535 167.053Z" stroke="#1A1A1A" stroke-width="1.16139"/>
<path d="M137.719 167.053L94.668 167.053L94.668 124.002L137.719 124.002L137.719 167.053Z" stroke="#1A1A1A" stroke-width="1.16139"/>
<path d="M568.231 124.002L525.18 124.002L525.18 80.9507L568.231 80.9506L568.231 124.002Z" stroke="#1A1A1A" stroke-width="1.16139"/>
<path d="M352.973 124.002L309.922 124.002L309.922 80.9507L352.973 80.9506L352.973 124.002Z" stroke="#1A1A1A" stroke-width="1.16139"/>
<path d="M137.719 124.002L94.668 124.002L94.668 80.9507L137.719 80.9506L137.719 124.002Z" stroke="#1A1A1A" stroke-width="1.16139"/>
<path d="M396.028 167.053L352.977 167.053L352.977 124.002L396.028 124.002L396.028 167.053Z" stroke="#1A1A1A" stroke-width="1.16139"/>
<path d="M180.77 167.053L137.719 167.053L137.719 124.002L180.77 124.002L180.77 167.053Z" stroke="#1A1A1A" stroke-width="1.16139"/>
<path d="M396.028 124.002L352.977 124.002L352.977 80.9507L396.028 80.9506L396.028 124.002Z" stroke="#1A1A1A" stroke-width="1.16139"/>
<path d="M826.59 124.002L783.539 124.002L783.539 80.9507L826.59 80.9506L826.59 124.002Z" stroke="#1A1A1A" stroke-width="1.16139"/>
<path d="M180.77 124.002L137.719 124.002L137.719 80.9507L180.77 80.9506L180.77 124.002Z" stroke="#1A1A1A" stroke-width="1.16139"/>
<path d="M869.633 80.9492L826.582 80.9492L826.582 37.8979L869.633 37.8979L869.633 80.9492Z" stroke="#1A1A1A" stroke-width="1.16139"/>
<path d="M8.56302 80.9492L-34.4883 80.9492L-34.4883 37.8979L8.56302 37.8979L8.56302 80.9492Z" stroke="#1A1A1A" stroke-width="1.16139"/>
<path d="M439.078 37.8984L396.027 37.8984L396.027 -5.15286L439.078 -5.15287L439.078 37.8984Z" stroke="#1A1A1A" stroke-width="1.16139"/>
<path d="M8.56302 37.8984L-34.4883 37.8984L-34.4883 -5.15286L8.56302 -5.15287L8.56302 37.8984Z" stroke="#1A1A1A" stroke-width="1.16139"/>
<path d="M482.126 80.9492L439.074 80.9492L439.074 37.8979L482.126 37.8979L482.126 80.9492Z" stroke="#1A1A1A" stroke-width="1.16139"/>
<path d="M912.689 80.9492L869.637 80.9492L869.637 37.8979L912.689 37.8979L912.689 80.9492Z" stroke="#1A1A1A" stroke-width="1.16139"/>
<path d="M51.6138 80.9492L8.5625 80.9492L8.5625 37.8979L51.6138 37.8979L51.6138 80.9492Z" stroke="#1A1A1A" stroke-width="1.16139"/>
<path d="M482.126 37.8984L439.074 37.8984L439.074 -5.15286L482.126 -5.15287L482.126 37.8984Z" stroke="#1A1A1A" stroke-width="1.16139"/>
<path d="M912.689 37.8984L869.637 37.8984L869.637 -5.15286L912.689 -5.15287L912.689 37.8984Z" stroke="#1A1A1A" stroke-width="1.16139"/>
<path d="M525.18 80.9492L482.129 80.9492L482.129 37.8979L525.18 37.8979L525.18 80.9492Z" stroke="#1A1A1A" stroke-width="1.16139"/>
<path d="M309.922 80.9492L266.871 80.9492L266.871 37.8979L309.922 37.8979L309.922 80.9492Z" stroke="#1A1A1A" stroke-width="1.16139"/>
<path d="M525.18 37.8984L482.129 37.8984L482.129 -5.15286L525.18 -5.15287L525.18 37.8984Z" stroke="#1A1A1A" stroke-width="1.16139"/>
<path d="M309.922 37.8984L266.871 37.8984L266.871 -5.15286L309.922 -5.15287L309.922 37.8984Z" stroke="#1A1A1A" stroke-width="1.16139"/>
<path d="M955.739 37.8984L912.688 37.8984L912.688 -5.15286L955.739 -5.15287L955.739 37.8984Z" stroke="#1A1A1A" stroke-width="1.16139"/>
<path d="M352.973 80.9492L309.922 80.9492L309.922 37.8979L352.973 37.8979L352.973 80.9492Z" stroke="#1A1A1A" stroke-width="1.16139"/>
<path d="M783.535 80.9492L740.484 80.9492L740.484 37.8979L783.535 37.8979L783.535 80.9492Z" stroke="#1A1A1A" stroke-width="1.16139"/>
<path d="M568.231 37.8984L525.18 37.8984L525.18 -5.15286L568.231 -5.15287L568.231 37.8984Z" stroke="#1A1A1A" stroke-width="1.16139"/>
<path d="M352.973 37.8984L309.922 37.8984L309.922 -5.15286L352.973 -5.15287L352.973 37.8984Z" stroke="#1A1A1A" stroke-width="1.16139"/>
<path d="M783.535 37.8984L740.484 37.8984L740.484 -5.15286L783.535 -5.15287L783.535 37.8984Z" stroke="#1A1A1A" stroke-width="1.16139"/>
<path d="M396.028 80.9492L352.977 80.9492L352.977 37.8979L396.028 37.8979L396.028 80.9492Z" stroke="#1A1A1A" stroke-width="1.16139"/>
<path d="M826.59 80.9492L783.539 80.9492L783.539 37.8979L826.59 37.8979L826.59 80.9492Z" stroke="#1A1A1A" stroke-width="1.16139"/>
<path d="M396.028 37.8984L352.977 37.8984L352.977 -5.15286L396.028 -5.15287L396.028 37.8984Z" stroke="#1A1A1A" stroke-width="1.16139"/>
<path d="M826.59 37.8984L783.539 37.8984L783.539 -5.15286L826.59 -5.15287L826.59 37.8984Z" stroke="#1A1A1A" stroke-width="1.16139"/>
<path d="M439.078 80.9492L396.027 80.9492L396.027 37.8979L439.078 37.8979L439.078 80.9492Z" stroke="#1A1A1A" stroke-width="1.16139"/>
<path d="M543.37 66.0797H549.82V65.0597H547.315V56.1797H546.4C545.8 56.4947 545.065 56.7497 544.045 56.8997V57.6947H546.085V65.0597H543.37V66.0797Z" fill="url(#paint0_linear_136_4435)"/>
<path d="M546.4 109.26C548.53 109.26 549.835 107.385 549.835 104.1C549.835 100.785 548.53 98.9998 546.4 98.9998C544.27 98.9998 542.965 100.785 542.965 104.1C542.965 107.385 544.27 109.26 546.4 109.26ZM546.4 108.27C545.065 108.27 544.12 106.95 544.12 104.1C544.12 101.235 545.065 99.9898 546.4 99.9898C547.735 99.9898 548.68 101.235 548.68 104.1C548.68 106.95 547.735 108.27 546.4 108.27ZM546.4 105.015C546.895 105.015 547.33 104.64 547.33 103.995C547.33 103.35 546.895 102.975 546.4 102.975C545.905 102.975 545.47 103.35 545.47 103.995C545.47 104.64 545.905 105.015 546.4 105.015Z" fill="url(#paint1_linear_136_4435)"/>
<path d="M546.4 195.26C548.53 195.26 549.835 193.385 549.835 190.1C549.835 186.785 548.53 185 546.4 185C544.27 185 542.965 186.785 542.965 190.1C542.965 193.385 544.27 195.26 546.4 195.26ZM546.4 194.27C545.065 194.27 544.12 192.95 544.12 190.1C544.12 187.235 545.065 185.99 546.4 185.99C547.735 185.99 548.68 187.235 548.68 190.1C548.68 192.95 547.735 194.27 546.4 194.27ZM546.4 191.015C546.895 191.015 547.33 190.64 547.33 189.995C547.33 189.35 546.895 188.975 546.4 188.975C545.905 188.975 545.47 189.35 545.47 189.995C545.47 190.64 545.905 191.015 546.4 191.015Z" fill="url(#paint2_linear_136_4435)"/>
<path d="M543.37 238.08H549.82V237.06H547.315V228.18H546.4C545.8 228.495 545.065 228.75 544.045 228.9V229.695H546.085V237.06H543.37V238.08Z" fill="url(#paint3_linear_136_4435)"/>
<path d="M543.37 281.08H549.82V280.06H547.315V271.18H546.4C545.8 271.495 545.065 271.75 544.045 271.9V272.695H546.085V280.06H543.37V281.08Z" fill="url(#paint4_linear_136_4435)"/>
<path d="M586.553 66.0797H593.003V65.0597H590.498V56.1797H589.583C588.983 56.4947 588.248 56.7497 587.228 56.8997V57.6947H589.268V65.0597H586.553V66.0797Z" fill="url(#paint5_linear_136_4435)"/>
<path d="M589.583 109.26C591.713 109.26 593.018 107.385 593.018 104.1C593.018 100.785 591.713 98.9998 589.583 98.9998C587.453 98.9998 586.148 100.785 586.148 104.1C586.148 107.385 587.453 109.26 589.583 109.26ZM589.583 108.27C588.248 108.27 587.303 106.95 587.303 104.1C587.303 101.235 588.248 99.9898 589.583 99.9898C590.918 99.9898 591.863 101.235 591.863 104.1C591.863 106.95 590.918 108.27 589.583 108.27ZM589.583 105.015C590.078 105.015 590.513 104.64 590.513 103.995C590.513 103.35 590.078 102.975 589.583 102.975C589.088 102.975 588.653 103.35 588.653 103.995C588.653 104.64 589.088 105.015 589.583 105.015Z" fill="url(#paint6_linear_136_4435)"/>
<path d="M586.553 152.08H593.003V151.06H590.498V142.18H589.583C588.983 142.495 588.248 142.75 587.228 142.9V143.695H589.268V151.06H586.553V152.08Z" fill="url(#paint7_linear_136_4435)"/>
<path d="M586.553 238.08H593.003V237.06H590.498V228.18H589.583C588.983 228.495 588.248 228.75 587.228 228.9V229.695H589.268V237.06H586.553V238.08Z" fill="url(#paint8_linear_136_4435)"/>
<path d="M589.583 281.26C591.713 281.26 593.018 279.385 593.018 276.1C593.018 272.785 591.713 271 589.583 271C587.453 271 586.148 272.785 586.148 276.1C586.148 279.385 587.453 281.26 589.583 281.26ZM589.583 280.27C588.248 280.27 587.303 278.95 587.303 276.1C587.303 273.235 588.248 271.99 589.583 271.99C590.918 271.99 591.863 273.235 591.863 276.1C591.863 278.95 590.918 280.27 589.583 280.27ZM589.583 277.015C590.078 277.015 590.513 276.64 590.513 275.995C590.513 275.35 590.078 274.975 589.583 274.975C589.088 274.975 588.653 275.35 588.653 275.995C588.653 276.64 589.088 277.015 589.583 277.015Z" fill="url(#paint9_linear_136_4435)"/>
<path d="M589.583 324.26C591.713 324.26 593.018 322.385 593.018 319.1C593.018 315.785 591.713 314 589.583 314C587.453 314 586.148 315.785 586.148 319.1C586.148 322.385 587.453 324.26 589.583 324.26ZM589.583 323.27C588.248 323.27 587.303 321.95 587.303 319.1C587.303 316.235 588.248 314.99 589.583 314.99C590.918 314.99 591.863 316.235 591.863 319.1C591.863 321.95 590.918 323.27 589.583 323.27ZM589.583 320.015C590.078 320.015 590.513 319.64 590.513 318.995C590.513 318.35 590.078 317.975 589.583 317.975C589.088 317.975 588.653 318.35 588.653 318.995C588.653 319.64 589.088 320.015 589.583 320.015Z" fill="url(#paint10_linear_136_4435)"/>
<path d="M586.555 194.08H593.005V193.06H590.5V184.18H589.585C588.985 184.495 588.25 184.75 587.23 184.9V185.695H589.27V193.06H586.555V194.08Z" fill="#0A9E73"/>
<path d="M632.165 109.26C634.295 109.26 635.6 107.385 635.6 104.1C635.6 100.785 634.295 99 632.165 99C630.035 99 628.73 100.785 628.73 104.1C628.73 107.385 630.035 109.26 632.165 109.26ZM632.165 108.27C630.83 108.27 629.885 106.95 629.885 104.1C629.885 101.235 630.83 99.99 632.165 99.99C633.5 99.99 634.445 101.235 634.445 104.1C634.445 106.95 633.5 108.27 632.165 108.27ZM632.165 105.015C632.66 105.015 633.095 104.64 633.095 103.995C633.095 103.35 632.66 102.975 632.165 102.975C631.67 102.975 631.235 103.35 631.235 103.995C631.235 104.64 631.67 105.015 632.165 105.015Z" fill="url(#paint11_linear_136_4435)"/>
<path d="M629.135 152.08H635.585V151.06H633.08V142.18H632.165C631.565 142.495 630.83 142.75 629.81 142.9V143.695H631.85V151.06H629.135V152.08Z" fill="url(#paint12_linear_136_4435)"/>
<path d="M632.165 195.26C634.295 195.26 635.6 193.385 635.6 190.1C635.6 186.785 634.295 185 632.165 185C630.035 185 628.73 186.785 628.73 190.1C628.73 193.385 630.035 195.26 632.165 195.26ZM632.165 194.27C630.83 194.27 629.885 192.95 629.885 190.1C629.885 187.235 630.83 185.99 632.165 185.99C633.5 185.99 634.445 187.235 634.445 190.1C634.445 192.95 633.5 194.27 632.165 194.27ZM632.165 191.015C632.66 191.015 633.095 190.64 633.095 189.995C633.095 189.35 632.66 188.975 632.165 188.975C631.67 188.975 631.235 189.35 631.235 189.995C631.235 190.64 631.67 191.015 632.165 191.015Z" fill="url(#paint13_linear_136_4435)"/>
<path d="M632.165 238.26C634.295 238.26 635.6 236.385 635.6 233.1C635.6 229.785 634.295 228 632.165 228C630.035 228 628.73 229.785 628.73 233.1C628.73 236.385 630.035 238.26 632.165 238.26ZM632.165 237.27C630.83 237.27 629.885 235.95 629.885 233.1C629.885 230.235 630.83 228.99 632.165 228.99C633.5 228.99 634.445 230.235 634.445 233.1C634.445 235.95 633.5 237.27 632.165 237.27ZM632.165 234.015C632.66 234.015 633.095 233.64 633.095 232.995C633.095 232.35 632.66 231.975 632.165 231.975C631.67 231.975 631.235 232.35 631.235 232.995C631.235 233.64 631.67 234.015 632.165 234.015Z" fill="url(#paint14_linear_136_4435)"/>
<path d="M632.165 281.26C634.295 281.26 635.6 279.385 635.6 276.1C635.6 272.785 634.295 271 632.165 271C630.035 271 628.73 272.785 628.73 276.1C628.73 279.385 630.035 281.26 632.165 281.26ZM632.165 280.27C630.83 280.27 629.885 278.95 629.885 276.1C629.885 273.235 630.83 271.99 632.165 271.99C633.5 271.99 634.445 273.235 634.445 276.1C634.445 278.95 633.5 280.27 632.165 280.27ZM632.165 277.015C632.66 277.015 633.095 276.64 633.095 275.995C633.095 275.35 632.66 274.975 632.165 274.975C631.67 274.975 631.235 275.35 631.235 275.995C631.235 276.64 631.67 277.015 632.165 277.015Z" fill="url(#paint15_linear_136_4435)"/>
<path d="M629.135 324.08H635.585V323.06H633.08V314.18H632.165C631.565 314.495 630.83 314.75 629.81 314.9V315.695H631.85V323.06H629.135V324.08Z" fill="url(#paint16_linear_136_4435)"/>
<path d="M629.135 367.08H635.585V366.06H633.08V357.18H632.165C631.565 357.495 630.83 357.75 629.81 357.9V358.695H631.85V366.06H629.135V367.08Z" fill="url(#paint17_linear_136_4435)"/>
<path d="M804.622 109.26C806.753 109.26 808.058 107.385 808.058 104.1C808.058 100.785 806.753 99 804.622 99C802.492 99 801.188 100.785 801.188 104.1C801.188 107.385 802.492 109.26 804.622 109.26ZM804.622 108.27C803.287 108.27 802.342 106.95 802.342 104.1C802.342 101.235 803.287 99.99 804.622 99.99C805.958 99.99 806.903 101.235 806.903 104.1C806.903 106.95 805.958 108.27 804.622 108.27ZM804.622 105.015C805.117 105.015 805.553 104.64 805.553 103.995C805.553 103.35 805.117 102.975 804.622 102.975C804.128 102.975 803.693 103.35 803.693 103.995C803.693 104.64 804.128 105.015 804.622 105.015Z" fill="url(#paint18_linear_136_4435)"/>
<path d="M804.622 195.26C806.753 195.26 808.058 193.385 808.058 190.1C808.058 186.785 806.753 185 804.622 185C802.492 185 801.188 186.785 801.188 190.1C801.188 193.385 802.492 195.26 804.622 195.26ZM804.622 194.27C803.287 194.27 802.342 192.95 802.342 190.1C802.342 187.235 803.287 185.99 804.622 185.99C805.958 185.99 806.903 187.235 806.903 190.1C806.903 192.95 805.958 194.27 804.622 194.27ZM804.622 191.015C805.117 191.015 805.553 190.64 805.553 189.995C805.553 189.35 805.117 188.975 804.622 188.975C804.128 188.975 803.693 189.35 803.693 189.995C803.693 190.64 804.128 191.015 804.622 191.015Z" fill="url(#paint19_linear_136_4435)"/>
<path d="M801.592 324.08H808.043V323.06H805.538V314.18H804.622C804.023 314.495 803.288 314.75 802.267 314.9V315.695H804.308V323.06H801.592V324.08Z" fill="url(#paint20_linear_136_4435)"/>
<path d="M801.592 367.08H808.043V366.06H805.538V357.18H804.622C804.023 357.495 803.288 357.75 802.267 357.9V358.695H804.308V366.06H801.592V367.08Z" fill="url(#paint21_linear_136_4435)"/>
<path d="M801.594 151.367H808.044V150.347H805.539V141.467H804.624C804.024 141.782 803.289 142.037 802.269 142.187V142.982H804.309V150.347H801.594V151.367Z" fill="#0A9E73"/>
<path d="M675.72 23.26C677.85 23.26 679.155 21.385 679.155 18.1C679.155 14.785 677.85 13 675.72 13C673.59 13 672.285 14.785 672.285 18.1C672.285 21.385 673.59 23.26 675.72 23.26ZM675.72 22.27C674.385 22.27 673.44 20.95 673.44 18.1C673.44 15.235 674.385 13.99 675.72 13.99C677.055 13.99 678 15.235 678 18.1C678 20.95 677.055 22.27 675.72 22.27ZM675.72 19.015C676.215 19.015 676.65 18.64 676.65 17.995C676.65 17.35 676.215 16.975 675.72 16.975C675.225 16.975 674.79 17.35 674.79 17.995C674.79 18.64 675.225 19.015 675.72 19.015Z" fill="url(#paint22_linear_136_4435)"/>
<path d="M672.69 66.0801H679.14V65.0601H676.635V56.1801H675.72C675.12 56.4951 674.385 56.7501 673.365 56.9001V57.6951H675.405V65.0601H672.69V66.0801Z" fill="url(#paint23_linear_136_4435)"/>
<path d="M675.72 109.26C677.85 109.26 679.155 107.385 679.155 104.1C679.155 100.785 677.85 99 675.72 99C673.59 99 672.285 100.785 672.285 104.1C672.285 107.385 673.59 109.26 675.72 109.26ZM675.72 108.27C674.385 108.27 673.44 106.95 673.44 104.1C673.44 101.235 674.385 99.99 675.72 99.99C677.055 99.99 678 101.235 678 104.1C678 106.95 677.055 108.27 675.72 108.27ZM675.72 105.015C676.215 105.015 676.65 104.64 676.65 103.995C676.65 103.35 676.215 102.975 675.72 102.975C675.225 102.975 674.79 103.35 674.79 103.995C674.79 104.64 675.225 105.015 675.72 105.015Z" fill="url(#paint24_linear_136_4435)"/>
<path d="M675.72 152.26C677.85 152.26 679.155 150.385 679.155 147.1C679.155 143.785 677.85 142 675.72 142C673.59 142 672.285 143.785 672.285 147.1C672.285 150.385 673.59 152.26 675.72 152.26ZM675.72 151.27C674.385 151.27 673.44 149.95 673.44 147.1C673.44 144.235 674.385 142.99 675.72 142.99C677.055 142.99 678 144.235 678 147.1C678 149.95 677.055 151.27 675.72 151.27ZM675.72 148.015C676.215 148.015 676.65 147.64 676.65 146.995C676.65 146.35 676.215 145.975 675.72 145.975C675.225 145.975 674.79 146.35 674.79 146.995C674.79 147.64 675.225 148.015 675.72 148.015Z" fill="url(#paint25_linear_136_4435)"/>
<path d="M672.69 195.08H679.14V194.06H676.635V185.18H675.72C675.12 185.495 674.385 185.75 673.365 185.9V186.695H675.405V194.06H672.69V195.08Z" fill="url(#paint26_linear_136_4435)"/>
<path d="M672.69 238.08H679.14V237.06H676.635V228.18H675.72C675.12 228.495 674.385 228.75 673.365 228.9V229.695H675.405V237.06H672.69V238.08Z" fill="url(#paint27_linear_136_4435)"/>
<path d="M675.72 281.26C677.85 281.26 679.155 279.385 679.155 276.1C679.155 272.785 677.85 271 675.72 271C673.59 271 672.285 272.785 672.285 276.1C672.285 279.385 673.59 281.26 675.72 281.26ZM675.72 280.27C674.385 280.27 673.44 278.95 673.44 276.1C673.44 273.235 674.385 271.99 675.72 271.99C677.055 271.99 678 273.235 678 276.1C678 278.95 677.055 280.27 675.72 280.27ZM675.72 277.015C676.215 277.015 676.65 276.64 676.65 275.995C676.65 275.35 676.215 274.975 675.72 274.975C675.225 274.975 674.79 275.35 674.79 275.995C674.79 276.64 675.225 277.015 675.72 277.015Z" fill="url(#paint28_linear_136_4435)"/>
<path d="M675.72 324.26C677.85 324.26 679.155 322.385 679.155 319.1C679.155 315.785 677.85 314 675.72 314C673.59 314 672.285 315.785 672.285 319.1C672.285 322.385 673.59 324.26 675.72 324.26ZM675.72 323.27C674.385 323.27 673.44 321.95 673.44 319.1C673.44 316.235 674.385 314.99 675.72 314.99C677.055 314.99 678 316.235 678 319.1C678 321.95 677.055 323.27 675.72 323.27ZM675.72 320.015C676.215 320.015 676.65 319.64 676.65 318.995C676.65 318.35 676.215 317.975 675.72 317.975C675.225 317.975 674.79 318.35 674.79 318.995C674.79 319.64 675.225 320.015 675.72 320.015Z" fill="url(#paint29_linear_136_4435)"/>
<path d="M848.177 23.26C850.307 23.26 851.612 21.385 851.612 18.1C851.612 14.785 850.307 13 848.177 13C846.047 13 844.742 14.785 844.742 18.1C844.742 21.385 846.047 23.26 848.177 23.26ZM848.177 22.27C846.842 22.27 845.897 20.95 845.897 18.1C845.897 15.235 846.842 13.99 848.177 13.99C849.512 13.99 850.457 15.235 850.457 18.1C850.457 20.95 849.512 22.27 848.177 22.27ZM848.177 19.015C848.672 19.015 849.107 18.64 849.107 17.995C849.107 17.35 848.672 16.975 848.177 16.975C847.682 16.975 847.247 17.35 847.247 17.995C847.247 18.64 847.682 19.015 848.177 19.015Z" fill="url(#paint30_linear_136_4435)"/>
<path d="M845.147 66.0801H851.597V65.0601H849.092V56.1801H848.177C847.577 56.4951 846.842 56.7501 845.822 56.9001V57.6951H847.862V65.0601H845.147V66.0801Z" fill="url(#paint31_linear_136_4435)"/>
<path d="M848.177 109.26C850.307 109.26 851.612 107.385 851.612 104.1C851.612 100.785 850.307 99 848.177 99C846.047 99 844.742 100.785 844.742 104.1C844.742 107.385 846.047 109.26 848.177 109.26ZM848.177 108.27C846.842 108.27 845.897 106.95 845.897 104.1C845.897 101.235 846.842 99.99 848.177 99.99C849.512 99.99 850.457 101.235 850.457 104.1C850.457 106.95 849.512 108.27 848.177 108.27ZM848.177 105.015C848.672 105.015 849.107 104.64 849.107 103.995C849.107 103.35 848.672 102.975 848.177 102.975C847.682 102.975 847.247 103.35 847.247 103.995C847.247 104.64 847.682 105.015 848.177 105.015Z" fill="url(#paint32_linear_136_4435)"/>
<path d="M848.177 152.26C850.307 152.26 851.612 150.385 851.612 147.1C851.612 143.785 850.307 142 848.177 142C846.047 142 844.742 143.785 844.742 147.1C844.742 150.385 846.047 152.26 848.177 152.26ZM848.177 151.27C846.842 151.27 845.897 149.95 845.897 147.1C845.897 144.235 846.842 142.99 848.177 142.99C849.512 142.99 850.457 144.235 850.457 147.1C850.457 149.95 849.512 151.27 848.177 151.27ZM848.177 148.015C848.672 148.015 849.107 147.64 849.107 146.995C849.107 146.35 848.672 145.975 848.177 145.975C847.682 145.975 847.247 146.35 847.247 146.995C847.247 147.64 847.682 148.015 848.177 148.015Z" fill="url(#paint33_linear_136_4435)"/>
<path d="M845.147 195.08H851.597V194.06H849.092V185.18H848.177C847.577 185.495 846.842 185.75 845.822 185.9V186.695H847.862V194.06H845.147V195.08Z" fill="url(#paint34_linear_136_4435)"/>
<path d="M845.147 238.08H851.597V237.06H849.092V228.18H848.177C847.577 228.495 846.842 228.75 845.822 228.9V229.695H847.862V237.06H845.147V238.08Z" fill="url(#paint35_linear_136_4435)"/>
<path d="M848.177 281.26C850.307 281.26 851.612 279.385 851.612 276.1C851.612 272.785 850.307 271 848.177 271C846.047 271 844.742 272.785 844.742 276.1C844.742 279.385 846.047 281.26 848.177 281.26ZM848.177 280.27C846.842 280.27 845.897 278.95 845.897 276.1C845.897 273.235 846.842 271.99 848.177 271.99C849.512 271.99 850.457 273.235 850.457 276.1C850.457 278.95 849.512 280.27 848.177 280.27ZM848.177 277.015C848.672 277.015 849.107 276.64 849.107 275.995C849.107 275.35 848.672 274.975 848.177 274.975C847.682 274.975 847.247 275.35 847.247 275.995C847.247 276.64 847.682 277.015 848.177 277.015Z" fill="url(#paint36_linear_136_4435)"/>
<path d="M848.177 324.26C850.307 324.26 851.612 322.385 851.612 319.1C851.612 315.785 850.307 314 848.177 314C846.047 314 844.742 315.785 844.742 319.1C844.742 322.385 846.047 324.26 848.177 324.26ZM848.177 323.27C846.842 323.27 845.897 321.95 845.897 319.1C845.897 316.235 846.842 314.99 848.177 314.99C849.512 314.99 850.457 316.235 850.457 319.1C850.457 321.95 849.512 323.27 848.177 323.27ZM848.177 320.015C848.672 320.015 849.107 319.64 849.107 318.995C849.107 318.35 848.672 317.975 848.177 317.975C847.682 317.975 847.247 318.35 847.247 318.995C847.247 319.64 847.682 320.015 848.177 320.015Z" fill="url(#paint37_linear_136_4435)"/>
<path d="M718.255 23.26C720.385 23.26 721.69 21.385 721.69 18.1C721.69 14.785 720.385 13 718.255 13C716.125 13 714.82 14.785 714.82 18.1C714.82 21.385 716.125 23.26 718.255 23.26ZM718.255 22.27C716.92 22.27 715.975 20.95 715.975 18.1C715.975 15.235 716.92 13.99 718.255 13.99C719.59 13.99 720.535 15.235 720.535 18.1C720.535 20.95 719.59 22.27 718.255 22.27ZM718.255 19.015C718.75 19.015 719.185 18.64 719.185 17.995C719.185 17.35 718.75 16.975 718.255 16.975C717.76 16.975 717.325 17.35 717.325 17.995C717.325 18.64 717.76 19.015 718.255 19.015Z" fill="url(#paint38_linear_136_4435)"/>
<path d="M718.255 66.26C720.385 66.26 721.69 64.385 721.69 61.1C721.69 57.785 720.385 56 718.255 56C716.125 56 714.82 57.785 714.82 61.1C714.82 64.385 716.125 66.26 718.255 66.26ZM718.255 65.27C716.92 65.27 715.975 63.95 715.975 61.1C715.975 58.235 716.92 56.99 718.255 56.99C719.59 56.99 720.535 58.235 720.535 61.1C720.535 63.95 719.59 65.27 718.255 65.27ZM718.255 62.015C718.75 62.015 719.185 61.64 719.185 60.995C719.185 60.35 718.75 59.975 718.255 59.975C717.76 59.975 717.325 60.35 717.325 60.995C717.325 61.64 717.76 62.015 718.255 62.015Z" fill="url(#paint39_linear_136_4435)"/>
<path d="M715.225 109.08H721.675V108.06H719.17V99.1801H718.255C717.655 99.4951 716.92 99.7501 715.9 99.9001V100.695H717.94V108.06H715.225V109.08Z" fill="url(#paint40_linear_136_4435)"/>
<path d="M715.225 152.08H721.675V151.06H719.17V142.18H718.255C717.655 142.495 716.92 142.75 715.9 142.9V143.695H717.94V151.06H715.225V152.08Z" fill="url(#paint41_linear_136_4435)"/>
<path d="M718.255 195.26C720.385 195.26 721.69 193.385 721.69 190.1C721.69 186.785 720.385 185 718.255 185C716.125 185 714.82 186.785 714.82 190.1C714.82 193.385 716.125 195.26 718.255 195.26ZM718.255 194.27C716.92 194.27 715.975 192.95 715.975 190.1C715.975 187.235 716.92 185.99 718.255 185.99C719.59 185.99 720.535 187.235 720.535 190.1C720.535 192.95 719.59 194.27 718.255 194.27ZM718.255 191.015C718.75 191.015 719.185 190.64 719.185 189.995C719.185 189.35 718.75 188.975 718.255 188.975C717.76 188.975 717.325 189.35 717.325 189.995C717.325 190.64 717.76 191.015 718.255 191.015Z" fill="url(#paint42_linear_136_4435)"/>
<path d="M715.225 281.08H721.675V280.06H719.17V271.18H718.255C717.655 271.495 716.92 271.75 715.9 271.9V272.695H717.94V280.06H715.225V281.08Z" fill="url(#paint43_linear_136_4435)"/>
<path d="M718.255 237.26C720.385 237.26 721.69 235.385 721.69 232.1C721.69 228.785 720.385 227 718.255 227C716.125 227 714.82 228.785 714.82 232.1C714.82 235.385 716.125 237.26 718.255 237.26ZM718.255 236.27C716.92 236.27 715.975 234.95 715.975 232.1C715.975 229.235 716.92 227.99 718.255 227.99C719.59 227.99 720.535 229.235 720.535 232.1C720.535 234.95 719.59 236.27 718.255 236.27ZM718.255 233.015C718.75 233.015 719.185 232.64 719.185 231.995C719.185 231.35 718.75 230.975 718.255 230.975C717.76 230.975 717.325 231.35 717.325 231.995C717.325 232.64 717.76 233.015 718.255 233.015Z" fill="#0A9E73"/>
<path d="M890.712 23.26C892.842 23.26 894.147 21.385 894.147 18.1C894.147 14.785 892.842 13 890.712 13C888.582 13 887.277 14.785 887.277 18.1C887.277 21.385 888.582 23.26 890.712 23.26ZM890.712 22.27C889.377 22.27 888.432 20.95 888.432 18.1C888.432 15.235 889.377 13.99 890.712 13.99C892.047 13.99 892.992 15.235 892.992 18.1C892.992 20.95 892.047 22.27 890.712 22.27ZM890.712 19.015C891.207 19.015 891.642 18.64 891.642 17.995C891.642 17.35 891.207 16.975 890.712 16.975C890.217 16.975 889.782 17.35 889.782 17.995C889.782 18.64 890.217 19.015 890.712 19.015Z" fill="url(#paint44_linear_136_4435)"/>
<path d="M890.712 66.26C892.842 66.26 894.147 64.385 894.147 61.1C894.147 57.785 892.842 56 890.712 56C888.582 56 887.277 57.785 887.277 61.1C887.277 64.385 888.582 66.26 890.712 66.26ZM890.712 65.27C889.377 65.27 888.432 63.95 888.432 61.1C888.432 58.235 889.377 56.99 890.712 56.99C892.047 56.99 892.992 58.235 892.992 61.1C892.992 63.95 892.047 65.27 890.712 65.27ZM890.712 62.015C891.207 62.015 891.642 61.64 891.642 60.995C891.642 60.35 891.207 59.975 890.712 59.975C890.217 59.975 889.782 60.35 889.782 60.995C889.782 61.64 890.217 62.015 890.712 62.015Z" fill="url(#paint45_linear_136_4435)"/>
<path d="M887.682 109.08H894.132V108.06H891.627V99.1801H890.712C890.112 99.4951 889.377 99.7501 888.357 99.9001V100.695H890.397V108.06H887.682V109.08Z" fill="url(#paint46_linear_136_4435)"/>
<path d="M887.682 152.08H894.132V151.06H891.627V142.18H890.712C890.112 142.495 889.377 142.75 888.357 142.9V143.695H890.397V151.06H887.682V152.08Z" fill="url(#paint47_linear_136_4435)"/>
<path d="M890.712 238.26C892.842 238.26 894.147 236.385 894.147 233.1C894.147 229.785 892.842 228 890.712 228C888.582 228 887.277 229.785 887.277 233.1C887.277 236.385 888.582 238.26 890.712 238.26ZM890.712 237.27C889.377 237.27 888.432 235.95 888.432 233.1C888.432 230.235 889.377 228.99 890.712 228.99C892.047 228.99 892.992 230.235 892.992 233.1C892.992 235.95 892.047 237.27 890.712 237.27ZM890.712 234.015C891.207 234.015 891.642 233.64 891.642 232.995C891.642 232.35 891.207 231.975 890.712 231.975C890.217 231.975 889.782 232.35 889.782 232.995C889.782 233.64 890.217 234.015 890.712 234.015Z" fill="url(#paint48_linear_136_4435)"/>
<path d="M887.682 281.08H894.132V280.06H891.627V271.18H890.712C890.112 271.495 889.377 271.75 888.357 271.9V272.695H890.397V280.06H887.682V281.08Z" fill="url(#paint49_linear_136_4435)"/>
<path d="M761.439 64.26C763.569 64.26 764.874 62.385 764.874 59.1C764.874 55.785 763.569 54 761.439 54C759.309 54 758.004 55.785 758.004 59.1C758.004 62.385 759.309 64.26 761.439 64.26ZM761.439 63.27C760.104 63.27 759.159 61.95 759.159 59.1C759.159 56.235 760.104 54.99 761.439 54.99C762.774 54.99 763.719 56.235 763.719 59.1C763.719 61.95 762.774 63.27 761.439 63.27ZM761.439 60.015C761.934 60.015 762.369 59.64 762.369 58.995C762.369 58.35 761.934 57.975 761.439 57.975C760.944 57.975 760.509 58.35 760.509 58.995C760.509 59.64 760.944 60.015 761.439 60.015Z" fill="url(#paint50_linear_136_4435)"/>
<path d="M758.409 150.08H764.859V149.06H762.354V140.18H761.439C760.839 140.495 760.104 140.75 759.084 140.9V141.695H761.124V149.06H758.409V150.08Z" fill="url(#paint51_linear_136_4435)"/>
<path d="M761.439 193.26C763.569 193.26 764.874 191.385 764.874 188.1C764.874 184.785 763.569 183 761.439 183C759.309 183 758.004 184.785 758.004 188.1C758.004 191.385 759.309 193.26 761.439 193.26ZM761.439 192.27C760.104 192.27 759.159 190.95 759.159 188.1C759.159 185.235 760.104 183.99 761.439 183.99C762.774 183.99 763.719 185.235 763.719 188.1C763.719 190.95 762.774 192.27 761.439 192.27ZM761.439 189.015C761.934 189.015 762.369 188.64 762.369 187.995C762.369 187.35 761.934 186.975 761.439 186.975C760.944 186.975 760.509 187.35 760.509 187.995C760.509 188.64 760.944 189.015 761.439 189.015Z" fill="url(#paint52_linear_136_4435)"/>
<path d="M758.409 236.08H764.859V235.06H762.354V226.18H761.439C760.839 226.495 760.104 226.75 759.084 226.9V227.695H761.124V235.06H758.409V236.08Z" fill="url(#paint53_linear_136_4435)"/>
<path d="M761.439 279.26C763.569 279.26 764.874 277.385 764.874 274.1C764.874 270.785 763.569 269 761.439 269C759.309 269 758.004 270.785 758.004 274.1C758.004 277.385 759.309 279.26 761.439 279.26ZM761.439 278.27C760.104 278.27 759.159 276.95 759.159 274.1C759.159 271.235 760.104 269.99 761.439 269.99C762.774 269.99 763.719 271.235 763.719 274.1C763.719 276.95 762.774 278.27 761.439 278.27ZM761.439 275.015C761.934 275.015 762.369 274.64 762.369 273.995C762.369 273.35 761.934 272.975 761.439 272.975C760.944 272.975 760.509 273.35 760.509 273.995C760.509 274.64 760.944 275.015 761.439 275.015Z" fill="url(#paint54_linear_136_4435)"/>
<path d="M758.409 322.08H764.859V321.06H762.354V312.18H761.439C760.839 312.495 760.104 312.75 759.084 312.9V313.695H761.124V321.06H758.409V322.08Z" fill="url(#paint55_linear_136_4435)"/>
<path d="M761.439 365.26C763.569 365.26 764.874 363.385 764.874 360.1C764.874 356.785 763.569 355 761.439 355C759.309 355 758.004 356.785 758.004 360.1C758.004 363.385 759.309 365.26 761.439 365.26ZM761.439 364.27C760.104 364.27 759.159 362.95 759.159 360.1C759.159 357.235 760.104 355.99 761.439 355.99C762.774 355.99 763.719 357.235 763.719 360.1C763.719 362.95 762.774 364.27 761.439 364.27ZM761.439 361.015C761.934 361.015 762.369 360.64 762.369 359.995C762.369 359.35 761.934 358.975 761.439 358.975C760.944 358.975 760.509 359.35 760.509 359.995C760.509 360.64 760.944 361.015 761.439 361.015Z" fill="url(#paint56_linear_136_4435)"/>
<path d="M847.642 279.809C849.772 279.809 851.077 277.934 851.077 274.649C851.077 271.334 849.772 269.549 847.642 269.549C845.512 269.549 844.207 271.334 844.207 274.649C844.207 277.934 845.512 279.809 847.642 279.809ZM847.642 278.819C846.307 278.819 845.362 277.499 845.362 274.649C845.362 271.784 846.307 270.539 847.642 270.539C848.977 270.539 849.922 271.784 849.922 274.649C849.922 277.499 848.977 278.819 847.642 278.819ZM847.642 275.564C848.137 275.564 848.572 275.189 848.572 274.544C848.572 273.899 848.137 273.524 847.642 273.524C847.147 273.524 846.712 273.899 846.712 274.544C846.712 275.189 847.147 275.564 847.642 275.564Z" fill="#0A9E73"/>
<path d="M611.285 210.105L568.234 210.105L568.234 167.054L611.285 167.054L611.285 210.105Z" stroke="#0A9E73" stroke-width="1.16139"/>
<path d="M869.59 296.205L826.539 296.205L826.539 253.154L869.59 253.154L869.59 296.205Z" stroke="#0A9E73" stroke-width="1.16139"/>
<path d="M740.481 253.154L697.43 253.154L697.43 210.103L740.481 210.103L740.481 253.154Z" stroke="#0A9E73" stroke-width="1.16139"/>
<path d="M783.535 425.359L740.484 425.359L740.484 382.308L783.535 382.308L783.535 425.359Z" stroke="#0A9E73" stroke-width="1.16139"/>
<path d="M826.59 167.053L783.539 167.053L783.539 124.002L826.59 124.002L826.59 167.053Z" stroke="#0A9E73" stroke-width="1.16139"/>
<path d="M611.328 130.059H568.23V248.201H611.328V130.059Z" fill="url(#paint57_linear_136_4435)"/>
<path d="M543.199 150.92H549.649V149.9H547.144V141.02H546.229C545.629 141.335 544.894 141.59 543.874 141.74V142.535H545.914V149.9H543.199V150.92Z" fill="#0A9E73"/>
<path d="M567.949 167.193L524.898 167.193L524.898 124.142L567.949 124.142L567.949 167.193Z" stroke="#0A9E73" stroke-width="1.16139"/>
<path d="M567.95 83.3965H524.852V201.538H567.95V83.3965Z" fill="url(#paint58_linear_136_4435)"/>
<path d="M740.129 173.059H697.031V291.201H740.129V173.059Z" fill="url(#paint59_linear_136_4435)"/>
<path d="M545.849 365.674C547.979 365.674 549.284 363.799 549.284 360.514C549.284 357.199 547.979 355.414 545.849 355.414C543.719 355.414 542.414 357.199 542.414 360.514C542.414 363.799 543.719 365.674 545.849 365.674ZM545.849 364.684C544.514 364.684 543.569 363.364 543.569 360.514C543.569 357.649 544.514 356.404 545.849 356.404C547.184 356.404 548.129 357.649 548.129 360.514C548.129 363.364 547.184 364.684 545.849 364.684ZM545.849 361.429C546.344 361.429 546.779 361.054 546.779 360.409C546.779 359.764 546.344 359.389 545.849 359.389C545.354 359.389 544.919 359.764 544.919 360.409C544.919 361.054 545.354 361.429 545.849 361.429Z" fill="#0A9E73"/>
<path d="M567.949 382.07L524.898 382.07L524.898 339.019L567.949 339.019L567.949 382.07Z" stroke="#0A9E73" stroke-width="1.16139"/>
<path d="M567.5 294.818H524.402V412.96H567.5V294.818Z" fill="url(#paint60_linear_136_4435)"/>
<path d="M826.036 82.3965H782.938V200.538H826.036V82.3965Z" fill="url(#paint61_linear_136_4435)"/>
<path d="M869.637 212H826.539V330.142H869.637V212Z" fill="url(#paint62_linear_136_4435)"/>
<path d="M783.582 338.684H740.484V456.826H783.582V338.684Z" fill="url(#paint63_linear_136_4435)"/>
<path d="M920.554 -1.29688H0.949219V400.899H920.554V-1.29688Z" fill="url(#paint64_radial_136_4435)"/>
</g>
<defs>
<linearGradient id="paint0_linear_136_4435" x1="546.398" y1="9.08008" x2="546.398" y2="370.08" gradientUnits="userSpaceOnUse">
<stop stop-color="#3D3D3D"/>
<stop offset="1" stop-color="#2F2F2F" stop-opacity="0"/>
</linearGradient>
<linearGradient id="paint1_linear_136_4435" x1="546.398" y1="9.08014" x2="546.398" y2="370.08" gradientUnits="userSpaceOnUse">
<stop stop-color="#3D3D3D"/>
<stop offset="1" stop-color="#2F2F2F" stop-opacity="0"/>
</linearGradient>
<linearGradient id="paint2_linear_136_4435" x1="546.398" y1="9.08017" x2="546.398" y2="370.08" gradientUnits="userSpaceOnUse">
<stop stop-color="#3D3D3D"/>
<stop offset="1" stop-color="#2F2F2F" stop-opacity="0"/>
</linearGradient>
<linearGradient id="paint3_linear_136_4435" x1="546.398" y1="9.07981" x2="546.398" y2="370.08" gradientUnits="userSpaceOnUse">
<stop stop-color="#3D3D3D"/>
<stop offset="1" stop-color="#2F2F2F" stop-opacity="0"/>
</linearGradient>
<linearGradient id="paint4_linear_136_4435" x1="546.398" y1="9.08018" x2="546.398" y2="370.08" gradientUnits="userSpaceOnUse">
<stop stop-color="#3D3D3D"/>
<stop offset="1" stop-color="#2F2F2F" stop-opacity="0"/>
</linearGradient>
<linearGradient id="paint5_linear_136_4435" x1="589.582" y1="9.08008" x2="589.582" y2="370.08" gradientUnits="userSpaceOnUse">
<stop stop-color="#3D3D3D"/>
<stop offset="1" stop-color="#2F2F2F" stop-opacity="0"/>
</linearGradient>
<linearGradient id="paint6_linear_136_4435" x1="589.582" y1="9.08014" x2="589.582" y2="370.08" gradientUnits="userSpaceOnUse">
<stop stop-color="#3D3D3D"/>
<stop offset="1" stop-color="#2F2F2F" stop-opacity="0"/>
</linearGradient>
<linearGradient id="paint7_linear_136_4435" x1="589.582" y1="9.07989" x2="589.582" y2="370.08" gradientUnits="userSpaceOnUse">
<stop stop-color="#3D3D3D"/>
<stop offset="1" stop-color="#2F2F2F" stop-opacity="0"/>
</linearGradient>
<linearGradient id="paint8_linear_136_4435" x1="589.582" y1="9.07981" x2="589.582" y2="370.08" gradientUnits="userSpaceOnUse">
<stop stop-color="#3D3D3D"/>
<stop offset="1" stop-color="#2F2F2F" stop-opacity="0"/>
</linearGradient>
<linearGradient id="paint9_linear_136_4435" x1="589.582" y1="9.07984" x2="589.582" y2="370.08" gradientUnits="userSpaceOnUse">
<stop stop-color="#3D3D3D"/>
<stop offset="1" stop-color="#2F2F2F" stop-opacity="0"/>
</linearGradient>
<linearGradient id="paint10_linear_136_4435" x1="589.582" y1="9.07979" x2="589.582" y2="370.08" gradientUnits="userSpaceOnUse">
<stop stop-color="#3D3D3D"/>
<stop offset="1" stop-color="#2F2F2F" stop-opacity="0"/>
</linearGradient>
<linearGradient id="paint11_linear_136_4435" x1="632.164" y1="52.0801" x2="632.164" y2="413.08" gradientUnits="userSpaceOnUse">
<stop stop-color="#3D3D3D"/>
<stop offset="1" stop-color="#2F2F2F" stop-opacity="0"/>
</linearGradient>
<linearGradient id="paint12_linear_136_4435" x1="632.164" y1="52.08" x2="632.164" y2="413.08" gradientUnits="userSpaceOnUse">
<stop stop-color="#3D3D3D"/>
<stop offset="1" stop-color="#2F2F2F" stop-opacity="0"/>
</linearGradient>
<linearGradient id="paint13_linear_136_4435" x1="632.164" y1="52.0802" x2="632.164" y2="413.08" gradientUnits="userSpaceOnUse">
<stop stop-color="#3D3D3D"/>
<stop offset="1" stop-color="#2F2F2F" stop-opacity="0"/>
</linearGradient>
<linearGradient id="paint14_linear_136_4435" x1="632.164" y1="52.0802" x2="632.164" y2="413.08" gradientUnits="userSpaceOnUse">
<stop stop-color="#3D3D3D"/>
<stop offset="1" stop-color="#2F2F2F" stop-opacity="0"/>
</linearGradient>
<linearGradient id="paint15_linear_136_4435" x1="632.164" y1="52.0799" x2="632.164" y2="413.08" gradientUnits="userSpaceOnUse">
<stop stop-color="#3D3D3D"/>
<stop offset="1" stop-color="#2F2F2F" stop-opacity="0"/>
</linearGradient>
<linearGradient id="paint16_linear_136_4435" x1="632.164" y1="52.0802" x2="632.164" y2="413.08" gradientUnits="userSpaceOnUse">
<stop stop-color="#3D3D3D"/>
<stop offset="1" stop-color="#2F2F2F" stop-opacity="0"/>
</linearGradient>
<linearGradient id="paint17_linear_136_4435" x1="632.164" y1="52.0802" x2="632.164" y2="413.08" gradientUnits="userSpaceOnUse">
<stop stop-color="#3D3D3D"/>
<stop offset="1" stop-color="#2F2F2F" stop-opacity="0"/>
</linearGradient>
<linearGradient id="paint18_linear_136_4435" x1="804.621" y1="52.0801" x2="804.621" y2="413.08" gradientUnits="userSpaceOnUse">
<stop stop-color="#3D3D3D"/>
<stop offset="1" stop-color="#2F2F2F" stop-opacity="0"/>
</linearGradient>
<linearGradient id="paint19_linear_136_4435" x1="804.621" y1="52.0802" x2="804.621" y2="413.08" gradientUnits="userSpaceOnUse">
<stop stop-color="#3D3D3D"/>
<stop offset="1" stop-color="#2F2F2F" stop-opacity="0"/>
</linearGradient>
<linearGradient id="paint20_linear_136_4435" x1="804.621" y1="52.0802" x2="804.621" y2="413.08" gradientUnits="userSpaceOnUse">
<stop stop-color="#3D3D3D"/>
<stop offset="1" stop-color="#2F2F2F" stop-opacity="0"/>
</linearGradient>
<linearGradient id="paint21_linear_136_4435" x1="804.621" y1="52.0802" x2="804.621" y2="413.08" gradientUnits="userSpaceOnUse">
<stop stop-color="#3D3D3D"/>
<stop offset="1" stop-color="#2F2F2F" stop-opacity="0"/>
</linearGradient>
<linearGradient id="paint22_linear_136_4435" x1="675.719" y1="9.08008" x2="675.719" y2="370.08" gradientUnits="userSpaceOnUse">
<stop stop-color="#3D3D3D"/>
<stop offset="1" stop-color="#2F2F2F" stop-opacity="0"/>
</linearGradient>
<linearGradient id="paint23_linear_136_4435" x1="675.719" y1="9.08013" x2="675.719" y2="370.08" gradientUnits="userSpaceOnUse">
<stop stop-color="#3D3D3D"/>
<stop offset="1" stop-color="#2F2F2F" stop-opacity="0"/>
</linearGradient>
<linearGradient id="paint24_linear_136_4435" x1="675.719" y1="9.08006" x2="675.719" y2="370.08" gradientUnits="userSpaceOnUse">
<stop stop-color="#3D3D3D"/>
<stop offset="1" stop-color="#2F2F2F" stop-opacity="0"/>
</linearGradient>
<linearGradient id="paint25_linear_136_4435" x1="675.719" y1="9.08015" x2="675.719" y2="370.08" gradientUnits="userSpaceOnUse">
<stop stop-color="#3D3D3D"/>
<stop offset="1" stop-color="#2F2F2F" stop-opacity="0"/>
</linearGradient>
<linearGradient id="paint26_linear_136_4435" x1="675.719" y1="9.07984" x2="675.719" y2="370.08" gradientUnits="userSpaceOnUse">
<stop stop-color="#3D3D3D"/>
<stop offset="1" stop-color="#2F2F2F" stop-opacity="0"/>
</linearGradient>
<linearGradient id="paint27_linear_136_4435" x1="675.719" y1="9.07981" x2="675.719" y2="370.08" gradientUnits="userSpaceOnUse">
<stop stop-color="#3D3D3D"/>
<stop offset="1" stop-color="#2F2F2F" stop-opacity="0"/>
</linearGradient>
<linearGradient id="paint28_linear_136_4435" x1="675.719" y1="9.07984" x2="675.719" y2="370.08" gradientUnits="userSpaceOnUse">
<stop stop-color="#3D3D3D"/>
<stop offset="1" stop-color="#2F2F2F" stop-opacity="0"/>
</linearGradient>
<linearGradient id="paint29_linear_136_4435" x1="675.719" y1="9.07979" x2="675.719" y2="370.08" gradientUnits="userSpaceOnUse">
<stop stop-color="#3D3D3D"/>
<stop offset="1" stop-color="#2F2F2F" stop-opacity="0"/>
</linearGradient>
<linearGradient id="paint30_linear_136_4435" x1="848.176" y1="9.08008" x2="848.176" y2="370.08" gradientUnits="userSpaceOnUse">
<stop stop-color="#3D3D3D"/>
<stop offset="1" stop-color="#2F2F2F" stop-opacity="0"/>
</linearGradient>
<linearGradient id="paint31_linear_136_4435" x1="848.176" y1="9.08013" x2="848.176" y2="370.08" gradientUnits="userSpaceOnUse">
<stop stop-color="#3D3D3D"/>
<stop offset="1" stop-color="#2F2F2F" stop-opacity="0"/>
</linearGradient>
<linearGradient id="paint32_linear_136_4435" x1="848.176" y1="9.08006" x2="848.176" y2="370.08" gradientUnits="userSpaceOnUse">
<stop stop-color="#3D3D3D"/>
<stop offset="1" stop-color="#2F2F2F" stop-opacity="0"/>
</linearGradient>
<linearGradient id="paint33_linear_136_4435" x1="848.176" y1="9.08015" x2="848.176" y2="370.08" gradientUnits="userSpaceOnUse">
<stop stop-color="#3D3D3D"/>
<stop offset="1" stop-color="#2F2F2F" stop-opacity="0"/>
</linearGradient>
<linearGradient id="paint34_linear_136_4435" x1="848.176" y1="9.07984" x2="848.176" y2="370.08" gradientUnits="userSpaceOnUse">
<stop stop-color="#3D3D3D"/>
<stop offset="1" stop-color="#2F2F2F" stop-opacity="0"/>
</linearGradient>
<linearGradient id="paint35_linear_136_4435" x1="848.176" y1="9.07981" x2="848.176" y2="370.08" gradientUnits="userSpaceOnUse">
<stop stop-color="#3D3D3D"/>
<stop offset="1" stop-color="#2F2F2F" stop-opacity="0"/>
</linearGradient>
<linearGradient id="paint36_linear_136_4435" x1="848.176" y1="9.07984" x2="848.176" y2="370.08" gradientUnits="userSpaceOnUse">
<stop stop-color="#3D3D3D"/>
<stop offset="1" stop-color="#2F2F2F" stop-opacity="0"/>
</linearGradient>
<linearGradient id="paint37_linear_136_4435" x1="848.176" y1="9.07979" x2="848.176" y2="370.08" gradientUnits="userSpaceOnUse">
<stop stop-color="#3D3D3D"/>
<stop offset="1" stop-color="#2F2F2F" stop-opacity="0"/>
</linearGradient>
<linearGradient id="paint38_linear_136_4435" x1="718.254" y1="-33.9199" x2="718.254" y2="327.08" gradientUnits="userSpaceOnUse">
<stop stop-color="#3D3D3D"/>
<stop offset="1" stop-color="#2F2F2F" stop-opacity="0"/>
</linearGradient>
<linearGradient id="paint39_linear_136_4435" x1="718.254" y1="-33.9199" x2="718.254" y2="327.08" gradientUnits="userSpaceOnUse">
<stop stop-color="#3D3D3D"/>
<stop offset="1" stop-color="#2F2F2F" stop-opacity="0"/>
</linearGradient>
<linearGradient id="paint40_linear_136_4435" x1="718.254" y1="-33.9199" x2="718.254" y2="327.08" gradientUnits="userSpaceOnUse">
<stop stop-color="#3D3D3D"/>
<stop offset="1" stop-color="#2F2F2F" stop-opacity="0"/>
</linearGradient>
<linearGradient id="paint41_linear_136_4435" x1="718.254" y1="-33.9201" x2="718.254" y2="327.08" gradientUnits="userSpaceOnUse">
<stop stop-color="#3D3D3D"/>
<stop offset="1" stop-color="#2F2F2F" stop-opacity="0"/>
</linearGradient>
<linearGradient id="paint42_linear_136_4435" x1="718.254" y1="-33.9198" x2="718.254" y2="327.08" gradientUnits="userSpaceOnUse">
<stop stop-color="#3D3D3D"/>
<stop offset="1" stop-color="#2F2F2F" stop-opacity="0"/>
</linearGradient>
<linearGradient id="paint43_linear_136_4435" x1="718.254" y1="-33.9198" x2="718.254" y2="327.08" gradientUnits="userSpaceOnUse">
<stop stop-color="#3D3D3D"/>
<stop offset="1" stop-color="#2F2F2F" stop-opacity="0"/>
</linearGradient>
<linearGradient id="paint44_linear_136_4435" x1="890.711" y1="-33.9199" x2="890.711" y2="327.08" gradientUnits="userSpaceOnUse">
<stop stop-color="#3D3D3D"/>
<stop offset="1" stop-color="#2F2F2F" stop-opacity="0"/>
</linearGradient>
<linearGradient id="paint45_linear_136_4435" x1="890.711" y1="-33.9199" x2="890.711" y2="327.08" gradientUnits="userSpaceOnUse">
<stop stop-color="#3D3D3D"/>
<stop offset="1" stop-color="#2F2F2F" stop-opacity="0"/>
</linearGradient>
<linearGradient id="paint46_linear_136_4435" x1="890.711" y1="-33.9199" x2="890.711" y2="327.08" gradientUnits="userSpaceOnUse">
<stop stop-color="#3D3D3D"/>
<stop offset="1" stop-color="#2F2F2F" stop-opacity="0"/>
</linearGradient>
<linearGradient id="paint47_linear_136_4435" x1="890.711" y1="-33.9201" x2="890.711" y2="327.08" gradientUnits="userSpaceOnUse">
<stop stop-color="#3D3D3D"/>
<stop offset="1" stop-color="#2F2F2F" stop-opacity="0"/>
</linearGradient>
<linearGradient id="paint48_linear_136_4435" x1="890.711" y1="-33.9198" x2="890.711" y2="327.08" gradientUnits="userSpaceOnUse">
<stop stop-color="#3D3D3D"/>
<stop offset="1" stop-color="#2F2F2F" stop-opacity="0"/>
</linearGradient>
<linearGradient id="paint49_linear_136_4435" x1="890.711" y1="-33.9198" x2="890.711" y2="327.08" gradientUnits="userSpaceOnUse">
<stop stop-color="#3D3D3D"/>
<stop offset="1" stop-color="#2F2F2F" stop-opacity="0"/>
</linearGradient>
<linearGradient id="paint50_linear_136_4435" x1="761.438" y1="50.0801" x2="761.438" y2="411.08" gradientUnits="userSpaceOnUse">
<stop stop-color="#3D3D3D"/>
<stop offset="1" stop-color="#2F2F2F" stop-opacity="0"/>
</linearGradient>
<linearGradient id="paint51_linear_136_4435" x1="761.438" y1="50.08" x2="761.438" y2="411.08" gradientUnits="userSpaceOnUse">
<stop stop-color="#3D3D3D"/>
<stop offset="1" stop-color="#2F2F2F" stop-opacity="0"/>
</linearGradient>
<linearGradient id="paint52_linear_136_4435" x1="761.438" y1="50.0802" x2="761.438" y2="411.08" gradientUnits="userSpaceOnUse">
<stop stop-color="#3D3D3D"/>
<stop offset="1" stop-color="#2F2F2F" stop-opacity="0"/>
</linearGradient>
<linearGradient id="paint53_linear_136_4435" x1="761.438" y1="50.0799" x2="761.438" y2="411.08" gradientUnits="userSpaceOnUse">
<stop stop-color="#3D3D3D"/>
<stop offset="1" stop-color="#2F2F2F" stop-opacity="0"/>
</linearGradient>
<linearGradient id="paint54_linear_136_4435" x1="761.438" y1="50.0799" x2="761.438" y2="411.08" gradientUnits="userSpaceOnUse">
<stop stop-color="#3D3D3D"/>
<stop offset="1" stop-color="#2F2F2F" stop-opacity="0"/>
</linearGradient>
<linearGradient id="paint55_linear_136_4435" x1="761.438" y1="50.0802" x2="761.438" y2="411.08" gradientUnits="userSpaceOnUse">
<stop stop-color="#3D3D3D"/>
<stop offset="1" stop-color="#2F2F2F" stop-opacity="0"/>
</linearGradient>
<linearGradient id="paint56_linear_136_4435" x1="761.438" y1="50.0798" x2="761.438" y2="411.08" gradientUnits="userSpaceOnUse">
<stop stop-color="#3D3D3D"/>
<stop offset="1" stop-color="#2F2F2F" stop-opacity="0"/>
</linearGradient>
<linearGradient id="paint57_linear_136_4435" x1="611.328" y1="130.059" x2="620.639" y2="239.357" gradientUnits="userSpaceOnUse">
<stop stop-color="#133030" stop-opacity="0"/>
<stop offset="0.473958" stop-color="#1C4442" stop-opacity="0.63"/>
<stop offset="1" stop-color="#131313" stop-opacity="0"/>
</linearGradient>
<linearGradient id="paint58_linear_136_4435" x1="567.949" y1="83.3965" x2="577.26" y2="192.695" gradientUnits="userSpaceOnUse">
<stop stop-color="#133030" stop-opacity="0"/>
<stop offset="0.473958" stop-color="#1C4442" stop-opacity="0.63"/>
<stop offset="1" stop-color="#131313" stop-opacity="0"/>
</linearGradient>
<linearGradient id="paint59_linear_136_4435" x1="740.129" y1="173.059" x2="749.44" y2="282.357" gradientUnits="userSpaceOnUse">
<stop stop-color="#133030" stop-opacity="0"/>
<stop offset="0.473958" stop-color="#1C4442" stop-opacity="0.63"/>
<stop offset="1" stop-color="#131313" stop-opacity="0"/>
</linearGradient>
<linearGradient id="paint60_linear_136_4435" x1="567.5" y1="294.818" x2="576.811" y2="404.117" gradientUnits="userSpaceOnUse">
<stop stop-color="#133030" stop-opacity="0"/>
<stop offset="0.473958" stop-color="#1C4442" stop-opacity="0.63"/>
<stop offset="1" stop-color="#131313" stop-opacity="0"/>
</linearGradient>
<linearGradient id="paint61_linear_136_4435" x1="826.035" y1="82.3965" x2="835.346" y2="191.695" gradientUnits="userSpaceOnUse">
<stop stop-color="#133030" stop-opacity="0"/>
<stop offset="0.473958" stop-color="#1C4442" stop-opacity="0.63"/>
<stop offset="1" stop-color="#131313" stop-opacity="0"/>
</linearGradient>
<linearGradient id="paint62_linear_136_4435" x1="869.637" y1="212" x2="878.947" y2="321.299" gradientUnits="userSpaceOnUse">
<stop stop-color="#133030" stop-opacity="0"/>
<stop offset="0.473958" stop-color="#1C4442" stop-opacity="0.63"/>
<stop offset="1" stop-color="#131313" stop-opacity="0"/>
</linearGradient>
<linearGradient id="paint63_linear_136_4435" x1="783.582" y1="338.684" x2="792.893" y2="447.982" gradientUnits="userSpaceOnUse">
<stop stop-color="#133030" stop-opacity="0"/>
<stop offset="0.473958" stop-color="#1C4442" stop-opacity="0.63"/>
<stop offset="1" stop-color="#131313" stop-opacity="0"/>
</linearGradient>
<radialGradient id="paint64_radial_136_4435" cx="0" cy="0" r="1" gradientUnits="userSpaceOnUse" gradientTransform="translate(797.065 217.471) rotate(180) scale(324.377 199.546)">
<stop stop-color="#101317" stop-opacity="0"/>
<stop offset="0.630208" stop-color="#101317" stop-opacity="0.35"/>
<stop offset="1" stop-color="#101317" stop-opacity="0.88"/>
</radialGradient>
<clipPath id="clip0_136_4435">
<rect width="920" height="400" fill="white"/>
</clipPath>
</defs>
</svg>
