<svg width="119" height="32" viewBox="0 0 119 32" fill="none" xmlns="http://www.w3.org/2000/svg">
<path d="M112.427 1.87042C112.836 1.94608 113.249 2.00621 113.654 2.10028C114.945 2.40002 116.082 2.97654 116.919 4.03071C117.152 4.32502 117.371 4.67637 117.454 5.03445C117.599 5.66388 117.232 6.32486 116.682 6.62714C116.108 6.94241 115.347 6.88448 114.843 6.48449C114.593 6.28528 114.362 6.05563 114.093 5.88487C112.884 5.11629 111.614 5.05774 110.327 5.65667C109.793 5.90549 109.43 6.33441 109.354 6.95409C109.29 7.47853 109.442 7.93378 109.905 8.19002C110.369 8.4466 110.864 8.67818 111.375 8.81341C112.602 9.13892 113.851 9.38684 115.02 9.90702C116.205 10.435 117.195 11.1866 117.772 12.3844C118.6 14.1019 118.147 16.5045 116.729 17.958C115.543 19.1741 114.081 19.7964 112.401 19.9043C110.297 20.0394 108.44 19.4234 106.877 17.9912C106.357 17.515 105.951 16.9493 105.688 16.2938C105.447 15.6961 105.462 15.1019 105.887 14.5897C106.295 14.0981 106.827 13.8283 107.486 13.9682C108.056 14.0893 108.452 14.4794 108.754 14.943C109.843 16.6098 112.09 16.9101 113.558 16.1991C113.916 16.0255 114.256 15.736 114.499 15.4193C115.082 14.6591 114.864 13.6806 114.045 13.1793C113.309 12.7287 112.468 12.5755 111.644 12.3898C110.546 12.1425 109.477 11.8282 108.487 11.2787C105.015 9.35159 105.308 5.156 108.007 3.15946C108.963 2.45265 110.035 2.06001 111.211 1.92911C111.278 1.92168 111.342 1.89042 111.408 1.87029C111.747 1.87042 112.087 1.87042 112.427 1.87042Z" fill="#DEE2EA"/>
<path d="M45.1958 10.8564C45.1958 8.50168 45.1954 6.14699 45.1959 3.7923C45.1961 2.70776 45.8726 2.03036 46.9589 2.03084C48.0534 2.03132 49.1484 2.01771 50.2425 2.04273C54.2772 2.13501 57.8904 5.18064 58.666 9.12761C59.6478 14.1239 56.4065 18.8077 51.3763 19.6122C50.5443 19.7452 49.6868 19.7322 48.8402 19.7564C48.1335 19.7766 47.4229 19.7889 46.7187 19.7392C45.7941 19.6739 45.1974 18.9871 45.1966 18.0617C45.1943 15.6599 45.1958 13.2582 45.1958 10.8564ZM48.5989 16.4284C49.3747 16.3813 50.142 16.3951 50.8891 16.279C54.0864 15.7821 56.1192 12.6802 55.285 9.56011C54.5007 6.62614 51.826 5.07894 48.5988 5.4656C48.5989 9.09648 48.5989 12.7274 48.5989 16.4284Z" fill="#DEE2EA"/>
<path d="M83.1465 16.3987C84.4339 16.3987 85.6975 16.3987 86.9611 16.3987C87.4896 16.3987 88.0182 16.3954 88.5467 16.3995C89.5022 16.4067 90.2213 17.1365 90.2196 18.092C90.2178 19.04 89.5116 19.7606 88.5622 19.7625C86.1931 19.7674 83.8241 19.7679 81.4551 19.7623C80.4419 19.7599 79.7441 19.06 79.7436 18.0554C79.7416 13.2888 79.7418 8.52211 79.7434 3.75549C79.7438 2.75045 80.4625 2.0356 81.4784 2.03402C83.8192 2.03038 86.1599 2.03127 88.5006 2.03361C89.4777 2.03464 90.2141 2.75842 90.2196 3.71344C90.2251 4.68226 89.518 5.39938 88.5218 5.40495C86.8418 5.41429 85.1617 5.40756 83.4817 5.40756C83.3782 5.40756 83.2747 5.40756 83.1515 5.40756C83.1515 6.68794 83.1515 7.95554 83.1515 9.26767C83.2438 9.26767 83.3424 9.26767 83.441 9.26767C84.6114 9.26767 85.7818 9.2663 86.9521 9.26809C87.9078 9.26953 88.6189 9.97387 88.6247 10.9204C88.6305 11.8494 87.9299 12.5559 86.9762 12.5627C85.8059 12.5709 84.6355 12.5647 83.4651 12.5647C83.3635 12.5647 83.2618 12.5647 83.1465 12.5647C83.1465 13.8501 83.1465 15.108 83.1465 16.3987Z" fill="#DEE2EA"/>
<path d="M73.5538 5.17942C73.0179 5.17942 72.4921 5.17942 71.9662 5.17942C71.5416 5.17942 71.117 5.18245 70.6924 5.17853C70.2972 5.17482 70.1118 5.00062 70.1081 4.61588C70.1019 3.96617 70.1025 3.31626 70.1079 2.66648C70.1109 2.29775 70.275 2.14417 70.6537 2.14397C72.5786 2.1428 74.5034 2.14301 76.4282 2.14376C76.855 2.14397 76.98 2.27714 76.9802 2.73561C76.9813 4.89219 76.9807 7.04877 76.9807 9.20535C76.9807 10.8628 76.9735 12.5203 76.9828 14.1777C76.9914 15.7031 76.5875 17.0699 75.5244 18.2099C74.4831 19.3267 73.2052 19.9304 71.6815 19.9847C69.4162 20.0653 67.704 19.0402 66.384 17.2748C66.1299 16.935 66.2271 16.6032 66.5972 16.4041C67.1523 16.1055 67.7087 15.8094 68.266 15.5148C68.67 15.3013 68.9208 15.356 69.2001 15.7118C69.815 16.4951 70.9851 16.8662 71.949 16.5838C72.9218 16.2988 73.5621 15.4735 73.5697 14.3526C73.5903 11.3298 73.5755 8.30675 73.5742 5.2838C73.5741 5.26539 73.5673 5.24711 73.5538 5.17942Z" fill="#DEE2EA"/>
<path d="M100.117 5.41677C100.117 5.5373 100.117 5.64965 100.117 5.76193C100.117 9.84929 100.118 13.9366 100.117 18.0239C100.117 19.1341 99.2803 19.8747 98.1808 19.7422C97.3537 19.6426 96.7905 18.97 96.7863 18.0629C96.7814 17.0175 96.7851 15.9721 96.7851 14.9268C96.7851 11.866 96.7851 8.80522 96.7851 5.74441C96.7851 5.63385 96.7851 5.52335 96.7851 5.38619C96.664 5.38619 96.5721 5.38619 96.4802 5.38619C95.5366 5.38619 94.5931 5.38901 93.6495 5.38544C92.6483 5.38166 91.9513 4.6877 91.9531 3.70341C91.9549 2.73342 92.6501 2.0352 93.6335 2.0341C96.8512 2.03059 100.069 2.03094 103.286 2.03389C104.267 2.03478 104.99 2.76118 104.988 3.72581C104.985 4.67808 104.269 5.38063 103.289 5.3853C102.261 5.39018 101.232 5.38791 100.204 5.38963C100.186 5.3897 100.169 5.40001 100.117 5.41677Z" fill="#DEE2EA"/>
<path d="M64.3897 10.9191C64.3897 13.3015 64.3916 15.6838 64.3885 18.0662C64.3876 18.8002 63.9797 19.3953 63.3227 19.6479C62.6615 19.9021 61.9009 19.7316 61.4275 19.2189C61.1476 18.9156 61.0029 18.5521 61.0027 18.1423C61 13.3116 60.9979 8.48097 61.0037 3.65031C61.0048 2.72574 61.7402 2.03233 62.6804 2.03157C63.6581 2.03082 64.3856 2.73825 64.3878 3.71559C64.3935 6.11666 64.3897 8.51794 64.3897 10.9191Z" fill="#DEE2EA"/>
<g filter="url(#filter0_d_7666_343)">
<g style="mix-blend-mode:difference" opacity="0.9">
<path d="M8.74156 13.1953C8.73198 13.3048 8.73198 13.4149 8.74156 13.5244C8.79443 13.7877 8.94096 14.0235 9.15442 14.1886L9.5421 14.499C11.5692 16.0125 13.6647 17.4609 15.7354 18.8914L16.0486 19.0709C16.1846 19.1424 16.3334 19.187 16.4866 19.2022H16.5363C16.783 19.2021 17.0228 19.1214 17.2187 18.9727L19.1394 17.6313C19.765 17.1656 20.4404 16.7059 21.06 16.2234C21.2641 16.0615 21.4539 15.8828 21.6275 15.6891C22.1063 15.1332 22.4064 14.4478 22.4891 13.7211C22.4891 13.4849 22.5192 13.2181 22.5192 12.9387V11.542C22.5221 11.5151 22.5221 11.488 22.5192 11.461V11.486C22.514 11.7623 22.4677 12.0363 22.3819 12.2991C22.1362 13.0472 21.6582 13.699 21.0164 14.1611C19.8023 15.0361 18.5828 15.9119 17.3379 16.7559L17.0541 16.9175C16.9166 16.9869 16.7644 17.0231 16.61 17.0231H16.5352C16.4593 17.0202 16.3841 17.0083 16.311 16.9879C16.2538 16.973 16.1988 16.951 16.1472 16.9224L15.7031 16.6602C14.2134 15.6462 12.7379 14.6114 11.2765 13.5557L9.35588 12.1126L9.07426 11.8503C8.95054 11.7251 8.86815 11.5655 8.83803 11.3928V11.3259C8.81817 11.3259 8.74156 13.1953 8.74156 13.1953Z" fill="url(#paint0_radial_7666_343)"/>
</g>
</g>
<g style="mix-blend-mode:difference">
<path d="M22.5733 17.1177C22.5952 17.0528 22.6256 16.9596 22.657 16.8682V18.1035C22.6564 18.3387 22.6379 18.5736 22.6016 18.8061V18.8061C22.4801 19.6143 22.0688 20.3524 21.4425 20.8858L20.8775 21.3466C20.2308 21.8255 19.5658 22.2866 18.8934 22.7477L17.4508 23.7369L17.3233 23.8092C17.1622 23.9114 16.9745 23.9653 16.783 23.9641V23.9641C16.6703 23.9652 16.5584 23.9459 16.4528 23.9072V23.9072C16.3005 23.856 16.1567 23.7827 16.0262 23.6898V23.6898L11.6675 20.6809L9.5133 19.0934C9.38904 19.0065 9.28401 18.8954 9.20465 18.767C9.12549 18.6403 9.07333 18.499 9.05138 18.3516C9.04537 18.265 9.04537 18.178 9.05138 18.0913V16.6252C9.0765 16.6813 9.10764 16.7345 9.14426 16.784V16.784C9.24592 16.9037 9.3634 17.0094 9.49353 17.0982L10.9061 18.1436C12.2608 19.1342 13.6361 20.0953 15.0321 21.0268L15.9354 21.6419L16.3214 21.8447H16.3292C16.4871 21.9058 16.6572 21.9297 16.8261 21.9145V21.9145C16.9945 21.8995 17.1572 21.8463 17.3014 21.7591L17.4815 21.6614H17.4844L21.0971 19.1133C21.4119 18.8895 21.6919 18.6214 21.9281 18.3174C22.2148 17.9594 22.4335 17.5529 22.5733 17.1177V17.1177Z" fill="url(#paint1_radial_7666_343)"/>
</g>
<g filter="url(#filter1_d_7666_343)">
<g style="mix-blend-mode:difference" opacity="0.9">
<g style="mix-blend-mode:difference" opacity="0.9">
<path d="M22.5811 17.1174C22.603 17.0525 22.6334 16.9593 22.6648 16.8679V18.1032C22.6642 18.3384 22.6457 18.5733 22.6094 18.8058V18.8058C22.4879 19.614 22.0766 20.3521 21.4503 20.8855L20.8853 21.3463C20.2387 21.8252 19.5737 22.2863 18.9013 22.7474L17.4586 23.7366L17.3311 23.8089C17.17 23.9111 16.9823 23.965 16.7908 23.9638V23.9638C16.6781 23.9649 16.5662 23.9457 16.4606 23.9069V23.9069C16.3083 23.8557 16.1645 23.7825 16.034 23.6895V23.6895L11.6754 20.6806L9.52112 19.0931C9.39685 19.0062 9.29182 18.8951 9.21246 18.7667C9.1333 18.64 9.08114 18.4987 9.05919 18.3514C9.05319 18.2647 9.05319 18.1777 9.05919 18.091V16.6249C9.08432 16.681 9.11545 16.7342 9.15207 16.7837V16.7837C9.25374 16.9034 9.37121 17.0091 9.50134 17.0979L10.914 18.1433C12.2687 19.1339 13.644 20.095 15.0399 21.0265L15.9432 21.6416L16.3292 21.8444H16.337C16.4949 21.9055 16.665 21.9294 16.8339 21.9142V21.9142C17.0023 21.8992 17.165 21.846 17.3092 21.7589L17.4893 21.6611H17.4922L21.1049 19.113C21.4197 18.8892 21.6997 18.6211 21.9359 18.3172C22.2227 17.9591 22.4413 17.5526 22.5811 17.1174V17.1174Z" fill="url(#paint2_radial_7666_343)"/>
</g>
</g>
</g>
<path d="M13.1242 9.91427L12.0575 10.6347C11.9735 10.7192 11.9474 10.7717 12.0575 10.8495L12.1613 10.9339L13.5839 11.9277C13.5839 11.9277 14.9962 11.1604 15.2977 11.0312C15.8288 10.7928 16.4042 10.6709 16.9858 10.6734C17.3799 10.6999 17.7712 10.7593 18.1555 10.8509C18.6461 10.9921 19.111 11.2115 19.5325 11.5007L19.9333 11.7669C19.9484 11.7817 19.966 11.7937 19.9852 11.8024C20.0048 11.8109 20.026 11.8153 20.0473 11.8152C20.0688 11.8152 20.0901 11.8109 20.1098 11.8024C20.1291 11.794 20.1466 11.7819 20.1614 11.7669C20.1777 11.755 20.191 11.7395 20.2002 11.7215C20.29 11.582 20.3612 11.4313 20.4121 11.2732C20.4457 11.148 20.4632 11.0189 20.464 10.8892C20.4645 10.7039 20.4269 10.5204 20.3534 10.3504C20.28 10.1804 20.1722 10.0276 20.0371 9.90149L19.7638 9.66157C19.4346 9.34423 19.0568 9.08205 18.6449 8.88501L18.3314 8.72814C17.7806 8.51989 17.1968 8.41429 16.6084 8.41652C15.9657 8.43959 14.8846 8.72849 13.1242 9.91427Z" fill="white"/>
<g filter="url(#filter2_d_7666_343)">
<g style="mix-blend-mode:difference" opacity="0.9">
<path d="M8.93687 13.2493C8.92729 13.3588 8.92729 13.4689 8.93687 13.5784C8.98974 13.8418 9.13627 14.0775 9.34973 14.2426L9.73741 14.553C11.7645 16.0666 13.86 17.515 15.9307 18.9454L16.2439 19.1249C16.3799 19.1965 16.5287 19.2411 16.6819 19.2562H16.7316C16.9783 19.2561 17.2181 19.1755 17.414 19.0267L19.3347 17.6853C19.9603 17.2196 20.6357 16.76 21.2553 16.2774C21.4594 16.1156 21.6493 15.9368 21.8228 15.7431C22.3016 15.1872 22.6017 14.5018 22.6844 13.7752C22.6844 13.539 22.7145 13.2722 22.7145 12.9927V11.596C22.7174 11.5691 22.7174 11.542 22.7145 11.5151V11.5401C22.7093 11.8163 22.663 12.0903 22.5773 12.3531C22.3315 13.1012 21.8535 13.753 21.2117 14.2151C19.9976 15.0902 18.7782 15.9659 17.5332 16.8099L17.2494 16.9715C17.1119 17.0409 16.9597 17.0771 16.8054 17.0771H16.7305C16.6547 17.0742 16.5794 17.0624 16.5064 17.0419C16.4492 17.027 16.3941 17.005 16.3425 16.9764L15.8984 16.7142C14.4087 15.7003 12.9332 14.6654 11.4719 13.6097L9.5512 12.1666L9.26957 11.9044C9.14585 11.7792 9.06346 11.6196 9.03335 11.4468V11.3799C9.01348 11.3799 8.93687 13.2493 8.93687 13.2493Z" fill="url(#paint3_radial_7666_343)"/>
</g>
</g>
<g style="mix-blend-mode:difference">
<path d="M22.5931 17.1144C22.6151 17.0489 22.6456 16.955 22.6772 16.8627V18.1084C22.6766 18.3456 22.658 18.5825 22.6215 18.817V18.817C22.4995 19.6319 22.0864 20.3762 21.4574 20.9141L20.8899 21.3787C20.2405 21.8616 19.5726 22.3266 18.8972 22.7915L17.4483 23.789L17.3203 23.8619C17.1585 23.965 16.9699 24.0193 16.7776 24.0182V24.0182C16.6645 24.0193 16.5521 23.9998 16.446 23.9608V23.9608C16.293 23.9092 16.1486 23.8353 16.0175 23.7415V23.7415L11.6399 20.7074L9.47627 19.1066C9.35147 19.019 9.24598 18.907 9.16627 18.7775C9.08677 18.6498 9.03438 18.5072 9.01234 18.3587C9.0063 18.2712 9.0063 18.1835 9.01234 18.0961V16.6178C9.03757 16.6743 9.06884 16.728 9.10562 16.7779V16.7779C9.20773 16.8986 9.32571 17.0052 9.45641 17.0947L10.8752 18.1489C12.2358 19.1478 13.6171 20.1169 15.019 21.0563L15.9263 21.6765L16.314 21.881H16.3218C16.4804 21.9426 16.6513 21.9667 16.8209 21.9514V21.9514C16.99 21.9362 17.1534 21.8826 17.2983 21.7947L17.4792 21.6962H17.482L21.1105 19.1267C21.4267 18.901 21.7079 18.6307 21.9451 18.3242C22.2331 17.9632 22.4527 17.5533 22.5931 17.1144V17.1144Z" fill="url(#paint4_radial_7666_343)"/>
</g>
<g filter="url(#filter3_d_7666_343)">
<g style="mix-blend-mode:difference" opacity="0.9">
<g style="mix-blend-mode:difference" opacity="0.9">
<path d="M22.5853 17.1142C22.6073 17.0488 22.6378 16.9548 22.6694 16.8626V18.1082C22.6688 18.3455 22.6502 18.5823 22.6137 18.8168V18.8168C22.4917 19.6317 22.0786 20.376 21.4496 20.9139L20.8821 21.3785C20.2327 21.8614 19.5648 22.3264 18.8894 22.7913L17.4405 23.7889L17.3125 23.8617C17.1506 23.9649 16.9621 24.0192 16.7698 24.018V24.018C16.6566 24.0191 16.5443 23.9997 16.4382 23.9606V23.9606C16.2852 23.909 16.1408 23.8351 16.0097 23.7414V23.7414L11.6321 20.7073L9.46846 19.1064C9.34365 19.0188 9.23817 18.9068 9.15846 18.7773C9.07895 18.6496 9.02657 18.507 9.00452 18.3585C8.99849 18.2711 8.99849 18.1833 9.00452 18.0959V16.6176C9.02976 16.6741 9.06103 16.7278 9.09781 16.7777V16.7777C9.19992 16.8984 9.3179 17.005 9.4486 17.0945L10.8674 18.1487C12.228 19.1476 13.6093 20.1168 15.0112 21.0561L15.9185 21.6763L16.3062 21.8808H16.314C16.4726 21.9425 16.6435 21.9666 16.8131 21.9512V21.9512C16.9822 21.9361 17.1456 21.8825 17.2905 21.7945L17.4714 21.696H17.4742L21.1027 19.1265C21.4189 18.9008 21.7 18.6305 21.9373 18.324C22.2253 17.963 22.4449 17.5531 22.5853 17.1142V17.1142Z" fill="url(#paint5_radial_7666_343)"/>
</g>
</g>
</g>
<g style="mix-blend-mode:color-dodge">
<path d="M0.0915059 12.3715C0.039425 7.7039 -0.110346 6.09046 1.10066 4.15832C3.05999 1.03224 5.19519 0.41574 6.70974 0.184406C8.7289 -0.124004 10.1008 0.0476118 12.6685 0.0476118H20.08C24.4819 0.0476118 21.6163 0.0474594 23.3879 0.0475011C27.2966 -0.209413 29.9628 2.4883 29.9628 2.4883C32.2922 5.05757 32.2922 7.78099 32.2922 7.78099V19.6021C32.2922 23.9155 32.2148 24.1472 32.2148 24.1472C32.2148 24.1472 32.2148 27.5386 29.1862 30.1335C27.0098 31.9983 24.9089 32.0945 20.08 31.9577H12.6685C8.70461 31.8633 7.20325 32.3514 4.32837 30.887C1.56449 29.479 0.473011 27.4699 0.0915059 24.2756C-0.114382 22.5518 0.0915059 23.9472 0.0915059 19.6338V12.3715Z" fill="url(#paint6_linear_7666_343)"/>
</g>
<path d="M68.072 23.4H67.512L66.04 28.032L64.896 23.4H64.232L65.696 29H66.304L67.784 24.368L69.256 29H69.864L71.328 23.4H70.696L69.552 28.032L68.072 23.4ZM74.6515 23.4H73.9315L71.7155 29H72.3875L72.9875 27.44H75.5715L76.1715 29H76.8675L74.6515 23.4ZM73.2035 26.872L74.2835 24.08L75.3555 26.872H73.2035ZM81.6775 28.432H78.7735V23.4H78.1335V29H81.6775V28.432ZM86.7278 28.432H83.8238V23.4H83.1838V29H86.7278V28.432ZM88.2341 29H91.7781V28.432H88.8741V26.472H91.6981V25.912H88.8741V23.968H91.7781V23.4H88.2341V29ZM92.8502 23.968H94.8022V29H95.4422V23.968H97.4022V23.4H92.8502V23.968Z" fill="white"/>
<rect x="45" y="26" width="16" height="1" rx="0.5" fill="#D9D9D9"/>
<rect x="99" y="26" width="18" height="1" rx="0.5" fill="#D9D9D9"/>
<defs>
<filter id="filter0_d_7666_343" x="6.73438" y="11.3259" width="15.7891" height="9.8763" filterUnits="userSpaceOnUse" color-interpolation-filters="sRGB">
<feFlood flood-opacity="0" result="BackgroundImageFix"/>
<feColorMatrix in="SourceAlpha" type="matrix" values="0 0 0 0 0 0 0 0 0 0 0 0 0 0 0 0 0 0 127 0" result="hardAlpha"/>
<feOffset dx="-1" dy="1"/>
<feGaussianBlur stdDeviation="0.5"/>
<feComposite in2="hardAlpha" operator="out"/>
<feColorMatrix type="matrix" values="0 0 0 0 0.0980392 0 0 0 0 0.105882 0 0 0 0 0.113725 0 0 0 0.55 0"/>
<feBlend mode="normal" in2="BackgroundImageFix" result="effect1_dropShadow_7666_343"/>
<feBlend mode="normal" in="SourceGraphic" in2="effect1_dropShadow_7666_343" result="shape"/>
</filter>
<filter id="filter1_d_7666_343" x="7.05469" y="16.6249" width="15.6094" height="9.33896" filterUnits="userSpaceOnUse" color-interpolation-filters="sRGB">
<feFlood flood-opacity="0" result="BackgroundImageFix"/>
<feColorMatrix in="SourceAlpha" type="matrix" values="0 0 0 0 0 0 0 0 0 0 0 0 0 0 0 0 0 0 127 0" result="hardAlpha"/>
<feOffset dx="-1" dy="1"/>
<feGaussianBlur stdDeviation="0.5"/>
<feComposite in2="hardAlpha" operator="out"/>
<feColorMatrix type="matrix" values="0 0 0 0 0.0965366 0 0 0 0 0.105884 0 0 0 0 0.112652 0 0 0 0.55 0"/>
<feBlend mode="normal" in2="BackgroundImageFix" result="effect1_dropShadow_7666_343"/>
<feBlend mode="normal" in="SourceGraphic" in2="effect1_dropShadow_7666_343" result="shape"/>
</filter>
<filter id="filter2_d_7666_343" x="6.92969" y="11.3799" width="15.7891" height="9.8763" filterUnits="userSpaceOnUse" color-interpolation-filters="sRGB">
<feFlood flood-opacity="0" result="BackgroundImageFix"/>
<feColorMatrix in="SourceAlpha" type="matrix" values="0 0 0 0 0 0 0 0 0 0 0 0 0 0 0 0 0 0 127 0" result="hardAlpha"/>
<feOffset dx="-1" dy="1"/>
<feGaussianBlur stdDeviation="0.5"/>
<feComposite in2="hardAlpha" operator="out"/>
<feColorMatrix type="matrix" values="0 0 0 0 0.0980392 0 0 0 0 0.105882 0 0 0 0 0.113725 0 0 0 0.55 0"/>
<feBlend mode="normal" in2="BackgroundImageFix" result="effect1_dropShadow_7666_343"/>
<feBlend mode="normal" in="SourceGraphic" in2="effect1_dropShadow_7666_343" result="shape"/>
</filter>
<filter id="filter3_d_7666_343" x="7" y="16.6176" width="15.6719" height="9.40047" filterUnits="userSpaceOnUse" color-interpolation-filters="sRGB">
<feFlood flood-opacity="0" result="BackgroundImageFix"/>
<feColorMatrix in="SourceAlpha" type="matrix" values="0 0 0 0 0 0 0 0 0 0 0 0 0 0 0 0 0 0 127 0" result="hardAlpha"/>
<feOffset dx="-1" dy="1"/>
<feGaussianBlur stdDeviation="0.5"/>
<feComposite in2="hardAlpha" operator="out"/>
<feColorMatrix type="matrix" values="0 0 0 0 0.0965366 0 0 0 0 0.105884 0 0 0 0 0.112652 0 0 0 0.55 0"/>
<feBlend mode="normal" in2="BackgroundImageFix" result="effect1_dropShadow_7666_343"/>
<feBlend mode="normal" in="SourceGraphic" in2="effect1_dropShadow_7666_343" result="shape"/>
</filter>
<radialGradient id="paint0_radial_7666_343" cx="0" cy="0" r="1" gradientUnits="userSpaceOnUse" gradientTransform="translate(13.8099 2.75435) rotate(54.8302) scale(23.601 42.6353)">
<stop/>
<stop offset="1"/>
</radialGradient>
<radialGradient id="paint1_radial_7666_343" cx="0" cy="0" r="1" gradientUnits="userSpaceOnUse" gradientTransform="translate(25.8879 10.7328) rotate(127.18) scale(16.6069 30.5381)">
<stop stop-color="white"/>
<stop offset="1" stop-color="white"/>
</radialGradient>
<radialGradient id="paint2_radial_7666_343" cx="0" cy="0" r="1" gradientUnits="userSpaceOnUse" gradientTransform="translate(14.0651 8.63816) rotate(53.2577) scale(22.4331 41.2588)">
<stop stop-color="white"/>
<stop offset="1" stop-color="white" stop-opacity="0.93"/>
</radialGradient>
<radialGradient id="paint3_radial_7666_343" cx="0" cy="0" r="1" gradientUnits="userSpaceOnUse" gradientTransform="translate(14.0052 2.80838) rotate(54.8302) scale(23.601 42.6353)">
<stop offset="0.416667" stop-color="white"/>
<stop offset="1" stop-color="#FAFAFA" stop-opacity="0.4"/>
</radialGradient>
<radialGradient id="paint4_radial_7666_343" cx="0" cy="0" r="1" gradientUnits="userSpaceOnUse" gradientTransform="translate(25.9222 10.676) rotate(127.07) scale(16.7217 30.7158)">
<stop stop-color="#F1F6FB"/>
<stop offset="1" stop-color="#E5F4F5" stop-opacity="0.31"/>
</radialGradient>
<radialGradient id="paint5_radial_7666_343" cx="0" cy="0" r="1" gradientUnits="userSpaceOnUse" gradientTransform="translate(14.0322 8.56389) rotate(53.3675) scale(22.5888 41.4977)">
<stop offset="0.416667" stop-color="#E1F5FC"/>
<stop offset="1" stop-color="#FAFAFA" stop-opacity="0"/>
</radialGradient>
<linearGradient id="paint6_linear_7666_343" x1="7.36882" y1="1.09936" x2="22.9407" y2="31.6661" gradientUnits="userSpaceOnUse">
<stop stop-color="#33343B"/>
<stop offset="1" stop-color="#18191E"/>
</linearGradient>
</defs>
</svg>
