<?xml version="1.0" encoding="UTF-8"?><svg id="a" xmlns="http://www.w3.org/2000/svg" xmlns:xlink="http://www.w3.org/1999/xlink" viewBox="0 0 306.523 82"><defs><style>.i{fill:url(#e);}.j{fill:url(#d);}.k{fill:url(#g);}.l{fill:url(#f);}.m{fill:url(#h);}.n{fill:url(#c);}.o{fill:url(#b);}.p{fill:#fcfcfc;}.q{fill:#fff;}.r{fill:#1e1e1e;}.s{opacity:.9;}</style><linearGradient id="b" x1="21.015" y1="80.35" x2="61.294" y2="2.168" gradientTransform="translate(0 81.89) scale(1 -1)" gradientUnits="userSpaceOnUse"><stop offset="0" stop-color="#33343b"/><stop offset="1" stop-color="#18191e"/></linearGradient><radialGradient id="c" cx="-19.846" cy="460.125" fx="-19.846" fy="460.125" r="1" gradientTransform="translate(-42114.334 31237.326) rotate(54.83) scale(63.094 -113.979)" gradientUnits="userSpaceOnUse"><stop offset="0" stop-color="#0a0909"/><stop offset="1" stop-color="#000" stop-opacity=".4"/></radialGradient><radialGradient id="d" cx="-18.389" cy="464.777" fx="-18.389" fy="464.777" r="1" gradientTransform="translate(-30880.13 -22322.76) rotate(127.07) scale(44.703 -82.114)" gradientUnits="userSpaceOnUse"><stop offset="0" stop-color="#000"/><stop offset="1" stop-color="#0f1010"/></radialGradient><radialGradient id="e" cx="-19.71" cy="460.005" fx="-19.71" fy="460.005" r="1" gradientTransform="translate(-40206.335 31425.661) rotate(53.368) scale(60.388 -110.937)" gradientUnits="userSpaceOnUse"><stop offset="0" stop-color="#000"/><stop offset="1" stop-color="#000" stop-opacity=".93"/></radialGradient><radialGradient id="f" cx="-19.846" cy="460.125" fx="-19.846" fy="460.125" r="1" gradientTransform="translate(-42114.334 31237.326) rotate(54.83) scale(63.094 -113.979)" gradientUnits="userSpaceOnUse"><stop offset="0" stop-color="#fff"/><stop offset="1" stop-color="#fafafa"/></radialGradient><radialGradient id="g" cx="-18.389" cy="464.777" fx="-18.389" fy="464.777" r="1" gradientTransform="translate(-30880.13 -22322.76) rotate(127.07) scale(44.703 -82.114)" gradientUnits="userSpaceOnUse"><stop offset="0" stop-color="#f1f6fb"/><stop offset="1" stop-color="#e5f4f5" stop-opacity=".31"/></radialGradient><radialGradient id="h" cx="-19.71" cy="425.742" fx="-19.71" fy="425.742" r="1" gradientTransform="translate(-1231.105 2445.783) rotate(53.368) scale(60.388 -5.785)" gradientUnits="userSpaceOnUse"><stop offset="0" stop-color="#fff"/><stop offset="1" stop-color="#fff"/></radialGradient></defs><path d="M.234,31.702C.101,19.741-.283,15.607,2.82,10.656,7.841,2.645,13.313,1.065,17.194,.473,22.368-.318,25.883,.122,32.463,.122h18.992c11.28,0,3.937,0,8.477,0,10.016-.658,16.848,6.255,16.848,6.255,5.969,6.584,5.969,13.563,5.969,13.563v30.292c0,11.053-.198,11.647-.198,11.647,0,0,0,8.691-7.761,15.34-5.577,4.779-10.961,5.025-23.335,4.674h-18.992c-10.157-.242-14.005,1.009-21.372-2.744C4.009,75.54,1.212,70.391,.234,62.206c-.528-4.417,0-.842,0-11.895V31.702Z" style="fill:url(#b);"/><g><path d="M32.777,24.602l-2.851,1.926c-.225,.226-.295,.366,0,.574l.278,.226,3.803,2.657s3.776-2.051,4.582-2.397c1.42-.637,2.958-.963,4.513-.956,1.054,.071,2.1,.229,3.127,.474,1.312,.378,2.554,.964,3.681,1.737l1.071,.712c.04,.04,.087,.072,.139,.095,.053,.023,.109,.034,.166,.034,.057,0,.114-.012,.167-.034,.052-.023,.098-.055,.138-.095,.044-.032,.079-.073,.104-.121,.24-.373,.431-.776,.566-1.198,.09-.335,.137-.68,.139-1.027,.002-.495-.099-.986-.296-1.44-.196-.454-.484-.863-.846-1.2l-.731-.641c-.88-.848-1.89-1.549-2.991-2.076l-.838-.419c-1.472-.557-3.033-.839-4.606-.833-1.718,.062-4.608,.834-9.314,4.004Z" style="fill:#fcfcfc;"/><g style="opacity:.9;"><path d="M21.591,33.517c-.026,.293-.026,.587,0,.88,.141,.704,.533,1.334,1.104,1.776l1.036,.83c5.419,4.046,11.021,7.918,16.557,11.742l.837,.48c.364,.191,.762,.311,1.171,.351h.133c.66,0,1.301-.216,1.824-.613l5.135-3.586c1.673-1.245,3.478-2.474,5.134-3.764,.546-.433,1.053-.91,1.517-1.428,1.28-1.486,2.082-3.318,2.303-5.261,0-.631,.081-1.345,.081-2.092v-3.734c.008-.072,.008-.145,0-.216v.067c-.014,.738-.138,1.471-.367,2.174-.657,2-1.935,3.742-3.651,4.978-3.246,2.339-6.506,4.68-9.834,6.937l-.759,.432c-.368,.186-.775,.282-1.187,.282h-.2c-.203-.008-.404-.039-.599-.094-.153-.04-.3-.099-.438-.175l-1.187-.701c-3.982-2.711-7.927-5.477-11.834-8.299l-5.135-3.858-.753-.701c-.331-.335-.551-.761-.632-1.223v-.179c-.053,0-.258,4.997-.258,4.997Z" style="fill:url(#c);"/></g><path d="M58.069,43.851c.059-.175,.14-.426,.225-.673v3.33c-.002,.634-.051,1.267-.149,1.894-.326,2.179-1.431,4.168-3.112,5.606l-1.517,1.242c-1.736,1.291-3.522,2.534-5.327,3.777l-3.873,2.667-.342,.195c-.433,.276-.937,.421-1.451,.418-.303,.003-.603-.049-.887-.153-.409-.138-.795-.336-1.145-.586l-11.703-8.111-5.784-4.28c-.334-.234-.616-.534-.829-.88-.212-.341-.353-.723-.411-1.12-.016-.234-.016-.468,0-.702v-3.952c.067,.151,.151,.295,.249,.428,.273,.323,.588,.608,.938,.847l3.793,2.818c3.637,2.67,7.33,5.261,11.078,7.772l2.425,1.658,1.036,.547h.021c.424,.165,.881,.229,1.334,.188,.452-.04,.889-.184,1.276-.419l.484-.264h.008l9.7-6.869c.845-.603,1.597-1.326,2.231-2.145,.77-.965,1.357-2.061,1.732-3.234Z" style="fill:url(#d);"/><g style="opacity:.9;"><g style="opacity:.9;"><path d="M58.077,43.85c.059-.175,.14-.426,.225-.673v3.33c-.002,.634-.051,1.267-.149,1.894-.326,2.179-1.431,4.168-3.112,5.606l-1.517,1.242c-1.736,1.291-3.522,2.534-5.327,3.777l-3.873,2.667-.342,.195c-.433,.276-.937,.421-1.451,.418-.303,.003-.603-.049-.887-.153-.409-.138-.795-.336-1.145-.586l-11.703-8.111-5.784-4.28c-.334-.234-.616-.534-.829-.88-.213-.342-.353-.723-.412-1.12-.016-.234-.016-.468,0-.702v-3.952c.067,.151,.151,.295,.249,.428,.273,.323,.588,.607,.938,.847l3.793,2.818c3.637,2.671,7.33,5.261,11.078,7.772l2.426,1.658,1.036,.547h.021c.424,.165,.881,.229,1.334,.188,.452-.04,.889-.184,1.276-.419l.484-.263h.008l9.7-6.869c.845-.603,1.597-1.326,2.231-2.145,.77-.965,1.357-2.061,1.732-3.234Z" style="fill:url(#e);"/></g></g><path d="M32.777,24.602l-2.851,1.926c-.225,.226-.295,.366,0,.574l.278,.226,3.803,2.657s3.776-2.051,4.582-2.397c1.42-.637,2.958-.963,4.513-.956,1.054,.071,2.1,.229,3.127,.474,1.312,.378,2.554,.964,3.681,1.737l1.071,.712c.04,.04,.087,.072,.139,.095,.053,.023,.109,.034,.166,.034,.057,0,.114-.012,.167-.034,.052-.023,.098-.055,.138-.095,.044-.032,.079-.073,.104-.121,.24-.373,.431-.776,.566-1.198,.09-.335,.137-.68,.139-1.027,.002-.495-.099-.986-.296-1.44-.196-.454-.484-.863-.846-1.2l-.731-.641c-.88-.848-1.89-1.549-2.991-2.076l-.838-.419c-1.472-.557-3.033-.839-4.606-.833-1.718,.062-4.608,.834-9.314,4.004Z" style="fill:#fff;"/><g style="opacity:.9;"><path d="M21.591,33.517c-.026,.293-.026,.587,0,.88,.141,.704,.533,1.334,1.104,1.776l1.036,.83c5.419,4.046,11.021,7.918,16.557,11.742l.837,.48c.364,.191,.762,.311,1.171,.351h.133c.66,0,1.301-.216,1.824-.613l5.135-3.586c1.673-1.245,3.478-2.474,5.134-3.764,.546-.433,1.053-.91,1.517-1.428,1.28-1.486,2.082-3.318,2.303-5.261,0-.631,.081-1.345,.081-2.092v-3.734c.008-.072,.008-.145,0-.216v.067c-.014,.738-.138,1.471-.367,2.174-.657,2-1.935,3.742-3.651,4.978-3.246,2.339-6.506,4.68-9.834,6.937l-.759,.432c-.368,.186-.775,.282-1.187,.282h-.2c-.203-.008-.404-.039-.599-.094-.153-.04-.3-.099-.438-.175l-1.187-.701c-3.982-2.711-7.927-5.477-11.834-8.299l-5.135-3.858-.753-.701c-.331-.335-.551-.761-.632-1.223v-.179c-.053,0-.258,4.997-.258,4.997Z" style="fill:url(#f);"/></g><path d="M58.069,43.851c.059-.175,.14-.426,.225-.673v3.33c-.002,.634-.051,1.267-.149,1.894-.326,2.179-1.431,4.168-3.112,5.606l-1.517,1.242c-1.736,1.291-3.522,2.534-5.327,3.777l-3.873,2.667-.342,.195c-.433,.276-.937,.421-1.451,.418-.303,.003-.603-.049-.887-.153-.409-.138-.795-.336-1.145-.586l-11.703-8.111-5.784-4.28c-.334-.234-.616-.534-.829-.88-.212-.341-.353-.723-.411-1.12-.016-.234-.016-.468,0-.702v-3.952c.067,.151,.151,.295,.249,.428,.273,.323,.588,.608,.938,.847l3.793,2.818c3.637,2.67,7.33,5.261,11.078,7.772l2.425,1.658,1.036,.547h.021c.424,.165,.881,.229,1.334,.188,.452-.04,.889-.184,1.276-.419l.484-.264h.008l9.7-6.869c.845-.603,1.597-1.326,2.231-2.145,.77-.965,1.357-2.061,1.732-3.234Z" style="fill:url(#g);"/><g style="opacity:.9;"><g style="opacity:.9;"><path d="M58.077,43.85c.059-.175,.14-.426,.225-.673v3.33c-.002,.634-.051,1.267-.149,1.894-.326,2.179-1.431,4.168-3.112,5.606l-1.517,1.242c-1.736,1.291-3.522,2.534-5.327,3.777l-3.873,2.667-.342,.195c-.433,.276-.937,.421-1.451,.418-.303,.003-.603-.049-.887-.153-.409-.138-.795-.336-1.145-.586l-11.703-8.111-5.784-4.28c-.334-.234-.616-.534-.829-.88-.213-.342-.353-.723-.412-1.12-.016-.234-.016-.468,0-.702v-3.952c.067,.151,.151,.295,.249,.428,.273,.323,.588,.607,.938,.847l3.793,2.818c3.637,2.671,7.33,5.261,11.078,7.772l2.426,1.658,1.036,.547h.021c.424,.165,.881,.229,1.334,.188,.452-.04,.889-.184,1.276-.419l.484-.263h.008l9.7-6.869c.845-.603,1.597-1.326,2.231-2.145,.77-.965,1.357-2.061,1.732-3.234Z" style="fill:url(#h);"/></g></g></g><g><path d="M139.577,43.99c-.98-3.851-1.61-8.891-1.75-10.361h-.35c-.21,1.4-.771,5.811-1.891,10.431l-5.601,22.893h-10.361l-9.311-40.535c-.84-3.641-1.89-4.48-4.621-4.831v-3.291h19.742v3.291c-2.8,.07-4.061,.98-4.061,2.8,0,.42,0,.77,.14,1.26l4.13,20.303c.91,4.48,1.33,9.871,1.4,11.341h.35c.21-1.19,.77-5.671,2.1-11.341l6.581-27.654h7.421l7,27.513c1.4,5.601,2.17,9.802,2.38,11.411h.42c.07-1.33,.49-5.88,1.61-11.341l4.061-19.743c.14-.7,.21-1.19,.21-1.68,0-2.17-1.54-2.8-4.271-2.87v-3.291h15.262v3.291c-2.871,.35-4.13,1.19-4.971,4.831l-9.451,40.535h-10.291l-5.88-22.963Z" style="fill:#1e1e1e;"/><path d="M204.467,62.683v3.011c-1.47,.91-4.061,1.68-7.141,1.68-4.341,0-6.651-1.96-7.211-4.9-1.19,2.521-4.2,5.461-9.731,5.461-6.23,0-11.131-3.15-11.131-10.361,0-8.261,6.231-11.691,17.222-11.691,.84,0,2.45,.07,3.36,.14v-3.22c0-5.391-1.331-7.702-5.041-7.702-3.991,0-5.111,2.661-5.601,6.371h-7.701v-7.141c3.71-2.17,9.451-3.92,15.122-3.92,8.051,0,13.652,3.57,13.652,11.761,0,2.101-.28,7.911-.28,14.282,0,5.25,.77,6.091,4.48,6.23Zm-17.222-12.741c-4.761,0-7.281,2.03-7.281,6.301,0,3.99,1.54,5.181,4.2,5.181,1.82,0,4.061-.98,5.321-2.591l.21-8.891h-2.45Z" style="fill:#1e1e1e;"/><path d="M220.424,58.832c0,3.99,.7,4.9,4.34,4.971v3.15h-19.042v-3.15c3.57-.07,4.34-.91,4.34-4.9V26.488c0-5.11-1.05-5.811-4.621-5.951v-3.08l12.671-1.89h1.05c.35,.7,1.26,2.73,1.26,6.931V58.832Z" style="fill:#1e1e1e;"/><path d="M241.214,58.832c0,3.99,.7,4.9,4.34,4.971v3.15h-19.042v-3.15c3.57-.07,4.34-.91,4.34-4.9V26.488c0-5.11-1.05-5.811-4.621-5.951v-3.08l12.671-1.89h1.05c.35,.7,1.26,2.73,1.26,6.931V58.832Z" style="fill:#1e1e1e;"/><path d="M278.455,59.322l1.68,2.87c-3.78,3.711-8.4,5.601-14.63,5.601-10.852,0-17.222-6.86-17.222-18.762,0-11.832,6.861-18.623,17.012-18.623,10.991,0,15.471,6.511,15.471,17.222v3.011h-21.282c.28,7.91,2.94,11.131,9.661,11.131,2.94,0,6.3-.84,9.311-2.45Zm-18.902-13.441h10.852c0-8.471-1.4-11.131-5.041-11.131-3.57,0-5.32,2.59-5.811,11.131Z" style="fill:#1e1e1e;"/><path d="M304.772,36.64h-7.28v18.832c0,5.181,.49,7.071,3.99,7.071,1.261,0,2.381-.21,3.99-.841l1.051,3.641c-2.66,1.681-5.671,2.521-9.521,2.521-6.37,0-9.94-2.38-9.94-10.081v-21.143h-4.201v-3.571l4.69-1.89c.421-3.15,1.471-6.581,3.221-9.241l7.28-.91c-.35,2.521-.63,6.721-.63,10.291h8.472l-1.121,5.321Z" style="fill:#1e1e1e;"/></g></svg>