<svg width="920" height="400" viewBox="0 0 920 400" fill="none" xmlns="http://www.w3.org/2000/svg">
<g clip-path="url(#clip0_136_4202)">
<path d="M930 -37H0V390H930V-37Z" fill="#101317"/>
<path d="M845.343 149L847.853 153.104H847.935L850.446 149H852.28L849.011 154.246L852.301 159.493H850.456L847.935 155.445H847.853L845.333 159.493H843.488L846.834 154.246L843.509 149H845.343Z" fill="url(#paint0_linear_136_4202)"/>
<path d="M758.2 320L761.12 328.546H761.238L764.158 320H765.869L762.093 330.493H760.264L756.488 320H758.2Z" fill="url(#paint1_linear_136_4202)"/>
<path d="M765.541 281.556H763.943C763.881 281.214 763.767 280.914 763.6 280.654C763.432 280.394 763.227 280.174 762.985 279.993C762.742 279.812 762.471 279.675 762.17 279.583C761.873 279.491 761.557 279.445 761.222 279.445C760.618 279.445 760.076 279.597 759.598 279.901C759.123 280.205 758.748 280.651 758.471 281.238C758.198 281.826 758.061 282.543 758.061 283.39C758.061 284.244 758.198 284.964 758.471 285.552C758.748 286.139 759.125 286.583 759.603 286.884C760.082 287.185 760.619 287.335 761.217 287.335C761.549 287.335 761.863 287.291 762.16 287.202C762.461 287.109 762.732 286.975 762.975 286.797C763.217 286.619 763.422 286.402 763.589 286.146C763.76 285.887 763.878 285.59 763.943 285.255L765.541 285.26C765.456 285.776 765.29 286.25 765.044 286.684C764.802 287.115 764.489 287.487 764.107 287.801C763.728 288.112 763.294 288.353 762.805 288.524C762.317 288.694 761.784 288.78 761.207 288.78C760.298 288.78 759.489 288.565 758.778 288.134C758.068 287.7 757.508 287.08 757.098 286.274C756.692 285.468 756.488 284.507 756.488 283.39C756.488 282.27 756.693 281.308 757.103 280.505C757.513 279.699 758.073 279.081 758.784 278.651C759.494 278.217 760.302 278 761.207 278C761.764 278 762.283 278.08 762.764 278.241C763.25 278.398 763.685 278.63 764.071 278.938C764.457 279.242 764.776 279.614 765.029 280.054C765.282 280.492 765.453 280.992 765.541 281.556Z" fill="url(#paint2_linear_136_4202)"/>
<path d="M670.488 246.493V236H674.331C675.075 236 675.692 236.123 676.18 236.369C676.669 236.611 677.034 236.941 677.277 237.358C677.519 237.771 677.641 238.237 677.641 238.756C677.641 239.194 677.56 239.562 677.4 239.863C677.239 240.16 677.024 240.399 676.754 240.58C676.488 240.758 676.194 240.888 675.873 240.97V241.072C676.221 241.089 676.561 241.202 676.893 241.41C677.227 241.615 677.504 241.907 677.723 242.286C677.941 242.666 678.05 243.127 678.05 243.67C678.05 244.206 677.924 244.688 677.671 245.115C677.422 245.538 677.036 245.875 676.513 246.124C675.991 246.37 675.323 246.493 674.51 246.493H670.488ZM672.071 245.135H674.356C675.115 245.135 675.658 244.988 675.986 244.694C676.314 244.401 676.478 244.034 676.478 243.593C676.478 243.262 676.394 242.958 676.227 242.681C676.059 242.404 675.82 242.184 675.509 242.02C675.202 241.856 674.836 241.774 674.413 241.774H672.071V245.135ZM672.071 240.539H674.193C674.548 240.539 674.867 240.471 675.151 240.334C675.438 240.198 675.665 240.007 675.832 239.761C676.003 239.511 676.088 239.218 676.088 238.879C676.088 238.446 675.936 238.082 675.632 237.788C675.328 237.494 674.862 237.347 674.234 237.347H672.071V240.539Z" fill="url(#paint3_linear_136_4202)"/>
<path d="M628.488 336.493V326H630.071V331.011H630.2L634.601 326H636.594L632.362 330.724L636.609 336.493H634.703L631.311 331.805L630.071 333.229V336.493H628.488Z" fill="url(#paint4_linear_136_4202)"/>
<path d="M800.488 321H802.287L805.028 325.77H805.14L807.881 321H809.68L805.873 327.374V331.493H804.295V327.374L800.488 321Z" fill="url(#paint5_linear_136_4202)"/>
<path d="M674.684 112.234H676.242L677.338 113.664L677.856 114.299L679.603 116.579H677.984L676.816 115.057L676.416 114.504L674.684 112.234ZM679.941 110.39C679.941 111.51 679.736 112.473 679.326 113.279C678.916 114.082 678.354 114.7 677.641 115.134C676.93 115.565 676.122 115.78 675.217 115.78C674.309 115.78 673.497 115.565 672.784 115.134C672.073 114.7 671.513 114.08 671.103 113.274C670.693 112.468 670.488 111.507 670.488 110.39C670.488 109.27 670.693 108.308 671.103 107.505C671.513 106.699 672.073 106.081 672.784 105.651C673.497 105.217 674.309 105 675.217 105C676.122 105 676.93 105.217 677.641 105.651C678.354 106.081 678.916 106.699 679.326 107.505C679.736 108.308 679.941 109.27 679.941 110.39ZM678.373 110.39C678.373 109.536 678.235 108.817 677.958 108.233C677.685 107.645 677.309 107.201 676.831 106.901C676.356 106.597 675.818 106.445 675.217 106.445C674.613 106.445 674.073 106.597 673.598 106.901C673.123 107.201 672.748 107.645 672.471 108.233C672.198 108.817 672.061 109.536 672.061 110.39C672.061 111.244 672.198 111.964 672.471 112.552C672.748 113.136 673.123 113.58 673.598 113.884C674.073 114.185 674.613 114.335 675.217 114.335C675.818 114.335 676.356 114.185 676.831 113.884C677.309 113.58 677.685 113.136 677.958 112.552C678.235 111.964 678.373 111.244 678.373 110.39Z" fill="url(#paint6_linear_136_4202)"/>
<path d="M714.488 115.493V105H718.331C719.075 105 719.692 105.123 720.18 105.369C720.669 105.611 721.034 105.941 721.277 106.358C721.519 106.771 721.641 107.237 721.641 107.756C721.641 108.194 721.56 108.562 721.4 108.863C721.239 109.16 721.024 109.399 720.754 109.58C720.488 109.758 720.194 109.888 719.873 109.97V110.072C720.221 110.089 720.561 110.202 720.893 110.41C721.227 110.615 721.504 110.907 721.723 111.286C721.941 111.666 722.05 112.127 722.05 112.67C722.05 113.206 721.924 113.688 721.671 114.115C721.422 114.538 721.036 114.875 720.513 115.124C719.991 115.37 719.323 115.493 718.51 115.493H714.488ZM716.071 114.135H718.356C719.115 114.135 719.658 113.988 719.986 113.694C720.314 113.401 720.478 113.034 720.478 112.593C720.478 112.262 720.394 111.958 720.227 111.681C720.059 111.404 719.82 111.184 719.509 111.02C719.202 110.856 718.836 110.774 718.413 110.774H716.071V114.135ZM716.071 109.539H718.193C718.548 109.539 718.867 109.471 719.151 109.334C719.438 109.198 719.665 109.007 719.832 108.761C720.003 108.511 720.088 108.218 720.088 107.879C720.088 107.446 719.936 107.082 719.632 106.788C719.328 106.494 718.862 106.347 718.234 106.347H716.071V109.539Z" fill="url(#paint7_linear_136_4202)"/>
<path fill-rule="evenodd" clip-rule="evenodd" d="M751.831 145.024C753.04 143.727 754.762 143 756.798 143H767.201C769.241 143 770.964 143.726 772.173 145.024C773.374 146.315 774 148.097 774 150.099V159.901C774 161.903 773.374 163.685 772.172 164.976C770.964 166.274 769.24 167 767.2 167H756.798C754.758 167 753.035 166.274 751.827 164.976C750.625 163.685 750 161.903 750 159.901V150.099C750 148.096 750.629 146.314 751.831 145.024ZM753.148 146.251C752.308 147.153 751.8 148.47 751.8 150.099V159.901C751.8 161.531 752.306 162.848 753.144 163.749C753.976 164.643 755.202 165.2 756.798 165.2H767.2C768.796 165.2 770.023 164.643 770.855 163.749C771.694 162.848 772.2 161.531 772.2 159.901V150.099C772.2 148.469 771.694 147.152 770.855 146.251C770.023 145.357 768.796 144.8 767.201 144.8H756.798C755.208 144.8 753.982 145.357 753.148 146.251ZM758.208 153.678C757.479 153.678 756.887 154.27 756.887 155C756.887 155.73 757.479 156.322 758.208 156.322C758.938 156.322 759.53 155.73 759.53 155C759.53 154.27 758.938 153.678 758.208 153.678ZM755.087 155C755.087 153.277 756.484 151.878 758.208 151.878C759.62 151.878 760.812 152.815 761.199 154.1H764.584C764.595 154.1 764.606 154.099 764.617 154.099C764.629 154.099 764.64 154.1 764.651 154.1H768.012C768.509 154.1 768.912 154.503 768.912 155V157.222C768.912 157.719 768.509 158.122 768.012 158.122C767.515 158.122 767.112 157.719 767.112 157.222V155.9H765.517V157.222C765.517 157.719 765.114 158.122 764.617 158.122C764.12 158.122 763.717 157.719 763.717 157.222V155.9H761.199C760.812 157.185 759.62 158.122 758.208 158.122C756.484 158.122 755.087 156.723 755.087 155Z" fill="url(#paint8_linear_136_4202)"/>
<path d="M671.488 148.363V147H679.609V148.363H676.335V157.493H674.757V148.363H671.488Z" fill="url(#paint9_linear_136_4202)"/>
<path d="M844.2 193L847.12 201.546H847.238L850.158 193H851.869L848.093 203.493H846.264L842.488 193H844.2Z" fill="url(#paint10_linear_136_4202)"/>
<path d="M890.488 202.493V192H896.995V193.363H892.071V196.56H896.529V197.918H892.071V202.493H890.488Z" fill="url(#paint11_linear_136_4202)"/>
<path d="M804.684 155.234H806.242L807.338 156.664L807.856 157.299L809.603 159.579H807.984L806.816 158.057L806.416 157.504L804.684 155.234ZM809.941 153.39C809.941 154.51 809.736 155.473 809.326 156.279C808.916 157.082 808.354 157.7 807.641 158.134C806.93 158.565 806.122 158.78 805.217 158.78C804.309 158.78 803.497 158.565 802.784 158.134C802.073 157.7 801.513 157.08 801.103 156.274C800.693 155.468 800.488 154.507 800.488 153.39C800.488 152.27 800.693 151.308 801.103 150.505C801.513 149.699 802.073 149.081 802.784 148.651C803.497 148.217 804.309 148 805.217 148C806.122 148 806.93 148.217 807.641 148.651C808.354 149.081 808.916 149.699 809.326 150.505C809.736 151.308 809.941 152.27 809.941 153.39ZM808.373 153.39C808.373 152.536 808.235 151.817 807.958 151.233C807.685 150.645 807.309 150.201 806.831 149.901C806.356 149.597 805.818 149.445 805.217 149.445C804.613 149.445 804.073 149.597 803.598 149.901C803.123 150.201 802.748 150.645 802.471 151.233C802.198 151.817 802.061 152.536 802.061 153.39C802.061 154.244 802.198 154.964 802.471 155.552C802.748 156.136 803.123 156.58 803.598 156.884C804.073 157.185 804.613 157.335 805.217 157.335C805.818 157.335 806.356 157.185 806.831 156.884C807.309 156.58 807.685 156.136 807.958 155.552C808.235 154.964 808.373 154.244 808.373 153.39Z" fill="url(#paint12_linear_136_4202)"/>
<path d="M844.488 117.493V107H848.228C849.045 107 849.721 107.149 850.257 107.446C850.794 107.743 851.195 108.149 851.461 108.665C851.728 109.177 851.861 109.755 851.861 110.397C851.861 111.042 851.726 111.623 851.456 112.139C851.19 112.651 850.787 113.058 850.247 113.358C849.711 113.655 849.036 113.804 848.223 113.804H845.651V112.462H848.08C848.596 112.462 849.014 112.373 849.335 112.195C849.656 112.014 849.892 111.768 850.042 111.457C850.192 111.147 850.268 110.793 850.268 110.397C850.268 110.001 850.192 109.649 850.042 109.341C849.892 109.034 849.654 108.793 849.33 108.619C849.009 108.445 848.585 108.358 848.059 108.358H846.071V117.493H844.488Z" fill="url(#paint13_linear_136_4202)"/>
<path d="M715.169 202.493H713.488L717.264 192H719.093L722.869 202.493H721.189L718.222 193.906H718.14L715.169 202.493ZM715.451 198.384H720.902V199.716H715.451V198.384Z" fill="url(#paint14_linear_136_4202)"/>
<path d="M801.398 202.493L798.488 192H800.153L802.198 200.126H802.295L804.421 192H806.071L808.197 200.131H808.295L810.334 192H812.004L809.089 202.493H807.495L805.287 194.633H805.205L802.997 202.493H801.398Z" fill="url(#paint15_linear_136_4202)"/>
<path d="M438.566 390.359L395.515 390.359L395.515 347.308L438.566 347.308L438.566 390.359Z" stroke="#1A1A1A" stroke-width="1.16139"/>
<path d="M653.868 390.359L610.816 390.359L610.816 347.308L653.868 347.308L653.868 390.359Z" stroke="#1A1A1A" stroke-width="1.16139"/>
<path d="M869.122 390.359L826.07 390.359L826.07 347.308L869.122 347.308L869.122 390.359Z" stroke="#1A1A1A" stroke-width="1.16139"/>
<path d="M438.566 347.311L395.515 347.311L395.515 304.26L438.566 304.26L438.566 347.311Z" stroke="#1A1A1A" stroke-width="1.16139"/>
<path d="M223.31 347.311L180.258 347.311L180.258 304.26L223.31 304.26L223.31 347.311Z" stroke="#1A1A1A" stroke-width="1.16139"/>
<path d="M653.868 347.311L610.816 347.311L610.816 304.26L653.868 304.26L653.868 347.311Z" stroke="#1A1A1A" stroke-width="1.16139"/>
<path d="M869.122 347.311L826.07 347.311L826.07 304.26L869.122 304.26L869.122 347.311Z" stroke="#1A1A1A" stroke-width="1.16139"/>
<path d="M481.614 390.359L438.562 390.359L438.562 347.308L481.614 347.308L481.614 390.359Z" stroke="#1A1A1A" stroke-width="1.16139"/>
<path d="M266.359 390.359L223.308 390.359L223.308 347.308L266.359 347.308L266.359 390.359Z" stroke="#1A1A1A" stroke-width="1.16139"/>
<path d="M696.918 390.359L653.867 390.359L653.867 347.308L696.918 347.308L696.918 390.359Z" stroke="#1A1A1A" stroke-width="1.16139"/>
<path d="M912.177 390.359L869.125 390.359L869.125 347.308L912.177 347.308L912.177 390.359Z" stroke="#1A1A1A" stroke-width="1.16139"/>
<path d="M481.614 347.311L438.562 347.311L438.562 304.26L481.614 304.26L481.614 347.311Z" stroke="#1A1A1A" stroke-width="1.16139"/>
<path d="M266.359 347.311L223.308 347.311L223.308 304.26L266.359 304.26L266.359 347.311Z" stroke="#1A1A1A" stroke-width="1.16139"/>
<path d="M696.918 347.311L653.867 347.311L653.867 304.26L696.918 304.26L696.918 347.311Z" stroke="#1A1A1A" stroke-width="1.16139"/>
<path d="M912.177 347.311L869.125 347.311L869.125 304.26L912.177 304.26L912.177 347.311Z" stroke="#1A1A1A" stroke-width="1.16139"/>
<path d="M524.668 390.359L481.617 390.359L481.617 347.308L524.668 347.308L524.668 390.359Z" stroke="#1A1A1A" stroke-width="1.16139"/>
<path d="M309.411 390.359L266.359 390.359L266.359 347.308L309.411 347.308L309.411 390.359Z" stroke="#1A1A1A" stroke-width="1.16139"/>
<path d="M739.97 390.359L696.918 390.359L696.918 347.308L739.97 347.308L739.97 390.359Z" stroke="#1A1A1A" stroke-width="1.16139"/>
<path d="M524.668 347.311L481.617 347.311L481.617 304.26L524.668 304.26L524.668 347.311Z" stroke="#1A1A1A" stroke-width="1.16139"/>
<path d="M309.411 347.311L266.359 347.311L266.359 304.26L309.411 304.26L309.411 347.311Z" stroke="#1A1A1A" stroke-width="1.16139"/>
<path d="M739.97 347.311L696.918 347.311L696.918 304.26L739.97 304.26L739.97 347.311Z" stroke="#1A1A1A" stroke-width="1.16139"/>
<path d="M567.72 390.359L524.668 390.359L524.668 347.308L567.72 347.308L567.72 390.359Z" stroke="#1A1A1A" stroke-width="1.16139"/>
<path d="M352.461 390.359L309.41 390.359L309.41 347.308L352.461 347.308L352.461 390.359Z" stroke="#1A1A1A" stroke-width="1.16139"/>
<path d="M567.72 347.311L524.668 347.311L524.668 304.26L567.72 304.26L567.72 347.311Z" stroke="#1A1A1A" stroke-width="1.16139"/>
<path d="M352.461 347.311L309.41 347.311L309.41 304.26L352.461 304.26L352.461 347.311Z" stroke="#1A1A1A" stroke-width="1.16139"/>
<path d="M783.023 347.311L739.972 347.311L739.972 304.26L783.023 304.26L783.023 347.311Z" stroke="#1A1A1A" stroke-width="1.16139"/>
<path d="M137.208 347.311L94.1562 347.311L94.1562 304.26L137.208 304.26L137.208 347.311Z" stroke="#1A1A1A" stroke-width="1.16139"/>
<path d="M610.773 390.359L567.722 390.359L567.722 347.308L610.773 347.308L610.773 390.359Z" stroke="#1A1A1A" stroke-width="1.16139"/>
<path d="M395.517 390.359L352.465 390.359L352.465 347.308L395.517 347.308L395.517 390.359Z" stroke="#1A1A1A" stroke-width="1.16139"/>
<path d="M826.079 390.359L783.027 390.359L783.027 347.308L826.079 347.308L826.079 390.359Z" stroke="#1A1A1A" stroke-width="1.16139"/>
<path d="M610.773 347.311L567.722 347.311L567.722 304.26L610.773 304.26L610.773 347.311Z" stroke="#1A1A1A" stroke-width="1.16139"/>
<path d="M395.517 347.311L352.465 347.311L352.465 304.26L395.517 304.26L395.517 347.311Z" stroke="#1A1A1A" stroke-width="1.16139"/>
<path d="M826.079 347.311L783.027 347.311L783.027 304.26L826.079 304.26L826.079 347.311Z" stroke="#1A1A1A" stroke-width="1.16139"/>
<path d="M438.566 304.258L395.515 304.258L395.515 261.207L438.566 261.207L438.566 304.258Z" stroke="#1A1A1A" stroke-width="1.16139"/>
<path d="M223.31 304.258L180.258 304.258L180.258 261.207L223.31 261.207L223.31 304.258Z" stroke="#1A1A1A" stroke-width="1.16139"/>
<path d="M653.868 304.258L610.816 304.258L610.816 261.207L653.868 261.207L653.868 304.258Z" stroke="#1A1A1A" stroke-width="1.16139"/>
<path d="M869.122 304.258L826.07 304.258L826.07 261.207L869.122 261.207L869.122 304.258Z" stroke="#1A1A1A" stroke-width="1.16139"/>
<path d="M438.566 261.205L395.515 261.205L395.515 218.154L438.566 218.154L438.566 261.205Z" stroke="#1A1A1A" stroke-width="1.16139"/>
<path d="M223.31 261.205L180.258 261.205L180.258 218.154L223.31 218.154L223.31 261.205Z" stroke="#1A1A1A" stroke-width="1.16139"/>
<path d="M653.868 261.205L610.816 261.205L610.816 218.154L653.868 218.154L653.868 261.205Z" stroke="#1A1A1A" stroke-width="1.16139"/>
<path d="M481.614 304.258L438.562 304.258L438.562 261.207L481.614 261.207L481.614 304.258Z" stroke="#1A1A1A" stroke-width="1.16139"/>
<path d="M266.359 304.258L223.308 304.258L223.308 261.207L266.359 261.207L266.359 304.258Z" stroke="#1A1A1A" stroke-width="1.16139"/>
<path d="M696.918 304.258L653.867 304.258L653.867 261.207L696.918 261.207L696.918 304.258Z" stroke="#1A1A1A" stroke-width="1.16139"/>
<path d="M912.177 304.258L869.125 304.258L869.125 261.207L912.177 261.207L912.177 304.258Z" stroke="#1A1A1A" stroke-width="1.16139"/>
<path d="M266.359 261.205L223.308 261.205L223.308 218.154L266.359 218.154L266.359 261.205Z" stroke="#1A1A1A" stroke-width="1.16139"/>
<path d="M696.918 261.205L653.867 261.205L653.867 218.154L696.918 218.154L696.918 261.205Z" stroke="#1A1A1A" stroke-width="1.16139"/>
<path d="M524.668 304.258L481.617 304.258L481.617 261.207L524.668 261.207L524.668 304.258Z" stroke="#1A1A1A" stroke-width="1.16139"/>
<path d="M309.411 304.258L266.359 304.258L266.359 261.207L309.411 261.207L309.411 304.258Z" stroke="#1A1A1A" stroke-width="1.16139"/>
<path d="M739.97 304.258L696.918 304.258L696.918 261.207L739.97 261.207L739.97 304.258Z" stroke="#1A1A1A" stroke-width="1.16139"/>
<path d="M955.228 304.258L912.176 304.258L912.176 261.207L955.228 261.207L955.228 304.258Z" stroke="#1A1A1A" stroke-width="1.16139"/>
<path d="M524.668 261.205L481.617 261.205L481.617 218.154L524.668 218.154L524.668 261.205Z" stroke="#1A1A1A" stroke-width="1.16139"/>
<path d="M309.411 261.205L266.359 261.205L266.359 218.154L309.411 218.154L309.411 261.205Z" stroke="#1A1A1A" stroke-width="1.16139"/>
<path d="M739.97 261.205L696.918 261.205L696.918 218.154L739.97 218.154L739.97 261.205Z" stroke="#1A1A1A" stroke-width="1.16139"/>
<path d="M352.461 304.258L309.41 304.258L309.41 261.207L352.461 261.207L352.461 304.258Z" stroke="#1A1A1A" stroke-width="1.16139"/>
<path d="M783.023 304.258L739.972 304.258L739.972 261.207L783.023 261.207L783.023 304.258Z" stroke="#1A1A1A" stroke-width="1.16139"/>
<path d="M567.72 261.205L524.668 261.205L524.668 218.154L567.72 218.154L567.72 261.205Z" stroke="#1A1A1A" stroke-width="1.16139"/>
<path d="M352.461 261.205L309.41 261.205L309.41 218.154L352.461 218.154L352.461 261.205Z" stroke="#1A1A1A" stroke-width="1.16139"/>
<path d="M783.023 261.205L739.972 261.205L739.972 218.154L783.023 218.154L783.023 261.205Z" stroke="#1A1A1A" stroke-width="1.16139"/>
<path d="M137.208 261.205L94.1562 261.205L94.1562 218.154L137.208 218.154L137.208 261.205Z" stroke="#1A1A1A" stroke-width="1.16139"/>
<path d="M610.773 304.258L567.722 304.258L567.722 261.207L610.773 261.207L610.773 304.258Z" stroke="#1A1A1A" stroke-width="1.16139"/>
<path d="M395.517 304.258L352.465 304.258L352.465 261.207L395.517 261.207L395.517 304.258Z" stroke="#1A1A1A" stroke-width="1.16139"/>
<path d="M826.079 304.258L783.027 304.258L783.027 261.207L826.079 261.207L826.079 304.258Z" stroke="#1A1A1A" stroke-width="1.16139"/>
<path d="M180.258 304.258L137.207 304.258L137.207 261.207L180.258 261.207L180.258 304.258Z" stroke="#1A1A1A" stroke-width="1.16139"/>
<path d="M610.773 261.205L567.722 261.205L567.722 218.154L610.773 218.154L610.773 261.205Z" stroke="#1A1A1A" stroke-width="1.16139"/>
<path d="M395.517 261.205L352.465 261.205L352.465 218.154L395.517 218.154L395.517 261.205Z" stroke="#1A1A1A" stroke-width="1.16139"/>
<path d="M180.258 261.205L137.207 261.205L137.207 218.154L180.258 218.154L180.258 261.205Z" stroke="#1A1A1A" stroke-width="1.16139"/>
<path d="M438.566 218.154L395.515 218.154L395.515 175.103L438.566 175.103L438.566 218.154Z" stroke="#1A1A1A" stroke-width="1.16139"/>
<path d="M223.31 218.154L180.258 218.154L180.258 175.103L223.31 175.103L223.31 218.154Z" stroke="#1A1A1A" stroke-width="1.16139"/>
<path d="M438.566 175.105L395.515 175.105L395.515 132.054L438.566 132.054L438.566 175.105Z" stroke="#1A1A1A" stroke-width="1.16139"/>
<path d="M223.31 175.105L180.258 175.105L180.258 132.054L223.31 132.054L223.31 175.105Z" stroke="#1A1A1A" stroke-width="1.16139"/>
<path d="M869.122 175.105L826.07 175.105L826.07 132.054L869.122 132.054L869.122 175.105Z" stroke="#1A1A1A" stroke-width="1.16139"/>
<path d="M8.0513 175.105L-35 175.105L-35 132.054L8.0513 132.054L8.0513 175.105Z" stroke="#1A1A1A" stroke-width="1.16139"/>
<path d="M481.614 218.154L438.562 218.154L438.562 175.103L481.614 175.103L481.614 218.154Z" stroke="#1A1A1A" stroke-width="1.16139"/>
<path d="M266.359 218.154L223.308 218.154L223.308 175.103L266.359 175.103L266.359 218.154Z" stroke="#1A1A1A" stroke-width="1.16139"/>
<path d="M696.918 218.154L653.867 218.154L653.867 175.103L696.918 175.103L696.918 218.154Z" stroke="#1A1A1A" stroke-width="1.16139"/>
<path d="M481.614 175.105L438.562 175.105L438.562 132.054L481.614 132.054L481.614 175.105Z" stroke="#1A1A1A" stroke-width="1.16139"/>
<path d="M266.359 175.105L223.308 175.105L223.308 132.054L266.359 132.054L266.359 175.105Z" stroke="#1A1A1A" stroke-width="1.16139"/>
<path d="M51.1021 175.105L8.05078 175.105L8.05078 132.054L51.1021 132.054L51.1021 175.105Z" stroke="#1A1A1A" stroke-width="1.16139"/>
<path d="M524.668 218.154L481.617 218.154L481.617 175.103L524.668 175.103L524.668 218.154Z" stroke="#1A1A1A" stroke-width="1.16139"/>
<path d="M309.411 218.154L266.359 218.154L266.359 175.103L309.411 175.103L309.411 218.154Z" stroke="#1A1A1A" stroke-width="1.16139"/>
<path d="M696.918 175.105L739.97 175.105L739.97 132.054" stroke="#1A1A1A" stroke-width="1.16139"/>
<path d="M955.228 175.105L912.176 175.105L912.176 132.054L955.228 132.054L955.228 175.105Z" stroke="#1A1A1A" stroke-width="1.16139"/>
<path d="M94.1568 175.105L51.1055 175.105L51.1055 132.054L94.1568 132.054L94.1568 175.105Z" stroke="#1A1A1A" stroke-width="1.16139"/>
<path d="M567.72 218.154L524.668 218.154L524.668 175.103L567.72 175.103L567.72 218.154Z" stroke="#1A1A1A" stroke-width="1.16139"/>
<path d="M352.461 218.154L309.41 218.154L309.41 175.103L352.461 175.103L352.461 218.154Z" stroke="#1A1A1A" stroke-width="1.16139"/>
<path d="M783.023 218.154L739.972 218.154L739.972 175.103L783.023 175.103L783.023 218.154Z" stroke="#1A1A1A" stroke-width="1.16139"/>
<path d="M137.208 218.154L94.1562 218.154L94.1562 175.103L137.208 175.103L137.208 218.154Z" stroke="#1A1A1A" stroke-width="1.16139"/>
<path d="M567.72 175.105L524.668 175.105L524.668 132.054L567.72 132.054L567.72 175.105Z" stroke="#1A1A1A" stroke-width="1.16139"/>
<path d="M352.461 175.105L309.41 175.105L309.41 132.054L352.461 132.054L352.461 175.105Z" stroke="#1A1A1A" stroke-width="1.16139"/>
<path d="M783.023 175.105L739.972 175.105L739.972 132.054L783.023 132.054L783.023 175.105Z" stroke="#1A1A1A" stroke-width="1.16139"/>
<path d="M137.208 175.105L94.1562 175.105L94.1562 132.054L137.208 132.054L137.208 175.105Z" stroke="#1A1A1A" stroke-width="1.16139"/>
<path d="M180.258 218.154L137.207 218.154L137.207 175.103L180.258 175.103L180.258 218.154Z" stroke="#1A1A1A" stroke-width="1.16139"/>
<path d="M395.517 175.105L352.465 175.105L352.465 132.054L395.517 132.054L395.517 175.105Z" stroke="#1A1A1A" stroke-width="1.16139"/>
<path d="M826.079 175.105L783.027 175.105L783.027 132.054L826.079 132.054L826.079 175.105Z" stroke="#1A1A1A" stroke-width="1.16139"/>
<path d="M438.566 132.053L395.515 132.053L395.515 89.0017L438.566 89.0017L438.566 132.053Z" stroke="#1A1A1A" stroke-width="1.16139"/>
<path d="M869.122 132.053L826.07 132.053L826.07 89.0017L869.122 89.0017L869.122 132.053Z" stroke="#1A1A1A" stroke-width="1.16139"/>
<path d="M8.0513 132.053L-35 132.053L-35 89.0017L8.0513 89.0017L8.0513 132.053Z" stroke="#1A1A1A" stroke-width="1.16139"/>
<path d="M438.566 89.002L395.515 89.002L395.515 45.9507L438.566 45.9507L438.566 89.002Z" stroke="#1A1A1A" stroke-width="1.16139"/>
<path d="M869.122 89.002L826.07 89.002L826.07 45.9507L869.122 45.9507L869.122 89.002Z" stroke="#1A1A1A" stroke-width="1.16139"/>
<path d="M8.0513 89.002L-35 89.002L-35 45.9507L8.0513 45.9507L8.0513 89.002Z" stroke="#1A1A1A" stroke-width="1.16139"/>
<path d="M481.614 132.053L438.562 132.053L438.562 89.0017L481.614 89.0017L481.614 132.053Z" stroke="#1A1A1A" stroke-width="1.16139"/>
<path d="M266.359 132.053L223.308 132.053L223.308 89.0017L266.359 89.0017L266.359 132.053Z" stroke="#1A1A1A" stroke-width="1.16139"/>
<path d="M912.177 132.053L869.125 132.053L869.125 89.0017L912.177 89.0017L912.177 132.053Z" stroke="#1A1A1A" stroke-width="1.16139"/>
<path d="M51.1021 132.053L8.05078 132.053L8.05078 89.0017L51.1021 89.0017L51.1021 132.053Z" stroke="#1A1A1A" stroke-width="1.16139"/>
<path d="M481.614 89.002L438.562 89.002L438.562 45.9507L481.614 45.9507L481.614 89.002Z" stroke="#1A1A1A" stroke-width="1.16139"/>
<path d="M266.359 89.002L223.308 89.002L223.308 45.9507L266.359 45.9507L266.359 89.002Z" stroke="#1A1A1A" stroke-width="1.16139"/>
<path d="M912.177 89.002L869.125 89.002L869.125 45.9507L912.177 45.9507L912.177 89.002Z" stroke="#1A1A1A" stroke-width="1.16139"/>
<path d="M51.1021 89.002L8.05078 89.002L8.05078 45.9507L51.1021 45.9507L51.1021 89.002Z" stroke="#1A1A1A" stroke-width="1.16139"/>
<path d="M524.668 132.053L481.617 132.053L481.617 89.0017L524.668 89.0017L524.668 132.053Z" stroke="#1A1A1A" stroke-width="1.16139"/>
<path d="M309.411 132.053L266.359 132.053L266.359 89.0017L309.411 89.0017L309.411 132.053Z" stroke="#1A1A1A" stroke-width="1.16139"/>
<path d="M955.228 132.053L912.176 132.053L912.176 89.0017L955.228 89.0017L955.228 132.053Z" stroke="#1A1A1A" stroke-width="1.16139"/>
<path d="M94.1568 132.053L51.1055 132.053L51.1055 89.0017L94.1568 89.0017L94.1568 132.053Z" stroke="#1A1A1A" stroke-width="1.16139"/>
<path d="M524.668 89.002L481.617 89.002L481.617 45.9507L524.668 45.9507L524.668 89.002Z" stroke="#1A1A1A" stroke-width="1.16139"/>
<path d="M309.411 89.002L266.359 89.002L266.359 45.9507L309.411 45.9507L309.411 89.002Z" stroke="#1A1A1A" stroke-width="1.16139"/>
<path d="M94.1568 89.002L51.1055 89.002L51.1055 45.9507L94.1568 45.9507L94.1568 89.002Z" stroke="#1A1A1A" stroke-width="1.16139"/>
<path d="M567.72 132.053L524.668 132.053L524.668 89.0017L567.72 89.0017L567.72 132.053Z" stroke="#1A1A1A" stroke-width="1.16139"/>
<path d="M352.461 132.053L309.41 132.053L309.41 89.0017L352.461 89.0017L352.461 132.053Z" stroke="#1A1A1A" stroke-width="1.16139"/>
<path d="M783.023 132.053L739.972 132.053L739.972 89.0017L783.023 89.0017L783.023 132.053Z" stroke="#1A1A1A" stroke-width="1.16139"/>
<path d="M739.051 175.051L696 175.051L696 132L739.051 132L739.051 175.051Z" stroke="#1A1A1A" stroke-width="1.16139"/>
<path d="M137.208 132.053L94.1562 132.053L94.1562 89.0017L137.208 89.0017L137.208 132.053Z" stroke="#1A1A1A" stroke-width="1.16139"/>
<path d="M567.72 89.002L524.668 89.002L524.668 45.9507L567.72 45.9507L567.72 89.002Z" stroke="#1A1A1A" stroke-width="1.16139"/>
<path d="M352.461 89.002L309.41 89.002L309.41 45.9507L352.461 45.9507L352.461 89.002Z" stroke="#1A1A1A" stroke-width="1.16139"/>
<path d="M137.208 89.002L94.1562 89.002L94.1562 45.9507L137.208 45.9507L137.208 89.002Z" stroke="#1A1A1A" stroke-width="1.16139"/>
<path d="M395.517 132.053L352.465 132.053L352.465 89.0017L395.517 89.0017L395.517 132.053Z" stroke="#1A1A1A" stroke-width="1.16139"/>
<path d="M180.258 132.053L137.207 132.053L137.207 89.0017L180.258 89.0017L180.258 132.053Z" stroke="#1A1A1A" stroke-width="1.16139"/>
<path d="M395.517 89.002L352.465 89.002L352.465 45.9507L395.517 45.9507L395.517 89.002Z" stroke="#1A1A1A" stroke-width="1.16139"/>
<path d="M826.079 89.002L783.027 89.002L783.027 45.9507L826.079 45.9507L826.079 89.002Z" stroke="#1A1A1A" stroke-width="1.16139"/>
<path d="M180.258 89.002L137.207 89.002L137.207 45.9507L180.258 45.9507L180.258 89.002Z" stroke="#1A1A1A" stroke-width="1.16139"/>
<path d="M869.122 45.9492L826.07 45.9492L826.07 2.89792L869.122 2.89791L869.122 45.9492Z" stroke="#1A1A1A" stroke-width="1.16139"/>
<path d="M8.0513 45.9492L-35 45.9492L-35 2.89792L8.0513 2.89791L8.0513 45.9492Z" stroke="#1A1A1A" stroke-width="1.16139"/>
<path d="M438.566 2.89843L395.515 2.89844L395.515 -40.1529L438.566 -40.1529L438.566 2.89843Z" stroke="#1A1A1A" stroke-width="1.16139"/>
<path d="M8.0513 2.89843L-35 2.89844L-35 -40.1529L8.0513 -40.1529L8.0513 2.89843Z" stroke="#1A1A1A" stroke-width="1.16139"/>
<path d="M481.614 45.9492L438.562 45.9492L438.562 2.89792L481.614 2.89791L481.614 45.9492Z" stroke="#1A1A1A" stroke-width="1.16139"/>
<path d="M912.177 45.9492L869.125 45.9492L869.125 2.89792L912.177 2.89791L912.177 45.9492Z" stroke="#1A1A1A" stroke-width="1.16139"/>
<path d="M51.1021 45.9492L8.05078 45.9492L8.05078 2.89792L51.1021 2.89791L51.1021 45.9492Z" stroke="#1A1A1A" stroke-width="1.16139"/>
<path d="M481.614 2.89843L438.562 2.89844L438.562 -40.1529L481.614 -40.1529L481.614 2.89843Z" stroke="#1A1A1A" stroke-width="1.16139"/>
<path d="M912.177 2.89843L869.125 2.89844L869.125 -40.1529L912.177 -40.1529L912.177 2.89843Z" stroke="#1A1A1A" stroke-width="1.16139"/>
<path d="M524.668 45.9492L481.617 45.9492L481.617 2.89792L524.668 2.89791L524.668 45.9492Z" stroke="#1A1A1A" stroke-width="1.16139"/>
<path d="M309.411 45.9492L266.359 45.9492L266.359 2.89792L309.411 2.89791L309.411 45.9492Z" stroke="#1A1A1A" stroke-width="1.16139"/>
<path d="M524.668 2.89843L481.617 2.89844L481.617 -40.1529L524.668 -40.1529L524.668 2.89843Z" stroke="#1A1A1A" stroke-width="1.16139"/>
<path d="M309.411 2.89843L266.359 2.89844L266.359 -40.1529L309.411 -40.1529L309.411 2.89843Z" stroke="#1A1A1A" stroke-width="1.16139"/>
<path d="M955.228 2.89843L912.176 2.89844L912.176 -40.1529L955.228 -40.1529L955.228 2.89843Z" stroke="#1A1A1A" stroke-width="1.16139"/>
<path d="M352.461 45.9492L309.41 45.9492L309.41 2.89792L352.461 2.89791L352.461 45.9492Z" stroke="#1A1A1A" stroke-width="1.16139"/>
<path d="M783.023 45.9492L739.972 45.9492L739.972 2.89792L783.023 2.89791L783.023 45.9492Z" stroke="#1A1A1A" stroke-width="1.16139"/>
<path d="M567.72 2.89843L524.668 2.89844L524.668 -40.1529L567.72 -40.1529L567.72 2.89843Z" stroke="#1A1A1A" stroke-width="1.16139"/>
<path d="M352.461 2.89843L309.41 2.89844L309.41 -40.1529L352.461 -40.1529L352.461 2.89843Z" stroke="#1A1A1A" stroke-width="1.16139"/>
<path d="M783.023 2.89843L739.972 2.89844L739.972 -40.1529L783.023 -40.1529L783.023 2.89843Z" stroke="#1A1A1A" stroke-width="1.16139"/>
<path d="M395.517 45.9492L352.465 45.9492L352.465 2.89792L395.517 2.89791L395.517 45.9492Z" stroke="#1A1A1A" stroke-width="1.16139"/>
<path d="M826.079 45.9492L783.027 45.9492L783.027 2.89792L826.079 2.89791L826.079 45.9492Z" stroke="#1A1A1A" stroke-width="1.16139"/>
<path d="M395.517 2.89843L352.465 2.89844L352.465 -40.1529L395.517 -40.1529L395.517 2.89843Z" stroke="#1A1A1A" stroke-width="1.16139"/>
<path d="M826.079 2.89843L783.027 2.89844L783.027 -40.1529L826.079 -40.1529L826.079 2.89843Z" stroke="#1A1A1A" stroke-width="1.16139"/>
<path d="M438.566 45.9492L395.515 45.9492L395.515 2.89792L438.566 2.89791L438.566 45.9492Z" stroke="#1A1A1A" stroke-width="1.16139"/>
<path d="M542.858 31.0797H549.308V30.0597H546.803V21.1797H545.888C545.288 21.4947 544.553 21.7497 543.533 21.8997V22.6947H545.573V30.0597H542.858V31.0797Z" fill="url(#paint16_linear_136_4202)"/>
<path d="M545.888 74.26C548.018 74.26 549.323 72.385 549.323 69.1C549.323 65.785 548.018 63.9997 545.888 63.9997C543.758 63.9997 542.453 65.785 542.453 69.1C542.453 72.385 543.758 74.26 545.888 74.26ZM545.888 73.27C544.553 73.27 543.608 71.95 543.608 69.1C543.608 66.235 544.553 64.9897 545.888 64.9897C547.223 64.9897 548.168 66.235 548.168 69.1C548.168 71.95 547.223 73.27 545.888 73.27ZM545.888 70.015C546.383 70.015 546.818 69.64 546.818 68.995C546.818 68.35 546.383 67.975 545.888 67.975C545.393 67.975 544.958 68.35 544.958 68.995C544.958 69.64 545.393 70.015 545.888 70.015Z" fill="url(#paint17_linear_136_4202)"/>
<path d="M545.888 160.26C548.018 160.26 549.323 158.385 549.323 155.1C549.323 151.785 548.018 150 545.888 150C543.758 150 542.453 151.785 542.453 155.1C542.453 158.385 543.758 160.26 545.888 160.26ZM545.888 159.27C544.553 159.27 543.608 157.95 543.608 155.1C543.608 152.235 544.553 150.99 545.888 150.99C547.223 150.99 548.168 152.235 548.168 155.1C548.168 157.95 547.223 159.27 545.888 159.27ZM545.888 156.015C546.383 156.015 546.818 155.64 546.818 154.995C546.818 154.35 546.383 153.975 545.888 153.975C545.393 153.975 544.958 154.35 544.958 154.995C544.958 155.64 545.393 156.015 545.888 156.015Z" fill="url(#paint18_linear_136_4202)"/>
<path d="M542.858 203.08H549.308V202.06H546.803V193.18H545.888C545.288 193.495 544.553 193.75 543.533 193.9V194.695H545.573V202.06H542.858V203.08Z" fill="url(#paint19_linear_136_4202)"/>
<path d="M542.858 246.08H549.308V245.06H546.803V236.18H545.888C545.288 236.495 544.553 236.75 543.533 236.9V237.695H545.573V245.06H542.858V246.08Z" fill="url(#paint20_linear_136_4202)"/>
<path d="M586.041 31.0797H592.491V30.0597H589.986V21.1797H589.071C588.471 21.4947 587.736 21.7497 586.716 21.8997V22.6947H588.756V30.0597H586.041V31.0797Z" fill="url(#paint21_linear_136_4202)"/>
<path d="M589.071 74.26C591.201 74.26 592.506 72.385 592.506 69.1C592.506 65.785 591.201 63.9997 589.071 63.9997C586.941 63.9997 585.636 65.785 585.636 69.1C585.636 72.385 586.941 74.26 589.071 74.26ZM589.071 73.27C587.736 73.27 586.791 71.95 586.791 69.1C586.791 66.235 587.736 64.9897 589.071 64.9897C590.406 64.9897 591.351 66.235 591.351 69.1C591.351 71.95 590.406 73.27 589.071 73.27ZM589.071 70.015C589.566 70.015 590.001 69.64 590.001 68.995C590.001 68.35 589.566 67.975 589.071 67.975C588.576 67.975 588.141 68.35 588.141 68.995C588.141 69.64 588.576 70.015 589.071 70.015Z" fill="url(#paint22_linear_136_4202)"/>
<path d="M586.041 117.08H592.491V116.06H589.986V107.18H589.071C588.471 107.495 587.736 107.75 586.716 107.9V108.695H588.756V116.06H586.041V117.08Z" fill="url(#paint23_linear_136_4202)"/>
<path d="M586.041 203.08H592.491V202.06H589.986V193.18H589.071C588.471 193.495 587.736 193.75 586.716 193.9V194.695H588.756V202.06H586.041V203.08Z" fill="url(#paint24_linear_136_4202)"/>
<path d="M589.071 246.26C591.201 246.26 592.506 244.385 592.506 241.1C592.506 237.785 591.201 236 589.071 236C586.941 236 585.636 237.785 585.636 241.1C585.636 244.385 586.941 246.26 589.071 246.26ZM589.071 245.27C587.736 245.27 586.791 243.95 586.791 241.1C586.791 238.235 587.736 236.99 589.071 236.99C590.406 236.99 591.351 238.235 591.351 241.1C591.351 243.95 590.406 245.27 589.071 245.27ZM589.071 242.015C589.566 242.015 590.001 241.64 590.001 240.995C590.001 240.35 589.566 239.975 589.071 239.975C588.576 239.975 588.141 240.35 588.141 240.995C588.141 241.64 588.576 242.015 589.071 242.015Z" fill="url(#paint25_linear_136_4202)"/>
<path d="M589.071 289.26C591.201 289.26 592.506 287.385 592.506 284.1C592.506 280.785 591.201 279 589.071 279C586.941 279 585.636 280.785 585.636 284.1C585.636 287.385 586.941 289.26 589.071 289.26ZM589.071 288.27C587.736 288.27 586.791 286.95 586.791 284.1C586.791 281.235 587.736 279.99 589.071 279.99C590.406 279.99 591.351 281.235 591.351 284.1C591.351 286.95 590.406 288.27 589.071 288.27ZM589.071 285.015C589.566 285.015 590.001 284.64 590.001 283.995C590.001 283.35 589.566 282.975 589.071 282.975C588.576 282.975 588.141 283.35 588.141 283.995C588.141 284.64 588.576 285.015 589.071 285.015Z" fill="url(#paint26_linear_136_4202)"/>
<path d="M586.043 159.08H592.493V158.06H589.988V149.18H589.073C588.473 149.495 587.738 149.75 586.718 149.9V150.695H588.758V158.06H586.043V159.08Z" fill="#0A9E73"/>
<path d="M631.653 74.26C633.783 74.26 635.088 72.385 635.088 69.1C635.088 65.785 633.783 64 631.653 64C629.523 64 628.218 65.785 628.218 69.1C628.218 72.385 629.523 74.26 631.653 74.26ZM631.653 73.27C630.318 73.27 629.373 71.95 629.373 69.1C629.373 66.235 630.318 64.99 631.653 64.99C632.988 64.99 633.933 66.235 633.933 69.1C633.933 71.95 632.988 73.27 631.653 73.27ZM631.653 70.015C632.148 70.015 632.583 69.64 632.583 68.995C632.583 68.35 632.148 67.975 631.653 67.975C631.158 67.975 630.723 68.35 630.723 68.995C630.723 69.64 631.158 70.015 631.653 70.015Z" fill="url(#paint27_linear_136_4202)"/>
<path d="M628.623 117.08H635.073V116.06H632.568V107.18H631.653C631.053 107.495 630.318 107.75 629.298 107.9V108.695H631.338V116.06H628.623V117.08Z" fill="url(#paint28_linear_136_4202)"/>
<path d="M631.653 160.26C633.783 160.26 635.088 158.385 635.088 155.1C635.088 151.785 633.783 150 631.653 150C629.523 150 628.218 151.785 628.218 155.1C628.218 158.385 629.523 160.26 631.653 160.26ZM631.653 159.27C630.318 159.27 629.373 157.95 629.373 155.1C629.373 152.235 630.318 150.99 631.653 150.99C632.988 150.99 633.933 152.235 633.933 155.1C633.933 157.95 632.988 159.27 631.653 159.27ZM631.653 156.015C632.148 156.015 632.583 155.64 632.583 154.995C632.583 154.35 632.148 153.975 631.653 153.975C631.158 153.975 630.723 154.35 630.723 154.995C630.723 155.64 631.158 156.015 631.653 156.015Z" fill="url(#paint29_linear_136_4202)"/>
<path d="M631.653 203.26C633.783 203.26 635.088 201.385 635.088 198.1C635.088 194.785 633.783 193 631.653 193C629.523 193 628.218 194.785 628.218 198.1C628.218 201.385 629.523 203.26 631.653 203.26ZM631.653 202.27C630.318 202.27 629.373 200.95 629.373 198.1C629.373 195.235 630.318 193.99 631.653 193.99C632.988 193.99 633.933 195.235 633.933 198.1C633.933 200.95 632.988 202.27 631.653 202.27ZM631.653 199.015C632.148 199.015 632.583 198.64 632.583 197.995C632.583 197.35 632.148 196.975 631.653 196.975C631.158 196.975 630.723 197.35 630.723 197.995C630.723 198.64 631.158 199.015 631.653 199.015Z" fill="url(#paint30_linear_136_4202)"/>
<path d="M631.653 246.26C633.783 246.26 635.088 244.385 635.088 241.1C635.088 237.785 633.783 236 631.653 236C629.523 236 628.218 237.785 628.218 241.1C628.218 244.385 629.523 246.26 631.653 246.26ZM631.653 245.27C630.318 245.27 629.373 243.95 629.373 241.1C629.373 238.235 630.318 236.99 631.653 236.99C632.988 236.99 633.933 238.235 633.933 241.1C633.933 243.95 632.988 245.27 631.653 245.27ZM631.653 242.015C632.148 242.015 632.583 241.64 632.583 240.995C632.583 240.35 632.148 239.975 631.653 239.975C631.158 239.975 630.723 240.35 630.723 240.995C630.723 241.64 631.158 242.015 631.653 242.015Z" fill="url(#paint31_linear_136_4202)"/>
<path d="M628.623 289.08H635.073V288.06H632.568V279.18H631.653C631.053 279.495 630.318 279.75 629.298 279.9V280.695H631.338V288.06H628.623V289.08Z" fill="url(#paint32_linear_136_4202)"/>
<path d="M804.11 74.26C806.241 74.26 807.546 72.385 807.546 69.1C807.546 65.785 806.241 64 804.11 64C801.98 64 800.676 65.785 800.676 69.1C800.676 72.385 801.98 74.26 804.11 74.26ZM804.11 73.27C802.775 73.27 801.83 71.95 801.83 69.1C801.83 66.235 802.775 64.99 804.11 64.99C805.446 64.99 806.391 66.235 806.391 69.1C806.391 71.95 805.446 73.27 804.11 73.27ZM804.11 70.015C804.605 70.015 805.041 69.64 805.041 68.995C805.041 68.35 804.605 67.975 804.11 67.975C803.616 67.975 803.181 68.35 803.181 68.995C803.181 69.64 803.616 70.015 804.11 70.015Z" fill="url(#paint33_linear_136_4202)"/>
<path d="M672.178 31.08H678.628V30.06H676.123V21.18H675.208C674.608 21.495 673.873 21.75 672.853 21.9V22.695H674.893V30.06H672.178V31.08Z" fill="url(#paint34_linear_136_4202)"/>
<path d="M675.208 74.26C677.338 74.26 678.643 72.385 678.643 69.1C678.643 65.785 677.338 64 675.208 64C673.078 64 671.773 65.785 671.773 69.1C671.773 72.385 673.078 74.26 675.208 74.26ZM675.208 73.27C673.873 73.27 672.928 71.95 672.928 69.1C672.928 66.235 673.873 64.99 675.208 64.99C676.543 64.99 677.488 66.235 677.488 69.1C677.488 71.95 676.543 73.27 675.208 73.27ZM675.208 70.015C675.703 70.015 676.138 69.64 676.138 68.995C676.138 68.35 675.703 67.975 675.208 67.975C674.713 67.975 674.278 68.35 674.278 68.995C674.278 69.64 674.713 70.015 675.208 70.015Z" fill="url(#paint35_linear_136_4202)"/>
<path d="M675.208 289.26C677.338 289.26 678.643 287.385 678.643 284.1C678.643 280.785 677.338 279 675.208 279C673.078 279 671.773 280.785 671.773 284.1C671.773 287.385 673.078 289.26 675.208 289.26ZM675.208 288.27C673.873 288.27 672.928 286.95 672.928 284.1C672.928 281.235 673.873 279.99 675.208 279.99C676.543 279.99 677.488 281.235 677.488 284.1C677.488 286.95 676.543 288.27 675.208 288.27ZM675.208 285.015C675.703 285.015 676.138 284.64 676.138 283.995C676.138 283.35 675.703 282.975 675.208 282.975C674.713 282.975 674.278 283.35 674.278 283.995C674.278 284.64 674.713 285.015 675.208 285.015Z" fill="url(#paint36_linear_136_4202)"/>
<path d="M844.635 31.08H851.085V30.06H848.58V21.18H847.665C847.065 21.495 846.33 21.75 845.31 21.9V22.695H847.35V30.06H844.635V31.08Z" fill="url(#paint37_linear_136_4202)"/>
<path d="M847.665 74.26C849.795 74.26 851.1 72.385 851.1 69.1C851.1 65.785 849.795 64 847.665 64C845.535 64 844.23 65.785 844.23 69.1C844.23 72.385 845.535 74.26 847.665 74.26ZM847.665 73.27C846.33 73.27 845.385 71.95 845.385 69.1C845.385 66.235 846.33 64.99 847.665 64.99C849 64.99 849.945 66.235 849.945 69.1C849.945 71.95 849 73.27 847.665 73.27ZM847.665 70.015C848.16 70.015 848.595 69.64 848.595 68.995C848.595 68.35 848.16 67.975 847.665 67.975C847.17 67.975 846.735 68.35 846.735 68.995C846.735 69.64 847.17 70.015 847.665 70.015Z" fill="url(#paint38_linear_136_4202)"/>
<path d="M847.665 289.26C849.795 289.26 851.1 287.385 851.1 284.1C851.1 280.785 849.795 279 847.665 279C845.535 279 844.23 280.785 844.23 284.1C844.23 287.385 845.535 289.26 847.665 289.26ZM847.665 288.27C846.33 288.27 845.385 286.95 845.385 284.1C845.385 281.235 846.33 279.99 847.665 279.99C849 279.99 849.945 281.235 849.945 284.1C849.945 286.95 849 288.27 847.665 288.27ZM847.665 285.015C848.16 285.015 848.595 284.64 848.595 283.995C848.595 283.35 848.16 282.975 847.665 282.975C847.17 282.975 846.735 283.35 846.735 283.995C846.735 284.64 847.17 285.015 847.665 285.015Z" fill="url(#paint39_linear_136_4202)"/>
<path d="M717.743 31.26C719.873 31.26 721.178 29.385 721.178 26.1C721.178 22.785 719.873 21 717.743 21C715.613 21 714.308 22.785 714.308 26.1C714.308 29.385 715.613 31.26 717.743 31.26ZM717.743 30.27C716.408 30.27 715.463 28.95 715.463 26.1C715.463 23.235 716.408 21.99 717.743 21.99C719.078 21.99 720.023 23.235 720.023 26.1C720.023 28.95 719.078 30.27 717.743 30.27ZM717.743 27.015C718.238 27.015 718.673 26.64 718.673 25.995C718.673 25.35 718.238 24.975 717.743 24.975C717.248 24.975 716.813 25.35 716.813 25.995C716.813 26.64 717.248 27.015 717.743 27.015Z" fill="url(#paint40_linear_136_4202)"/>
<path d="M714.713 74.08H721.163V73.06H718.658V64.18H717.743C717.143 64.495 716.408 64.75 715.388 64.9V65.695H717.428V73.06H714.713V74.08Z" fill="url(#paint41_linear_136_4202)"/>
<path d="M890.2 31.26C892.33 31.26 893.635 29.385 893.635 26.1C893.635 22.785 892.33 21 890.2 21C888.07 21 886.765 22.785 886.765 26.1C886.765 29.385 888.07 31.26 890.2 31.26ZM890.2 30.27C888.865 30.27 887.92 28.95 887.92 26.1C887.92 23.235 888.865 21.99 890.2 21.99C891.535 21.99 892.48 23.235 892.48 26.1C892.48 28.95 891.535 30.27 890.2 30.27ZM890.2 27.015C890.695 27.015 891.13 26.64 891.13 25.995C891.13 25.35 890.695 24.975 890.2 24.975C889.705 24.975 889.27 25.35 889.27 25.995C889.27 26.64 889.705 27.015 890.2 27.015Z" fill="url(#paint42_linear_136_4202)"/>
<path d="M887.17 74.08H893.62V73.06H891.115V64.18H890.2C889.6 64.495 888.865 64.75 887.845 64.9V65.695H889.885V73.06H887.17V74.08Z" fill="url(#paint43_linear_136_4202)"/>
<path d="M887.17 117.08H893.62V116.06H891.115V107.18H890.2C889.6 107.495 888.865 107.75 887.845 107.9V108.695H889.885V116.06H887.17V117.08Z" fill="url(#paint44_linear_136_4202)"/>
<path d="M887.17 246.08H893.62V245.06H891.115V236.18H890.2C889.6 236.495 888.865 236.75 887.845 236.9V237.695H889.885V245.06H887.17V246.08Z" fill="url(#paint45_linear_136_4202)"/>
<path d="M760.927 29.26C763.057 29.26 764.362 27.385 764.362 24.1C764.362 20.785 763.057 19 760.927 19C758.797 19 757.492 20.785 757.492 24.1C757.492 27.385 758.797 29.26 760.927 29.26ZM760.927 28.27C759.592 28.27 758.647 26.95 758.647 24.1C758.647 21.235 759.592 19.99 760.927 19.99C762.262 19.99 763.207 21.235 763.207 24.1C763.207 26.95 762.262 28.27 760.927 28.27ZM760.927 25.015C761.422 25.015 761.857 24.64 761.857 23.995C761.857 23.35 761.422 22.975 760.927 22.975C760.432 22.975 759.997 23.35 759.997 23.995C759.997 24.64 760.432 25.015 760.927 25.015Z" fill="url(#paint46_linear_136_4202)"/>
<path d="M610.773 175.105L567.722 175.105L567.722 132.054L610.773 132.054L610.773 175.105Z" stroke="#0A9E73" stroke-width="1.16139"/>
<path d="M869.079 261.205L826.027 261.205L826.027 218.154L869.079 218.154L869.079 261.205Z" stroke="#0A9E73" stroke-width="1.16139"/>
<path d="M697 218L653 218L653 175L697 175L697 218Z" stroke="#0A9E73" stroke-width="1.16139"/>
<path fill-rule="evenodd" clip-rule="evenodd" d="M675 193.113C672.839 193.113 671.089 194.853 671.089 197C671.089 199.146 672.839 200.886 675 200.886C677.16 200.886 678.911 199.146 678.911 197C678.911 194.853 677.16 193.113 675 193.113ZM675 194.604C676.332 194.604 677.411 195.676 677.411 197C677.411 198.323 676.332 199.396 675 199.396C673.668 199.396 672.589 198.323 672.589 197C672.589 195.676 673.668 194.604 675 194.604Z" fill="url(#paint47_linear_136_4202)"/>
<path fill-rule="evenodd" clip-rule="evenodd" d="M675.288 189.005L675.002 189C670.861 189 667.129 191.923 665.061 196.706C664.98 196.894 664.98 197.106 665.061 197.294L665.204 197.617C667.246 202.093 670.775 204.864 674.712 204.995L674.998 205C679.139 205 682.871 202.077 684.939 197.294C685.021 197.104 685.02 196.888 684.936 196.699L684.797 196.386C682.75 191.901 679.219 189.135 675.288 189.005ZM675.009 190.489L675.248 190.495L675.515 190.508C678.712 190.735 681.653 193.106 683.429 196.999L683.42 197.023C681.599 201 678.557 203.385 675.259 203.505L675.004 203.509L674.747 203.505L674.481 203.491C671.383 203.272 668.526 201.034 666.739 197.36L666.57 196.999L666.727 196.666C668.611 192.773 671.691 190.49 675.009 190.489Z" fill="url(#paint48_linear_136_4202)"/>
<path d="M826.079 132.053L783.027 132.053L783.027 89.0017L826.079 89.0017L826.079 132.053Z" stroke="#0A9E73" stroke-width="1.16139"/>
<path d="M610.816 95.059H567.718V213.201H610.816V95.059Z" fill="url(#paint49_linear_136_4202)"/>
<path d="M734.111 218.097L733.864 175L617 175.669L617.247 218.766L734.111 218.097Z" fill="url(#paint50_linear_136_4202)"/>
<path fill-rule="evenodd" clip-rule="evenodd" d="M844.38 234.095C842.566 234.095 841.095 235.566 841.095 237.38V242.62C841.095 244.434 842.566 245.905 844.38 245.905H850.691C852.505 245.905 853.975 244.434 853.975 242.62V242.417H851.567C850.18 242.416 849.054 241.292 849.054 239.904C849.054 238.516 850.18 237.392 851.567 237.391H853.975V237.38C853.975 235.566 852.505 234.095 850.691 234.095H844.38ZM855.071 237.926V237.38C855.071 234.961 853.11 233 850.691 233H844.38C841.961 233 840 234.961 840 237.38V242.62C840 245.039 841.961 247 844.38 247H850.691C853.11 247 855.071 245.039 855.071 242.62V241.881C855.071 241.877 855.071 241.873 855.071 241.869C855.071 241.865 855.071 241.861 855.071 241.857V237.951C855.071 237.947 855.071 237.943 855.071 237.939C855.071 237.935 855.071 237.93 855.071 237.926ZM853.975 238.486H851.567C850.784 238.487 850.149 239.121 850.149 239.903M853.975 238.486V241.321H851.567C850.784 241.321 850.149 240.686 850.149 239.903M843.312 236.862C843.312 236.559 843.557 236.314 843.86 236.314H847.802C848.105 236.314 848.35 236.559 848.35 236.862C848.35 237.164 848.105 237.409 847.802 237.409H843.86C843.557 237.409 843.312 237.164 843.312 236.862ZM851.126 239.859C851.126 239.556 851.371 239.311 851.674 239.311H851.902C852.204 239.311 852.449 239.556 852.449 239.859C852.449 240.161 852.204 240.407 851.902 240.407H851.674C851.371 240.407 851.126 240.161 851.126 239.859Z" fill="url(#paint51_linear_136_4202)"/>
<path d="M542.688 115.92H549.138V114.9H546.633V106.02H545.718C545.118 106.335 544.383 106.59 543.363 106.74V107.535H545.403V114.9H542.688V115.92Z" fill="#0A9E73"/>
<path d="M567.438 132.193L524.386 132.193L524.386 89.1417L567.438 89.1417L567.438 132.193Z" stroke="#0A9E73" stroke-width="1.16139"/>
<path d="M567.438 48.3965H524.34V166.538H567.438V48.3965Z" fill="url(#paint52_linear_136_4202)"/>
<path d="M545.337 330.674C547.467 330.674 548.772 328.799 548.772 325.514C548.772 322.199 547.467 320.414 545.337 320.414C543.207 320.414 541.902 322.199 541.902 325.514C541.902 328.799 543.207 330.674 545.337 330.674ZM545.337 329.684C544.002 329.684 543.057 328.364 543.057 325.514C543.057 322.649 544.002 321.404 545.337 321.404C546.672 321.404 547.617 322.649 547.617 325.514C547.617 328.364 546.672 329.684 545.337 329.684ZM545.337 326.429C545.832 326.429 546.267 326.054 546.267 325.409C546.267 324.764 545.832 324.389 545.337 324.389C544.842 324.389 544.407 324.764 544.407 325.409C544.407 326.054 544.842 326.429 545.337 326.429Z" fill="#0A9E73"/>
<path d="M567.438 347.07L524.386 347.07L524.386 304.019L567.438 304.019L567.438 347.07Z" stroke="#0A9E73" stroke-width="1.16139"/>
<path d="M566.988 259.818H523.89V377.96H566.988V259.818Z" fill="url(#paint53_linear_136_4202)"/>
<path d="M869.098 184H826V302.142H869.098V184Z" fill="url(#paint54_linear_136_4202)"/>
<path d="M760.435 116.26C762.565 116.26 763.87 114.385 763.87 111.1C763.87 107.785 762.565 106 760.435 106C758.305 106 757 107.785 757 111.1C757 114.385 758.305 116.26 760.435 116.26ZM760.435 115.27C759.1 115.27 758.155 113.95 758.155 111.1C758.155 108.235 759.1 106.99 760.435 106.99C761.77 106.99 762.715 108.235 762.715 111.1C762.715 113.95 761.77 115.27 760.435 115.27ZM760.435 112.015C760.93 112.015 761.365 111.64 761.365 110.995C761.365 110.35 760.93 109.975 760.435 109.975C759.94 109.975 759.505 110.35 759.505 110.995C759.505 111.64 759.94 112.015 760.435 112.015Z" fill="url(#paint55_linear_136_4202)"/>
<path d="M920.554 -1.29688H0.949219V400.899H920.554V-1.29688Z" fill="url(#paint56_radial_136_4202)"/>
</g>
<defs>
<linearGradient id="paint0_linear_136_4202" x1="847.627" y1="-37.6446" x2="847.627" y2="344.972" gradientUnits="userSpaceOnUse">
<stop stop-color="#3D3D3D"/>
<stop offset="1" stop-color="#2F2F2F" stop-opacity="0"/>
</linearGradient>
<linearGradient id="paint1_linear_136_4202" x1="760.893" y1="42.2059" x2="760.893" y2="424.822" gradientUnits="userSpaceOnUse">
<stop stop-color="#3D3D3D"/>
<stop offset="1" stop-color="#2F2F2F" stop-opacity="0"/>
</linearGradient>
<linearGradient id="paint2_linear_136_4202" x1="760.74" y1="-54.2111" x2="760.74" y2="338.867" gradientUnits="userSpaceOnUse">
<stop stop-color="#3D3D3D"/>
<stop offset="1" stop-color="#2F2F2F" stop-opacity="0"/>
</linearGradient>
<linearGradient id="paint3_linear_136_4202" x1="674.268" y1="-31.8629" x2="674.268" y2="337.328" gradientUnits="userSpaceOnUse">
<stop stop-color="#3D3D3D"/>
<stop offset="1" stop-color="#2F2F2F" stop-opacity="0"/>
</linearGradient>
<linearGradient id="paint4_linear_136_4202" x1="632.302" y1="2.63107" x2="632.302" y2="385.247" gradientUnits="userSpaceOnUse">
<stop stop-color="#3D3D3D"/>
<stop offset="1" stop-color="#2F2F2F" stop-opacity="0"/>
</linearGradient>
<linearGradient id="paint5_linear_136_4202" x1="804.804" y1="43.2059" x2="804.804" y2="425.822" gradientUnits="userSpaceOnUse">
<stop stop-color="#3D3D3D"/>
<stop offset="1" stop-color="#2F2F2F" stop-opacity="0"/>
</linearGradient>
<linearGradient id="paint6_linear_136_4202" x1="675.213" y1="-45.0074" x2="675.213" y2="362.401" gradientUnits="userSpaceOnUse">
<stop stop-color="#3D3D3D"/>
<stop offset="1" stop-color="#2F2F2F" stop-opacity="0"/>
</linearGradient>
<linearGradient id="paint7_linear_136_4202" x1="718.267" y1="-30.9359" x2="718.267" y2="338.255" gradientUnits="userSpaceOnUse">
<stop stop-color="#3D3D3D"/>
<stop offset="1" stop-color="#2F2F2F" stop-opacity="0"/>
</linearGradient>
<linearGradient id="paint8_linear_136_4202" x1="761.271" y1="-283.909" x2="761.271" y2="591.242" gradientUnits="userSpaceOnUse">
<stop stop-color="white" stop-opacity="0.27"/>
<stop offset="1" stop-color="white" stop-opacity="0"/>
</linearGradient>
<linearGradient id="paint9_linear_136_4202" x1="675.302" y1="-39.6446" x2="675.302" y2="342.972" gradientUnits="userSpaceOnUse">
<stop stop-color="#3D3D3D"/>
<stop offset="1" stop-color="#2F2F2F" stop-opacity="0"/>
</linearGradient>
<linearGradient id="paint10_linear_136_4202" x1="846.894" y1="-39.2194" x2="846.894" y2="343.397" gradientUnits="userSpaceOnUse">
<stop stop-color="#3D3D3D"/>
<stop offset="1" stop-color="#2F2F2F" stop-opacity="0"/>
</linearGradient>
<linearGradient id="paint11_linear_136_4202" x1="893.741" y1="-75.8629" x2="893.741" y2="293.328" gradientUnits="userSpaceOnUse">
<stop stop-color="#3D3D3D"/>
<stop offset="1" stop-color="#2F2F2F" stop-opacity="0"/>
</linearGradient>
<linearGradient id="paint12_linear_136_4202" x1="805.212" y1="-2.00735" x2="805.212" y2="405.401" gradientUnits="userSpaceOnUse">
<stop stop-color="#3D3D3D"/>
<stop offset="1" stop-color="#2F2F2F" stop-opacity="0"/>
</linearGradient>
<linearGradient id="paint13_linear_136_4202" x1="848.174" y1="-28.9359" x2="848.174" y2="340.255" gradientUnits="userSpaceOnUse">
<stop stop-color="#3D3D3D"/>
<stop offset="1" stop-color="#2F2F2F" stop-opacity="0"/>
</linearGradient>
<linearGradient id="paint14_linear_136_4202" x1="718.177" y1="-31.8872" x2="718.177" y2="337.304" gradientUnits="userSpaceOnUse">
<stop stop-color="#3D3D3D"/>
<stop offset="1" stop-color="#2F2F2F" stop-opacity="0"/>
</linearGradient>
<linearGradient id="paint15_linear_136_4202" x1="804.834" y1="-85.7941" x2="804.834" y2="296.822" gradientUnits="userSpaceOnUse">
<stop stop-color="#3D3D3D"/>
<stop offset="1" stop-color="#2F2F2F" stop-opacity="0"/>
</linearGradient>
<linearGradient id="paint16_linear_136_4202" x1="545.886" y1="-25.9199" x2="545.886" y2="335.08" gradientUnits="userSpaceOnUse">
<stop stop-color="#3D3D3D"/>
<stop offset="1" stop-color="#2F2F2F" stop-opacity="0"/>
</linearGradient>
<linearGradient id="paint17_linear_136_4202" x1="545.886" y1="-25.9199" x2="545.886" y2="335.08" gradientUnits="userSpaceOnUse">
<stop stop-color="#3D3D3D"/>
<stop offset="1" stop-color="#2F2F2F" stop-opacity="0"/>
</linearGradient>
<linearGradient id="paint18_linear_136_4202" x1="545.886" y1="-25.9198" x2="545.886" y2="335.08" gradientUnits="userSpaceOnUse">
<stop stop-color="#3D3D3D"/>
<stop offset="1" stop-color="#2F2F2F" stop-opacity="0"/>
</linearGradient>
<linearGradient id="paint19_linear_136_4202" x1="545.886" y1="-25.9201" x2="545.886" y2="335.08" gradientUnits="userSpaceOnUse">
<stop stop-color="#3D3D3D"/>
<stop offset="1" stop-color="#2F2F2F" stop-opacity="0"/>
</linearGradient>
<linearGradient id="paint20_linear_136_4202" x1="545.886" y1="-25.9198" x2="545.886" y2="335.08" gradientUnits="userSpaceOnUse">
<stop stop-color="#3D3D3D"/>
<stop offset="1" stop-color="#2F2F2F" stop-opacity="0"/>
</linearGradient>
<linearGradient id="paint21_linear_136_4202" x1="589.07" y1="-25.9199" x2="589.07" y2="335.08" gradientUnits="userSpaceOnUse">
<stop stop-color="#3D3D3D"/>
<stop offset="1" stop-color="#2F2F2F" stop-opacity="0"/>
</linearGradient>
<linearGradient id="paint22_linear_136_4202" x1="589.07" y1="-25.9199" x2="589.07" y2="335.08" gradientUnits="userSpaceOnUse">
<stop stop-color="#3D3D3D"/>
<stop offset="1" stop-color="#2F2F2F" stop-opacity="0"/>
</linearGradient>
<linearGradient id="paint23_linear_136_4202" x1="589.07" y1="-25.92" x2="589.07" y2="335.08" gradientUnits="userSpaceOnUse">
<stop stop-color="#3D3D3D"/>
<stop offset="1" stop-color="#2F2F2F" stop-opacity="0"/>
</linearGradient>
<linearGradient id="paint24_linear_136_4202" x1="589.07" y1="-25.9201" x2="589.07" y2="335.08" gradientUnits="userSpaceOnUse">
<stop stop-color="#3D3D3D"/>
<stop offset="1" stop-color="#2F2F2F" stop-opacity="0"/>
</linearGradient>
<linearGradient id="paint25_linear_136_4202" x1="589.07" y1="-25.9202" x2="589.07" y2="335.08" gradientUnits="userSpaceOnUse">
<stop stop-color="#3D3D3D"/>
<stop offset="1" stop-color="#2F2F2F" stop-opacity="0"/>
</linearGradient>
<linearGradient id="paint26_linear_136_4202" x1="589.07" y1="-25.9202" x2="589.07" y2="335.08" gradientUnits="userSpaceOnUse">
<stop stop-color="#3D3D3D"/>
<stop offset="1" stop-color="#2F2F2F" stop-opacity="0"/>
</linearGradient>
<linearGradient id="paint27_linear_136_4202" x1="631.652" y1="17.0801" x2="631.652" y2="378.08" gradientUnits="userSpaceOnUse">
<stop stop-color="#3D3D3D"/>
<stop offset="1" stop-color="#2F2F2F" stop-opacity="0"/>
</linearGradient>
<linearGradient id="paint28_linear_136_4202" x1="631.652" y1="17.08" x2="631.652" y2="378.08" gradientUnits="userSpaceOnUse">
<stop stop-color="#3D3D3D"/>
<stop offset="1" stop-color="#2F2F2F" stop-opacity="0"/>
</linearGradient>
<linearGradient id="paint29_linear_136_4202" x1="631.652" y1="17.0802" x2="631.652" y2="378.08" gradientUnits="userSpaceOnUse">
<stop stop-color="#3D3D3D"/>
<stop offset="1" stop-color="#2F2F2F" stop-opacity="0"/>
</linearGradient>
<linearGradient id="paint30_linear_136_4202" x1="631.652" y1="17.0802" x2="631.652" y2="378.08" gradientUnits="userSpaceOnUse">
<stop stop-color="#3D3D3D"/>
<stop offset="1" stop-color="#2F2F2F" stop-opacity="0"/>
</linearGradient>
<linearGradient id="paint31_linear_136_4202" x1="631.652" y1="17.0799" x2="631.652" y2="378.08" gradientUnits="userSpaceOnUse">
<stop stop-color="#3D3D3D"/>
<stop offset="1" stop-color="#2F2F2F" stop-opacity="0"/>
</linearGradient>
<linearGradient id="paint32_linear_136_4202" x1="631.652" y1="17.0803" x2="631.652" y2="378.08" gradientUnits="userSpaceOnUse">
<stop stop-color="#3D3D3D"/>
<stop offset="1" stop-color="#2F2F2F" stop-opacity="0"/>
</linearGradient>
<linearGradient id="paint33_linear_136_4202" x1="804.109" y1="17.0801" x2="804.109" y2="378.08" gradientUnits="userSpaceOnUse">
<stop stop-color="#3D3D3D"/>
<stop offset="1" stop-color="#2F2F2F" stop-opacity="0"/>
</linearGradient>
<linearGradient id="paint34_linear_136_4202" x1="675.207" y1="-25.9199" x2="675.207" y2="335.08" gradientUnits="userSpaceOnUse">
<stop stop-color="#3D3D3D"/>
<stop offset="1" stop-color="#2F2F2F" stop-opacity="0"/>
</linearGradient>
<linearGradient id="paint35_linear_136_4202" x1="675.207" y1="-25.9199" x2="675.207" y2="335.08" gradientUnits="userSpaceOnUse">
<stop stop-color="#3D3D3D"/>
<stop offset="1" stop-color="#2F2F2F" stop-opacity="0"/>
</linearGradient>
<linearGradient id="paint36_linear_136_4202" x1="675.207" y1="-25.9202" x2="675.207" y2="335.08" gradientUnits="userSpaceOnUse">
<stop stop-color="#3D3D3D"/>
<stop offset="1" stop-color="#2F2F2F" stop-opacity="0"/>
</linearGradient>
<linearGradient id="paint37_linear_136_4202" x1="847.664" y1="-25.9199" x2="847.664" y2="335.08" gradientUnits="userSpaceOnUse">
<stop stop-color="#3D3D3D"/>
<stop offset="1" stop-color="#2F2F2F" stop-opacity="0"/>
</linearGradient>
<linearGradient id="paint38_linear_136_4202" x1="847.664" y1="-25.9199" x2="847.664" y2="335.08" gradientUnits="userSpaceOnUse">
<stop stop-color="#3D3D3D"/>
<stop offset="1" stop-color="#2F2F2F" stop-opacity="0"/>
</linearGradient>
<linearGradient id="paint39_linear_136_4202" x1="847.664" y1="-25.9202" x2="847.664" y2="335.08" gradientUnits="userSpaceOnUse">
<stop stop-color="#3D3D3D"/>
<stop offset="1" stop-color="#2F2F2F" stop-opacity="0"/>
</linearGradient>
<linearGradient id="paint40_linear_136_4202" x1="717.742" y1="-68.9199" x2="717.742" y2="292.08" gradientUnits="userSpaceOnUse">
<stop stop-color="#3D3D3D"/>
<stop offset="1" stop-color="#2F2F2F" stop-opacity="0"/>
</linearGradient>
<linearGradient id="paint41_linear_136_4202" x1="717.742" y1="-68.9199" x2="717.742" y2="292.08" gradientUnits="userSpaceOnUse">
<stop stop-color="#3D3D3D"/>
<stop offset="1" stop-color="#2F2F2F" stop-opacity="0"/>
</linearGradient>
<linearGradient id="paint42_linear_136_4202" x1="890.199" y1="-68.9199" x2="890.199" y2="292.08" gradientUnits="userSpaceOnUse">
<stop stop-color="#3D3D3D"/>
<stop offset="1" stop-color="#2F2F2F" stop-opacity="0"/>
</linearGradient>
<linearGradient id="paint43_linear_136_4202" x1="890.199" y1="-68.9199" x2="890.199" y2="292.08" gradientUnits="userSpaceOnUse">
<stop stop-color="#3D3D3D"/>
<stop offset="1" stop-color="#2F2F2F" stop-opacity="0"/>
</linearGradient>
<linearGradient id="paint44_linear_136_4202" x1="890.199" y1="-68.9201" x2="890.199" y2="292.08" gradientUnits="userSpaceOnUse">
<stop stop-color="#3D3D3D"/>
<stop offset="1" stop-color="#2F2F2F" stop-opacity="0"/>
</linearGradient>
<linearGradient id="paint45_linear_136_4202" x1="890.199" y1="-68.9197" x2="890.199" y2="292.08" gradientUnits="userSpaceOnUse">
<stop stop-color="#3D3D3D"/>
<stop offset="1" stop-color="#2F2F2F" stop-opacity="0"/>
</linearGradient>
<linearGradient id="paint46_linear_136_4202" x1="760.926" y1="15.0801" x2="760.926" y2="376.08" gradientUnits="userSpaceOnUse">
<stop stop-color="#3D3D3D"/>
<stop offset="1" stop-color="#2F2F2F" stop-opacity="0"/>
</linearGradient>
<linearGradient id="paint47_linear_136_4202" x1="674.997" y1="-152.396" x2="674.997" y2="410.567" gradientUnits="userSpaceOnUse">
<stop stop-color="#0A9E73"/>
<stop offset="1" stop-color="#0A9E73"/>
</linearGradient>
<linearGradient id="paint48_linear_136_4202" x1="674.997" y1="-152.396" x2="674.997" y2="410.567" gradientUnits="userSpaceOnUse">
<stop stop-color="#0A9E73"/>
<stop offset="1" stop-color="#0A9E73"/>
</linearGradient>
<linearGradient id="paint49_linear_136_4202" x1="610.816" y1="95.059" x2="620.127" y2="204.357" gradientUnits="userSpaceOnUse">
<stop stop-color="#133030" stop-opacity="0"/>
<stop offset="0.473958" stop-color="#1C4442" stop-opacity="0.63"/>
<stop offset="1" stop-color="#131313" stop-opacity="0"/>
</linearGradient>
<linearGradient id="paint50_linear_136_4202" x1="734.111" y1="218.097" x2="626.031" y2="227.829" gradientUnits="userSpaceOnUse">
<stop stop-color="#133030" stop-opacity="0"/>
<stop offset="0.473958" stop-color="#1C4442" stop-opacity="0.63"/>
<stop offset="1" stop-color="#131313" stop-opacity="0"/>
</linearGradient>
<linearGradient id="paint51_linear_136_4202" x1="847.533" y1="-65.7211" x2="847.533" y2="426.871" gradientUnits="userSpaceOnUse">
<stop stop-color="#0A9E73"/>
<stop offset="1" stop-color="#0A9E73"/>
</linearGradient>
<linearGradient id="paint52_linear_136_4202" x1="567.437" y1="48.3965" x2="576.748" y2="157.695" gradientUnits="userSpaceOnUse">
<stop stop-color="#133030" stop-opacity="0"/>
<stop offset="0.473958" stop-color="#1C4442" stop-opacity="0.63"/>
<stop offset="1" stop-color="#131313" stop-opacity="0"/>
</linearGradient>
<linearGradient id="paint53_linear_136_4202" x1="566.988" y1="259.818" x2="576.299" y2="369.117" gradientUnits="userSpaceOnUse">
<stop stop-color="#133030" stop-opacity="0"/>
<stop offset="0.473958" stop-color="#1C4442" stop-opacity="0.63"/>
<stop offset="1" stop-color="#131313" stop-opacity="0"/>
</linearGradient>
<linearGradient id="paint54_linear_136_4202" x1="869.098" y1="184" x2="878.408" y2="293.299" gradientUnits="userSpaceOnUse">
<stop stop-color="#133030" stop-opacity="0"/>
<stop offset="0.473958" stop-color="#1C4442" stop-opacity="0.63"/>
<stop offset="1" stop-color="#131313" stop-opacity="0"/>
</linearGradient>
<linearGradient id="paint55_linear_136_4202" x1="760.434" y1="16.0801" x2="760.434" y2="377.08" gradientUnits="userSpaceOnUse">
<stop stop-color="#3D3D3D"/>
<stop offset="1" stop-color="#2F2F2F" stop-opacity="0"/>
</linearGradient>
<radialGradient id="paint56_radial_136_4202" cx="0" cy="0" r="1" gradientUnits="userSpaceOnUse" gradientTransform="translate(797.065 217.471) rotate(180) scale(324.377 199.546)">
<stop stop-color="#101317" stop-opacity="0"/>
<stop offset="0.630208" stop-color="#101317" stop-opacity="0.35"/>
<stop offset="1" stop-color="#101317" stop-opacity="0.88"/>
</radialGradient>
<clipPath id="clip0_136_4202">
<rect width="920" height="400" fill="white"/>
</clipPath>
</defs>
</svg>
