<svg width="325" height="336" viewBox="0 0 325 336" fill="none" xmlns="http://www.w3.org/2000/svg">
<path d="M290.375 278.069H34.0304C21.6325 278.069 11.582 288.119 11.582 300.517V313.552C11.582 325.949 21.6325 336 34.0304 336H290.375C302.773 336 312.823 325.949 312.823 313.552V300.517C312.823 288.119 302.773 278.069 290.375 278.069Z" fill="#0B0B0F"/>
<path fill-rule="evenodd" clip-rule="evenodd" d="M297.617 21.3621H297.62L324.414 303.776H0L26.7931 21.3621H26.7961C26.9894 9.53117 36.6402 0 48.5172 0H275.896C287.773 0 297.424 9.53117 297.617 21.3621Z" fill="#101116"/>
<path fill-rule="evenodd" clip-rule="evenodd" d="M297.617 21.3621H297.62L324.414 303.776H0L26.7931 21.3621H26.7961C26.9894 9.53117 36.6402 0 48.5172 0H275.896C287.773 0 297.424 9.53117 297.617 21.3621Z" fill="url(#paint0_linear_5490_262)"/>
<path fill-rule="evenodd" clip-rule="evenodd" d="M297.617 21.3621H297.62L324.414 303.776H0L26.7931 21.3621H26.7961C26.9894 9.53117 36.6402 0 48.5172 0H275.896C287.773 0 297.424 9.53117 297.617 21.3621Z" fill="url(#paint1_linear_5490_262)"/>
<path fill-rule="evenodd" clip-rule="evenodd" d="M297.617 21.3621H297.62L324.414 303.776H0L26.7931 21.3621H26.7961C26.9894 9.53117 36.6402 0 48.5172 0H275.896C287.773 0 297.424 9.53117 297.617 21.3621Z" fill="url(#paint2_linear_5490_262)"/>
<path fill-rule="evenodd" clip-rule="evenodd" d="M297.617 21.3621H297.62L324.414 303.776H0L26.7931 21.3621H26.7961C26.9894 9.53117 36.6402 0 48.5172 0H275.896C287.773 0 297.424 9.53117 297.617 21.3621Z" fill="url(#paint3_radial_5490_262)"/>
<path d="M298.345 278.075H26.0691C11.6715 278.075 0 289.746 0 304.144C0 318.541 11.6715 330.213 26.0691 330.213H298.345C312.742 330.213 324.414 318.541 324.414 304.144C324.414 289.746 312.742 278.075 298.345 278.075Z" fill="url(#paint4_radial_5490_262)"/>
<path d="M285.986 309.823C287.955 309.823 289.551 308.227 289.551 306.258C289.551 304.289 287.955 302.693 285.986 302.693C284.017 302.693 282.421 304.289 282.421 306.258C282.421 308.227 284.017 309.823 285.986 309.823Z" fill="#D6005B"/>
<path d="M297.627 275.895H22.4551V278.067H297.627V275.895Z" fill="url(#paint5_linear_5490_262)"/>
<path d="M218.262 115.862C218.797 115.963 219.337 116.042 219.866 116.167C221.551 116.565 223.038 117.329 224.131 118.727C224.436 119.118 224.721 119.584 224.829 120.059C225.02 120.893 224.539 121.77 223.821 122.171C223.072 122.589 222.077 122.512 221.419 121.982C221.092 121.718 220.79 121.413 220.439 121.186C218.86 120.167 217.201 120.089 215.52 120.884C214.821 121.214 214.348 121.783 214.248 122.605C214.164 123.3 214.363 123.904 214.968 124.244C215.574 124.584 216.221 124.891 216.888 125.071C218.491 125.502 220.123 125.831 221.649 126.521C223.199 127.221 224.492 128.218 225.246 129.807C226.327 132.084 225.735 135.271 223.883 137.199C222.334 138.812 220.424 139.637 218.228 139.78C215.479 139.959 213.054 139.142 211.012 137.243C210.333 136.611 209.802 135.861 209.458 134.992C209.144 134.199 209.163 133.411 209.719 132.732C210.252 132.079 210.946 131.722 211.807 131.907C212.552 132.068 213.069 132.585 213.465 133.2C214.886 135.411 217.823 135.809 219.74 134.866C220.208 134.636 220.652 134.252 220.969 133.832C221.731 132.824 221.446 131.526 220.376 130.861C219.414 130.263 218.316 130.06 217.239 129.814C215.806 129.486 214.408 129.069 213.115 128.34C208.58 125.784 208.962 120.22 212.488 117.572C213.737 116.634 215.138 116.114 216.674 115.94C216.761 115.93 216.845 115.889 216.931 115.862C217.374 115.862 217.818 115.862 218.262 115.862Z" fill="url(#paint6_linear_5490_262)"/>
<path d="M128.23 127.78C128.23 124.657 128.23 121.534 128.23 118.411C128.231 116.973 129.114 116.075 130.533 116.075C131.963 116.076 133.394 116.058 134.823 116.091C140.094 116.213 144.814 120.253 145.828 125.488C147.11 132.114 142.876 138.326 136.304 139.393C135.217 139.569 134.097 139.552 132.991 139.584C132.068 139.611 131.14 139.627 130.22 139.561C129.012 139.475 128.232 138.564 128.231 137.337C128.228 134.151 128.23 130.966 128.23 127.78ZM132.676 135.17C133.689 135.108 134.692 135.126 135.668 134.972C139.845 134.313 142.501 130.199 141.411 126.061C140.386 122.17 136.892 120.118 132.676 120.631C132.676 125.446 132.676 130.262 132.676 135.17Z" fill="url(#paint7_linear_5490_262)"/>
<path d="M179.359 135.13C181.04 135.13 182.691 135.13 184.342 135.13C185.032 135.13 185.723 135.126 186.413 135.131C187.662 135.141 188.601 136.109 188.599 137.376C188.596 138.633 187.674 139.589 186.434 139.592C183.339 139.598 180.244 139.599 177.149 139.591C175.825 139.588 174.914 138.66 174.913 137.328C174.91 131.006 174.911 124.684 174.913 118.362C174.913 117.029 175.852 116.081 177.179 116.079C180.237 116.074 183.295 116.075 186.353 116.078C187.63 116.08 188.592 117.04 188.599 118.306C188.606 119.591 187.682 120.542 186.381 120.55C184.186 120.562 181.991 120.553 179.796 120.553C179.661 120.553 179.526 120.553 179.365 120.553C179.365 122.251 179.365 123.932 179.365 125.673C179.486 125.673 179.614 125.673 179.743 125.673C181.272 125.673 182.801 125.671 184.33 125.673C185.579 125.675 186.508 126.609 186.515 127.865C186.523 129.097 185.608 130.034 184.362 130.043C182.833 130.054 181.304 130.045 179.775 130.045C179.642 130.045 179.509 130.045 179.359 130.045C179.359 131.75 179.359 133.419 179.359 135.13Z" fill="url(#paint8_linear_5490_262)"/>
<path d="M166.192 120.251C165.491 120.251 164.805 120.251 164.118 120.251C163.563 120.251 163.008 120.255 162.453 120.25C161.937 120.245 161.695 120.014 161.69 119.504C161.682 118.642 161.683 117.78 161.69 116.918C161.694 116.429 161.908 116.225 162.403 116.225C164.918 116.224 167.432 116.224 169.947 116.225C170.504 116.225 170.668 116.402 170.668 117.01C170.669 119.87 170.668 122.73 170.668 125.59C170.668 127.789 170.659 129.987 170.671 132.185C170.682 134.208 170.155 136.021 168.766 137.533C167.406 139.014 165.736 139.815 163.746 139.887C160.786 139.994 158.549 138.634 156.825 136.293C156.493 135.842 156.62 135.402 157.103 135.138C157.829 134.742 158.555 134.349 159.284 133.959C159.811 133.675 160.139 133.748 160.504 134.22C161.307 135.259 162.836 135.751 164.095 135.376C165.366 134.998 166.202 133.904 166.212 132.417C166.239 128.408 166.22 124.399 166.218 120.389C166.218 120.365 166.209 120.341 166.192 120.251Z" fill="url(#paint9_linear_5490_262)"/>
<path d="M201.32 120.565C201.32 120.725 201.32 120.874 201.32 121.023C201.32 126.444 201.321 131.865 201.319 137.286C201.319 138.758 200.227 139.741 198.79 139.565C197.71 139.433 196.974 138.541 196.968 137.338C196.962 135.951 196.967 134.565 196.967 133.178C196.967 129.119 196.967 125.059 196.967 121C196.967 120.853 196.967 120.707 196.967 120.525C196.809 120.525 196.689 120.525 196.569 120.525C195.336 120.525 194.103 120.529 192.87 120.524C191.562 120.519 190.652 119.598 190.654 118.293C190.657 117.007 191.565 116.08 192.85 116.079C197.053 116.074 201.257 116.075 205.46 116.079C206.741 116.08 207.686 117.043 207.682 118.323C207.679 119.586 206.744 120.517 205.464 120.524C204.12 120.53 202.777 120.527 201.433 120.529C201.41 120.529 201.388 120.543 201.32 120.565Z" fill="url(#paint10_linear_5490_262)"/>
<path d="M201.22 120.489L201.289 120.467L201.22 120.489ZM201.22 120.489V120.562M201.22 120.489V120.562M201.22 120.562V120.563V120.564V120.565V120.566V120.567V120.567V120.568V120.569V120.57V120.571V120.572V120.573V120.574V120.575V120.576V120.577V120.578V120.579V120.58V120.581V120.581V120.582V120.583V120.584V120.585V120.586V120.587V120.588V120.589V120.59V120.591V120.592V120.593V120.594V120.594V120.595V120.596V120.597V120.598V120.599V120.6V120.601V120.602V120.603V120.604V120.605V120.606V120.607V120.607V120.608V120.609V120.61V120.611V120.612V120.613V120.614V120.615V120.616V120.617V120.618V120.619V120.619V120.62V120.621V120.622V120.623V120.624V120.625V120.626V120.627V120.628V120.629V120.63V120.631V120.631V120.632V120.633V120.634V120.635V120.636V120.637V120.638V120.639V120.64V120.641V120.642V120.642V120.643V120.644V120.645V120.646V120.647V120.648V120.649V120.65V120.651V120.652V120.653V120.653V120.654V120.655V120.656V120.657V120.658V120.659V120.66V120.661V120.662V120.663V120.663V120.664V120.665V120.666V120.667V120.668V120.669V120.67V120.671V120.672V120.673V120.674V120.674V120.675V120.676V120.677V120.678V120.679V120.68V120.681V120.682V120.683V120.684V120.684V120.685V120.686V120.687V120.688V120.689V120.69V120.691V120.692V120.693V120.693V120.694V120.695V120.696V120.697V120.698V120.699V120.7V120.701V120.702V120.703V120.703V120.704V120.705V120.706V120.707V120.708V120.709V120.71V120.711V120.712V120.712V120.713V120.714V120.715V120.716V120.717V120.718V120.719V120.72V120.721V120.721V120.722V120.723V120.724V120.725V120.726V120.727V120.728V120.729V120.73V120.73V120.731V120.732V120.733V120.734V120.735V120.736V120.737V120.738V120.739V120.739V120.74V120.741V120.742V120.743V120.744V120.745V120.746V120.747V120.748V120.748V120.749V120.75V120.751V120.752V120.753V120.754V120.755V120.756V120.756V120.757V120.758V120.759V120.76V120.761V120.762V120.763V120.764V120.765V120.765V120.766V120.767V120.768V120.769V120.77V120.771V120.772V120.773V120.773V120.774V120.775V120.776V120.777V120.778V120.779V120.78V120.781V120.781V120.782V120.783V120.784V120.785V120.786V120.787V120.788V120.789V120.789V120.79V120.791V120.792V120.793V120.794V120.795V120.796V120.797V120.797V120.798V120.799V120.8V120.801V120.802V120.803V120.804V120.805V120.805V120.806V120.807V120.808V120.809V120.81V120.811V120.812V120.813V120.813V120.814V120.815V120.816V120.817V120.818V120.819V120.82V120.821V120.821V120.822V120.823V120.824V120.825V120.826V120.827V120.828V120.829V120.829V120.83V120.831V120.832V120.833V120.834V120.835V120.836V120.836V120.837V120.838V120.839V120.84V120.841V120.842V120.843V120.844V120.844V120.845V120.846V120.847V120.848V120.849V120.85V120.851V120.851V120.852V120.853V120.854V120.855V120.856V120.857V120.858V120.859V120.859V120.86V120.861V120.862V120.863V120.864V120.865V120.866V120.866V120.867V120.868V120.869V120.87V120.871V120.872V120.873V120.874V120.874V120.875V120.876V120.877V120.878V120.879V120.88V120.881V120.881V120.882V120.883V120.884V120.885V120.886V120.887V120.888V120.888V120.889V120.89V120.891V120.892V120.893V120.894V120.895V120.895V120.896V120.897V120.898V120.899V120.9V120.901V120.902V120.902V120.903V120.904V120.905V120.906V120.907V120.908V120.909V120.91V120.91V120.911V120.912V120.913V120.914V120.915V120.916V120.917V120.917V120.918V120.919V120.92V120.921V120.922V120.923V120.924V120.924V120.925V120.926V120.927V120.928V120.929V120.93V120.931V120.931V120.932V120.933V120.934V120.935V120.936V120.937V120.938V120.938V120.939V120.94V120.941V120.942V120.943V120.944V120.945V120.945V120.946V120.947V120.948V120.949V120.95V120.951V120.952V120.952V120.953V120.954V120.955V120.956V120.957V120.958V120.959V120.959V120.96V120.961V120.962V120.963V120.964V120.965V120.965V120.966V120.967V120.968V120.969V120.97V120.971V120.972V120.972V120.973V120.974V120.975V120.976V120.977V120.978V120.979V120.979V120.98V120.981V120.982V120.983V120.984V120.985V120.986V120.986V120.987V120.988V120.989V120.99V120.991V120.992V120.993V120.993V120.994V120.995V120.996V120.997V120.998V120.999V121V121V121.001V121.002V121.003V121.004V121.005V121.006V121.007V121.007V121.008V121.009V121.01V121.011V121.012V121.013V121.014V121.014V121.015V121.016V121.017V121.018V121.019V121.02C201.22 122.479 201.22 123.937 201.22 125.396C201.22 129.358 201.22 133.32 201.219 137.282C201.219 137.993 200.956 138.579 200.526 138.966C200.097 139.352 199.494 139.547 198.802 139.462C197.779 139.337 197.074 138.494 197.068 137.334C197.064 136.365 197.065 135.397 197.066 134.429C197.066 134.011 197.067 133.593 197.067 133.175V133.151V133.127V133.103V133.08V133.056V133.032V133.008V132.984V132.961V132.937V132.913V132.889V132.865V132.842V132.818V132.794V132.77V132.747V132.723V132.699V132.675V132.651V132.628V132.604V132.58V132.556V132.532V132.509V132.485V132.461V132.437V132.414V132.39V132.366V132.342V132.318V132.295V132.271V132.247V132.223V132.199V132.176V132.152V132.128V132.104V132.081V132.057V132.033V132.009V131.985V131.962V131.938V131.914V131.89V131.866V131.843V131.819V131.795V131.771V131.748V131.724V131.7V131.676V131.652V131.629V131.605V131.581V131.557V131.533V131.51V131.486V131.462V131.438V131.415V131.391V131.367V131.343V131.319V131.296V131.272V131.248V131.224V131.2V131.177V131.153V131.129V131.105V131.082V131.058V131.034V131.01V130.986V130.963V130.939V130.915V130.891V130.867V130.844V130.82V130.796V130.772V130.749V130.725V130.701V130.677V130.653V130.63V130.606V130.582V130.558V130.534V130.511V130.487V130.463V130.439V130.416V130.392V130.368V130.344V130.32V130.297V130.273V130.249V130.225V130.201V130.178V130.154V130.13V130.106V130.083V130.059V130.035V130.011V129.987V129.964V129.94V129.916V129.892V129.868V129.845V129.821V129.797V129.773V129.75V129.726V129.702V129.678V129.654V129.631V129.607V129.583V129.559V129.535V129.512V129.488V129.464V129.44V129.417V129.393V129.369V129.345V129.321V129.298V129.274V129.25V129.226V129.202V129.179V129.155V129.131V129.107V129.084V129.06V129.036V129.012V128.988V128.965V128.941V128.917V128.893V128.869V128.846V128.822V128.798V128.774V128.751V128.727V128.703V128.679V128.655V128.632V128.608V128.584V128.56V128.536V128.513V128.489V128.465V128.441V128.418V128.394V128.37V128.346V128.322V128.299V128.275V128.251V128.227V128.203V128.18V128.156V128.132V128.108V128.085V128.061V128.037V128.013V127.989V127.966V127.942V127.918V127.894V127.87V127.847V127.823V127.799V127.775V127.752V127.728V127.704V127.68V127.656V127.633V127.609V127.585V127.561V127.537V127.514V127.49V127.466V127.442V127.419V127.395V127.371V127.347V127.323V127.3V127.276V127.252V127.228V127.204V127.181V127.157V127.133V127.109V127.086V127.062V127.038V127.014V126.99V126.967V126.943V126.919V126.895V126.871V126.848V126.824V126.8V126.776V126.753V126.729V126.705V126.681V126.657V126.634V126.61V126.586V126.562V126.538V126.515V126.491V126.467V126.443V126.42V126.396V126.372V126.348V126.324V126.301V126.277V126.253V126.229V126.205V126.182V126.158V126.134V126.11V126.087V126.063V126.039V126.015V125.991V125.968V125.944V125.92V125.896V125.872V125.849V125.825V125.801V125.777V125.754V125.73V125.706V125.682V125.658V125.635V125.611V125.587V125.563V125.539V125.516V125.492V125.468V125.444V125.421V125.397V125.373V125.349V125.325V125.302V125.278V125.254V125.23V125.206V125.183V125.159V125.135V125.111V125.088V125.064V125.04V125.016V124.992V124.969V124.945V124.921V124.897V124.873V124.85V124.826V124.802V124.778V124.755V124.731V124.707V124.683V124.659V124.636V124.612V124.588V124.564V124.54V124.517V124.493V124.469V124.445V124.422V124.398V124.374V124.35V124.326V124.303V124.279V124.255V124.231V124.207V124.184V124.16V124.136V124.112V124.089V124.065V124.041V124.017V123.993V123.97V123.946V123.922V123.898V123.874V123.851V123.827V123.803V123.779V123.756V123.732V123.708V123.684V123.66V123.637V123.613V123.589V123.565V123.541V123.518V123.494V123.47V123.446V123.423V123.399V123.375V123.351V123.327V123.304V123.28V123.256V123.232V123.208V123.185V123.161V123.137V123.113V123.09V123.066V123.042V123.018V122.994V122.971V122.947V122.923V122.899V122.875V122.852V122.828V122.804V122.78V122.757V122.733V122.709V122.685V122.661V122.638V122.614V122.59V122.566V122.542V122.519V122.495V122.471V122.447V122.424V122.4V122.376V122.352V122.328V122.305V122.281V122.257V122.233V122.209V122.186V122.162V122.138V122.114V122.091V122.067V122.043V122.019V121.995V121.972V121.948V121.924V121.9V121.876V121.853V121.829V121.805V121.781V121.758V121.734V121.71V121.686V121.662V121.639V121.615V121.591V121.567V121.543V121.52V121.496V121.472V121.448V121.425V121.401V121.377V121.353V121.329V121.306V121.282V121.258V121.234V121.21V121.187V121.163V121.139V121.115V121.092V121.068V121.044V121.02V120.996V120.996V120.995V120.994V120.993V120.992V120.991V120.99V120.99V120.989V120.988V120.987V120.986V120.985V120.984V120.983V120.983V120.982V120.981V120.98V120.979V120.978V120.977V120.977V120.976V120.975V120.974V120.973V120.972V120.971V120.971V120.97V120.969V120.968V120.967V120.966V120.965V120.965V120.964V120.963V120.962V120.961V120.96V120.959V120.959V120.958V120.957V120.956V120.955V120.954V120.953V120.953V120.952V120.951V120.95V120.949V120.948V120.947V120.946V120.946V120.945V120.944V120.943V120.942V120.941V120.94V120.94V120.939V120.938V120.937V120.936V120.935V120.934V120.934V120.933V120.932V120.931V120.93V120.929V120.928V120.928V120.927V120.926V120.925V120.924V120.923V120.922V120.921V120.921V120.92V120.919V120.918V120.917V120.916V120.915V120.915V120.914V120.913V120.912V120.911V120.91V120.909V120.908V120.908V120.907V120.906V120.905V120.904V120.903V120.902V120.902V120.901V120.9V120.899V120.898V120.897V120.896V120.895V120.895V120.894V120.893V120.892V120.891V120.89V120.889V120.888V120.888V120.887V120.886V120.885V120.884V120.883V120.882V120.882V120.881V120.88V120.879V120.878V120.877V120.876V120.875V120.875V120.874V120.873V120.872V120.871V120.87V120.869V120.868V120.868V120.867V120.866V120.865V120.864V120.863V120.862V120.861V120.86V120.86V120.859V120.858V120.857V120.856V120.855V120.854V120.853V120.853V120.852V120.851V120.85V120.849V120.848V120.847V120.846V120.846V120.845V120.844V120.843V120.842V120.841V120.84V120.839V120.838V120.838V120.837V120.836V120.835V120.834V120.833V120.832V120.831V120.83V120.83V120.829V120.828V120.827V120.826V120.825V120.824V120.823V120.822V120.822V120.821V120.82V120.819V120.818V120.817V120.816V120.815V120.814V120.814V120.813V120.812V120.811V120.81V120.809V120.808V120.807V120.806V120.805V120.805V120.804V120.803V120.802V120.801V120.8V120.799V120.798V120.797V120.797V120.796V120.795V120.794V120.793V120.792V120.791V120.79V120.789V120.788V120.787V120.787V120.786V120.785V120.784V120.783V120.782V120.781V120.78V120.779V120.778V120.778V120.777V120.776V120.775V120.774V120.773V120.772V120.771V120.77V120.769V120.768V120.768V120.767V120.766V120.765V120.764V120.763V120.762V120.761V120.76V120.759V120.758V120.757V120.757V120.756V120.755V120.754V120.753V120.752V120.751V120.75V120.749V120.748V120.747V120.746V120.745V120.745V120.744V120.743V120.742V120.741V120.74V120.739V120.738V120.737V120.736V120.735V120.734V120.733V120.733V120.732V120.731V120.73V120.729V120.728V120.727V120.726V120.725V120.724V120.723V120.722V120.721V120.72V120.719V120.719V120.718V120.717V120.716V120.715V120.714V120.713V120.712V120.711V120.71V120.709V120.708V120.707V120.706V120.705V120.704V120.703V120.703V120.702V120.701V120.7V120.699V120.698V120.697V120.696V120.695V120.694V120.693V120.692V120.691V120.69V120.689V120.688V120.687V120.686V120.685V120.684V120.684V120.683V120.682V120.681V120.68V120.679V120.678V120.677V120.676V120.675V120.674V120.673V120.672V120.671V120.67V120.669V120.668V120.667V120.666V120.665V120.664V120.663V120.662V120.661V120.66V120.659V120.658V120.657V120.657V120.656V120.655V120.654V120.653V120.652V120.651V120.65V120.649V120.648V120.647V120.646V120.645V120.644V120.643V120.642V120.641V120.64V120.639V120.638V120.637V120.636V120.635V120.634V120.633V120.632V120.631V120.63V120.629V120.628V120.627V120.626V120.625V120.624V120.623V120.622V120.621V120.62V120.619V120.618V120.617V120.616V120.615V120.614V120.613V120.612V120.611V120.61V120.609V120.608V120.607V120.606V120.605V120.604V120.603V120.602V120.601V120.6V120.599V120.598V120.597V120.596V120.595V120.594V120.593V120.592V120.591V120.59V120.589V120.588V120.587V120.586V120.585V120.584V120.583V120.582V120.581V120.58V120.579V120.578V120.577V120.576V120.575V120.574V120.573V120.572V120.571V120.569V120.568V120.567V120.566V120.565V120.564V120.563V120.562V120.561V120.56V120.559V120.558V120.557V120.556V120.555V120.554V120.553V120.552V120.551V120.55V120.549V120.548V120.547V120.546V120.545V120.543V120.542V120.541V120.54V120.539V120.538V120.537V120.536V120.535V120.534V120.533V120.532V120.531V120.53V120.529V120.528V120.527V120.526V120.524V120.523V120.522V120.521V120.421M201.22 120.562L197.067 120.421M197.067 120.421H196.967M197.067 120.421H196.967M196.967 120.421H196.966M196.967 120.421H196.966M201.433 120.526L201.433 120.426L201.433 120.426L201.433 120.526ZM201.433 120.526C201.419 120.526 201.405 120.531 201.381 120.54C201.366 120.546 201.346 120.553 201.32 120.562L205.46 116.075C206.741 116.076 207.686 117.04 207.682 118.319C207.679 119.582 206.744 120.514 205.464 120.52C204.601 120.524 203.739 120.525 202.876 120.525C202.395 120.525 201.914 120.525 201.433 120.526ZM196.966 120.421H196.965M196.966 120.421H196.965M196.965 120.421H196.964M196.965 120.421H196.964M196.964 120.421H196.963M196.964 120.421H196.963M196.963 120.421H196.962M196.963 120.421H196.962M196.962 120.421H196.961M196.962 120.421H196.961M196.961 120.421H196.96M196.961 120.421H196.96M196.96 120.421H196.959M196.96 120.421H196.959M196.959 120.421H196.959M196.959 120.421H196.959M196.959 120.421H196.958M196.959 120.421H196.958M196.958 120.421H196.957M196.958 120.421H196.957M196.957 120.421H196.956M196.957 120.421H196.956M196.956 120.421H196.955M196.956 120.421H196.955M196.955 120.421H196.954M196.955 120.421H196.954M196.954 120.421H196.953M196.954 120.421H196.953M196.953 120.421H196.952M196.953 120.421H196.952M196.952 120.421H196.951M196.952 120.421H196.951M196.951 120.421H196.95M196.951 120.421H196.95M196.95 120.421H196.949M196.95 120.421H196.949M196.949 120.421H196.948M196.949 120.421H196.948M196.948 120.421H196.948M196.948 120.421H196.948M196.948 120.421H196.947M196.948 120.421H196.947M196.947 120.421H196.946M196.947 120.421H196.946M196.946 120.421H196.945M196.946 120.421H196.945M196.945 120.421H196.944M196.945 120.421H196.944M196.944 120.421H196.943M196.944 120.421H196.943M196.943 120.421H196.942M196.943 120.421H196.942M196.942 120.421H196.941M196.942 120.421H196.941M196.941 120.421H196.94M196.941 120.421H196.94M196.94 120.421H196.939M196.94 120.421H196.939M196.939 120.421H196.939M196.939 120.421H196.939M196.939 120.421H196.938M196.939 120.421H196.938M196.938 120.421H196.937M196.938 120.421H196.937M196.937 120.421H196.936M196.937 120.421H196.936M196.936 120.421H196.935M196.936 120.421H196.935M196.935 120.421H196.934M196.935 120.421H196.934M196.934 120.421H196.933M196.934 120.421H196.933M196.933 120.421H196.932M196.933 120.421H196.932M196.932 120.421H196.931M196.932 120.421H196.931M196.931 120.421H196.93M196.931 120.421H196.93M196.93 120.421H196.93M196.93 120.421H196.93M196.93 120.421H196.929M196.93 120.421H196.929M196.929 120.421H196.928M196.929 120.421H196.928M196.928 120.421H196.927M196.928 120.421H196.927M196.927 120.421H196.926M196.927 120.421H196.926M196.926 120.421H196.925M196.926 120.421H196.925M196.925 120.421H196.924M196.925 120.421H196.924M196.924 120.421H196.923M196.924 120.421H196.923M196.923 120.421H196.922M196.923 120.421H196.922M196.922 120.421H196.922M196.922 120.421H196.922M196.922 120.421H196.921M196.922 120.421H196.921M196.921 120.421H196.92M196.921 120.421H196.92M196.92 120.421H196.919M196.92 120.421H196.919M196.919 120.421H196.918M196.919 120.421H196.918M196.918 120.421H196.917M196.918 120.421H196.917M196.917 120.421H196.916M196.917 120.421H196.916M196.916 120.421H196.915M196.916 120.421H196.915M196.915 120.421H196.914M196.915 120.421H196.914M196.914 120.421H196.914M196.914 120.421H196.914M196.914 120.421H196.913M196.914 120.421H196.913M196.913 120.421H196.912M196.913 120.421H196.912M196.912 120.421H196.911M196.912 120.421H196.911M196.911 120.421H196.91M196.911 120.421H196.91M196.91 120.421H196.909M196.91 120.421H196.909M196.909 120.421H196.908M196.909 120.421H196.908M196.908 120.421H196.907M196.908 120.421H196.907M196.907 120.421H196.907M196.907 120.421H196.907M196.907 120.421H196.906M196.907 120.421H196.906M196.906 120.421H196.905M196.906 120.421H196.905M196.905 120.421H196.904M196.905 120.421H196.904M196.904 120.421H196.903M196.904 120.421H196.903M196.903 120.421H196.902M196.903 120.421H196.902M196.902 120.421H196.901M196.902 120.421H196.901M196.901 120.421H196.901M196.901 120.421H196.901M196.901 120.421H196.9M196.901 120.421H196.9M196.9 120.421H196.899M196.9 120.421H196.899M196.899 120.421H196.898M196.899 120.421H196.898M196.898 120.421H196.897M196.898 120.421H196.897M196.897 120.421H196.896M196.897 120.421H196.896M196.896 120.421H196.895M196.896 120.421H196.895M196.895 120.421H196.894M196.895 120.421H196.894M196.894 120.421H196.894M196.894 120.421H196.894M196.894 120.421H196.893M196.894 120.421H196.893M196.893 120.421H196.892M196.893 120.421H196.892M196.892 120.421H196.891M196.892 120.421H196.891M196.891 120.421H196.89M196.891 120.421H196.89M196.89 120.421H196.889M196.89 120.421H196.889M196.889 120.421H196.888M196.889 120.421H196.888M196.888 120.421H196.888M196.888 120.421H196.888M196.888 120.421H196.887M196.888 120.421H196.887M196.887 120.421H196.886M196.887 120.421H196.886M196.886 120.421H196.885M196.886 120.421H196.885M196.885 120.421H196.884M196.885 120.421H196.884M196.884 120.421H196.883M196.884 120.421H196.883M196.883 120.421H196.882M196.883 120.421H196.882M196.882 120.421H196.882M196.882 120.421H196.882M196.882 120.421H196.881M196.882 120.421H196.881M196.881 120.421H196.88M196.881 120.421H196.88M196.88 120.421H196.879M196.88 120.421H196.879M196.879 120.421H196.878M196.879 120.421H196.878M196.878 120.421H196.877M196.878 120.421H196.877M196.877 120.421H196.877M196.877 120.421H196.877M196.877 120.421H196.876M196.877 120.421H196.876M196.876 120.421H196.875M196.876 120.421H196.875M196.875 120.421H196.874M196.875 120.421H196.874M196.874 120.421H196.873M196.874 120.421H196.873M196.873 120.421H196.872M196.873 120.421H196.872M196.872 120.421H196.871M196.872 120.421H196.871M196.871 120.421H196.871M196.871 120.421H196.871M196.871 120.421H196.87M196.871 120.421H196.87M196.87 120.421H196.869M196.87 120.421H196.869M196.869 120.421H196.868M196.869 120.421H196.868M196.868 120.421H196.867M196.868 120.421H196.867M196.867 120.421H196.866M196.867 120.421H196.866M196.866 120.421H196.866M196.866 120.421H196.866M196.866 120.421H196.865M196.866 120.421H196.865M196.865 120.421H196.864M196.865 120.421H196.864M196.864 120.421H196.863M196.864 120.421H196.863M196.863 120.421H196.862M196.863 120.421H196.862M196.862 120.421H196.861M196.862 120.421H196.861M196.861 120.421H196.861M196.861 120.421H196.861M196.861 120.421H196.86M196.861 120.421H196.86M196.86 120.421H196.859M196.86 120.421H196.859M196.859 120.421H196.858M196.859 120.421H196.858M196.858 120.421H196.857M196.858 120.421H196.857M196.857 120.421H196.856M196.857 120.421H196.856M196.856 120.421H196.856M196.856 120.421H196.856M196.856 120.421H196.855M196.856 120.421H196.855M196.855 120.421H196.854M196.855 120.421H196.854M196.854 120.421H196.853M196.854 120.421H196.853M196.853 120.421H196.852M196.853 120.421H196.852M196.852 120.421H196.851M196.852 120.421H196.851M196.851 120.421H196.851M196.851 120.421H196.851M196.851 120.421H196.85M196.851 120.421H196.85M196.85 120.421H196.849M196.85 120.421H196.849M196.849 120.421H196.848M196.849 120.421H196.848M196.848 120.421H196.847M196.848 120.421H196.847M196.847 120.421H196.846M196.847 120.421H196.846M196.846 120.421H196.846M196.846 120.421H196.846M196.846 120.421H196.845M196.846 120.421H196.845M196.845 120.421H196.844M196.845 120.421H196.844M196.844 120.421H196.843M196.844 120.421H196.843M196.843 120.421H196.842M196.843 120.421H196.842M196.842 120.421H196.842M196.842 120.421H196.842M196.842 120.421H196.841M196.842 120.421H196.841M196.841 120.421H196.84M196.841 120.421H196.84M196.84 120.421H196.839M196.84 120.421H196.839M196.839 120.421H196.838M196.839 120.421H196.838M196.838 120.421H196.837M196.838 120.421H196.837M196.837 120.421H196.837M196.837 120.421H196.837M196.837 120.421H196.836M196.837 120.421H196.836M196.836 120.421H196.835M196.836 120.421H196.835M196.835 120.421H196.834M196.835 120.421H196.834M196.834 120.421H196.833M196.834 120.421H196.833M196.833 120.421H196.833M196.833 120.421H196.833M196.833 120.421H196.832M196.833 120.421H196.832M196.832 120.421H196.831M196.832 120.421H196.831M196.831 120.421H196.83M196.831 120.421H196.83M196.83 120.421H196.829M196.83 120.421H196.829M196.829 120.421H196.828M196.829 120.421H196.828M196.828 120.421H196.828M196.828 120.421H196.828M196.828 120.421H196.827M196.828 120.421H196.827M196.827 120.421H196.826M196.827 120.421H196.826M196.826 120.421H196.825M196.826 120.421H196.825M196.825 120.421H196.824M196.825 120.421H196.824M196.824 120.421H196.824M196.824 120.421H196.824M196.824 120.421H196.823M196.824 120.421H196.823M196.823 120.421H196.822M196.823 120.421H196.822M196.822 120.421H196.821M196.822 120.421H196.821M196.821 120.421H196.82M196.821 120.421H196.82M196.82 120.421H196.82M196.82 120.421H196.82M196.82 120.421H196.819M196.82 120.421H196.819M196.819 120.421H196.818M196.819 120.421H196.818M196.818 120.421H196.817M196.818 120.421H196.817M196.817 120.421H196.816M196.817 120.421H196.816M196.816 120.421H196.816M196.816 120.421H196.816M196.816 120.421H196.815M196.816 120.421H196.815M196.815 120.421H196.814M196.815 120.421H196.814M196.814 120.421H196.813M196.814 120.421H196.813M196.813 120.421H196.812M196.813 120.421H196.812M196.812 120.421H196.812M196.812 120.421H196.812M196.812 120.421H196.811M196.812 120.421H196.811M196.811 120.421H196.81M196.811 120.421H196.81M196.81 120.421H196.809M196.81 120.421H196.809M196.809 120.421H196.808M196.809 120.421H196.808M196.808 120.421H196.808M196.808 120.421H196.808M196.808 120.421H196.807M196.808 120.421H196.807M196.807 120.421H196.806M196.807 120.421H196.806M196.806 120.421H196.805M196.806 120.421H196.805M196.805 120.421H196.804M196.805 120.421H196.804M196.804 120.421H196.804M196.804 120.421H196.804M196.804 120.421H196.803M196.804 120.421H196.803M196.803 120.421H196.802M196.803 120.421H196.802M196.802 120.421H196.801M196.802 120.421H196.801M196.801 120.421H196.801M196.801 120.421H196.801M196.801 120.421H196.8M196.801 120.421H196.8M196.8 120.421H196.799M196.8 120.421H196.799M196.799 120.421H196.798M196.799 120.421H196.798M196.798 120.421H196.797M196.798 120.421H196.797M196.797 120.421H196.797M196.797 120.421H196.797M196.797 120.421H196.796M196.797 120.421H196.796M196.796 120.421H196.795M196.796 120.421H196.795M196.795 120.421H196.794M196.795 120.421H196.794M196.794 120.421H196.793M196.794 120.421H196.793M196.793 120.421H196.793M196.793 120.421H196.793M196.793 120.421H196.792M196.793 120.421H196.792M196.792 120.421H196.791M196.792 120.421H196.791M196.791 120.421H196.79M196.791 120.421H196.79M196.79 120.421H196.79M196.79 120.421H196.79M196.79 120.421H196.789M196.79 120.421H196.789M196.789 120.421H196.788M196.789 120.421H196.788M196.788 120.421H196.787M196.788 120.421H196.787M196.787 120.421H196.786M196.787 120.421H196.786M196.786 120.421H196.786M196.786 120.421H196.786M196.786 120.421H196.785M196.786 120.421H196.785M196.785 120.421H196.784M196.785 120.421H196.784M196.784 120.421H196.783M196.784 120.421H196.783M196.783 120.421H196.783M196.783 120.421H196.783M196.783 120.421H196.782M196.783 120.421H196.782M196.782 120.421H196.781M196.782 120.421H196.781M196.781 120.421H196.78M196.781 120.421H196.78M196.78 120.421H196.779M196.78 120.421H196.779M196.779 120.421H196.779M196.779 120.421H196.779M196.779 120.421H196.778M196.779 120.421H196.778M196.778 120.421H196.777M196.778 120.421H196.777M196.777 120.421H196.776M196.777 120.421H196.776M196.776 120.421H196.776M196.776 120.421H196.776M196.776 120.421H196.775M196.776 120.421H196.775M196.775 120.421H196.774M196.775 120.421H196.774M196.774 120.421H196.773M196.774 120.421H196.773M196.773 120.421H196.772M196.773 120.421H196.772M196.772 120.421H196.772M196.772 120.421H196.772M196.772 120.421H196.771M196.772 120.421H196.771M196.771 120.421H196.77M196.771 120.421H196.77M196.77 120.421H196.769M196.77 120.421H196.769M196.769 120.421H196.769M196.769 120.421H196.769M196.769 120.421H196.768M196.769 120.421H196.768M196.768 120.421H196.767M196.768 120.421H196.767M196.767 120.421H196.766M196.767 120.421H196.766M196.766 120.421H196.766M196.766 120.421H196.766M196.766 120.421H196.765M196.766 120.421H196.765M196.765 120.421H196.764M196.765 120.421H196.764M196.764 120.421H196.763M196.764 120.421H196.763M196.763 120.421H196.762M196.763 120.421H196.762M196.762 120.421H196.762M196.762 120.421H196.762M196.762 120.421H196.761M196.762 120.421H196.761M196.761 120.421H196.76M196.761 120.421H196.76M196.76 120.421H196.759M196.76 120.421H196.759M196.759 120.421H196.759M196.759 120.421H196.759M196.759 120.421H196.758M196.759 120.421H196.758M196.758 120.421H196.757M196.758 120.421H196.757M196.757 120.421H196.756M196.757 120.421H196.756M196.756 120.421H196.756M196.756 120.421H196.756M196.756 120.421H196.755M196.756 120.421H196.755M196.755 120.421H196.754M196.755 120.421H196.754M196.754 120.421H196.753M196.754 120.421H196.753M196.753 120.421H196.753M196.753 120.421H196.753M196.753 120.421H196.752M196.753 120.421H196.752M196.752 120.421H196.751M196.752 120.421H196.751M196.751 120.421H196.75M196.751 120.421H196.75M196.75 120.421H196.75M196.75 120.421H196.75M196.75 120.421H196.749M196.75 120.421H196.749M196.749 120.421H196.748M196.749 120.421H196.748M196.748 120.421H196.747M196.748 120.421H196.747M196.747 120.421H196.747M196.747 120.421H196.747M196.747 120.421H196.746M196.747 120.421H196.746M196.746 120.421H196.745M196.746 120.421H196.745M196.745 120.421H196.744M196.745 120.421H196.744M196.744 120.421H196.743M196.744 120.421H196.743M196.743 120.421H196.743M196.743 120.421H196.743M196.743 120.421H196.742M196.743 120.421H196.742M196.742 120.421H196.741M196.742 120.421H196.741M196.741 120.421H196.74M196.741 120.421H196.74M196.74 120.421H196.74M196.74 120.421H196.74M196.74 120.421H196.739M196.74 120.421H196.739M196.739 120.421H196.738M196.739 120.421H196.738M196.738 120.421H196.737M196.738 120.421H196.737M196.737 120.421H196.737M196.737 120.421H196.737M196.737 120.421H196.736M196.737 120.421H196.736M196.736 120.421H196.735M196.736 120.421H196.735M196.735 120.421H196.734M196.735 120.421H196.734M196.734 120.421H196.734M196.734 120.421H196.734M196.734 120.421H196.733M196.734 120.421H196.733M196.733 120.421H196.732M196.733 120.421H196.732M196.732 120.421H196.731M196.732 120.421H196.731M196.731 120.421H196.731M196.731 120.421H196.731M196.731 120.421H196.73M196.731 120.421H196.73M196.73 120.421H196.729M196.73 120.421H196.729M196.729 120.421H196.728M196.729 120.421H196.728M196.728 120.421H196.728M196.728 120.421H196.728M196.728 120.421H196.727M196.728 120.421H196.727M196.727 120.421H196.726M196.727 120.421H196.726M196.726 120.421H196.726M196.726 120.421H196.726M196.726 120.421H196.725M196.726 120.421H196.725M196.725 120.421H196.724M196.725 120.421H196.724M196.724 120.421H196.723M196.724 120.421H196.723M196.723 120.421H196.723M196.723 120.421H196.723M196.723 120.421H196.722M196.723 120.421H196.722M196.722 120.421H196.721M196.722 120.421H196.721M196.721 120.421H196.72M196.721 120.421H196.72M196.72 120.421H196.72M196.72 120.421H196.72M196.72 120.421H196.719M196.72 120.421H196.719M196.719 120.421H196.718M196.719 120.421H196.718M196.718 120.421H196.717M196.718 120.421H196.717M196.717 120.421H196.717M196.717 120.421H196.717M196.717 120.421H196.716M196.717 120.421H196.716M196.716 120.421H196.715M196.716 120.421H196.715M196.715 120.421H196.714M196.715 120.421H196.714M196.714 120.421H196.714M196.714 120.421H196.714M196.714 120.421H196.713M196.714 120.421H196.713M196.713 120.421H196.712M196.713 120.421H196.712M196.712 120.421H196.711M196.712 120.421H196.711M196.711 120.421H196.711M196.711 120.421H196.711M196.711 120.421H196.71M196.711 120.421H196.71M196.71 120.421H196.709M196.71 120.421H196.709M196.709 120.421H196.708M196.709 120.421H196.708M196.708 120.421H196.708M196.708 120.421H196.708M196.708 120.421H196.707M196.708 120.421H196.707M196.707 120.421H196.706M196.707 120.421H196.706M196.706 120.421H196.706M196.706 120.421H196.706M196.706 120.421H196.705M196.706 120.421H196.705M196.705 120.421H196.704M196.705 120.421H196.704M196.704 120.421H196.703M196.704 120.421H196.703M196.703 120.421H196.703M196.703 120.421H196.703M196.703 120.421H196.702M196.703 120.421H196.702M196.702 120.421H196.701M196.702 120.421H196.701M196.701 120.421H196.7M196.701 120.421H196.7M196.7 120.421H196.7M196.7 120.421H196.7M196.7 120.421H196.699M196.7 120.421H196.699M196.699 120.421H196.698M196.699 120.421H196.698M196.698 120.421H196.697M196.698 120.421H196.697M196.697 120.421H196.697M196.697 120.421H196.697M196.697 120.421H196.696M196.697 120.421H196.696M196.696 120.421H196.695M196.696 120.421H196.695M196.695 120.421H196.695M196.695 120.421H196.695M196.695 120.421H196.694M196.695 120.421H196.694M196.694 120.421H196.693M196.694 120.421H196.693M196.693 120.421H196.692M196.693 120.421H196.692M196.692 120.421H196.692M196.692 120.421H196.692M196.692 120.421H196.691M196.692 120.421H196.691M196.691 120.421H196.69M196.691 120.421H196.69M196.69 120.421H196.689M196.69 120.421H196.689M196.689 120.421H196.689M196.689 120.421H196.689M196.689 120.421H196.688M196.689 120.421H196.688M196.688 120.421H196.687M196.688 120.421H196.687M196.687 120.421H196.687M196.687 120.421H196.687M196.687 120.421H196.686M196.687 120.421H196.686M196.686 120.421H196.685M196.686 120.421H196.685M196.685 120.421H196.684M196.685 120.421H196.684M196.684 120.421H196.684M196.684 120.421H196.684M196.684 120.421H196.683M196.684 120.421H196.683M196.683 120.421H196.682M196.683 120.421H196.682M196.682 120.421H196.681M196.682 120.421H196.681M196.681 120.421H196.681M196.681 120.421H196.681M196.681 120.421H196.68M196.681 120.421H196.68M196.68 120.421H196.679M196.68 120.421H196.679M196.679 120.421H196.679M196.679 120.421H196.679M196.679 120.421H196.678M196.679 120.421H196.678M196.678 120.421H196.677M196.678 120.421H196.677M196.677 120.421H196.676M196.677 120.421H196.676M196.676 120.421H196.676M196.676 120.421H196.676M196.676 120.421H196.675M196.676 120.421H196.675M196.675 120.421H196.674M196.675 120.421H196.674M196.674 120.421H196.674M196.674 120.421H196.674M196.674 120.421H196.673M196.674 120.421H196.673M196.673 120.421H196.672M196.673 120.421H196.672M196.672 120.421H196.671M196.672 120.421H196.671M196.671 120.421H196.671M196.671 120.421H196.671M196.671 120.421H196.67M196.671 120.421H196.67M196.67 120.421H196.669M196.67 120.421H196.669M196.669 120.421H196.668M196.669 120.421H196.668M196.668 120.421H196.668M196.668 120.421H196.668M196.668 120.421H196.667M196.668 120.421H196.667M196.667 120.421H196.666M196.667 120.421H196.666M196.666 120.421H196.666M196.666 120.421H196.666M196.666 120.421H196.665M196.666 120.421H196.665M196.665 120.421H196.664M196.665 120.421H196.664M196.664 120.421H196.663M196.664 120.421H196.663M196.663 120.421H196.663M196.663 120.421H196.663M196.663 120.421H196.662M196.663 120.421H196.662M196.662 120.421H196.661M196.662 120.421H196.661M196.661 120.421H196.661M196.661 120.421H196.661M196.661 120.421H196.66M196.661 120.421H196.66M196.66 120.421H196.659M196.66 120.421H196.659M196.659 120.421H196.658M196.659 120.421H196.658M196.658 120.421H196.658M196.658 120.421H196.658M196.658 120.421H196.657M196.658 120.421H196.657M196.657 120.421H196.656M196.657 120.421H196.656M196.656 120.421H196.656M196.656 120.421H196.656M196.656 120.421H196.655M196.656 120.421H196.655M196.655 120.421H196.654M196.655 120.421H196.654M196.654 120.421H196.653M196.654 120.421H196.653M196.653 120.421H196.653M196.653 120.421H196.653M196.653 120.421H196.652M196.653 120.421H196.652M196.652 120.421H196.651M196.652 120.421H196.651M196.651 120.421H196.651M196.651 120.421H196.651M196.651 120.421H196.65M196.651 120.421H196.65M196.65 120.421H196.649M196.65 120.421H196.649M196.649 120.421H196.648M196.649 120.421H196.648M196.648 120.421H196.648M196.648 120.421H196.648M196.648 120.421H196.647M196.648 120.421H196.647M196.647 120.421H196.646M196.647 120.421H196.646M196.646 120.421H196.646M196.646 120.421H196.646M196.646 120.421H196.645M196.646 120.421H196.645M196.645 120.421H196.644M196.645 120.421H196.644M196.644 120.421H196.643M196.644 120.421H196.643M196.643 120.421H196.643M196.643 120.421H196.643M196.643 120.421H196.642M196.643 120.421H196.642M196.642 120.421H196.641M196.642 120.421H196.641M196.641 120.421H196.641M196.641 120.421H196.641M196.641 120.421H196.64M196.641 120.421H196.64M196.64 120.421H196.639M196.64 120.421H196.639M196.639 120.421H196.638M196.639 120.421H196.638M196.638 120.421H196.638M196.638 120.421H196.638M196.638 120.421H196.637M196.638 120.421H196.637M196.637 120.421H196.636M196.637 120.421H196.636M196.636 120.421H196.636M196.636 120.421H196.636M196.636 120.421H196.635M196.636 120.421H196.635M196.635 120.421H196.634M196.635 120.421H196.634M196.634 120.421H196.633M196.634 120.421H196.633M196.633 120.421H196.633M196.633 120.421H196.633M196.633 120.421H196.632M196.633 120.421H196.632M196.632 120.421H196.631M196.632 120.421H196.631M196.631 120.421H196.631M196.631 120.421H196.631M196.631 120.421H196.63M196.631 120.421H196.63M196.63 120.421H196.629M196.63 120.421H196.629M196.629 120.421H196.628M196.629 120.421H196.628M196.628 120.421H196.628M196.628 120.421H196.628M196.628 120.421H196.627M196.628 120.421H196.627M196.627 120.421H196.626M196.627 120.421H196.626M196.626 120.421H196.626M196.626 120.421H196.626M196.626 120.421H196.625M196.626 120.421H196.625M196.625 120.421H196.624M196.625 120.421H196.624M196.624 120.421H196.623M196.624 120.421H196.623M196.623 120.421H196.623M196.623 120.421H196.623M196.623 120.421H196.622M196.623 120.421H196.622M196.622 120.421H196.621M196.622 120.421H196.621M196.621 120.421H196.621M196.621 120.421H196.621M196.621 120.421H196.62M196.621 120.421H196.62M196.62 120.421H196.619M196.62 120.421H196.619M196.619 120.421H196.619M196.619 120.421H196.619M196.619 120.421H196.618M196.619 120.421H196.618M196.618 120.421H196.617M196.618 120.421H196.617M196.617 120.421H196.616M196.617 120.421H196.616M196.616 120.421H196.616M196.616 120.421H196.616M196.616 120.421H196.615M196.616 120.421H196.615M196.615 120.421H196.614M196.615 120.421H196.614M196.614 120.421H196.614M196.614 120.421H196.614M196.614 120.421H196.613M196.614 120.421H196.613M196.613 120.421H196.612M196.613 120.421H196.612M196.612 120.421H196.611M196.612 120.421H196.611M196.611 120.421H196.611M196.611 120.421H196.611M196.611 120.421H196.61M196.611 120.421H196.61M196.61 120.421H196.609M196.61 120.421H196.609M196.609 120.421H196.609M196.609 120.421H196.609M196.609 120.421H196.608M196.609 120.421H196.608M196.608 120.421H196.607M196.608 120.421H196.607M196.607 120.421H196.607M196.607 120.421H196.607M196.607 120.421H196.606M196.607 120.421H196.606M196.606 120.421H196.605M196.606 120.421H196.605M196.605 120.421H196.604M196.605 120.421H196.604M196.604 120.421H196.604M196.604 120.421H196.604M196.604 120.421H196.603M196.604 120.421H196.603M196.603 120.421H196.602M196.603 120.421H196.602M196.602 120.421H196.602M196.602 120.421H196.602M196.602 120.421H196.601M196.602 120.421H196.601M196.601 120.421H196.6M196.601 120.421H196.6M196.6 120.421H196.599M196.6 120.421H196.599M196.599 120.421H196.599M196.599 120.421H196.599M196.599 120.421H196.598M196.599 120.421H196.598M196.598 120.421H196.597M196.598 120.421H196.597M196.597 120.421H196.597M196.597 120.421H196.597M196.597 120.421H196.596M196.597 120.421H196.596M196.596 120.421H196.595M196.596 120.421H196.595M196.595 120.421H196.595M196.595 120.421H196.595M196.595 120.421H196.594M196.595 120.421H196.594M196.594 120.421H196.593M196.594 120.421H196.593M196.593 120.421H196.592M196.593 120.421H196.592M196.592 120.421H196.592M196.592 120.421H196.592M196.592 120.421H196.591M196.592 120.421H196.591M196.591 120.421H196.59M196.591 120.421H196.59M196.59 120.421H196.59M196.59 120.421H196.59M196.59 120.421H196.589M196.59 120.421H196.589M196.589 120.421H196.588M196.589 120.421H196.588M196.588 120.421H196.588M196.588 120.421H196.588M196.588 120.421H196.587M196.588 120.421H196.587M196.587 120.421H196.586M196.587 120.421H196.586M196.586 120.421H196.585M196.586 120.421H196.585M196.585 120.421H196.585M196.585 120.421H196.585M196.585 120.421H196.584M196.585 120.421H196.584M196.584 120.421H196.583M196.584 120.421H196.583M196.583 120.421H196.583M196.583 120.421H196.583M196.583 120.421H196.582M196.583 120.421H196.582M196.582 120.421H196.581M196.582 120.421H196.581M196.581 120.421H196.58M196.581 120.421H196.58M196.58 120.421H196.58M196.58 120.421H196.58M196.58 120.421H196.579M196.58 120.421H196.579M196.579 120.421H196.578M196.579 120.421H196.578M196.578 120.421H196.578M196.578 120.421H196.578M196.578 120.421H196.577M196.578 120.421H196.577M196.577 120.421H196.576M196.577 120.421H196.576M196.576 120.421H196.576M196.576 120.421H196.576M196.576 120.421H196.575M196.576 120.421H196.575M196.575 120.421H196.574M196.575 120.421H196.574M196.574 120.421H196.573M196.574 120.421H196.573M196.573 120.421H196.573M196.573 120.421H196.573M196.573 120.421H196.572M196.573 120.421H196.572M196.572 120.421H196.571M196.572 120.421H196.571M196.571 120.421H196.571M196.571 120.421H196.571M196.571 120.421H196.57M196.571 120.421H196.57M196.57 120.421H196.569M196.57 120.421H196.569M196.569 120.421H196.569M196.569 120.421H196.569M196.569 120.421C196.191 120.421 195.814 120.422 195.437 120.422L196.569 120.421Z" stroke="url(#paint11_linear_5490_262)" stroke-width="0.2"/>
<path d="M154.557 127.863C154.557 131.023 154.56 134.182 154.556 137.342C154.554 138.315 154.022 139.105 153.163 139.44C152.299 139.777 151.306 139.551 150.687 138.871C150.322 138.469 150.133 137.986 150.132 137.443C150.129 131.036 150.126 124.629 150.134 118.223C150.135 116.996 151.096 116.077 152.324 116.076C153.601 116.075 154.552 117.013 154.555 118.309C154.562 121.494 154.557 124.678 154.557 127.863Z" fill="url(#paint12_linear_5490_262)"/>
<path d="M95.0703 119.594C95.1132 119.638 95.1885 119.679 95.194 119.728C95.2474 120.204 95.5399 120.524 95.8953 120.78C99.1585 123.128 102.422 125.476 105.698 127.807C106.489 128.371 107.116 128.338 107.896 127.78C109.68 126.504 111.462 125.225 113.242 123.944C114.251 123.217 114.987 122.273 115.372 121.076C115.507 120.659 115.558 120.214 115.615 119.942C115.615 120.984 115.691 122.192 115.595 123.386C115.478 124.858 114.749 126.073 113.584 126.947C111.645 128.403 109.667 129.808 107.688 131.209C107.044 131.665 106.363 131.546 105.732 131.129C105.086 130.702 104.444 130.266 103.816 129.812C101.21 127.934 98.6115 126.046 96.0082 124.164C95.5622 123.841 95.2099 123.46 95.1306 122.884C95.1325 121.948 95.1358 121.011 95.1334 120.075C95.1332 120.004 95.0923 119.933 95.0703 119.862C95.0703 119.773 95.0703 119.683 95.0703 119.594Z" fill="url(#paint13_linear_5490_262)"/>
<path d="M95.0704 127.17C95.1114 127.198 95.1852 127.223 95.1886 127.255C95.2456 127.786 95.5963 128.106 95.985 128.394C97.4807 129.501 98.9686 130.619 100.481 131.703C102.155 132.903 103.851 134.072 105.54 135.25C106.508 135.925 107.045 135.927 108.011 135.24C109.726 134.02 111.43 132.785 113.143 131.563C114.164 130.835 114.938 129.911 115.339 128.707C115.488 128.26 115.549 127.782 115.71 127.318C115.666 128.614 115.704 129.92 115.555 131.205C115.395 132.58 114.65 133.704 113.556 134.522C111.631 135.96 109.67 137.35 107.712 138.743C107.026 139.231 106.327 139.086 105.672 138.643C104.82 138.065 103.969 137.484 103.135 136.882C100.728 135.144 98.3306 133.395 95.9294 131.65C95.5002 131.338 95.1933 130.947 95.1269 130.398C95.1299 129.449 95.134 128.5 95.1329 127.552C95.1328 127.492 95.0921 127.432 95.0703 127.372C95.0704 127.304 95.0704 127.237 95.0704 127.17Z" fill="url(#paint14_linear_5490_262)"/>
<path d="M99.8838 119.345C99.9396 119.28 99.9683 119.231 100.011 119.201C101.049 118.464 102.069 117.698 103.134 117.002C104.236 116.283 105.453 115.86 106.784 115.862C108.025 115.864 109.151 116.264 110.171 116.954C110.664 117.288 111.142 117.657 111.58 118.062C112.287 118.716 112.36 119.881 111.797 120.665C111.672 120.84 111.541 120.851 111.376 120.739C111.146 120.584 110.919 120.426 110.686 120.277C108.33 118.775 105.975 118.792 103.62 120.279C103.245 120.516 102.875 120.759 102.494 120.983C102.417 121.028 102.271 121.045 102.205 121.002C101.47 120.507 100.745 119.999 100.018 119.493C99.9746 119.462 99.9443 119.413 99.8838 119.345Z" fill="url(#paint15_linear_5490_262)"/>
<defs>
<linearGradient id="paint0_linear_5490_262" x1="11.2241" y1="177.776" x2="60.1034" y2="181.759" gradientUnits="userSpaceOnUse">
<stop stop-color="#1A1B20"/>
<stop offset="0.328406" stop-color="#2B2C34"/>
<stop offset="0.453125" stop-color="#282931"/>
<stop offset="1" stop-color="#131419" stop-opacity="0.17"/>
</linearGradient>
<linearGradient id="paint1_linear_5490_262" x1="310.655" y1="181.035" x2="266.483" y2="184.293" gradientUnits="userSpaceOnUse">
<stop stop-color="#1A1B20"/>
<stop offset="0.328406" stop-color="#2B2C34"/>
<stop offset="0.453125" stop-color="#282931"/>
<stop offset="1" stop-color="#131419" stop-opacity="0.17"/>
</linearGradient>
<linearGradient id="paint2_linear_5490_262" x1="162.207" y1="0" x2="162.207" y2="215.069" gradientUnits="userSpaceOnUse">
<stop stop-color="#010105" stop-opacity="0.43"/>
<stop offset="1" stop-color="#0B0B0F" stop-opacity="0"/>
</linearGradient>
<radialGradient id="paint3_radial_5490_262" cx="0" cy="0" r="1" gradientUnits="userSpaceOnUse" gradientTransform="translate(162.207 280.233) rotate(-90) scale(168.365 179.802)">
<stop stop-color="#1C1D25" stop-opacity="0.8"/>
<stop offset="1" stop-color="#1C1D25" stop-opacity="0"/>
</radialGradient>
<radialGradient id="paint4_radial_5490_262" cx="0" cy="0" r="1" gradientUnits="userSpaceOnUse" gradientTransform="translate(162.207 245.121) rotate(90) scale(148.806 150.299)">
<stop stop-color="#1D1E23"/>
<stop offset="1" stop-color="#0D0D11"/>
</radialGradient>
<linearGradient id="paint5_linear_5490_262" x1="22.4505" y1="278.07" x2="297.623" y2="278.068" gradientUnits="userSpaceOnUse">
<stop stop-color="#3C3D45" stop-opacity="0"/>
<stop offset="0.507815" stop-color="#C2C2C2" stop-opacity="0.4"/>
<stop offset="1" stop-color="#3C3D45" stop-opacity="0"/>
</linearGradient>
<linearGradient id="paint6_linear_5490_262" x1="217.519" y1="115.862" x2="229.191" y2="138.927" gradientUnits="userSpaceOnUse">
<stop stop-color="#737485" stop-opacity="0.51"/>
<stop offset="1" stop-color="#6F7185"/>
</linearGradient>
<linearGradient id="paint7_linear_5490_262" x1="139.631" y1="119.787" x2="142.683" y2="146.194" gradientUnits="userSpaceOnUse">
<stop stop-color="#9FA1AD" stop-opacity="0.328"/>
<stop offset="1" stop-color="#8A8BA3" stop-opacity="0.8"/>
</linearGradient>
<linearGradient id="paint8_linear_5490_262" x1="183.665" y1="119.79" x2="187.599" y2="145.94" gradientUnits="userSpaceOnUse">
<stop stop-color="#9FA1AD" stop-opacity="0.328"/>
<stop offset="1" stop-color="#8A8BA3" stop-opacity="0.8"/>
</linearGradient>
<linearGradient id="paint9_linear_5490_262" x1="165.614" y1="119.961" x2="169.502" y2="146.296" gradientUnits="userSpaceOnUse">
<stop stop-color="#9FA1AD" stop-opacity="0.328"/>
<stop offset="1" stop-color="#8A8BA3" stop-opacity="0.8"/>
</linearGradient>
<linearGradient id="paint10_linear_5490_262" x1="199.168" y1="116.076" x2="199.168" y2="139.585" gradientUnits="userSpaceOnUse">
<stop stop-color="#646571" stop-opacity="0.51"/>
<stop offset="1" stop-color="#797A87"/>
</linearGradient>
<linearGradient id="paint11_linear_5490_262" x1="199.048" y1="134.578" x2="215.599" y2="157.599" gradientUnits="userSpaceOnUse">
<stop stop-color="#4F555F"/>
<stop offset="1" stop-color="#464E53" stop-opacity="0"/>
</linearGradient>
<linearGradient id="paint12_linear_5490_262" x1="152.962" y1="119.789" x2="163.181" y2="141.779" gradientUnits="userSpaceOnUse">
<stop stop-color="#9FA1AD" stop-opacity="0.328"/>
<stop offset="1" stop-color="#8A8BA3" stop-opacity="0.8"/>
</linearGradient>
<linearGradient id="paint13_linear_5490_262" x1="102.512" y1="122.661" x2="102.902" y2="131.608" gradientUnits="userSpaceOnUse">
<stop stop-color="#7A7C96" stop-opacity="0.567"/>
<stop offset="1" stop-color="#898BA3" stop-opacity="0.621"/>
</linearGradient>
<linearGradient id="paint14_linear_5490_262" x1="102.536" y1="130.23" x2="102.923" y2="139.155" gradientUnits="userSpaceOnUse">
<stop stop-color="#7A7C96" stop-opacity="0.567"/>
<stop offset="1" stop-color="#898BA3" stop-opacity="0.621"/>
</linearGradient>
<linearGradient id="paint15_linear_5490_262" x1="104.329" y1="117.193" x2="104.451" y2="121.077" gradientUnits="userSpaceOnUse">
<stop stop-color="#7A7C96" stop-opacity="0.567"/>
<stop offset="1" stop-color="#898BA3" stop-opacity="0.621"/>
</linearGradient>
</defs>
</svg>
